G04 #@! TF.GenerationSoftware,KiCad,Pcbnew,10.0.1*
G04 #@! TF.CreationDate,2026-05-24T07:37:45+08:00*
G04 #@! TF.ProjectId,ESPrinkler Retic PCB,45535072-696e-46b6-9c65-722052657469,rev?*
G04 #@! TF.SameCoordinates,Original*
G04 #@! TF.FileFunction,Copper,L2,Bot*
G04 #@! TF.FilePolarity,Positive*
%FSLAX46Y46*%
G04 Gerber Fmt 4.6, Leading zero omitted, Abs format (unit mm)*
G04 Created by KiCad (PCBNEW 10.0.1) date 2026-05-24 07:37:45*
%MOMM*%
%LPD*%
G01*
G04 APERTURE LIST*
G04 Aperture macros list*
%AMRoundRect*
0 Rectangle with rounded corners*
0 $1 Rounding radius*
0 $2 $3 $4 $5 $6 $7 $8 $9 X,Y pos of 4 corners*
0 Add a 4 corners polygon primitive as box body*
4,1,4,$2,$3,$4,$5,$6,$7,$8,$9,$2,$3,0*
0 Add four circle primitives for the rounded corners*
1,1,$1+$1,$2,$3*
1,1,$1+$1,$4,$5*
1,1,$1+$1,$6,$7*
1,1,$1+$1,$8,$9*
0 Add four rect primitives between the rounded corners*
20,1,$1+$1,$2,$3,$4,$5,0*
20,1,$1+$1,$4,$5,$6,$7,0*
20,1,$1+$1,$6,$7,$8,$9,0*
20,1,$1+$1,$8,$9,$2,$3,0*%
G04 Aperture macros list end*
G04 #@! TA.AperFunction,ComponentPad*
%ADD10C,0.800000*%
G04 #@! TD*
G04 #@! TA.AperFunction,ComponentPad*
%ADD11C,6.400000*%
G04 #@! TD*
G04 #@! TA.AperFunction,ComponentPad*
%ADD12R,1.700000X1.700000*%
G04 #@! TD*
G04 #@! TA.AperFunction,ComponentPad*
%ADD13C,1.700000*%
G04 #@! TD*
G04 #@! TA.AperFunction,ComponentPad*
%ADD14RoundRect,0.250000X0.550000X-0.550000X0.550000X0.550000X-0.550000X0.550000X-0.550000X-0.550000X0*%
G04 #@! TD*
G04 #@! TA.AperFunction,ComponentPad*
%ADD15C,1.600000*%
G04 #@! TD*
G04 #@! TA.AperFunction,ComponentPad*
%ADD16C,3.200000*%
G04 #@! TD*
G04 #@! TA.AperFunction,ComponentPad*
%ADD17RoundRect,0.250001X0.949999X0.949999X-0.949999X0.949999X-0.949999X-0.949999X0.949999X-0.949999X0*%
G04 #@! TD*
G04 #@! TA.AperFunction,ComponentPad*
%ADD18C,2.400000*%
G04 #@! TD*
G04 #@! TA.AperFunction,ComponentPad*
%ADD19C,1.400000*%
G04 #@! TD*
G04 #@! TA.AperFunction,ComponentPad*
%ADD20RoundRect,0.250000X1.050000X1.050000X-1.050000X1.050000X-1.050000X-1.050000X1.050000X-1.050000X0*%
G04 #@! TD*
G04 #@! TA.AperFunction,ComponentPad*
%ADD21C,2.600000*%
G04 #@! TD*
G04 #@! TA.AperFunction,ComponentPad*
%ADD22C,3.000000*%
G04 #@! TD*
G04 #@! TA.AperFunction,ComponentPad*
%ADD23R,1.905000X2.000000*%
G04 #@! TD*
G04 #@! TA.AperFunction,ComponentPad*
%ADD24O,1.905000X2.000000*%
G04 #@! TD*
G04 #@! TA.AperFunction,ViaPad*
%ADD25C,0.600000*%
G04 #@! TD*
G04 #@! TA.AperFunction,Conductor*
%ADD26C,2.000000*%
G04 #@! TD*
G04 #@! TA.AperFunction,Conductor*
%ADD27C,3.200000*%
G04 #@! TD*
G04 #@! TA.AperFunction,Conductor*
%ADD28C,0.300000*%
G04 #@! TD*
G04 #@! TA.AperFunction,Conductor*
%ADD29C,1.000000*%
G04 #@! TD*
G04 APERTURE END LIST*
D10*
G04 #@! TO.P,H4,1*
G04 #@! TO.N,N/C*
X134252000Y-145796000D03*
X134954944Y-144098944D03*
X134954944Y-147493056D03*
X136652000Y-143396000D03*
D11*
X136652000Y-145796000D03*
D10*
X136652000Y-148196000D03*
X138349056Y-144098944D03*
X138349056Y-147493056D03*
X139052000Y-145796000D03*
G04 #@! TD*
D12*
G04 #@! TO.P,J6,1,Pin_1_1*
G04 #@! TO.N,unconnected-(J6-Pin_1-Pad1)*
X240030000Y-68072000D03*
D13*
G04 #@! TO.P,J6,2,Pin_2_2*
G04 #@! TO.N,unconnected-(J6-Pin_2-Pad2)*
X237490000Y-68072000D03*
G04 #@! TO.P,J6,3,Pin_3_3*
G04 #@! TO.N,unconnected-(J6-Pin_3-Pad3)*
X234950000Y-68072000D03*
G04 #@! TO.P,J6,4,Pin_4_4*
G04 #@! TO.N,unconnected-(J6-Pin_4-Pad4)*
X232410000Y-68072000D03*
G04 #@! TO.P,J6,5,Pin_5_5*
G04 #@! TO.N,unconnected-(J6-Pin_5-Pad5)*
X229870000Y-68072000D03*
G04 #@! TO.P,J6,6,Pin_6_6*
G04 #@! TO.N,unconnected-(J6-Pin_6-Pad6)*
X227330000Y-68072000D03*
G04 #@! TO.P,J6,7,Pin_7_7*
G04 #@! TO.N,unconnected-(J6-Pin_7-Pad7)*
X224790000Y-68072000D03*
G04 #@! TO.P,J6,8,Pin_8_8*
G04 #@! TO.N,unconnected-(J6-Pin_8-Pad8)*
X222250000Y-68072000D03*
G04 #@! TO.P,J6,9,Pin_9_9*
G04 #@! TO.N,unconnected-(J6-Pin_9-Pad9)*
X219710000Y-68072000D03*
G04 #@! TO.P,J6,10,Pin_10_10*
G04 #@! TO.N,unconnected-(J6-Pin_10-Pad10)*
X217170000Y-68072000D03*
G04 #@! TO.P,J6,11,Pin_11_11*
G04 #@! TO.N,/ESP32/Status LED CTRL*
X214630000Y-68072000D03*
G04 #@! TO.P,J6,12,Pin_12_12*
G04 #@! TO.N,/ESP32/WIFI LED CTRL*
X212090000Y-68072000D03*
G04 #@! TO.P,J6,13,Pin_13_13*
G04 #@! TO.N,unconnected-(J6-Pin_13-Pad13)*
X209550000Y-68072000D03*
G04 #@! TO.P,J6,14,Pin_14_14*
G04 #@! TO.N,GND*
X207010000Y-68072000D03*
G04 #@! TO.P,J6,15,Pin_15_15*
G04 #@! TO.N,unconnected-(J6-Pin_15-Pad15)*
X204470000Y-68072000D03*
G04 #@! TO.P,J6,16,Pin_16_16*
G04 #@! TO.N,unconnected-(J6-Pin_16-Pad16)*
X201930000Y-68072000D03*
G04 #@! TO.P,J6,17,Pin_17_17*
G04 #@! TO.N,unconnected-(J6-Pin_17-Pad17)*
X199390000Y-68072000D03*
G04 #@! TO.P,J6,18,Pin_18_18*
G04 #@! TO.N,unconnected-(J6-Pin_18-Pad18)*
X196850000Y-68072000D03*
G04 #@! TO.P,J6,19,Pin_19_19*
G04 #@! TO.N,+5V*
X194310000Y-68072000D03*
G04 #@! TD*
D10*
G04 #@! TO.P,H2,1*
G04 #@! TO.N,N/C*
X246012000Y-68707000D03*
X246714944Y-67009944D03*
X246714944Y-70404056D03*
X248412000Y-66307000D03*
D11*
X248412000Y-68707000D03*
D10*
X248412000Y-71107000D03*
X250109056Y-67009944D03*
X250109056Y-70404056D03*
X250812000Y-68707000D03*
G04 #@! TD*
D14*
G04 #@! TO.P,C4,1*
G04 #@! TO.N,+5V*
X158496000Y-74168000D03*
D15*
G04 #@! TO.P,C4,2*
G04 #@! TO.N,GND*
X158496000Y-71668000D03*
G04 #@! TD*
D16*
G04 #@! TO.P,J1,1,Pin_1_1*
G04 #@! TO.N,Net-(J1-Pin_1)*
X150622000Y-135841000D03*
G04 #@! TO.P,J1,2,Pin_2_2*
G04 #@! TO.N,NEUT*
X158242000Y-135841000D03*
G04 #@! TO.P,J1,3,Pin_3_3*
X165862000Y-135841000D03*
G04 #@! TD*
G04 #@! TO.P,J2,1,Pin_1_1*
G04 #@! TO.N,/Control Outputs/Pump Ouptput*
X173482000Y-135841000D03*
G04 #@! TO.P,J2,2,Pin_2_2*
G04 #@! TO.N,/Control Outputs/Zone 1 Ouptput*
X181102000Y-135841000D03*
G04 #@! TO.P,J2,3,Pin_3_3*
G04 #@! TO.N,/Control Outputs/Zone 2 Ouptput*
X188722000Y-135841000D03*
G04 #@! TD*
D17*
G04 #@! TO.P,C1,1*
G04 #@! TO.N,VCC*
X143510000Y-88900000D03*
D18*
G04 #@! TO.P,C1,2*
G04 #@! TO.N,GND*
X138510000Y-88900000D03*
G04 #@! TD*
D10*
G04 #@! TO.P,H3,1*
G04 #@! TO.N,N/C*
X246012000Y-145796000D03*
X246714944Y-144098944D03*
X246714944Y-147493056D03*
X248412000Y-143396000D03*
D11*
X248412000Y-145796000D03*
D10*
X248412000Y-148196000D03*
X250109056Y-144098944D03*
X250109056Y-147493056D03*
X250812000Y-145796000D03*
G04 #@! TD*
D19*
G04 #@! TO.P,F2,1*
G04 #@! TO.N,LIVE_SOLENOID*
X136652000Y-109601000D03*
G04 #@! TO.P,F2,2*
G04 #@! TO.N,LIVE*
X141752000Y-111401000D03*
G04 #@! TD*
D16*
G04 #@! TO.P,J3,1,Pin_1_1*
G04 #@! TO.N,/Control Outputs/Zone 3 Ouptput*
X196342000Y-135841000D03*
G04 #@! TO.P,J3,2,Pin_2_2*
G04 #@! TO.N,/Control Outputs/Zone 4 Ouptput*
X203962000Y-135841000D03*
G04 #@! TO.P,J3,3,Pin_3_3*
G04 #@! TO.N,/Control Outputs/Zone 5 Ouptput*
X211582000Y-135841000D03*
G04 #@! TD*
D12*
G04 #@! TO.P,J7,1,Pin_1_1*
G04 #@! TO.N,GND*
X240030000Y-93472000D03*
D13*
G04 #@! TO.P,J7,2,Pin_2_2*
G04 #@! TO.N,/Control Outputs/Zone 8 Input*
X237490000Y-93472000D03*
G04 #@! TO.P,J7,3,Pin_3_3*
G04 #@! TO.N,/Control Outputs/Zone 7 Input*
X234950000Y-93472000D03*
G04 #@! TO.P,J7,4,Pin_4_4*
G04 #@! TO.N,/Control Outputs/Zone 6 Input*
X232410000Y-93472000D03*
G04 #@! TO.P,J7,5,Pin_5_5*
G04 #@! TO.N,/Control Outputs/Zone 5 Input*
X229870000Y-93472000D03*
G04 #@! TO.P,J7,6,Pin_6_6*
G04 #@! TO.N,/Control Outputs/Zone 4 Input*
X227330000Y-93472000D03*
G04 #@! TO.P,J7,7,Pin_7_7*
G04 #@! TO.N,GND*
X224790000Y-93472000D03*
G04 #@! TO.P,J7,8,Pin_8_8*
G04 #@! TO.N,/Control Outputs/Zone 3 Input*
X222250000Y-93472000D03*
G04 #@! TO.P,J7,9,Pin_9_9*
G04 #@! TO.N,/Control Outputs/Zone 2 Input*
X219710000Y-93472000D03*
G04 #@! TO.P,J7,10,Pin_10_10*
G04 #@! TO.N,/Control Outputs/Zone 1 Input*
X217170000Y-93472000D03*
G04 #@! TO.P,J7,11,Pin_11_11*
G04 #@! TO.N,/Control Outputs/Pump Input*
X214630000Y-93472000D03*
G04 #@! TO.P,J7,12,Pin_12_12*
G04 #@! TO.N,unconnected-(J7-Pin_12-Pad12)*
X212090000Y-93472000D03*
G04 #@! TO.P,J7,13,Pin_13_13*
G04 #@! TO.N,unconnected-(J7-Pin_13-Pad13)*
X209550000Y-93472000D03*
G04 #@! TO.P,J7,14,Pin_14_14*
G04 #@! TO.N,unconnected-(J7-Pin_14-Pad14)*
X207010000Y-93472000D03*
G04 #@! TO.P,J7,15,Pin_15_15*
G04 #@! TO.N,unconnected-(J7-Pin_15-Pad15)*
X204470000Y-93472000D03*
G04 #@! TO.P,J7,16,Pin_16_16*
G04 #@! TO.N,unconnected-(J7-Pin_16-Pad16)*
X201930000Y-93472000D03*
G04 #@! TO.P,J7,17,Pin_17_17*
G04 #@! TO.N,unconnected-(J7-Pin_17-Pad17)*
X199390000Y-93472000D03*
G04 #@! TO.P,J7,18,Pin_18_18*
G04 #@! TO.N,unconnected-(J7-Pin_18-Pad18)*
X196850000Y-93472000D03*
G04 #@! TO.P,J7,19,Pin_19_19*
G04 #@! TO.N,unconnected-(J7-Pin_19-Pad19)*
X194310000Y-93472000D03*
G04 #@! TD*
D10*
G04 #@! TO.P,H1,1*
G04 #@! TO.N,N/C*
X134252000Y-68707000D03*
X134954944Y-67009944D03*
X134954944Y-70404056D03*
X136652000Y-66307000D03*
D11*
X136652000Y-68707000D03*
D10*
X136652000Y-71107000D03*
X138349056Y-67009944D03*
X138349056Y-70404056D03*
X139052000Y-68707000D03*
G04 #@! TD*
D16*
G04 #@! TO.P,J4,1,Pin_1_1*
G04 #@! TO.N,/Control Outputs/Zone 6 Ouptput*
X219202000Y-135841000D03*
G04 #@! TO.P,J4,2,Pin_2_2*
G04 #@! TO.N,/Control Outputs/Zone 7 Ouptput*
X226822000Y-135841000D03*
G04 #@! TO.P,J4,3,Pin_3_3*
G04 #@! TO.N,/Control Outputs/Zone 8 Ouptput*
X234442000Y-135841000D03*
G04 #@! TD*
D20*
G04 #@! TO.P,J5,1,Pin_1_1*
G04 #@! TO.N,+5V*
X186182000Y-72644000D03*
D21*
G04 #@! TO.P,J5,2,Pin_2_2*
G04 #@! TO.N,Net-(J5-Pin_2)*
X181182000Y-72644000D03*
G04 #@! TO.P,J5,3,Pin_3_3*
G04 #@! TO.N,+5V*
X176182000Y-72644000D03*
G04 #@! TO.P,J5,4,Pin_4_4*
G04 #@! TO.N,Net-(J5-Pin_4)*
X171182000Y-72644000D03*
G04 #@! TD*
D22*
G04 #@! TO.P,F1,1*
G04 #@! TO.N,Net-(J1-Pin_1)*
X138430000Y-138938000D03*
G04 #@! TO.P,F1,2*
G04 #@! TO.N,LIVE_SOLENOID*
X138430000Y-116438000D03*
G04 #@! TD*
D23*
G04 #@! TO.P,D8,1,A1_1*
G04 #@! TO.N,/Control Outputs/Zone 4 Ouptput*
X197866000Y-127086000D03*
D24*
G04 #@! TO.P,D8,2,A2_2*
G04 #@! TO.N,LIVE_SOLENOID*
X195326000Y-127086000D03*
G04 #@! TO.P,D8,3,G_3*
G04 #@! TO.N,Net-(D8-G)*
X192786000Y-127086000D03*
G04 #@! TD*
D23*
G04 #@! TO.P,D17,1,A1_1*
G04 #@! TO.N,/Control Outputs/Zone 8 Ouptput*
X241554000Y-127086000D03*
D24*
G04 #@! TO.P,D17,2,A2_2*
G04 #@! TO.N,LIVE_SOLENOID*
X239014000Y-127086000D03*
G04 #@! TO.P,D17,3,G_3*
G04 #@! TO.N,Net-(D17-G)*
X236474000Y-127086000D03*
G04 #@! TD*
D23*
G04 #@! TO.P,D6,1,A1_1*
G04 #@! TO.N,/Control Outputs/Zone 2 Ouptput*
X176022000Y-127086000D03*
D24*
G04 #@! TO.P,D6,2,A2_2*
G04 #@! TO.N,LIVE_SOLENOID*
X173482000Y-127086000D03*
G04 #@! TO.P,D6,3,G_3*
G04 #@! TO.N,Net-(D6-G)*
X170942000Y-127086000D03*
G04 #@! TD*
D23*
G04 #@! TO.P,D15,1,A1_1*
G04 #@! TO.N,/Control Outputs/Zone 6 Ouptput*
X219710000Y-127086000D03*
D24*
G04 #@! TO.P,D15,2,A2_2*
G04 #@! TO.N,LIVE_SOLENOID*
X217170000Y-127086000D03*
G04 #@! TO.P,D15,3,G_3*
G04 #@! TO.N,Net-(D15-G)*
X214630000Y-127086000D03*
G04 #@! TD*
D23*
G04 #@! TO.P,D7,1,A1_1*
G04 #@! TO.N,/Control Outputs/Zone 3 Ouptput*
X186944000Y-127086000D03*
D24*
G04 #@! TO.P,D7,2,A2_2*
G04 #@! TO.N,LIVE_SOLENOID*
X184404000Y-127086000D03*
G04 #@! TO.P,D7,3,G_3*
G04 #@! TO.N,Net-(D7-G)*
X181864000Y-127086000D03*
G04 #@! TD*
D23*
G04 #@! TO.P,D4,1,A1_1*
G04 #@! TO.N,/Control Outputs/Pump Ouptput*
X154178000Y-127086000D03*
D24*
G04 #@! TO.P,D4,2,A2_2*
G04 #@! TO.N,LIVE_SOLENOID*
X151638000Y-127086000D03*
G04 #@! TO.P,D4,3,G_3*
G04 #@! TO.N,Net-(D4-G)*
X149098000Y-127086000D03*
G04 #@! TD*
D23*
G04 #@! TO.P,D14,1,A1_1*
G04 #@! TO.N,/Control Outputs/Zone 5 Ouptput*
X208788000Y-127086000D03*
D24*
G04 #@! TO.P,D14,2,A2_2*
G04 #@! TO.N,LIVE_SOLENOID*
X206248000Y-127086000D03*
G04 #@! TO.P,D14,3,G_3*
G04 #@! TO.N,Net-(D14-G)*
X203708000Y-127086000D03*
G04 #@! TD*
D23*
G04 #@! TO.P,D5,1,A1_1*
G04 #@! TO.N,/Control Outputs/Zone 1 Ouptput*
X165100000Y-127086000D03*
D24*
G04 #@! TO.P,D5,2,A2_2*
G04 #@! TO.N,LIVE_SOLENOID*
X162560000Y-127086000D03*
G04 #@! TO.P,D5,3,G_3*
G04 #@! TO.N,Net-(D5-G)*
X160020000Y-127086000D03*
G04 #@! TD*
D23*
G04 #@! TO.P,D16,1,A1_1*
G04 #@! TO.N,/Control Outputs/Zone 7 Ouptput*
X230632000Y-127086000D03*
D24*
G04 #@! TO.P,D16,2,A2_2*
G04 #@! TO.N,LIVE_SOLENOID*
X228092000Y-127086000D03*
G04 #@! TO.P,D16,3,G_3*
G04 #@! TO.N,Net-(D16-G)*
X225552000Y-127086000D03*
G04 #@! TD*
D25*
G04 #@! TO.N,GND*
X251206000Y-112522000D03*
X206248000Y-113284000D03*
X217170000Y-113284000D03*
X195326000Y-113284000D03*
X156210000Y-79502000D03*
X184404000Y-113284000D03*
X151130000Y-72136000D03*
X153162000Y-68580000D03*
X146812000Y-110998000D03*
X143002000Y-101092000D03*
X133604000Y-75946000D03*
X157734000Y-65786000D03*
X151130000Y-68580000D03*
X133604000Y-91186000D03*
X188214000Y-65786000D03*
X152146000Y-72136000D03*
X153162000Y-72136000D03*
X247396000Y-113284000D03*
X173482000Y-113284000D03*
X141732000Y-69850000D03*
X162560000Y-113284000D03*
X251206000Y-74422000D03*
X133604000Y-98806000D03*
X165354000Y-65786000D03*
X152146000Y-68580000D03*
X156210000Y-81280000D03*
X156210000Y-77724000D03*
X251206000Y-82042000D03*
X150114000Y-72136000D03*
X154178000Y-68580000D03*
X151638000Y-113284000D03*
X251206000Y-104902000D03*
X228092000Y-113284000D03*
X146812000Y-103378000D03*
X136652000Y-73406000D03*
X133604000Y-83566000D03*
X150114000Y-65786000D03*
X154178000Y-72136000D03*
X142494000Y-65786000D03*
X136906000Y-101092000D03*
X180594000Y-65786000D03*
X251206000Y-89662000D03*
X251206000Y-97282000D03*
X150114000Y-68580000D03*
X247650000Y-73914000D03*
X239014000Y-113284000D03*
G04 #@! TO.N,/Control Outputs/Pump Ouptput*
X146812000Y-123952000D03*
G04 #@! TO.N,/Control Outputs/Zone 5 Ouptput*
X201422000Y-123952000D03*
G04 #@! TO.N,/Control Outputs/Zone 2 Ouptput*
X168656000Y-123952000D03*
G04 #@! TO.N,/Control Outputs/Zone 3 Ouptput*
X179578000Y-123952000D03*
G04 #@! TO.N,/Control Outputs/Zone 7 Ouptput*
X223266000Y-123952000D03*
G04 #@! TO.N,/Control Outputs/Zone 4 Ouptput*
X190500000Y-123952000D03*
G04 #@! TO.N,/Control Outputs/Zone 1 Ouptput*
X157734000Y-123952000D03*
G04 #@! TO.N,/Control Outputs/Zone 6 Ouptput*
X212344000Y-123952000D03*
G04 #@! TO.N,/Control Outputs/Zone 8 Ouptput*
X234188000Y-123952000D03*
G04 #@! TD*
G04 #@! TO.N,LIVE_SOLENOID*
D26*
X151638000Y-121920000D02*
X150876000Y-121920000D01*
X143912000Y-121920000D02*
X138430000Y-116438000D01*
X205486000Y-121920000D02*
X206248000Y-121920000D01*
X172720000Y-121920000D02*
X173482000Y-121920000D01*
X153162000Y-121920000D02*
X151638000Y-121920000D01*
X237998000Y-121920000D02*
X239014000Y-122936000D01*
X195326000Y-127086000D02*
X195326000Y-121920000D01*
X162560000Y-121920000D02*
X172720000Y-121920000D01*
X151638000Y-127086000D02*
X151638000Y-121920000D01*
X173482000Y-127086000D02*
X173482000Y-121920000D01*
X150876000Y-121920000D02*
X143912000Y-121920000D01*
X153162000Y-121920000D02*
X161798000Y-121920000D01*
X183642000Y-121920000D02*
X184404000Y-121920000D01*
X239014000Y-122936000D02*
X239014000Y-127086000D01*
X195326000Y-121920000D02*
X205486000Y-121920000D01*
X206248000Y-127086000D02*
X206248000Y-121920000D01*
X173482000Y-121920000D02*
X183642000Y-121920000D01*
X184404000Y-121920000D02*
X194564000Y-121920000D01*
X227076000Y-121920000D02*
X228092000Y-121920000D01*
X194564000Y-121920000D02*
X195326000Y-121920000D01*
X228092000Y-127086000D02*
X228092000Y-121920000D01*
X184404000Y-127086000D02*
X184404000Y-121920000D01*
X228092000Y-121920000D02*
X237998000Y-121920000D01*
X216408000Y-121920000D02*
X217170000Y-121920000D01*
X161798000Y-121920000D02*
X162560000Y-121920000D01*
X206248000Y-121920000D02*
X216408000Y-121920000D01*
X162560000Y-127086000D02*
X162560000Y-121920000D01*
X217170000Y-127086000D02*
X217170000Y-121920000D01*
X217170000Y-121920000D02*
X227076000Y-121920000D01*
G04 #@! TO.N,NEUT*
D27*
X158242000Y-135841000D02*
X165862000Y-135841000D01*
G04 #@! TO.N,/Control Outputs/Pump Ouptput*
D28*
X146812000Y-127762000D02*
X147828000Y-128778000D01*
X146812000Y-123952000D02*
X146812000Y-127762000D01*
D29*
X154178000Y-129286000D02*
X157734000Y-132842000D01*
X157734000Y-132842000D02*
X170483000Y-132842000D01*
D28*
X147828000Y-128778000D02*
X154178000Y-128778000D01*
D29*
X154178000Y-127086000D02*
X154178000Y-129286000D01*
X170483000Y-132842000D02*
X173482000Y-135841000D01*
G04 #@! TO.N,/Control Outputs/Zone 5 Ouptput*
D28*
X202438000Y-128778000D02*
X208788000Y-128778000D01*
D29*
X208788000Y-133047000D02*
X211582000Y-135841000D01*
D28*
X201422000Y-123952000D02*
X201422000Y-127762000D01*
X201422000Y-127762000D02*
X202438000Y-128778000D01*
D29*
X208788000Y-127086000D02*
X208788000Y-133047000D01*
G04 #@! TO.N,/Control Outputs/Zone 2 Ouptput*
X176022000Y-127086000D02*
X176022000Y-129032000D01*
X178562000Y-131572000D02*
X184453000Y-131572000D01*
D28*
X168656000Y-127762000D02*
X169672000Y-128778000D01*
D29*
X176022000Y-129032000D02*
X178562000Y-131572000D01*
X184453000Y-131572000D02*
X188722000Y-135841000D01*
D28*
X169672000Y-128778000D02*
X176022000Y-128778000D01*
X168656000Y-123952000D02*
X168656000Y-127762000D01*
G04 #@! TO.N,/Control Outputs/Zone 3 Ouptput*
X179578000Y-127762000D02*
X180594000Y-128778000D01*
D29*
X192327000Y-131826000D02*
X196342000Y-135841000D01*
X186944000Y-127086000D02*
X186944000Y-129540000D01*
X186944000Y-129540000D02*
X189230000Y-131826000D01*
D28*
X179578000Y-123952000D02*
X179578000Y-127762000D01*
D29*
X189230000Y-131826000D02*
X192327000Y-131826000D01*
D28*
X180594000Y-128778000D02*
X186944000Y-128778000D01*
G04 #@! TO.N,/Control Outputs/Zone 7 Ouptput*
X223266000Y-123952000D02*
X223266000Y-127762000D01*
D29*
X230632000Y-127086000D02*
X230632000Y-132031000D01*
X230632000Y-132031000D02*
X226822000Y-135841000D01*
D28*
X223266000Y-127762000D02*
X224282000Y-128778000D01*
X224282000Y-128778000D02*
X230632000Y-128778000D01*
G04 #@! TO.N,/Control Outputs/Zone 4 Ouptput*
D29*
X197866000Y-127086000D02*
X197866000Y-129745000D01*
D28*
X190500000Y-123952000D02*
X190500000Y-127762000D01*
D29*
X197866000Y-129745000D02*
X203962000Y-135841000D01*
D28*
X190500000Y-127762000D02*
X191516000Y-128778000D01*
X191516000Y-128778000D02*
X197866000Y-128778000D01*
G04 #@! TO.N,Net-(J1-Pin_1)*
D26*
X147525000Y-138938000D02*
X138430000Y-138938000D01*
X150622000Y-135841000D02*
X147525000Y-138938000D01*
G04 #@! TO.N,/Control Outputs/Zone 1 Ouptput*
D29*
X178664500Y-135841000D02*
X181102000Y-135841000D01*
X165862000Y-130810000D02*
X173633500Y-130810000D01*
X165100000Y-130048000D02*
X165862000Y-130810000D01*
D28*
X157734000Y-127762000D02*
X158750000Y-128778000D01*
D29*
X165100000Y-127086000D02*
X165100000Y-130048000D01*
D28*
X157734000Y-123952000D02*
X157734000Y-127762000D01*
X158750000Y-128778000D02*
X165100000Y-128778000D01*
D29*
X173633500Y-130810000D02*
X178664500Y-135841000D01*
G04 #@! TO.N,/Control Outputs/Zone 6 Ouptput*
D28*
X212344000Y-123952000D02*
X212344000Y-127762000D01*
D29*
X219710000Y-135333000D02*
X219202000Y-135841000D01*
X219710000Y-127086000D02*
X219710000Y-135333000D01*
D28*
X212344000Y-127762000D02*
X213360000Y-128778000D01*
X213360000Y-128778000D02*
X219710000Y-128778000D01*
G04 #@! TO.N,/Control Outputs/Zone 8 Ouptput*
X234188000Y-127762000D02*
X235204000Y-128778000D01*
X235204000Y-128778000D02*
X241554000Y-128778000D01*
D29*
X237158000Y-135841000D02*
X241554000Y-131445000D01*
X234442000Y-135841000D02*
X237158000Y-135841000D01*
X241554000Y-131445000D02*
X241554000Y-127086000D01*
D28*
X234188000Y-123952000D02*
X234188000Y-127762000D01*
G04 #@! TD*
G04 #@! TA.AperFunction,Conductor*
G04 #@! TO.N,GND*
G36*
X244307191Y-64908407D02*
G01*
X244343155Y-64957907D01*
X244348000Y-64988500D01*
X244348000Y-72771000D01*
X252130498Y-72771000D01*
X252188689Y-72789907D01*
X252224653Y-72839407D01*
X252229498Y-72870000D01*
X252229498Y-114392131D01*
X252210591Y-114450322D01*
X252161091Y-114486286D01*
X252130602Y-114491131D01*
X146149104Y-114602926D01*
X146090894Y-114584080D01*
X146054878Y-114534618D01*
X146050000Y-114503926D01*
X146050000Y-101854001D01*
X146050000Y-101854000D01*
X146049999Y-101854000D01*
X132933502Y-101854000D01*
X132875311Y-101835093D01*
X132839347Y-101785593D01*
X132834502Y-101755000D01*
X132834502Y-93381450D01*
X193159500Y-93381450D01*
X193159500Y-93562549D01*
X193187828Y-93741406D01*
X193243788Y-93913637D01*
X193273525Y-93972000D01*
X193326004Y-94074994D01*
X193432447Y-94221501D01*
X193560499Y-94349553D01*
X193707006Y-94455996D01*
X193868361Y-94538211D01*
X194040591Y-94594171D01*
X194112136Y-94605502D01*
X194219451Y-94622500D01*
X194219454Y-94622500D01*
X194400549Y-94622500D01*
X194489977Y-94608335D01*
X194579409Y-94594171D01*
X194751639Y-94538211D01*
X194912994Y-94455996D01*
X195059501Y-94349553D01*
X195187553Y-94221501D01*
X195293996Y-94074994D01*
X195376211Y-93913639D01*
X195432171Y-93741409D01*
X195446335Y-93651977D01*
X195460500Y-93562549D01*
X195460500Y-93381450D01*
X195699500Y-93381450D01*
X195699500Y-93562549D01*
X195727828Y-93741406D01*
X195783788Y-93913637D01*
X195813525Y-93972000D01*
X195866004Y-94074994D01*
X195972447Y-94221501D01*
X196100499Y-94349553D01*
X196247006Y-94455996D01*
X196408361Y-94538211D01*
X196580591Y-94594171D01*
X196652136Y-94605502D01*
X196759451Y-94622500D01*
X196759454Y-94622500D01*
X196940549Y-94622500D01*
X197029977Y-94608335D01*
X197119409Y-94594171D01*
X197291639Y-94538211D01*
X197452994Y-94455996D01*
X197599501Y-94349553D01*
X197727553Y-94221501D01*
X197833996Y-94074994D01*
X197916211Y-93913639D01*
X197972171Y-93741409D01*
X197986335Y-93651977D01*
X198000500Y-93562549D01*
X198000500Y-93381450D01*
X198239500Y-93381450D01*
X198239500Y-93562549D01*
X198267828Y-93741406D01*
X198323788Y-93913637D01*
X198353525Y-93972000D01*
X198406004Y-94074994D01*
X198512447Y-94221501D01*
X198640499Y-94349553D01*
X198787006Y-94455996D01*
X198948361Y-94538211D01*
X199120591Y-94594171D01*
X199192136Y-94605502D01*
X199299451Y-94622500D01*
X199299454Y-94622500D01*
X199480549Y-94622500D01*
X199569977Y-94608335D01*
X199659409Y-94594171D01*
X199831639Y-94538211D01*
X199992994Y-94455996D01*
X200139501Y-94349553D01*
X200267553Y-94221501D01*
X200373996Y-94074994D01*
X200456211Y-93913639D01*
X200512171Y-93741409D01*
X200526335Y-93651977D01*
X200540500Y-93562549D01*
X200540500Y-93381450D01*
X200779500Y-93381450D01*
X200779500Y-93562549D01*
X200807828Y-93741406D01*
X200863788Y-93913637D01*
X200893525Y-93972000D01*
X200946004Y-94074994D01*
X201052447Y-94221501D01*
X201180499Y-94349553D01*
X201327006Y-94455996D01*
X201488361Y-94538211D01*
X201660591Y-94594171D01*
X201732136Y-94605502D01*
X201839451Y-94622500D01*
X201839454Y-94622500D01*
X202020549Y-94622500D01*
X202109977Y-94608335D01*
X202199409Y-94594171D01*
X202371639Y-94538211D01*
X202532994Y-94455996D01*
X202679501Y-94349553D01*
X202807553Y-94221501D01*
X202913996Y-94074994D01*
X202996211Y-93913639D01*
X203052171Y-93741409D01*
X203066335Y-93651977D01*
X203080500Y-93562549D01*
X203080500Y-93381450D01*
X203319500Y-93381450D01*
X203319500Y-93562549D01*
X203347828Y-93741406D01*
X203403788Y-93913637D01*
X203433525Y-93972000D01*
X203486004Y-94074994D01*
X203592447Y-94221501D01*
X203720499Y-94349553D01*
X203867006Y-94455996D01*
X204028361Y-94538211D01*
X204200591Y-94594171D01*
X204272136Y-94605502D01*
X204379451Y-94622500D01*
X204379454Y-94622500D01*
X204560549Y-94622500D01*
X204649977Y-94608335D01*
X204739409Y-94594171D01*
X204911639Y-94538211D01*
X205072994Y-94455996D01*
X205219501Y-94349553D01*
X205347553Y-94221501D01*
X205453996Y-94074994D01*
X205536211Y-93913639D01*
X205592171Y-93741409D01*
X205606335Y-93651977D01*
X205620500Y-93562549D01*
X205620500Y-93381450D01*
X205859500Y-93381450D01*
X205859500Y-93562549D01*
X205887828Y-93741406D01*
X205943788Y-93913637D01*
X205973525Y-93972000D01*
X206026004Y-94074994D01*
X206132447Y-94221501D01*
X206260499Y-94349553D01*
X206407006Y-94455996D01*
X206568361Y-94538211D01*
X206740591Y-94594171D01*
X206812136Y-94605502D01*
X206919451Y-94622500D01*
X206919454Y-94622500D01*
X207100549Y-94622500D01*
X207189977Y-94608335D01*
X207279409Y-94594171D01*
X207451639Y-94538211D01*
X207612994Y-94455996D01*
X207759501Y-94349553D01*
X207887553Y-94221501D01*
X207993996Y-94074994D01*
X208076211Y-93913639D01*
X208132171Y-93741409D01*
X208146335Y-93651977D01*
X208160500Y-93562549D01*
X208160500Y-93381450D01*
X208399500Y-93381450D01*
X208399500Y-93562549D01*
X208427828Y-93741406D01*
X208483788Y-93913637D01*
X208513525Y-93972000D01*
X208566004Y-94074994D01*
X208672447Y-94221501D01*
X208800499Y-94349553D01*
X208947006Y-94455996D01*
X209108361Y-94538211D01*
X209280591Y-94594171D01*
X209352136Y-94605502D01*
X209459451Y-94622500D01*
X209459454Y-94622500D01*
X209640549Y-94622500D01*
X209729977Y-94608335D01*
X209819409Y-94594171D01*
X209991639Y-94538211D01*
X210152994Y-94455996D01*
X210299501Y-94349553D01*
X210427553Y-94221501D01*
X210533996Y-94074994D01*
X210616211Y-93913639D01*
X210672171Y-93741409D01*
X210686335Y-93651977D01*
X210700500Y-93562549D01*
X210700500Y-93381450D01*
X210939500Y-93381450D01*
X210939500Y-93562549D01*
X210967828Y-93741406D01*
X211023788Y-93913637D01*
X211053525Y-93972000D01*
X211106004Y-94074994D01*
X211212447Y-94221501D01*
X211340499Y-94349553D01*
X211487006Y-94455996D01*
X211648361Y-94538211D01*
X211820591Y-94594171D01*
X211892136Y-94605502D01*
X211999451Y-94622500D01*
X211999454Y-94622500D01*
X212180549Y-94622500D01*
X212269977Y-94608335D01*
X212359409Y-94594171D01*
X212531639Y-94538211D01*
X212692994Y-94455996D01*
X212839501Y-94349553D01*
X212967553Y-94221501D01*
X213073996Y-94074994D01*
X213156211Y-93913639D01*
X213212171Y-93741409D01*
X213226335Y-93651977D01*
X213240500Y-93562549D01*
X213240500Y-93381450D01*
X213479500Y-93381450D01*
X213479500Y-93562549D01*
X213507828Y-93741406D01*
X213563788Y-93913637D01*
X213593525Y-93972000D01*
X213646004Y-94074994D01*
X213752447Y-94221501D01*
X213880499Y-94349553D01*
X214027006Y-94455996D01*
X214188361Y-94538211D01*
X214360591Y-94594171D01*
X214432136Y-94605502D01*
X214539451Y-94622500D01*
X214539454Y-94622500D01*
X214720549Y-94622500D01*
X214809977Y-94608335D01*
X214899409Y-94594171D01*
X215071639Y-94538211D01*
X215232994Y-94455996D01*
X215379501Y-94349553D01*
X215507553Y-94221501D01*
X215613996Y-94074994D01*
X215696211Y-93913639D01*
X215752171Y-93741409D01*
X215766335Y-93651977D01*
X215780500Y-93562549D01*
X215780500Y-93381450D01*
X216019500Y-93381450D01*
X216019500Y-93562549D01*
X216047828Y-93741406D01*
X216103788Y-93913637D01*
X216133525Y-93972000D01*
X216186004Y-94074994D01*
X216292447Y-94221501D01*
X216420499Y-94349553D01*
X216567006Y-94455996D01*
X216728361Y-94538211D01*
X216900591Y-94594171D01*
X216972136Y-94605502D01*
X217079451Y-94622500D01*
X217079454Y-94622500D01*
X217260549Y-94622500D01*
X217349977Y-94608335D01*
X217439409Y-94594171D01*
X217611639Y-94538211D01*
X217772994Y-94455996D01*
X217919501Y-94349553D01*
X218047553Y-94221501D01*
X218153996Y-94074994D01*
X218236211Y-93913639D01*
X218292171Y-93741409D01*
X218306335Y-93651977D01*
X218320500Y-93562549D01*
X218320500Y-93381450D01*
X218559500Y-93381450D01*
X218559500Y-93562549D01*
X218587828Y-93741406D01*
X218643788Y-93913637D01*
X218673525Y-93972000D01*
X218726004Y-94074994D01*
X218832447Y-94221501D01*
X218960499Y-94349553D01*
X219107006Y-94455996D01*
X219268361Y-94538211D01*
X219440591Y-94594171D01*
X219512136Y-94605502D01*
X219619451Y-94622500D01*
X219619454Y-94622500D01*
X219800549Y-94622500D01*
X219889977Y-94608335D01*
X219979409Y-94594171D01*
X220151639Y-94538211D01*
X220312994Y-94455996D01*
X220459501Y-94349553D01*
X220587553Y-94221501D01*
X220693996Y-94074994D01*
X220776211Y-93913639D01*
X220832171Y-93741409D01*
X220846335Y-93651977D01*
X220860500Y-93562549D01*
X220860500Y-93381450D01*
X221099500Y-93381450D01*
X221099500Y-93562549D01*
X221127828Y-93741406D01*
X221183788Y-93913637D01*
X221213525Y-93972000D01*
X221266004Y-94074994D01*
X221372447Y-94221501D01*
X221500499Y-94349553D01*
X221647006Y-94455996D01*
X221808361Y-94538211D01*
X221980591Y-94594171D01*
X222052136Y-94605502D01*
X222159451Y-94622500D01*
X222159454Y-94622500D01*
X222340549Y-94622500D01*
X222429977Y-94608335D01*
X222519409Y-94594171D01*
X222691639Y-94538211D01*
X222852994Y-94455996D01*
X222999501Y-94349553D01*
X223127553Y-94221501D01*
X223233996Y-94074994D01*
X223316211Y-93913639D01*
X223372171Y-93741409D01*
X223386335Y-93651977D01*
X223400500Y-93562549D01*
X223400500Y-93381452D01*
X223400144Y-93379204D01*
X223400144Y-93379202D01*
X223398462Y-93368581D01*
X223740000Y-93368581D01*
X223740000Y-93575418D01*
X223780349Y-93778272D01*
X223859501Y-93969359D01*
X223859503Y-93969363D01*
X223863054Y-93974678D01*
X224292093Y-93545639D01*
X224324075Y-93664993D01*
X224389901Y-93779007D01*
X224482993Y-93872099D01*
X224597007Y-93937925D01*
X224716357Y-93969905D01*
X224287319Y-94398944D01*
X224292638Y-94402498D01*
X224483727Y-94481650D01*
X224686581Y-94521999D01*
X224686586Y-94522000D01*
X224893414Y-94522000D01*
X224893418Y-94521999D01*
X225096272Y-94481650D01*
X225287357Y-94402499D01*
X225287359Y-94402498D01*
X225292678Y-94398943D01*
X224863640Y-93969905D01*
X224982993Y-93937925D01*
X225097007Y-93872099D01*
X225190099Y-93779007D01*
X225255925Y-93664993D01*
X225287905Y-93545640D01*
X225716943Y-93974678D01*
X225720498Y-93969359D01*
X225720499Y-93969357D01*
X225799650Y-93778272D01*
X225839999Y-93575418D01*
X225840000Y-93575413D01*
X225840000Y-93381450D01*
X226179500Y-93381450D01*
X226179500Y-93562549D01*
X226207828Y-93741406D01*
X226263788Y-93913637D01*
X226293525Y-93972000D01*
X226346004Y-94074994D01*
X226452447Y-94221501D01*
X226580499Y-94349553D01*
X226727006Y-94455996D01*
X226888361Y-94538211D01*
X227060591Y-94594171D01*
X227132136Y-94605502D01*
X227239451Y-94622500D01*
X227239454Y-94622500D01*
X227420549Y-94622500D01*
X227509977Y-94608335D01*
X227599409Y-94594171D01*
X227771639Y-94538211D01*
X227932994Y-94455996D01*
X228079501Y-94349553D01*
X228207553Y-94221501D01*
X228313996Y-94074994D01*
X228396211Y-93913639D01*
X228452171Y-93741409D01*
X228466335Y-93651977D01*
X228480500Y-93562549D01*
X228480500Y-93381450D01*
X228719500Y-93381450D01*
X228719500Y-93562549D01*
X228747828Y-93741406D01*
X228803788Y-93913637D01*
X228833525Y-93972000D01*
X228886004Y-94074994D01*
X228992447Y-94221501D01*
X229120499Y-94349553D01*
X229267006Y-94455996D01*
X229428361Y-94538211D01*
X229600591Y-94594171D01*
X229672136Y-94605502D01*
X229779451Y-94622500D01*
X229779454Y-94622500D01*
X229960549Y-94622500D01*
X230049977Y-94608335D01*
X230139409Y-94594171D01*
X230311639Y-94538211D01*
X230472994Y-94455996D01*
X230619501Y-94349553D01*
X230747553Y-94221501D01*
X230853996Y-94074994D01*
X230936211Y-93913639D01*
X230992171Y-93741409D01*
X231006335Y-93651977D01*
X231020500Y-93562549D01*
X231020500Y-93381450D01*
X231259500Y-93381450D01*
X231259500Y-93562549D01*
X231287828Y-93741406D01*
X231343788Y-93913637D01*
X231373525Y-93972000D01*
X231426004Y-94074994D01*
X231532447Y-94221501D01*
X231660499Y-94349553D01*
X231807006Y-94455996D01*
X231968361Y-94538211D01*
X232140591Y-94594171D01*
X232212136Y-94605502D01*
X232319451Y-94622500D01*
X232319454Y-94622500D01*
X232500549Y-94622500D01*
X232589977Y-94608335D01*
X232679409Y-94594171D01*
X232851639Y-94538211D01*
X233012994Y-94455996D01*
X233159501Y-94349553D01*
X233287553Y-94221501D01*
X233393996Y-94074994D01*
X233476211Y-93913639D01*
X233532171Y-93741409D01*
X233546335Y-93651977D01*
X233560500Y-93562549D01*
X233560500Y-93381450D01*
X233799500Y-93381450D01*
X233799500Y-93562549D01*
X233827828Y-93741406D01*
X233883788Y-93913637D01*
X233913525Y-93972000D01*
X233966004Y-94074994D01*
X234072447Y-94221501D01*
X234200499Y-94349553D01*
X234347006Y-94455996D01*
X234508361Y-94538211D01*
X234680591Y-94594171D01*
X234752136Y-94605502D01*
X234859451Y-94622500D01*
X234859454Y-94622500D01*
X235040549Y-94622500D01*
X235129977Y-94608335D01*
X235219409Y-94594171D01*
X235391639Y-94538211D01*
X235552994Y-94455996D01*
X235699501Y-94349553D01*
X235827553Y-94221501D01*
X235933996Y-94074994D01*
X236016211Y-93913639D01*
X236072171Y-93741409D01*
X236086335Y-93651977D01*
X236100500Y-93562549D01*
X236100500Y-93381450D01*
X236339500Y-93381450D01*
X236339500Y-93562549D01*
X236367828Y-93741406D01*
X236423788Y-93913637D01*
X236453525Y-93972000D01*
X236506004Y-94074994D01*
X236612447Y-94221501D01*
X236740499Y-94349553D01*
X236887006Y-94455996D01*
X237048361Y-94538211D01*
X237220591Y-94594171D01*
X237292136Y-94605502D01*
X237399451Y-94622500D01*
X237399454Y-94622500D01*
X237580549Y-94622500D01*
X237669977Y-94608335D01*
X237759409Y-94594171D01*
X237931639Y-94538211D01*
X238092994Y-94455996D01*
X238239501Y-94349553D01*
X238367553Y-94221501D01*
X238473996Y-94074994D01*
X238556211Y-93913639D01*
X238612171Y-93741409D01*
X238624274Y-93664993D01*
X238640500Y-93562549D01*
X238640500Y-93381450D01*
X238612171Y-93202593D01*
X238612171Y-93202591D01*
X238556211Y-93030361D01*
X238473996Y-92869006D01*
X238367553Y-92722499D01*
X238247353Y-92602299D01*
X238980000Y-92602299D01*
X238980000Y-93171999D01*
X238980001Y-93172000D01*
X239625856Y-93172000D01*
X239564075Y-93279007D01*
X239530000Y-93406174D01*
X239530000Y-93537826D01*
X239564075Y-93664993D01*
X239625856Y-93772000D01*
X238980001Y-93772000D01*
X238980000Y-93772001D01*
X238980000Y-94341700D01*
X238991603Y-94400036D01*
X239035806Y-94466189D01*
X239035810Y-94466193D01*
X239101963Y-94510396D01*
X239160299Y-94521999D01*
X239160303Y-94522000D01*
X239729999Y-94522000D01*
X239730000Y-94521999D01*
X239730000Y-93876144D01*
X239837007Y-93937925D01*
X239964174Y-93972000D01*
X240095826Y-93972000D01*
X240222993Y-93937925D01*
X240330000Y-93876144D01*
X240330000Y-94521999D01*
X240330001Y-94522000D01*
X240899697Y-94522000D01*
X240899700Y-94521999D01*
X240958036Y-94510396D01*
X241024189Y-94466193D01*
X241024193Y-94466189D01*
X241068396Y-94400036D01*
X241079999Y-94341700D01*
X241080000Y-94341697D01*
X241080000Y-93772001D01*
X241079999Y-93772000D01*
X240434144Y-93772000D01*
X240495925Y-93664993D01*
X240530000Y-93537826D01*
X240530000Y-93406174D01*
X240495925Y-93279007D01*
X240434144Y-93172000D01*
X241079999Y-93172000D01*
X241080000Y-93171999D01*
X241080000Y-92602302D01*
X241079999Y-92602299D01*
X241068396Y-92543963D01*
X241024193Y-92477810D01*
X241024189Y-92477806D01*
X240958036Y-92433603D01*
X240899700Y-92422000D01*
X240330001Y-92422000D01*
X240330000Y-92422001D01*
X240330000Y-93067855D01*
X240222993Y-93006075D01*
X240095826Y-92972000D01*
X239964174Y-92972000D01*
X239837007Y-93006075D01*
X239730000Y-93067855D01*
X239730000Y-92422001D01*
X239729999Y-92422000D01*
X239160299Y-92422000D01*
X239101963Y-92433603D01*
X239035810Y-92477806D01*
X239035806Y-92477810D01*
X238991603Y-92543963D01*
X238980000Y-92602299D01*
X238247353Y-92602299D01*
X238239501Y-92594447D01*
X238092994Y-92488004D01*
X238092993Y-92488003D01*
X238092991Y-92488002D01*
X237931637Y-92405788D01*
X237759406Y-92349828D01*
X237580549Y-92321500D01*
X237580546Y-92321500D01*
X237399454Y-92321500D01*
X237399451Y-92321500D01*
X237220593Y-92349828D01*
X237048362Y-92405788D01*
X236887008Y-92488002D01*
X236813752Y-92541225D01*
X236740499Y-92594447D01*
X236612447Y-92722499D01*
X236559225Y-92795752D01*
X236506002Y-92869008D01*
X236423788Y-93030362D01*
X236367828Y-93202593D01*
X236339500Y-93381450D01*
X236100500Y-93381450D01*
X236072171Y-93202593D01*
X236072171Y-93202591D01*
X236016211Y-93030361D01*
X235933996Y-92869006D01*
X235827553Y-92722499D01*
X235699501Y-92594447D01*
X235552994Y-92488004D01*
X235552993Y-92488003D01*
X235552991Y-92488002D01*
X235391637Y-92405788D01*
X235219406Y-92349828D01*
X235040549Y-92321500D01*
X235040546Y-92321500D01*
X234859454Y-92321500D01*
X234859451Y-92321500D01*
X234680593Y-92349828D01*
X234508362Y-92405788D01*
X234347008Y-92488002D01*
X234273752Y-92541225D01*
X234200499Y-92594447D01*
X234072447Y-92722499D01*
X234019225Y-92795752D01*
X233966002Y-92869008D01*
X233883788Y-93030362D01*
X233827828Y-93202593D01*
X233799500Y-93381450D01*
X233560500Y-93381450D01*
X233532171Y-93202593D01*
X233532171Y-93202591D01*
X233476211Y-93030361D01*
X233393996Y-92869006D01*
X233287553Y-92722499D01*
X233159501Y-92594447D01*
X233012994Y-92488004D01*
X233012993Y-92488003D01*
X233012991Y-92488002D01*
X232851637Y-92405788D01*
X232679406Y-92349828D01*
X232500549Y-92321500D01*
X232500546Y-92321500D01*
X232319454Y-92321500D01*
X232319451Y-92321500D01*
X232140593Y-92349828D01*
X231968362Y-92405788D01*
X231807008Y-92488002D01*
X231733752Y-92541225D01*
X231660499Y-92594447D01*
X231532447Y-92722499D01*
X231479225Y-92795752D01*
X231426002Y-92869008D01*
X231343788Y-93030362D01*
X231287828Y-93202593D01*
X231259500Y-93381450D01*
X231020500Y-93381450D01*
X230992171Y-93202593D01*
X230992171Y-93202591D01*
X230936211Y-93030361D01*
X230853996Y-92869006D01*
X230747553Y-92722499D01*
X230619501Y-92594447D01*
X230472994Y-92488004D01*
X230472993Y-92488003D01*
X230472991Y-92488002D01*
X230311637Y-92405788D01*
X230139406Y-92349828D01*
X229960549Y-92321500D01*
X229960546Y-92321500D01*
X229779454Y-92321500D01*
X229779451Y-92321500D01*
X229600593Y-92349828D01*
X229428362Y-92405788D01*
X229267008Y-92488002D01*
X229193752Y-92541225D01*
X229120499Y-92594447D01*
X228992447Y-92722499D01*
X228939225Y-92795752D01*
X228886002Y-92869008D01*
X228803788Y-93030362D01*
X228747828Y-93202593D01*
X228719500Y-93381450D01*
X228480500Y-93381450D01*
X228452171Y-93202593D01*
X228452171Y-93202591D01*
X228396211Y-93030361D01*
X228313996Y-92869006D01*
X228207553Y-92722499D01*
X228079501Y-92594447D01*
X227932994Y-92488004D01*
X227932993Y-92488003D01*
X227932991Y-92488002D01*
X227771637Y-92405788D01*
X227599406Y-92349828D01*
X227420549Y-92321500D01*
X227420546Y-92321500D01*
X227239454Y-92321500D01*
X227239451Y-92321500D01*
X227060593Y-92349828D01*
X226888362Y-92405788D01*
X226727008Y-92488002D01*
X226653752Y-92541225D01*
X226580499Y-92594447D01*
X226452447Y-92722499D01*
X226399225Y-92795752D01*
X226346002Y-92869008D01*
X226263788Y-93030362D01*
X226207828Y-93202593D01*
X226179500Y-93381450D01*
X225840000Y-93381450D01*
X225840000Y-93368586D01*
X225839999Y-93368581D01*
X225799650Y-93165727D01*
X225720498Y-92974638D01*
X225716944Y-92969319D01*
X225287905Y-93398357D01*
X225255925Y-93279007D01*
X225190099Y-93164993D01*
X225097007Y-93071901D01*
X224982993Y-93006075D01*
X224863639Y-92974093D01*
X225292679Y-92545054D01*
X225287363Y-92541503D01*
X225287359Y-92541501D01*
X225096272Y-92462349D01*
X224893418Y-92422000D01*
X224686581Y-92422000D01*
X224483727Y-92462349D01*
X224292637Y-92541502D01*
X224287319Y-92545054D01*
X224716359Y-92974094D01*
X224597007Y-93006075D01*
X224482993Y-93071901D01*
X224389901Y-93164993D01*
X224324075Y-93279007D01*
X224292094Y-93398359D01*
X223863054Y-92969319D01*
X223859502Y-92974637D01*
X223780349Y-93165727D01*
X223740000Y-93368581D01*
X223398462Y-93368581D01*
X223372171Y-93202593D01*
X223372171Y-93202591D01*
X223316211Y-93030361D01*
X223233996Y-92869006D01*
X223127553Y-92722499D01*
X222999501Y-92594447D01*
X222852994Y-92488004D01*
X222852993Y-92488003D01*
X222852991Y-92488002D01*
X222691637Y-92405788D01*
X222519406Y-92349828D01*
X222340549Y-92321500D01*
X222340546Y-92321500D01*
X222159454Y-92321500D01*
X222159451Y-92321500D01*
X221980593Y-92349828D01*
X221808362Y-92405788D01*
X221647008Y-92488002D01*
X221573752Y-92541225D01*
X221500499Y-92594447D01*
X221372447Y-92722499D01*
X221319225Y-92795752D01*
X221266002Y-92869008D01*
X221183788Y-93030362D01*
X221127828Y-93202593D01*
X221099500Y-93381450D01*
X220860500Y-93381450D01*
X220832171Y-93202593D01*
X220832171Y-93202591D01*
X220776211Y-93030361D01*
X220693996Y-92869006D01*
X220587553Y-92722499D01*
X220459501Y-92594447D01*
X220312994Y-92488004D01*
X220312993Y-92488003D01*
X220312991Y-92488002D01*
X220151637Y-92405788D01*
X219979406Y-92349828D01*
X219800549Y-92321500D01*
X219800546Y-92321500D01*
X219619454Y-92321500D01*
X219619451Y-92321500D01*
X219440593Y-92349828D01*
X219268362Y-92405788D01*
X219107008Y-92488002D01*
X219033752Y-92541225D01*
X218960499Y-92594447D01*
X218832447Y-92722499D01*
X218779225Y-92795752D01*
X218726002Y-92869008D01*
X218643788Y-93030362D01*
X218587828Y-93202593D01*
X218559500Y-93381450D01*
X218320500Y-93381450D01*
X218292171Y-93202593D01*
X218292171Y-93202591D01*
X218236211Y-93030361D01*
X218153996Y-92869006D01*
X218047553Y-92722499D01*
X217919501Y-92594447D01*
X217772994Y-92488004D01*
X217772993Y-92488003D01*
X217772991Y-92488002D01*
X217611637Y-92405788D01*
X217439406Y-92349828D01*
X217260549Y-92321500D01*
X217260546Y-92321500D01*
X217079454Y-92321500D01*
X217079451Y-92321500D01*
X216900593Y-92349828D01*
X216728362Y-92405788D01*
X216567008Y-92488002D01*
X216493752Y-92541225D01*
X216420499Y-92594447D01*
X216292447Y-92722499D01*
X216239225Y-92795752D01*
X216186002Y-92869008D01*
X216103788Y-93030362D01*
X216047828Y-93202593D01*
X216019500Y-93381450D01*
X215780500Y-93381450D01*
X215752171Y-93202593D01*
X215752171Y-93202591D01*
X215696211Y-93030361D01*
X215613996Y-92869006D01*
X215507553Y-92722499D01*
X215379501Y-92594447D01*
X215232994Y-92488004D01*
X215232993Y-92488003D01*
X215232991Y-92488002D01*
X215071637Y-92405788D01*
X214899406Y-92349828D01*
X214720549Y-92321500D01*
X214720546Y-92321500D01*
X214539454Y-92321500D01*
X214539451Y-92321500D01*
X214360593Y-92349828D01*
X214188362Y-92405788D01*
X214027008Y-92488002D01*
X213953752Y-92541225D01*
X213880499Y-92594447D01*
X213752447Y-92722499D01*
X213699225Y-92795752D01*
X213646002Y-92869008D01*
X213563788Y-93030362D01*
X213507828Y-93202593D01*
X213479500Y-93381450D01*
X213240500Y-93381450D01*
X213212171Y-93202593D01*
X213212171Y-93202591D01*
X213156211Y-93030361D01*
X213073996Y-92869006D01*
X212967553Y-92722499D01*
X212839501Y-92594447D01*
X212692994Y-92488004D01*
X212692993Y-92488003D01*
X212692991Y-92488002D01*
X212531637Y-92405788D01*
X212359406Y-92349828D01*
X212180549Y-92321500D01*
X212180546Y-92321500D01*
X211999454Y-92321500D01*
X211999451Y-92321500D01*
X211820593Y-92349828D01*
X211648362Y-92405788D01*
X211487008Y-92488002D01*
X211413752Y-92541225D01*
X211340499Y-92594447D01*
X211212447Y-92722499D01*
X211159225Y-92795752D01*
X211106002Y-92869008D01*
X211023788Y-93030362D01*
X210967828Y-93202593D01*
X210939500Y-93381450D01*
X210700500Y-93381450D01*
X210672171Y-93202593D01*
X210672171Y-93202591D01*
X210616211Y-93030361D01*
X210533996Y-92869006D01*
X210427553Y-92722499D01*
X210299501Y-92594447D01*
X210152994Y-92488004D01*
X210152993Y-92488003D01*
X210152991Y-92488002D01*
X209991637Y-92405788D01*
X209819406Y-92349828D01*
X209640549Y-92321500D01*
X209640546Y-92321500D01*
X209459454Y-92321500D01*
X209459451Y-92321500D01*
X209280593Y-92349828D01*
X209108362Y-92405788D01*
X208947008Y-92488002D01*
X208873752Y-92541225D01*
X208800499Y-92594447D01*
X208672447Y-92722499D01*
X208619225Y-92795752D01*
X208566002Y-92869008D01*
X208483788Y-93030362D01*
X208427828Y-93202593D01*
X208399500Y-93381450D01*
X208160500Y-93381450D01*
X208132171Y-93202593D01*
X208132171Y-93202591D01*
X208076211Y-93030361D01*
X207993996Y-92869006D01*
X207887553Y-92722499D01*
X207759501Y-92594447D01*
X207612994Y-92488004D01*
X207612993Y-92488003D01*
X207612991Y-92488002D01*
X207451637Y-92405788D01*
X207279406Y-92349828D01*
X207100549Y-92321500D01*
X207100546Y-92321500D01*
X206919454Y-92321500D01*
X206919451Y-92321500D01*
X206740593Y-92349828D01*
X206568362Y-92405788D01*
X206407008Y-92488002D01*
X206333752Y-92541225D01*
X206260499Y-92594447D01*
X206132447Y-92722499D01*
X206079225Y-92795752D01*
X206026002Y-92869008D01*
X205943788Y-93030362D01*
X205887828Y-93202593D01*
X205859500Y-93381450D01*
X205620500Y-93381450D01*
X205592171Y-93202593D01*
X205592171Y-93202591D01*
X205536211Y-93030361D01*
X205453996Y-92869006D01*
X205347553Y-92722499D01*
X205219501Y-92594447D01*
X205072994Y-92488004D01*
X205072993Y-92488003D01*
X205072991Y-92488002D01*
X204911637Y-92405788D01*
X204739406Y-92349828D01*
X204560549Y-92321500D01*
X204560546Y-92321500D01*
X204379454Y-92321500D01*
X204379451Y-92321500D01*
X204200593Y-92349828D01*
X204028362Y-92405788D01*
X203867008Y-92488002D01*
X203793752Y-92541225D01*
X203720499Y-92594447D01*
X203592447Y-92722499D01*
X203539225Y-92795752D01*
X203486002Y-92869008D01*
X203403788Y-93030362D01*
X203347828Y-93202593D01*
X203319500Y-93381450D01*
X203080500Y-93381450D01*
X203052171Y-93202593D01*
X203052171Y-93202591D01*
X202996211Y-93030361D01*
X202913996Y-92869006D01*
X202807553Y-92722499D01*
X202679501Y-92594447D01*
X202532994Y-92488004D01*
X202532993Y-92488003D01*
X202532991Y-92488002D01*
X202371637Y-92405788D01*
X202199406Y-92349828D01*
X202020549Y-92321500D01*
X202020546Y-92321500D01*
X201839454Y-92321500D01*
X201839451Y-92321500D01*
X201660593Y-92349828D01*
X201488362Y-92405788D01*
X201327008Y-92488002D01*
X201253752Y-92541225D01*
X201180499Y-92594447D01*
X201052447Y-92722499D01*
X200999225Y-92795752D01*
X200946002Y-92869008D01*
X200863788Y-93030362D01*
X200807828Y-93202593D01*
X200779500Y-93381450D01*
X200540500Y-93381450D01*
X200512171Y-93202593D01*
X200512171Y-93202591D01*
X200456211Y-93030361D01*
X200373996Y-92869006D01*
X200267553Y-92722499D01*
X200139501Y-92594447D01*
X199992994Y-92488004D01*
X199992993Y-92488003D01*
X199992991Y-92488002D01*
X199831637Y-92405788D01*
X199659406Y-92349828D01*
X199480549Y-92321500D01*
X199480546Y-92321500D01*
X199299454Y-92321500D01*
X199299451Y-92321500D01*
X199120593Y-92349828D01*
X198948362Y-92405788D01*
X198787008Y-92488002D01*
X198713752Y-92541225D01*
X198640499Y-92594447D01*
X198512447Y-92722499D01*
X198459225Y-92795752D01*
X198406002Y-92869008D01*
X198323788Y-93030362D01*
X198267828Y-93202593D01*
X198239500Y-93381450D01*
X198000500Y-93381450D01*
X197972171Y-93202593D01*
X197972171Y-93202591D01*
X197916211Y-93030361D01*
X197833996Y-92869006D01*
X197727553Y-92722499D01*
X197599501Y-92594447D01*
X197452994Y-92488004D01*
X197452993Y-92488003D01*
X197452991Y-92488002D01*
X197291637Y-92405788D01*
X197119406Y-92349828D01*
X196940549Y-92321500D01*
X196940546Y-92321500D01*
X196759454Y-92321500D01*
X196759451Y-92321500D01*
X196580593Y-92349828D01*
X196408362Y-92405788D01*
X196247008Y-92488002D01*
X196173752Y-92541225D01*
X196100499Y-92594447D01*
X195972447Y-92722499D01*
X195919225Y-92795752D01*
X195866002Y-92869008D01*
X195783788Y-93030362D01*
X195727828Y-93202593D01*
X195699500Y-93381450D01*
X195460500Y-93381450D01*
X195432171Y-93202593D01*
X195432171Y-93202591D01*
X195376211Y-93030361D01*
X195293996Y-92869006D01*
X195187553Y-92722499D01*
X195059501Y-92594447D01*
X194912994Y-92488004D01*
X194912993Y-92488003D01*
X194912991Y-92488002D01*
X194751637Y-92405788D01*
X194579406Y-92349828D01*
X194400549Y-92321500D01*
X194400546Y-92321500D01*
X194219454Y-92321500D01*
X194219451Y-92321500D01*
X194040593Y-92349828D01*
X193868362Y-92405788D01*
X193707008Y-92488002D01*
X193633752Y-92541225D01*
X193560499Y-92594447D01*
X193432447Y-92722499D01*
X193379225Y-92795752D01*
X193326002Y-92869008D01*
X193243788Y-93030362D01*
X193187828Y-93202593D01*
X193159500Y-93381450D01*
X132834502Y-93381450D01*
X132834502Y-88789814D01*
X137110000Y-88789814D01*
X137110000Y-89010185D01*
X137144471Y-89227829D01*
X137212569Y-89437413D01*
X137312612Y-89633759D01*
X137312616Y-89633764D01*
X137329176Y-89656557D01*
X137930443Y-89055289D01*
X137950889Y-89131591D01*
X138029881Y-89268408D01*
X138141592Y-89380119D01*
X138278409Y-89459111D01*
X138354707Y-89479555D01*
X137753441Y-90080822D01*
X137776238Y-90097385D01*
X137776246Y-90097390D01*
X137972586Y-90197430D01*
X138182170Y-90265528D01*
X138399815Y-90300000D01*
X138620185Y-90300000D01*
X138837829Y-90265528D01*
X139047413Y-90197430D01*
X139243754Y-90097389D01*
X139243764Y-90097383D01*
X139266557Y-90080822D01*
X138665290Y-89479555D01*
X138741591Y-89459111D01*
X138878408Y-89380119D01*
X138990119Y-89268408D01*
X139069111Y-89131591D01*
X139089555Y-89055290D01*
X139690822Y-89656557D01*
X139707383Y-89633764D01*
X139707389Y-89633754D01*
X139807430Y-89437413D01*
X139875528Y-89227829D01*
X139910000Y-89010185D01*
X139910000Y-88789814D01*
X139875528Y-88572170D01*
X139807430Y-88362586D01*
X139707390Y-88166246D01*
X139707385Y-88166238D01*
X139690821Y-88143441D01*
X139089555Y-88744707D01*
X139069111Y-88668409D01*
X138990119Y-88531592D01*
X138878408Y-88419881D01*
X138741591Y-88340889D01*
X138665289Y-88320444D01*
X139078836Y-87906898D01*
X142009500Y-87906898D01*
X142009500Y-89893096D01*
X142009501Y-89893099D01*
X142020124Y-89981564D01*
X142075639Y-90122342D01*
X142167078Y-90242922D01*
X142287658Y-90334361D01*
X142428436Y-90389876D01*
X142516901Y-90400500D01*
X144503098Y-90400499D01*
X144591564Y-90389876D01*
X144732342Y-90334361D01*
X144852922Y-90242922D01*
X144944361Y-90122342D01*
X144999876Y-89981564D01*
X145010500Y-89893099D01*
X145010499Y-87906902D01*
X144999876Y-87818436D01*
X144944361Y-87677658D01*
X144852922Y-87557078D01*
X144732342Y-87465639D01*
X144591564Y-87410124D01*
X144503099Y-87399500D01*
X142516903Y-87399500D01*
X142516897Y-87399501D01*
X142428436Y-87410124D01*
X142287658Y-87465639D01*
X142287657Y-87465639D01*
X142287656Y-87465640D01*
X142167081Y-87557075D01*
X142167075Y-87557081D01*
X142075640Y-87677656D01*
X142020124Y-87818435D01*
X142009500Y-87906898D01*
X139078836Y-87906898D01*
X139151796Y-87833938D01*
X139266557Y-87719176D01*
X139243764Y-87702616D01*
X139243759Y-87702612D01*
X139047413Y-87602569D01*
X138837829Y-87534471D01*
X138620185Y-87500000D01*
X138399815Y-87500000D01*
X138182170Y-87534471D01*
X137972586Y-87602569D01*
X137776237Y-87702614D01*
X137753441Y-87719176D01*
X138354709Y-88320444D01*
X138278409Y-88340889D01*
X138141592Y-88419881D01*
X138029881Y-88531592D01*
X137950889Y-88668409D01*
X137930444Y-88744709D01*
X137329176Y-88143441D01*
X137312614Y-88166237D01*
X137212569Y-88362586D01*
X137144471Y-88572170D01*
X137110000Y-88789814D01*
X132834502Y-88789814D01*
X132834502Y-73574893D01*
X157395500Y-73574893D01*
X157395500Y-74761106D01*
X157406123Y-74849565D01*
X157461637Y-74990339D01*
X157461638Y-74990341D01*
X157461639Y-74990342D01*
X157553078Y-75110922D01*
X157673658Y-75202361D01*
X157673659Y-75202361D01*
X157673660Y-75202362D01*
X157744047Y-75230119D01*
X157814436Y-75257877D01*
X157902898Y-75268500D01*
X157902900Y-75268500D01*
X159089100Y-75268500D01*
X159089102Y-75268500D01*
X159177564Y-75257877D01*
X159318342Y-75202361D01*
X159438922Y-75110922D01*
X159530361Y-74990342D01*
X159585877Y-74849564D01*
X159596500Y-74761102D01*
X159596500Y-73574898D01*
X159585877Y-73486436D01*
X159530361Y-73345658D01*
X159438922Y-73225078D01*
X159318342Y-73133639D01*
X159318341Y-73133638D01*
X159318339Y-73133637D01*
X159177565Y-73078123D01*
X159089106Y-73067500D01*
X159089102Y-73067500D01*
X157902898Y-73067500D01*
X157902893Y-73067500D01*
X157814434Y-73078123D01*
X157673660Y-73133637D01*
X157673656Y-73133640D01*
X157553081Y-73225075D01*
X157553075Y-73225081D01*
X157461640Y-73345656D01*
X157461637Y-73345660D01*
X157406123Y-73486434D01*
X157395500Y-73574893D01*
X132834502Y-73574893D01*
X132834502Y-72870000D01*
X132853409Y-72811809D01*
X132902909Y-72775845D01*
X132933502Y-72771000D01*
X140715999Y-72771000D01*
X140716000Y-72771000D01*
X140716000Y-72557631D01*
X158030632Y-72557631D01*
X158204310Y-72629570D01*
X158397506Y-72667999D01*
X158397510Y-72668000D01*
X158594490Y-72668000D01*
X158594493Y-72667999D01*
X158787687Y-72629571D01*
X158961366Y-72557631D01*
X158921769Y-72518034D01*
X169581500Y-72518034D01*
X169581500Y-72769965D01*
X169620908Y-73018780D01*
X169640190Y-73078123D01*
X169698759Y-73258379D01*
X169813130Y-73482845D01*
X169961207Y-73686656D01*
X170139344Y-73864793D01*
X170343155Y-74012870D01*
X170567621Y-74127241D01*
X170807215Y-74205090D01*
X170807216Y-74205090D01*
X170807219Y-74205091D01*
X171056035Y-74244500D01*
X171056038Y-74244500D01*
X171307965Y-74244500D01*
X171556780Y-74205091D01*
X171556781Y-74205090D01*
X171556785Y-74205090D01*
X171796379Y-74127241D01*
X172020845Y-74012870D01*
X172224656Y-73864793D01*
X172402793Y-73686656D01*
X172550870Y-73482845D01*
X172665241Y-73258379D01*
X172743090Y-73018785D01*
X172743091Y-73018780D01*
X172782500Y-72769965D01*
X172782500Y-72518034D01*
X174581500Y-72518034D01*
X174581500Y-72769965D01*
X174620908Y-73018780D01*
X174640190Y-73078123D01*
X174698759Y-73258379D01*
X174813130Y-73482845D01*
X174961207Y-73686656D01*
X175139344Y-73864793D01*
X175343155Y-74012870D01*
X175567621Y-74127241D01*
X175807215Y-74205090D01*
X175807216Y-74205090D01*
X175807219Y-74205091D01*
X176056035Y-74244500D01*
X176056038Y-74244500D01*
X176307965Y-74244500D01*
X176556780Y-74205091D01*
X176556781Y-74205090D01*
X176556785Y-74205090D01*
X176796379Y-74127241D01*
X177020845Y-74012870D01*
X177224656Y-73864793D01*
X177402793Y-73686656D01*
X177550870Y-73482845D01*
X177665241Y-73258379D01*
X177743090Y-73018785D01*
X177743091Y-73018780D01*
X177782500Y-72769965D01*
X177782500Y-72518034D01*
X179581500Y-72518034D01*
X179581500Y-72769965D01*
X179620908Y-73018780D01*
X179640190Y-73078123D01*
X179698759Y-73258379D01*
X179813130Y-73482845D01*
X179961207Y-73686656D01*
X180139344Y-73864793D01*
X180343155Y-74012870D01*
X180567621Y-74127241D01*
X180807215Y-74205090D01*
X180807216Y-74205090D01*
X180807219Y-74205091D01*
X181056035Y-74244500D01*
X181056038Y-74244500D01*
X181307965Y-74244500D01*
X181556780Y-74205091D01*
X181556781Y-74205090D01*
X181556785Y-74205090D01*
X181796379Y-74127241D01*
X182020845Y-74012870D01*
X182224656Y-73864793D01*
X182402793Y-73686656D01*
X182550870Y-73482845D01*
X182665241Y-73258379D01*
X182743090Y-73018785D01*
X182743091Y-73018780D01*
X182782500Y-72769965D01*
X182782500Y-72518034D01*
X182743091Y-72269219D01*
X182743090Y-72269215D01*
X182665241Y-72029621D01*
X182559654Y-71822394D01*
X182550871Y-71805156D01*
X182406270Y-71606130D01*
X182406269Y-71606128D01*
X182402796Y-71601348D01*
X182402795Y-71601347D01*
X182402793Y-71601344D01*
X182352342Y-71550893D01*
X184581500Y-71550893D01*
X184581500Y-73737106D01*
X184592123Y-73825565D01*
X184647637Y-73966339D01*
X184647638Y-73966341D01*
X184647639Y-73966342D01*
X184739078Y-74086922D01*
X184859658Y-74178361D01*
X184859659Y-74178361D01*
X184859660Y-74178362D01*
X184927438Y-74205090D01*
X185000436Y-74233877D01*
X185088898Y-74244500D01*
X185088900Y-74244500D01*
X187275100Y-74244500D01*
X187275102Y-74244500D01*
X187363564Y-74233877D01*
X187504342Y-74178361D01*
X187624922Y-74086922D01*
X187716361Y-73966342D01*
X187771877Y-73825564D01*
X187782500Y-73737102D01*
X187782500Y-71550898D01*
X187771877Y-71462436D01*
X187744119Y-71392047D01*
X187716362Y-71321660D01*
X187716361Y-71321659D01*
X187716361Y-71321658D01*
X187624922Y-71201078D01*
X187504342Y-71109639D01*
X187504341Y-71109638D01*
X187504339Y-71109637D01*
X187363565Y-71054123D01*
X187275106Y-71043500D01*
X187275102Y-71043500D01*
X185088898Y-71043500D01*
X185088893Y-71043500D01*
X185000434Y-71054123D01*
X184859660Y-71109637D01*
X184859656Y-71109640D01*
X184739081Y-71201075D01*
X184739075Y-71201081D01*
X184647640Y-71321656D01*
X184647637Y-71321660D01*
X184592123Y-71462434D01*
X184581500Y-71550893D01*
X182352342Y-71550893D01*
X182224656Y-71423207D01*
X182020845Y-71275130D01*
X182020844Y-71275129D01*
X182020842Y-71275128D01*
X181796379Y-71160759D01*
X181556780Y-71082908D01*
X181307965Y-71043500D01*
X181307962Y-71043500D01*
X181056038Y-71043500D01*
X181056035Y-71043500D01*
X180807219Y-71082908D01*
X180567620Y-71160759D01*
X180343157Y-71275128D01*
X180139345Y-71423206D01*
X179961206Y-71601345D01*
X179813128Y-71805157D01*
X179698759Y-72029620D01*
X179620908Y-72269219D01*
X179581500Y-72518034D01*
X177782500Y-72518034D01*
X177743091Y-72269219D01*
X177743090Y-72269215D01*
X177665241Y-72029621D01*
X177550870Y-71805155D01*
X177402793Y-71601344D01*
X177224656Y-71423207D01*
X177020845Y-71275130D01*
X177020844Y-71275129D01*
X177020842Y-71275128D01*
X176796379Y-71160759D01*
X176556780Y-71082908D01*
X176307965Y-71043500D01*
X176307962Y-71043500D01*
X176056038Y-71043500D01*
X176056035Y-71043500D01*
X175807219Y-71082908D01*
X175567620Y-71160759D01*
X175343157Y-71275128D01*
X175139345Y-71423206D01*
X174961206Y-71601345D01*
X174813128Y-71805157D01*
X174698759Y-72029620D01*
X174620908Y-72269219D01*
X174581500Y-72518034D01*
X172782500Y-72518034D01*
X172743091Y-72269219D01*
X172743090Y-72269215D01*
X172665241Y-72029621D01*
X172550870Y-71805155D01*
X172402793Y-71601344D01*
X172224656Y-71423207D01*
X172020845Y-71275130D01*
X172020844Y-71275129D01*
X172020842Y-71275128D01*
X171796379Y-71160759D01*
X171556780Y-71082908D01*
X171307965Y-71043500D01*
X171307962Y-71043500D01*
X171056038Y-71043500D01*
X171056035Y-71043500D01*
X170807219Y-71082908D01*
X170567620Y-71160759D01*
X170343157Y-71275128D01*
X170139345Y-71423206D01*
X169961206Y-71601345D01*
X169813128Y-71805157D01*
X169698759Y-72029620D01*
X169620908Y-72269219D01*
X169581500Y-72518034D01*
X158921769Y-72518034D01*
X158495999Y-72092264D01*
X158030632Y-72557631D01*
X140716000Y-72557631D01*
X140716000Y-71569506D01*
X157496000Y-71569506D01*
X157496000Y-71766493D01*
X157534429Y-71959688D01*
X157534429Y-71959690D01*
X157606367Y-72133366D01*
X158071734Y-71667999D01*
X158019074Y-71615339D01*
X158096000Y-71615339D01*
X158096000Y-71720661D01*
X158123259Y-71822394D01*
X158175920Y-71913606D01*
X158250394Y-71988080D01*
X158341606Y-72040741D01*
X158443339Y-72068000D01*
X158548661Y-72068000D01*
X158650394Y-72040741D01*
X158741606Y-71988080D01*
X158816080Y-71913606D01*
X158868741Y-71822394D01*
X158896000Y-71720661D01*
X158896000Y-71667999D01*
X158920264Y-71667999D01*
X159385631Y-72133366D01*
X159457571Y-71959687D01*
X159495999Y-71766493D01*
X159496000Y-71766490D01*
X159496000Y-71569509D01*
X159495999Y-71569506D01*
X159457570Y-71376311D01*
X159457570Y-71376309D01*
X159385631Y-71202632D01*
X158920264Y-71667999D01*
X158896000Y-71667999D01*
X158896000Y-71615339D01*
X158868741Y-71513606D01*
X158816080Y-71422394D01*
X158741606Y-71347920D01*
X158650394Y-71295259D01*
X158548661Y-71268000D01*
X158443339Y-71268000D01*
X158341606Y-71295259D01*
X158250394Y-71347920D01*
X158175920Y-71422394D01*
X158123259Y-71513606D01*
X158096000Y-71615339D01*
X158019074Y-71615339D01*
X157606367Y-71202632D01*
X157534429Y-71376309D01*
X157534429Y-71376311D01*
X157496000Y-71569506D01*
X140716000Y-71569506D01*
X140716000Y-70778367D01*
X158030632Y-70778367D01*
X158495999Y-71243734D01*
X158961366Y-70778367D01*
X158787689Y-70706429D01*
X158594493Y-70668000D01*
X158397506Y-70668000D01*
X158204311Y-70706429D01*
X158204309Y-70706429D01*
X158030632Y-70778367D01*
X140716000Y-70778367D01*
X140716000Y-67981450D01*
X193159500Y-67981450D01*
X193159500Y-68162549D01*
X193187828Y-68341406D01*
X193243788Y-68513637D01*
X193273525Y-68572000D01*
X193326004Y-68674994D01*
X193432447Y-68821501D01*
X193560499Y-68949553D01*
X193707006Y-69055996D01*
X193868361Y-69138211D01*
X194040591Y-69194171D01*
X194112136Y-69205502D01*
X194219451Y-69222500D01*
X194219454Y-69222500D01*
X194400549Y-69222500D01*
X194489977Y-69208335D01*
X194579409Y-69194171D01*
X194751639Y-69138211D01*
X194912994Y-69055996D01*
X195059501Y-68949553D01*
X195187553Y-68821501D01*
X195293996Y-68674994D01*
X195376211Y-68513639D01*
X195432171Y-68341409D01*
X195446335Y-68251977D01*
X195460500Y-68162549D01*
X195460500Y-67981450D01*
X195699500Y-67981450D01*
X195699500Y-68162549D01*
X195727828Y-68341406D01*
X195783788Y-68513637D01*
X195813525Y-68572000D01*
X195866004Y-68674994D01*
X195972447Y-68821501D01*
X196100499Y-68949553D01*
X196247006Y-69055996D01*
X196408361Y-69138211D01*
X196580591Y-69194171D01*
X196652136Y-69205502D01*
X196759451Y-69222500D01*
X196759454Y-69222500D01*
X196940549Y-69222500D01*
X197029977Y-69208335D01*
X197119409Y-69194171D01*
X197291639Y-69138211D01*
X197452994Y-69055996D01*
X197599501Y-68949553D01*
X197727553Y-68821501D01*
X197833996Y-68674994D01*
X197916211Y-68513639D01*
X197972171Y-68341409D01*
X197986335Y-68251977D01*
X198000500Y-68162549D01*
X198000500Y-67981450D01*
X198239500Y-67981450D01*
X198239500Y-68162549D01*
X198267828Y-68341406D01*
X198323788Y-68513637D01*
X198353525Y-68572000D01*
X198406004Y-68674994D01*
X198512447Y-68821501D01*
X198640499Y-68949553D01*
X198787006Y-69055996D01*
X198948361Y-69138211D01*
X199120591Y-69194171D01*
X199192136Y-69205502D01*
X199299451Y-69222500D01*
X199299454Y-69222500D01*
X199480549Y-69222500D01*
X199569977Y-69208335D01*
X199659409Y-69194171D01*
X199831639Y-69138211D01*
X199992994Y-69055996D01*
X200139501Y-68949553D01*
X200267553Y-68821501D01*
X200373996Y-68674994D01*
X200456211Y-68513639D01*
X200512171Y-68341409D01*
X200526335Y-68251977D01*
X200540500Y-68162549D01*
X200540500Y-67981450D01*
X200779500Y-67981450D01*
X200779500Y-68162549D01*
X200807828Y-68341406D01*
X200863788Y-68513637D01*
X200893525Y-68572000D01*
X200946004Y-68674994D01*
X201052447Y-68821501D01*
X201180499Y-68949553D01*
X201327006Y-69055996D01*
X201488361Y-69138211D01*
X201660591Y-69194171D01*
X201732136Y-69205502D01*
X201839451Y-69222500D01*
X201839454Y-69222500D01*
X202020549Y-69222500D01*
X202109977Y-69208335D01*
X202199409Y-69194171D01*
X202371639Y-69138211D01*
X202532994Y-69055996D01*
X202679501Y-68949553D01*
X202807553Y-68821501D01*
X202913996Y-68674994D01*
X202996211Y-68513639D01*
X203052171Y-68341409D01*
X203066335Y-68251977D01*
X203080500Y-68162549D01*
X203080500Y-67981450D01*
X203319500Y-67981450D01*
X203319500Y-68162549D01*
X203347828Y-68341406D01*
X203403788Y-68513637D01*
X203433525Y-68572000D01*
X203486004Y-68674994D01*
X203592447Y-68821501D01*
X203720499Y-68949553D01*
X203867006Y-69055996D01*
X204028361Y-69138211D01*
X204200591Y-69194171D01*
X204272136Y-69205502D01*
X204379451Y-69222500D01*
X204379454Y-69222500D01*
X204560549Y-69222500D01*
X204649977Y-69208335D01*
X204739409Y-69194171D01*
X204911639Y-69138211D01*
X205072994Y-69055996D01*
X205219501Y-68949553D01*
X205347553Y-68821501D01*
X205453996Y-68674994D01*
X205536211Y-68513639D01*
X205592171Y-68341409D01*
X205606335Y-68251977D01*
X205620500Y-68162549D01*
X205620500Y-67981452D01*
X205620144Y-67979204D01*
X205620144Y-67979202D01*
X205618462Y-67968581D01*
X205960000Y-67968581D01*
X205960000Y-68175418D01*
X206000349Y-68378272D01*
X206079501Y-68569359D01*
X206079503Y-68569363D01*
X206083054Y-68574678D01*
X206512093Y-68145639D01*
X206544075Y-68264993D01*
X206609901Y-68379007D01*
X206702993Y-68472099D01*
X206817007Y-68537925D01*
X206936357Y-68569905D01*
X206507319Y-68998944D01*
X206512638Y-69002498D01*
X206703727Y-69081650D01*
X206906581Y-69121999D01*
X206906586Y-69122000D01*
X207113414Y-69122000D01*
X207113418Y-69121999D01*
X207316272Y-69081650D01*
X207507357Y-69002499D01*
X207507359Y-69002498D01*
X207512678Y-68998943D01*
X207083640Y-68569905D01*
X207202993Y-68537925D01*
X207317007Y-68472099D01*
X207410099Y-68379007D01*
X207475925Y-68264993D01*
X207507905Y-68145640D01*
X207936943Y-68574678D01*
X207940498Y-68569359D01*
X207940499Y-68569357D01*
X208019650Y-68378272D01*
X208059999Y-68175418D01*
X208060000Y-68175413D01*
X208060000Y-67981450D01*
X208399500Y-67981450D01*
X208399500Y-68162549D01*
X208427828Y-68341406D01*
X208483788Y-68513637D01*
X208513525Y-68572000D01*
X208566004Y-68674994D01*
X208672447Y-68821501D01*
X208800499Y-68949553D01*
X208947006Y-69055996D01*
X209108361Y-69138211D01*
X209280591Y-69194171D01*
X209352136Y-69205502D01*
X209459451Y-69222500D01*
X209459454Y-69222500D01*
X209640549Y-69222500D01*
X209729977Y-69208335D01*
X209819409Y-69194171D01*
X209991639Y-69138211D01*
X210152994Y-69055996D01*
X210299501Y-68949553D01*
X210427553Y-68821501D01*
X210533996Y-68674994D01*
X210616211Y-68513639D01*
X210672171Y-68341409D01*
X210686335Y-68251977D01*
X210700500Y-68162549D01*
X210700500Y-67981450D01*
X210939500Y-67981450D01*
X210939500Y-68162549D01*
X210967828Y-68341406D01*
X211023788Y-68513637D01*
X211053525Y-68572000D01*
X211106004Y-68674994D01*
X211212447Y-68821501D01*
X211340499Y-68949553D01*
X211487006Y-69055996D01*
X211648361Y-69138211D01*
X211820591Y-69194171D01*
X211892136Y-69205502D01*
X211999451Y-69222500D01*
X211999454Y-69222500D01*
X212180549Y-69222500D01*
X212269977Y-69208335D01*
X212359409Y-69194171D01*
X212531639Y-69138211D01*
X212692994Y-69055996D01*
X212839501Y-68949553D01*
X212967553Y-68821501D01*
X213073996Y-68674994D01*
X213156211Y-68513639D01*
X213212171Y-68341409D01*
X213226335Y-68251977D01*
X213240500Y-68162549D01*
X213240500Y-67981450D01*
X213479500Y-67981450D01*
X213479500Y-68162549D01*
X213507828Y-68341406D01*
X213563788Y-68513637D01*
X213593525Y-68572000D01*
X213646004Y-68674994D01*
X213752447Y-68821501D01*
X213880499Y-68949553D01*
X214027006Y-69055996D01*
X214188361Y-69138211D01*
X214360591Y-69194171D01*
X214432136Y-69205502D01*
X214539451Y-69222500D01*
X214539454Y-69222500D01*
X214720549Y-69222500D01*
X214809977Y-69208335D01*
X214899409Y-69194171D01*
X215071639Y-69138211D01*
X215232994Y-69055996D01*
X215379501Y-68949553D01*
X215507553Y-68821501D01*
X215613996Y-68674994D01*
X215696211Y-68513639D01*
X215752171Y-68341409D01*
X215766335Y-68251977D01*
X215780500Y-68162549D01*
X215780500Y-67981450D01*
X216019500Y-67981450D01*
X216019500Y-68162549D01*
X216047828Y-68341406D01*
X216103788Y-68513637D01*
X216133525Y-68572000D01*
X216186004Y-68674994D01*
X216292447Y-68821501D01*
X216420499Y-68949553D01*
X216567006Y-69055996D01*
X216728361Y-69138211D01*
X216900591Y-69194171D01*
X216972136Y-69205502D01*
X217079451Y-69222500D01*
X217079454Y-69222500D01*
X217260549Y-69222500D01*
X217349977Y-69208335D01*
X217439409Y-69194171D01*
X217611639Y-69138211D01*
X217772994Y-69055996D01*
X217919501Y-68949553D01*
X218047553Y-68821501D01*
X218153996Y-68674994D01*
X218236211Y-68513639D01*
X218292171Y-68341409D01*
X218306335Y-68251977D01*
X218320500Y-68162549D01*
X218320500Y-67981450D01*
X218559500Y-67981450D01*
X218559500Y-68162549D01*
X218587828Y-68341406D01*
X218643788Y-68513637D01*
X218673525Y-68572000D01*
X218726004Y-68674994D01*
X218832447Y-68821501D01*
X218960499Y-68949553D01*
X219107006Y-69055996D01*
X219268361Y-69138211D01*
X219440591Y-69194171D01*
X219512136Y-69205502D01*
X219619451Y-69222500D01*
X219619454Y-69222500D01*
X219800549Y-69222500D01*
X219889977Y-69208335D01*
X219979409Y-69194171D01*
X220151639Y-69138211D01*
X220312994Y-69055996D01*
X220459501Y-68949553D01*
X220587553Y-68821501D01*
X220693996Y-68674994D01*
X220776211Y-68513639D01*
X220832171Y-68341409D01*
X220846335Y-68251977D01*
X220860500Y-68162549D01*
X220860500Y-67981450D01*
X221099500Y-67981450D01*
X221099500Y-68162549D01*
X221127828Y-68341406D01*
X221183788Y-68513637D01*
X221213525Y-68572000D01*
X221266004Y-68674994D01*
X221372447Y-68821501D01*
X221500499Y-68949553D01*
X221647006Y-69055996D01*
X221808361Y-69138211D01*
X221980591Y-69194171D01*
X222052136Y-69205502D01*
X222159451Y-69222500D01*
X222159454Y-69222500D01*
X222340549Y-69222500D01*
X222429977Y-69208335D01*
X222519409Y-69194171D01*
X222691639Y-69138211D01*
X222852994Y-69055996D01*
X222999501Y-68949553D01*
X223127553Y-68821501D01*
X223233996Y-68674994D01*
X223316211Y-68513639D01*
X223372171Y-68341409D01*
X223386335Y-68251977D01*
X223400500Y-68162549D01*
X223400500Y-67981450D01*
X223639500Y-67981450D01*
X223639500Y-68162549D01*
X223667828Y-68341406D01*
X223723788Y-68513637D01*
X223753525Y-68572000D01*
X223806004Y-68674994D01*
X223912447Y-68821501D01*
X224040499Y-68949553D01*
X224187006Y-69055996D01*
X224348361Y-69138211D01*
X224520591Y-69194171D01*
X224592136Y-69205502D01*
X224699451Y-69222500D01*
X224699454Y-69222500D01*
X224880549Y-69222500D01*
X224969977Y-69208335D01*
X225059409Y-69194171D01*
X225231639Y-69138211D01*
X225392994Y-69055996D01*
X225539501Y-68949553D01*
X225667553Y-68821501D01*
X225773996Y-68674994D01*
X225856211Y-68513639D01*
X225912171Y-68341409D01*
X225926335Y-68251977D01*
X225940500Y-68162549D01*
X225940500Y-67981450D01*
X226179500Y-67981450D01*
X226179500Y-68162549D01*
X226207828Y-68341406D01*
X226263788Y-68513637D01*
X226293525Y-68572000D01*
X226346004Y-68674994D01*
X226452447Y-68821501D01*
X226580499Y-68949553D01*
X226727006Y-69055996D01*
X226888361Y-69138211D01*
X227060591Y-69194171D01*
X227132136Y-69205502D01*
X227239451Y-69222500D01*
X227239454Y-69222500D01*
X227420549Y-69222500D01*
X227509977Y-69208335D01*
X227599409Y-69194171D01*
X227771639Y-69138211D01*
X227932994Y-69055996D01*
X228079501Y-68949553D01*
X228207553Y-68821501D01*
X228313996Y-68674994D01*
X228396211Y-68513639D01*
X228452171Y-68341409D01*
X228466335Y-68251977D01*
X228480500Y-68162549D01*
X228480500Y-67981450D01*
X228719500Y-67981450D01*
X228719500Y-68162549D01*
X228747828Y-68341406D01*
X228803788Y-68513637D01*
X228833525Y-68572000D01*
X228886004Y-68674994D01*
X228992447Y-68821501D01*
X229120499Y-68949553D01*
X229267006Y-69055996D01*
X229428361Y-69138211D01*
X229600591Y-69194171D01*
X229672136Y-69205502D01*
X229779451Y-69222500D01*
X229779454Y-69222500D01*
X229960549Y-69222500D01*
X230049977Y-69208335D01*
X230139409Y-69194171D01*
X230311639Y-69138211D01*
X230472994Y-69055996D01*
X230619501Y-68949553D01*
X230747553Y-68821501D01*
X230853996Y-68674994D01*
X230936211Y-68513639D01*
X230992171Y-68341409D01*
X231006335Y-68251977D01*
X231020500Y-68162549D01*
X231020500Y-67981450D01*
X231259500Y-67981450D01*
X231259500Y-68162549D01*
X231287828Y-68341406D01*
X231343788Y-68513637D01*
X231373525Y-68572000D01*
X231426004Y-68674994D01*
X231532447Y-68821501D01*
X231660499Y-68949553D01*
X231807006Y-69055996D01*
X231968361Y-69138211D01*
X232140591Y-69194171D01*
X232212136Y-69205502D01*
X232319451Y-69222500D01*
X232319454Y-69222500D01*
X232500549Y-69222500D01*
X232589977Y-69208335D01*
X232679409Y-69194171D01*
X232851639Y-69138211D01*
X233012994Y-69055996D01*
X233159501Y-68949553D01*
X233287553Y-68821501D01*
X233393996Y-68674994D01*
X233476211Y-68513639D01*
X233532171Y-68341409D01*
X233546335Y-68251977D01*
X233560500Y-68162549D01*
X233560500Y-67981450D01*
X233799500Y-67981450D01*
X233799500Y-68162549D01*
X233827828Y-68341406D01*
X233883788Y-68513637D01*
X233913525Y-68572000D01*
X233966004Y-68674994D01*
X234072447Y-68821501D01*
X234200499Y-68949553D01*
X234347006Y-69055996D01*
X234508361Y-69138211D01*
X234680591Y-69194171D01*
X234752136Y-69205502D01*
X234859451Y-69222500D01*
X234859454Y-69222500D01*
X235040549Y-69222500D01*
X235129977Y-69208335D01*
X235219409Y-69194171D01*
X235391639Y-69138211D01*
X235552994Y-69055996D01*
X235699501Y-68949553D01*
X235827553Y-68821501D01*
X235933996Y-68674994D01*
X236016211Y-68513639D01*
X236072171Y-68341409D01*
X236086335Y-68251977D01*
X236100500Y-68162549D01*
X236100500Y-67981450D01*
X236339500Y-67981450D01*
X236339500Y-68162549D01*
X236367828Y-68341406D01*
X236423788Y-68513637D01*
X236453525Y-68572000D01*
X236506004Y-68674994D01*
X236612447Y-68821501D01*
X236740499Y-68949553D01*
X236887006Y-69055996D01*
X237048361Y-69138211D01*
X237220591Y-69194171D01*
X237292136Y-69205502D01*
X237399451Y-69222500D01*
X237399454Y-69222500D01*
X237580549Y-69222500D01*
X237669977Y-69208335D01*
X237759409Y-69194171D01*
X237931639Y-69138211D01*
X238092994Y-69055996D01*
X238239501Y-68949553D01*
X238367553Y-68821501D01*
X238473996Y-68674994D01*
X238556211Y-68513639D01*
X238612171Y-68341409D01*
X238626335Y-68251977D01*
X238640500Y-68162549D01*
X238640500Y-67981450D01*
X238612171Y-67802593D01*
X238612171Y-67802591D01*
X238556211Y-67630361D01*
X238473996Y-67469006D01*
X238367553Y-67322499D01*
X238239501Y-67194447D01*
X238215666Y-67177130D01*
X238879500Y-67177130D01*
X238879500Y-68966860D01*
X238879501Y-68966863D01*
X238882414Y-68991990D01*
X238907756Y-69049385D01*
X238927794Y-69094765D01*
X239007235Y-69174206D01*
X239110009Y-69219585D01*
X239135135Y-69222500D01*
X240924864Y-69222499D01*
X240949991Y-69219585D01*
X241052765Y-69174206D01*
X241132206Y-69094765D01*
X241177585Y-68991991D01*
X241180500Y-68966865D01*
X241180499Y-67177136D01*
X241177585Y-67152009D01*
X241132206Y-67049235D01*
X241052765Y-66969794D01*
X240949991Y-66924415D01*
X240949990Y-66924414D01*
X240949988Y-66924414D01*
X240924868Y-66921500D01*
X239135139Y-66921500D01*
X239135136Y-66921501D01*
X239110009Y-66924414D01*
X239007235Y-66969794D01*
X238927794Y-67049235D01*
X238882414Y-67152011D01*
X238879500Y-67177130D01*
X238215666Y-67177130D01*
X238092994Y-67088004D01*
X238092993Y-67088003D01*
X238092991Y-67088002D01*
X237931637Y-67005788D01*
X237759406Y-66949828D01*
X237580549Y-66921500D01*
X237580546Y-66921500D01*
X237399454Y-66921500D01*
X237399451Y-66921500D01*
X237220593Y-66949828D01*
X237048362Y-67005788D01*
X236887008Y-67088002D01*
X236813752Y-67141225D01*
X236740499Y-67194447D01*
X236612447Y-67322499D01*
X236559225Y-67395752D01*
X236506002Y-67469008D01*
X236423788Y-67630362D01*
X236367828Y-67802593D01*
X236339500Y-67981450D01*
X236100500Y-67981450D01*
X236072171Y-67802593D01*
X236072171Y-67802591D01*
X236016211Y-67630361D01*
X235933996Y-67469006D01*
X235827553Y-67322499D01*
X235699501Y-67194447D01*
X235552994Y-67088004D01*
X235552993Y-67088003D01*
X235552991Y-67088002D01*
X235391637Y-67005788D01*
X235219406Y-66949828D01*
X235040549Y-66921500D01*
X235040546Y-66921500D01*
X234859454Y-66921500D01*
X234859451Y-66921500D01*
X234680593Y-66949828D01*
X234508362Y-67005788D01*
X234347008Y-67088002D01*
X234273752Y-67141225D01*
X234200499Y-67194447D01*
X234072447Y-67322499D01*
X234019225Y-67395752D01*
X233966002Y-67469008D01*
X233883788Y-67630362D01*
X233827828Y-67802593D01*
X233799500Y-67981450D01*
X233560500Y-67981450D01*
X233532171Y-67802593D01*
X233532171Y-67802591D01*
X233476211Y-67630361D01*
X233393996Y-67469006D01*
X233287553Y-67322499D01*
X233159501Y-67194447D01*
X233012994Y-67088004D01*
X233012993Y-67088003D01*
X233012991Y-67088002D01*
X232851637Y-67005788D01*
X232679406Y-66949828D01*
X232500549Y-66921500D01*
X232500546Y-66921500D01*
X232319454Y-66921500D01*
X232319451Y-66921500D01*
X232140593Y-66949828D01*
X231968362Y-67005788D01*
X231807008Y-67088002D01*
X231733752Y-67141225D01*
X231660499Y-67194447D01*
X231532447Y-67322499D01*
X231479225Y-67395752D01*
X231426002Y-67469008D01*
X231343788Y-67630362D01*
X231287828Y-67802593D01*
X231259500Y-67981450D01*
X231020500Y-67981450D01*
X230992171Y-67802593D01*
X230992171Y-67802591D01*
X230936211Y-67630361D01*
X230853996Y-67469006D01*
X230747553Y-67322499D01*
X230619501Y-67194447D01*
X230472994Y-67088004D01*
X230472993Y-67088003D01*
X230472991Y-67088002D01*
X230311637Y-67005788D01*
X230139406Y-66949828D01*
X229960549Y-66921500D01*
X229960546Y-66921500D01*
X229779454Y-66921500D01*
X229779451Y-66921500D01*
X229600593Y-66949828D01*
X229428362Y-67005788D01*
X229267008Y-67088002D01*
X229193752Y-67141225D01*
X229120499Y-67194447D01*
X228992447Y-67322499D01*
X228939225Y-67395752D01*
X228886002Y-67469008D01*
X228803788Y-67630362D01*
X228747828Y-67802593D01*
X228719500Y-67981450D01*
X228480500Y-67981450D01*
X228452171Y-67802593D01*
X228452171Y-67802591D01*
X228396211Y-67630361D01*
X228313996Y-67469006D01*
X228207553Y-67322499D01*
X228079501Y-67194447D01*
X227932994Y-67088004D01*
X227932993Y-67088003D01*
X227932991Y-67088002D01*
X227771637Y-67005788D01*
X227599406Y-66949828D01*
X227420549Y-66921500D01*
X227420546Y-66921500D01*
X227239454Y-66921500D01*
X227239451Y-66921500D01*
X227060593Y-66949828D01*
X226888362Y-67005788D01*
X226727008Y-67088002D01*
X226653752Y-67141225D01*
X226580499Y-67194447D01*
X226452447Y-67322499D01*
X226399225Y-67395752D01*
X226346002Y-67469008D01*
X226263788Y-67630362D01*
X226207828Y-67802593D01*
X226179500Y-67981450D01*
X225940500Y-67981450D01*
X225912171Y-67802593D01*
X225912171Y-67802591D01*
X225856211Y-67630361D01*
X225773996Y-67469006D01*
X225667553Y-67322499D01*
X225539501Y-67194447D01*
X225392994Y-67088004D01*
X225392993Y-67088003D01*
X225392991Y-67088002D01*
X225231637Y-67005788D01*
X225059406Y-66949828D01*
X224880549Y-66921500D01*
X224880546Y-66921500D01*
X224699454Y-66921500D01*
X224699451Y-66921500D01*
X224520593Y-66949828D01*
X224348362Y-67005788D01*
X224187008Y-67088002D01*
X224113752Y-67141225D01*
X224040499Y-67194447D01*
X223912447Y-67322499D01*
X223859225Y-67395752D01*
X223806002Y-67469008D01*
X223723788Y-67630362D01*
X223667828Y-67802593D01*
X223639500Y-67981450D01*
X223400500Y-67981450D01*
X223372171Y-67802593D01*
X223372171Y-67802591D01*
X223316211Y-67630361D01*
X223233996Y-67469006D01*
X223127553Y-67322499D01*
X222999501Y-67194447D01*
X222852994Y-67088004D01*
X222852993Y-67088003D01*
X222852991Y-67088002D01*
X222691637Y-67005788D01*
X222519406Y-66949828D01*
X222340549Y-66921500D01*
X222340546Y-66921500D01*
X222159454Y-66921500D01*
X222159451Y-66921500D01*
X221980593Y-66949828D01*
X221808362Y-67005788D01*
X221647008Y-67088002D01*
X221573752Y-67141225D01*
X221500499Y-67194447D01*
X221372447Y-67322499D01*
X221319225Y-67395752D01*
X221266002Y-67469008D01*
X221183788Y-67630362D01*
X221127828Y-67802593D01*
X221099500Y-67981450D01*
X220860500Y-67981450D01*
X220832171Y-67802593D01*
X220832171Y-67802591D01*
X220776211Y-67630361D01*
X220693996Y-67469006D01*
X220587553Y-67322499D01*
X220459501Y-67194447D01*
X220312994Y-67088004D01*
X220312993Y-67088003D01*
X220312991Y-67088002D01*
X220151637Y-67005788D01*
X219979406Y-66949828D01*
X219800549Y-66921500D01*
X219800546Y-66921500D01*
X219619454Y-66921500D01*
X219619451Y-66921500D01*
X219440593Y-66949828D01*
X219268362Y-67005788D01*
X219107008Y-67088002D01*
X219033752Y-67141225D01*
X218960499Y-67194447D01*
X218832447Y-67322499D01*
X218779225Y-67395752D01*
X218726002Y-67469008D01*
X218643788Y-67630362D01*
X218587828Y-67802593D01*
X218559500Y-67981450D01*
X218320500Y-67981450D01*
X218292171Y-67802593D01*
X218292171Y-67802591D01*
X218236211Y-67630361D01*
X218153996Y-67469006D01*
X218047553Y-67322499D01*
X217919501Y-67194447D01*
X217772994Y-67088004D01*
X217772993Y-67088003D01*
X217772991Y-67088002D01*
X217611637Y-67005788D01*
X217439406Y-66949828D01*
X217260549Y-66921500D01*
X217260546Y-66921500D01*
X217079454Y-66921500D01*
X217079451Y-66921500D01*
X216900593Y-66949828D01*
X216728362Y-67005788D01*
X216567008Y-67088002D01*
X216493752Y-67141225D01*
X216420499Y-67194447D01*
X216292447Y-67322499D01*
X216239225Y-67395752D01*
X216186002Y-67469008D01*
X216103788Y-67630362D01*
X216047828Y-67802593D01*
X216019500Y-67981450D01*
X215780500Y-67981450D01*
X215752171Y-67802593D01*
X215752171Y-67802591D01*
X215696211Y-67630361D01*
X215613996Y-67469006D01*
X215507553Y-67322499D01*
X215379501Y-67194447D01*
X215232994Y-67088004D01*
X215232993Y-67088003D01*
X215232991Y-67088002D01*
X215071637Y-67005788D01*
X214899406Y-66949828D01*
X214720549Y-66921500D01*
X214720546Y-66921500D01*
X214539454Y-66921500D01*
X214539451Y-66921500D01*
X214360593Y-66949828D01*
X214188362Y-67005788D01*
X214027008Y-67088002D01*
X213953752Y-67141225D01*
X213880499Y-67194447D01*
X213752447Y-67322499D01*
X213699225Y-67395752D01*
X213646002Y-67469008D01*
X213563788Y-67630362D01*
X213507828Y-67802593D01*
X213479500Y-67981450D01*
X213240500Y-67981450D01*
X213212171Y-67802593D01*
X213212171Y-67802591D01*
X213156211Y-67630361D01*
X213073996Y-67469006D01*
X212967553Y-67322499D01*
X212839501Y-67194447D01*
X212692994Y-67088004D01*
X212692993Y-67088003D01*
X212692991Y-67088002D01*
X212531637Y-67005788D01*
X212359406Y-66949828D01*
X212180549Y-66921500D01*
X212180546Y-66921500D01*
X211999454Y-66921500D01*
X211999451Y-66921500D01*
X211820593Y-66949828D01*
X211648362Y-67005788D01*
X211487008Y-67088002D01*
X211413752Y-67141225D01*
X211340499Y-67194447D01*
X211212447Y-67322499D01*
X211159225Y-67395752D01*
X211106002Y-67469008D01*
X211023788Y-67630362D01*
X210967828Y-67802593D01*
X210939500Y-67981450D01*
X210700500Y-67981450D01*
X210672171Y-67802593D01*
X210672171Y-67802591D01*
X210616211Y-67630361D01*
X210533996Y-67469006D01*
X210427553Y-67322499D01*
X210299501Y-67194447D01*
X210152994Y-67088004D01*
X210152993Y-67088003D01*
X210152991Y-67088002D01*
X209991637Y-67005788D01*
X209819406Y-66949828D01*
X209640549Y-66921500D01*
X209640546Y-66921500D01*
X209459454Y-66921500D01*
X209459451Y-66921500D01*
X209280593Y-66949828D01*
X209108362Y-67005788D01*
X208947008Y-67088002D01*
X208873752Y-67141225D01*
X208800499Y-67194447D01*
X208672447Y-67322499D01*
X208619225Y-67395752D01*
X208566002Y-67469008D01*
X208483788Y-67630362D01*
X208427828Y-67802593D01*
X208399500Y-67981450D01*
X208060000Y-67981450D01*
X208060000Y-67968586D01*
X208059999Y-67968581D01*
X208019650Y-67765727D01*
X207940498Y-67574638D01*
X207936944Y-67569319D01*
X207507905Y-67998357D01*
X207475925Y-67879007D01*
X207410099Y-67764993D01*
X207317007Y-67671901D01*
X207202993Y-67606075D01*
X207083639Y-67574093D01*
X207512679Y-67145054D01*
X207507363Y-67141503D01*
X207507359Y-67141501D01*
X207316272Y-67062349D01*
X207113418Y-67022000D01*
X206906581Y-67022000D01*
X206703727Y-67062349D01*
X206512637Y-67141502D01*
X206507319Y-67145054D01*
X206936359Y-67574094D01*
X206817007Y-67606075D01*
X206702993Y-67671901D01*
X206609901Y-67764993D01*
X206544075Y-67879007D01*
X206512094Y-67998359D01*
X206083054Y-67569319D01*
X206079502Y-67574637D01*
X206000349Y-67765727D01*
X205960000Y-67968581D01*
X205618462Y-67968581D01*
X205592171Y-67802593D01*
X205592171Y-67802591D01*
X205536211Y-67630361D01*
X205453996Y-67469006D01*
X205347553Y-67322499D01*
X205219501Y-67194447D01*
X205072994Y-67088004D01*
X205072993Y-67088003D01*
X205072991Y-67088002D01*
X204911637Y-67005788D01*
X204739406Y-66949828D01*
X204560549Y-66921500D01*
X204560546Y-66921500D01*
X204379454Y-66921500D01*
X204379451Y-66921500D01*
X204200593Y-66949828D01*
X204028362Y-67005788D01*
X203867008Y-67088002D01*
X203793752Y-67141225D01*
X203720499Y-67194447D01*
X203592447Y-67322499D01*
X203539225Y-67395752D01*
X203486002Y-67469008D01*
X203403788Y-67630362D01*
X203347828Y-67802593D01*
X203319500Y-67981450D01*
X203080500Y-67981450D01*
X203052171Y-67802593D01*
X203052171Y-67802591D01*
X202996211Y-67630361D01*
X202913996Y-67469006D01*
X202807553Y-67322499D01*
X202679501Y-67194447D01*
X202532994Y-67088004D01*
X202532993Y-67088003D01*
X202532991Y-67088002D01*
X202371637Y-67005788D01*
X202199406Y-66949828D01*
X202020549Y-66921500D01*
X202020546Y-66921500D01*
X201839454Y-66921500D01*
X201839451Y-66921500D01*
X201660593Y-66949828D01*
X201488362Y-67005788D01*
X201327008Y-67088002D01*
X201253752Y-67141225D01*
X201180499Y-67194447D01*
X201052447Y-67322499D01*
X200999225Y-67395752D01*
X200946002Y-67469008D01*
X200863788Y-67630362D01*
X200807828Y-67802593D01*
X200779500Y-67981450D01*
X200540500Y-67981450D01*
X200512171Y-67802593D01*
X200512171Y-67802591D01*
X200456211Y-67630361D01*
X200373996Y-67469006D01*
X200267553Y-67322499D01*
X200139501Y-67194447D01*
X199992994Y-67088004D01*
X199992993Y-67088003D01*
X199992991Y-67088002D01*
X199831637Y-67005788D01*
X199659406Y-66949828D01*
X199480549Y-66921500D01*
X199480546Y-66921500D01*
X199299454Y-66921500D01*
X199299451Y-66921500D01*
X199120593Y-66949828D01*
X198948362Y-67005788D01*
X198787008Y-67088002D01*
X198713752Y-67141225D01*
X198640499Y-67194447D01*
X198512447Y-67322499D01*
X198459225Y-67395752D01*
X198406002Y-67469008D01*
X198323788Y-67630362D01*
X198267828Y-67802593D01*
X198239500Y-67981450D01*
X198000500Y-67981450D01*
X197972171Y-67802593D01*
X197972171Y-67802591D01*
X197916211Y-67630361D01*
X197833996Y-67469006D01*
X197727553Y-67322499D01*
X197599501Y-67194447D01*
X197452994Y-67088004D01*
X197452993Y-67088003D01*
X197452991Y-67088002D01*
X197291637Y-67005788D01*
X197119406Y-66949828D01*
X196940549Y-66921500D01*
X196940546Y-66921500D01*
X196759454Y-66921500D01*
X196759451Y-66921500D01*
X196580593Y-66949828D01*
X196408362Y-67005788D01*
X196247008Y-67088002D01*
X196173752Y-67141225D01*
X196100499Y-67194447D01*
X195972447Y-67322499D01*
X195919225Y-67395752D01*
X195866002Y-67469008D01*
X195783788Y-67630362D01*
X195727828Y-67802593D01*
X195699500Y-67981450D01*
X195460500Y-67981450D01*
X195432171Y-67802593D01*
X195432171Y-67802591D01*
X195376211Y-67630361D01*
X195293996Y-67469006D01*
X195187553Y-67322499D01*
X195059501Y-67194447D01*
X194912994Y-67088004D01*
X194912993Y-67088003D01*
X194912991Y-67088002D01*
X194751637Y-67005788D01*
X194579406Y-66949828D01*
X194400549Y-66921500D01*
X194400546Y-66921500D01*
X194219454Y-66921500D01*
X194219451Y-66921500D01*
X194040593Y-66949828D01*
X193868362Y-67005788D01*
X193707008Y-67088002D01*
X193633752Y-67141225D01*
X193560499Y-67194447D01*
X193432447Y-67322499D01*
X193379225Y-67395752D01*
X193326002Y-67469008D01*
X193243788Y-67630362D01*
X193187828Y-67802593D01*
X193159500Y-67981450D01*
X140716000Y-67981450D01*
X140716000Y-64988500D01*
X140734907Y-64930309D01*
X140784407Y-64894345D01*
X140815000Y-64889500D01*
X244249000Y-64889500D01*
X244307191Y-64908407D01*
G37*
G04 #@! TD.AperFunction*
G04 #@! TD*
M02*
