M48
; DRILL file KiCad 10.0.1 date 2026-05-24T07:38:35
; FORMAT={-:-/ absolute / metric / decimal}
; #@! TF.CreationDate,2026-05-24T07:38:35+08:00
; #@! TF.GenerationSoftware,Kicad,Pcbnew,10.0.1
; #@! TF.FileFunction,Plated,1,2,PTH
FMAT,2
METRIC
; #@! TA.AperFunction,Plated,PTH,ViaDrill
T1C0.300
; #@! TA.AperFunction,Plated,PTH,ComponentDrill
T2C0.500
; #@! TA.AperFunction,Plated,PTH,ComponentDrill
T3C0.800
; #@! TA.AperFunction,Plated,PTH,ComponentDrill
T4C0.850
; #@! TA.AperFunction,Plated,PTH,ComponentDrill
T5C1.000
; #@! TA.AperFunction,Plated,PTH,ComponentDrill
T6C1.100
; #@! TA.AperFunction,Plated,PTH,ComponentDrill
T7C1.200
; #@! TA.AperFunction,Plated,PTH,ComponentDrill
T8C1.300
; #@! TA.AperFunction,Plated,PTH,ComponentDrill
T9C1.600
; #@! TA.AperFunction,Plated,PTH,ComponentDrill
T10C3.200
%
G90
G05
T1
X133.604Y-75.946
X133.604Y-83.566
X133.604Y-91.186
X133.604Y-98.806
X136.652Y-73.406
X136.906Y-101.092
X141.732Y-69.85
X142.494Y-65.786
X143.002Y-101.092
X146.812Y-103.378
X146.812Y-110.998
X146.812Y-123.952
X150.114Y-65.786
X150.114Y-68.58
X150.114Y-72.136
X151.13Y-68.58
X151.13Y-72.136
X151.638Y-113.284
X152.146Y-68.58
X152.146Y-72.136
X153.162Y-68.58
X153.162Y-72.136
X154.178Y-68.58
X154.178Y-72.136
X156.21Y-77.724
X156.21Y-79.502
X156.21Y-81.28
X157.734Y-65.786
X157.734Y-123.952
X162.56Y-113.284
X165.354Y-65.786
X168.656Y-123.952
X173.482Y-113.284
X179.578Y-123.952
X180.594Y-65.786
X184.404Y-113.284
X188.214Y-65.786
X190.5Y-123.952
X195.326Y-113.284
X201.422Y-123.952
X206.248Y-113.284
X212.344Y-123.952
X217.17Y-113.284
X223.266Y-123.952
X228.092Y-113.284
X234.188Y-123.952
X239.014Y-113.284
X247.396Y-113.284
X247.65Y-73.914
X251.206Y-74.422
X251.206Y-82.042
X251.206Y-89.662
X251.206Y-97.282
X251.206Y-104.902
X251.206Y-112.522
T2
X134.252Y-68.707
X134.252Y-145.796
X134.955Y-67.01
X134.955Y-70.404
X134.955Y-144.099
X134.955Y-147.493
X136.652Y-66.307
X136.652Y-71.107
X136.652Y-143.396
X136.652Y-148.196
X138.349Y-67.01
X138.349Y-70.404
X138.349Y-144.099
X138.349Y-147.493
X139.052Y-68.707
X139.052Y-145.796
X246.012Y-68.707
X246.012Y-145.796
X246.715Y-67.01
X246.715Y-70.404
X246.715Y-144.099
X246.715Y-147.493
X248.412Y-66.307
X248.412Y-71.107
X248.412Y-143.396
X248.412Y-148.196
X250.109Y-67.01
X250.109Y-70.404
X250.109Y-144.099
X250.109Y-147.493
X250.812Y-68.707
X250.812Y-145.796
T3
X158.496Y-71.668
X158.496Y-74.168
T4
X136.652Y-109.601
X141.752Y-111.401
T5
X194.31Y-68.072
X194.31Y-93.472
X196.85Y-68.072
X196.85Y-93.472
X199.39Y-68.072
X199.39Y-93.472
X201.93Y-68.072
X201.93Y-93.472
X204.47Y-68.072
X204.47Y-93.472
X207.01Y-68.072
X207.01Y-93.472
X209.55Y-68.072
X209.55Y-93.472
X212.09Y-68.072
X212.09Y-93.472
X214.63Y-68.072
X214.63Y-93.472
X217.17Y-68.072
X217.17Y-93.472
X219.71Y-68.072
X219.71Y-93.472
X222.25Y-68.072
X222.25Y-93.472
X224.79Y-68.072
X224.79Y-93.472
X227.33Y-68.072
X227.33Y-93.472
X229.87Y-68.072
X229.87Y-93.472
X232.41Y-68.072
X232.41Y-93.472
X234.95Y-68.072
X234.95Y-93.472
X237.49Y-68.072
X237.49Y-93.472
X240.03Y-68.072
X240.03Y-93.472
T6
X149.098Y-127.086
X151.638Y-127.086
X154.178Y-127.086
X160.02Y-127.086
X162.56Y-127.086
X165.1Y-127.086
X170.942Y-127.086
X173.482Y-127.086
X176.022Y-127.086
X181.864Y-127.086
X184.404Y-127.086
X186.944Y-127.086
X192.786Y-127.086
X195.326Y-127.086
X197.866Y-127.086
X203.708Y-127.086
X206.248Y-127.086
X208.788Y-127.086
X214.63Y-127.086
X217.17Y-127.086
X219.71Y-127.086
X225.552Y-127.086
X228.092Y-127.086
X230.632Y-127.086
X236.474Y-127.086
X239.014Y-127.086
X241.554Y-127.086
T7
X138.51Y-88.9
X143.51Y-88.9
T8
X138.43Y-116.438
X138.43Y-138.938
X171.182Y-72.644
X176.182Y-72.644
X181.182Y-72.644
X186.182Y-72.644
T9
X150.622Y-135.841
X158.242Y-135.841
X165.862Y-135.841
X173.482Y-135.841
X181.102Y-135.841
X188.722Y-135.841
X196.342Y-135.841
X203.962Y-135.841
X211.582Y-135.841
X219.202Y-135.841
X226.822Y-135.841
X234.442Y-135.841
T10
X136.652Y-68.707
X136.652Y-145.796
X248.412Y-68.707
X248.412Y-145.796
M30
