%TF.GenerationSoftware,KiCad,Pcbnew,10.0.1*%
%TF.CreationDate,2026-05-24T07:38:35+08:00*%
%TF.ProjectId,ESPrinkler Retic PCB,45535072-696e-46b6-9c65-722052657469,rev?*%
%TF.SameCoordinates,Original*%
%TF.FileFunction,Drillmap*%
%TF.FilePolarity,Positive*%
%FSLAX45Y45*%
G04 Gerber Fmt 4.5, Leading zero omitted, Abs format (unit mm)*
G04 Created by KiCad (PCBNEW 10.0.1) date 2026-05-24 07:38:35*
%MOMM*%
%LPD*%
G01*
G04 APERTURE LIST*
%ADD10C,0.050000*%
%ADD11C,0.200000*%
%ADD12C,0.270000*%
G04 APERTURE END LIST*
D10*
X13233400Y-6591300D02*
G75*
G02*
X13385800Y-6438900I152400J0D01*
G01*
X13233400Y-14859000D02*
X13233400Y-6591300D01*
X13385800Y-6438900D02*
X25120600Y-6438900D01*
X13385800Y-15011400D02*
G75*
G02*
X13233400Y-14859000I0J152400D01*
G01*
X25120600Y-6438900D02*
G75*
G02*
X25273000Y-6591300I0J-152400D01*
G01*
X25120600Y-15011400D02*
X13385800Y-15011400D01*
X25273000Y-6591300D02*
X25273000Y-14859000D01*
X25273000Y-14859000D02*
G75*
G02*
X25120600Y-15011400I-152400J0D01*
G01*
D11*
D12*
X13708000Y-12633800D02*
X13978000Y-12903800D01*
X13978000Y-12633800D02*
X13708000Y-12903800D01*
D11*
X13491677Y-15325384D02*
X13491677Y-15125384D01*
X13491677Y-15125384D02*
X13539296Y-15125384D01*
X13539296Y-15125384D02*
X13567867Y-15134907D01*
X13567867Y-15134907D02*
X13586915Y-15153955D01*
X13586915Y-15153955D02*
X13596439Y-15173003D01*
X13596439Y-15173003D02*
X13605962Y-15211098D01*
X13605962Y-15211098D02*
X13605962Y-15239669D01*
X13605962Y-15239669D02*
X13596439Y-15277765D01*
X13596439Y-15277765D02*
X13586915Y-15296812D01*
X13586915Y-15296812D02*
X13567867Y-15315860D01*
X13567867Y-15315860D02*
X13539296Y-15325384D01*
X13539296Y-15325384D02*
X13491677Y-15325384D01*
X13691677Y-15325384D02*
X13691677Y-15192050D01*
X13691677Y-15230146D02*
X13701201Y-15211098D01*
X13701201Y-15211098D02*
X13710724Y-15201574D01*
X13710724Y-15201574D02*
X13729772Y-15192050D01*
X13729772Y-15192050D02*
X13748820Y-15192050D01*
X13815486Y-15325384D02*
X13815486Y-15192050D01*
X13815486Y-15125384D02*
X13805962Y-15134907D01*
X13805962Y-15134907D02*
X13815486Y-15144431D01*
X13815486Y-15144431D02*
X13825010Y-15134907D01*
X13825010Y-15134907D02*
X13815486Y-15125384D01*
X13815486Y-15125384D02*
X13815486Y-15144431D01*
X13939296Y-15325384D02*
X13920248Y-15315860D01*
X13920248Y-15315860D02*
X13910724Y-15296812D01*
X13910724Y-15296812D02*
X13910724Y-15125384D01*
X14044058Y-15325384D02*
X14025010Y-15315860D01*
X14025010Y-15315860D02*
X14015486Y-15296812D01*
X14015486Y-15296812D02*
X14015486Y-15125384D01*
X14272629Y-15325384D02*
X14272629Y-15125384D01*
X14272629Y-15125384D02*
X14339296Y-15268241D01*
X14339296Y-15268241D02*
X14405962Y-15125384D01*
X14405962Y-15125384D02*
X14405962Y-15325384D01*
X14586915Y-15325384D02*
X14586915Y-15220622D01*
X14586915Y-15220622D02*
X14577391Y-15201574D01*
X14577391Y-15201574D02*
X14558343Y-15192050D01*
X14558343Y-15192050D02*
X14520248Y-15192050D01*
X14520248Y-15192050D02*
X14501201Y-15201574D01*
X14586915Y-15315860D02*
X14567867Y-15325384D01*
X14567867Y-15325384D02*
X14520248Y-15325384D01*
X14520248Y-15325384D02*
X14501201Y-15315860D01*
X14501201Y-15315860D02*
X14491677Y-15296812D01*
X14491677Y-15296812D02*
X14491677Y-15277765D01*
X14491677Y-15277765D02*
X14501201Y-15258717D01*
X14501201Y-15258717D02*
X14520248Y-15249193D01*
X14520248Y-15249193D02*
X14567867Y-15249193D01*
X14567867Y-15249193D02*
X14586915Y-15239669D01*
X14682153Y-15192050D02*
X14682153Y-15392050D01*
X14682153Y-15201574D02*
X14701201Y-15192050D01*
X14701201Y-15192050D02*
X14739296Y-15192050D01*
X14739296Y-15192050D02*
X14758343Y-15201574D01*
X14758343Y-15201574D02*
X14767867Y-15211098D01*
X14767867Y-15211098D02*
X14777391Y-15230146D01*
X14777391Y-15230146D02*
X14777391Y-15287288D01*
X14777391Y-15287288D02*
X14767867Y-15306336D01*
X14767867Y-15306336D02*
X14758343Y-15315860D01*
X14758343Y-15315860D02*
X14739296Y-15325384D01*
X14739296Y-15325384D02*
X14701201Y-15325384D01*
X14701201Y-15325384D02*
X14682153Y-15315860D01*
X14863105Y-15306336D02*
X14872629Y-15315860D01*
X14872629Y-15315860D02*
X14863105Y-15325384D01*
X14863105Y-15325384D02*
X14853582Y-15315860D01*
X14853582Y-15315860D02*
X14863105Y-15306336D01*
X14863105Y-15306336D02*
X14863105Y-15325384D01*
X14863105Y-15201574D02*
X14872629Y-15211098D01*
X14872629Y-15211098D02*
X14863105Y-15220622D01*
X14863105Y-15220622D02*
X14853582Y-15211098D01*
X14853582Y-15211098D02*
X14863105Y-15201574D01*
X14863105Y-15201574D02*
X14863105Y-15220622D01*
X13030900Y-15553900D02*
X13230900Y-15753900D01*
X13230900Y-15553900D02*
X13030900Y-15753900D01*
X13482153Y-15564431D02*
X13491677Y-15554907D01*
X13491677Y-15554907D02*
X13510724Y-15545384D01*
X13510724Y-15545384D02*
X13558343Y-15545384D01*
X13558343Y-15545384D02*
X13577391Y-15554907D01*
X13577391Y-15554907D02*
X13586915Y-15564431D01*
X13586915Y-15564431D02*
X13596439Y-15583479D01*
X13596439Y-15583479D02*
X13596439Y-15602526D01*
X13596439Y-15602526D02*
X13586915Y-15631098D01*
X13586915Y-15631098D02*
X13472629Y-15745384D01*
X13472629Y-15745384D02*
X13596439Y-15745384D01*
X13682153Y-15726336D02*
X13691677Y-15735860D01*
X13691677Y-15735860D02*
X13682153Y-15745384D01*
X13682153Y-15745384D02*
X13672629Y-15735860D01*
X13672629Y-15735860D02*
X13682153Y-15726336D01*
X13682153Y-15726336D02*
X13682153Y-15745384D01*
X13758343Y-15545384D02*
X13891677Y-15545384D01*
X13891677Y-15545384D02*
X13805962Y-15745384D01*
X14005962Y-15545384D02*
X14025010Y-15545384D01*
X14025010Y-15545384D02*
X14044058Y-15554907D01*
X14044058Y-15554907D02*
X14053582Y-15564431D01*
X14053582Y-15564431D02*
X14063105Y-15583479D01*
X14063105Y-15583479D02*
X14072629Y-15621574D01*
X14072629Y-15621574D02*
X14072629Y-15669193D01*
X14072629Y-15669193D02*
X14063105Y-15707288D01*
X14063105Y-15707288D02*
X14053582Y-15726336D01*
X14053582Y-15726336D02*
X14044058Y-15735860D01*
X14044058Y-15735860D02*
X14025010Y-15745384D01*
X14025010Y-15745384D02*
X14005962Y-15745384D01*
X14005962Y-15745384D02*
X13986915Y-15735860D01*
X13986915Y-15735860D02*
X13977391Y-15726336D01*
X13977391Y-15726336D02*
X13967867Y-15707288D01*
X13967867Y-15707288D02*
X13958343Y-15669193D01*
X13958343Y-15669193D02*
X13958343Y-15621574D01*
X13958343Y-15621574D02*
X13967867Y-15583479D01*
X13967867Y-15583479D02*
X13977391Y-15564431D01*
X13977391Y-15564431D02*
X13986915Y-15554907D01*
X13986915Y-15554907D02*
X14005962Y-15545384D01*
X14196439Y-15545384D02*
X14215486Y-15545384D01*
X14215486Y-15545384D02*
X14234534Y-15554907D01*
X14234534Y-15554907D02*
X14244058Y-15564431D01*
X14244058Y-15564431D02*
X14253582Y-15583479D01*
X14253582Y-15583479D02*
X14263105Y-15621574D01*
X14263105Y-15621574D02*
X14263105Y-15669193D01*
X14263105Y-15669193D02*
X14253582Y-15707288D01*
X14253582Y-15707288D02*
X14244058Y-15726336D01*
X14244058Y-15726336D02*
X14234534Y-15735860D01*
X14234534Y-15735860D02*
X14215486Y-15745384D01*
X14215486Y-15745384D02*
X14196439Y-15745384D01*
X14196439Y-15745384D02*
X14177391Y-15735860D01*
X14177391Y-15735860D02*
X14167867Y-15726336D01*
X14167867Y-15726336D02*
X14158343Y-15707288D01*
X14158343Y-15707288D02*
X14148820Y-15669193D01*
X14148820Y-15669193D02*
X14148820Y-15621574D01*
X14148820Y-15621574D02*
X14158343Y-15583479D01*
X14158343Y-15583479D02*
X14167867Y-15564431D01*
X14167867Y-15564431D02*
X14177391Y-15554907D01*
X14177391Y-15554907D02*
X14196439Y-15545384D01*
X14348820Y-15745384D02*
X14348820Y-15612050D01*
X14348820Y-15631098D02*
X14358343Y-15621574D01*
X14358343Y-15621574D02*
X14377391Y-15612050D01*
X14377391Y-15612050D02*
X14405963Y-15612050D01*
X14405963Y-15612050D02*
X14425010Y-15621574D01*
X14425010Y-15621574D02*
X14434534Y-15640622D01*
X14434534Y-15640622D02*
X14434534Y-15745384D01*
X14434534Y-15640622D02*
X14444058Y-15621574D01*
X14444058Y-15621574D02*
X14463105Y-15612050D01*
X14463105Y-15612050D02*
X14491677Y-15612050D01*
X14491677Y-15612050D02*
X14510724Y-15621574D01*
X14510724Y-15621574D02*
X14520248Y-15640622D01*
X14520248Y-15640622D02*
X14520248Y-15745384D01*
X14615486Y-15745384D02*
X14615486Y-15612050D01*
X14615486Y-15631098D02*
X14625010Y-15621574D01*
X14625010Y-15621574D02*
X14644058Y-15612050D01*
X14644058Y-15612050D02*
X14672629Y-15612050D01*
X14672629Y-15612050D02*
X14691677Y-15621574D01*
X14691677Y-15621574D02*
X14701201Y-15640622D01*
X14701201Y-15640622D02*
X14701201Y-15745384D01*
X14701201Y-15640622D02*
X14710724Y-15621574D01*
X14710724Y-15621574D02*
X14729772Y-15612050D01*
X14729772Y-15612050D02*
X14758343Y-15612050D01*
X14758343Y-15612050D02*
X14777391Y-15621574D01*
X14777391Y-15621574D02*
X14786915Y-15640622D01*
X14786915Y-15640622D02*
X14786915Y-15745384D01*
X15177391Y-15535860D02*
X15005963Y-15793003D01*
X15434534Y-15545384D02*
X15453582Y-15545384D01*
X15453582Y-15545384D02*
X15472629Y-15554907D01*
X15472629Y-15554907D02*
X15482153Y-15564431D01*
X15482153Y-15564431D02*
X15491677Y-15583479D01*
X15491677Y-15583479D02*
X15501201Y-15621574D01*
X15501201Y-15621574D02*
X15501201Y-15669193D01*
X15501201Y-15669193D02*
X15491677Y-15707288D01*
X15491677Y-15707288D02*
X15482153Y-15726336D01*
X15482153Y-15726336D02*
X15472629Y-15735860D01*
X15472629Y-15735860D02*
X15453582Y-15745384D01*
X15453582Y-15745384D02*
X15434534Y-15745384D01*
X15434534Y-15745384D02*
X15415486Y-15735860D01*
X15415486Y-15735860D02*
X15405963Y-15726336D01*
X15405963Y-15726336D02*
X15396439Y-15707288D01*
X15396439Y-15707288D02*
X15386915Y-15669193D01*
X15386915Y-15669193D02*
X15386915Y-15621574D01*
X15386915Y-15621574D02*
X15396439Y-15583479D01*
X15396439Y-15583479D02*
X15405963Y-15564431D01*
X15405963Y-15564431D02*
X15415486Y-15554907D01*
X15415486Y-15554907D02*
X15434534Y-15545384D01*
X15586915Y-15726336D02*
X15596439Y-15735860D01*
X15596439Y-15735860D02*
X15586915Y-15745384D01*
X15586915Y-15745384D02*
X15577391Y-15735860D01*
X15577391Y-15735860D02*
X15586915Y-15726336D01*
X15586915Y-15726336D02*
X15586915Y-15745384D01*
X15786915Y-15745384D02*
X15672629Y-15745384D01*
X15729772Y-15745384D02*
X15729772Y-15545384D01*
X15729772Y-15545384D02*
X15710725Y-15573955D01*
X15710725Y-15573955D02*
X15691677Y-15593003D01*
X15691677Y-15593003D02*
X15672629Y-15602526D01*
X15910725Y-15545384D02*
X15929772Y-15545384D01*
X15929772Y-15545384D02*
X15948820Y-15554907D01*
X15948820Y-15554907D02*
X15958344Y-15564431D01*
X15958344Y-15564431D02*
X15967867Y-15583479D01*
X15967867Y-15583479D02*
X15977391Y-15621574D01*
X15977391Y-15621574D02*
X15977391Y-15669193D01*
X15977391Y-15669193D02*
X15967867Y-15707288D01*
X15967867Y-15707288D02*
X15958344Y-15726336D01*
X15958344Y-15726336D02*
X15948820Y-15735860D01*
X15948820Y-15735860D02*
X15929772Y-15745384D01*
X15929772Y-15745384D02*
X15910725Y-15745384D01*
X15910725Y-15745384D02*
X15891677Y-15735860D01*
X15891677Y-15735860D02*
X15882153Y-15726336D01*
X15882153Y-15726336D02*
X15872629Y-15707288D01*
X15872629Y-15707288D02*
X15863106Y-15669193D01*
X15863106Y-15669193D02*
X15863106Y-15621574D01*
X15863106Y-15621574D02*
X15872629Y-15583479D01*
X15872629Y-15583479D02*
X15882153Y-15564431D01*
X15882153Y-15564431D02*
X15891677Y-15554907D01*
X15891677Y-15554907D02*
X15910725Y-15545384D01*
X16148820Y-15545384D02*
X16110725Y-15545384D01*
X16110725Y-15545384D02*
X16091677Y-15554907D01*
X16091677Y-15554907D02*
X16082153Y-15564431D01*
X16082153Y-15564431D02*
X16063106Y-15593003D01*
X16063106Y-15593003D02*
X16053582Y-15631098D01*
X16053582Y-15631098D02*
X16053582Y-15707288D01*
X16053582Y-15707288D02*
X16063106Y-15726336D01*
X16063106Y-15726336D02*
X16072629Y-15735860D01*
X16072629Y-15735860D02*
X16091677Y-15745384D01*
X16091677Y-15745384D02*
X16129772Y-15745384D01*
X16129772Y-15745384D02*
X16148820Y-15735860D01*
X16148820Y-15735860D02*
X16158344Y-15726336D01*
X16158344Y-15726336D02*
X16167867Y-15707288D01*
X16167867Y-15707288D02*
X16167867Y-15659669D01*
X16167867Y-15659669D02*
X16158344Y-15640622D01*
X16158344Y-15640622D02*
X16148820Y-15631098D01*
X16148820Y-15631098D02*
X16129772Y-15621574D01*
X16129772Y-15621574D02*
X16091677Y-15621574D01*
X16091677Y-15621574D02*
X16072629Y-15631098D01*
X16072629Y-15631098D02*
X16063106Y-15640622D01*
X16063106Y-15640622D02*
X16053582Y-15659669D01*
X16234534Y-15545384D02*
X16358344Y-15545384D01*
X16358344Y-15545384D02*
X16291677Y-15621574D01*
X16291677Y-15621574D02*
X16320248Y-15621574D01*
X16320248Y-15621574D02*
X16339296Y-15631098D01*
X16339296Y-15631098D02*
X16348820Y-15640622D01*
X16348820Y-15640622D02*
X16358344Y-15659669D01*
X16358344Y-15659669D02*
X16358344Y-15707288D01*
X16358344Y-15707288D02*
X16348820Y-15726336D01*
X16348820Y-15726336D02*
X16339296Y-15735860D01*
X16339296Y-15735860D02*
X16320248Y-15745384D01*
X16320248Y-15745384D02*
X16263106Y-15745384D01*
X16263106Y-15745384D02*
X16244058Y-15735860D01*
X16244058Y-15735860D02*
X16234534Y-15726336D01*
X16434534Y-15545384D02*
X16434534Y-15583479D01*
X16510725Y-15545384D02*
X16510725Y-15583479D01*
X16805963Y-15821574D02*
X16796439Y-15812050D01*
X16796439Y-15812050D02*
X16777391Y-15783479D01*
X16777391Y-15783479D02*
X16767868Y-15764431D01*
X16767868Y-15764431D02*
X16758344Y-15735860D01*
X16758344Y-15735860D02*
X16748820Y-15688241D01*
X16748820Y-15688241D02*
X16748820Y-15650146D01*
X16748820Y-15650146D02*
X16758344Y-15602526D01*
X16758344Y-15602526D02*
X16767868Y-15573955D01*
X16767868Y-15573955D02*
X16777391Y-15554907D01*
X16777391Y-15554907D02*
X16796439Y-15526336D01*
X16796439Y-15526336D02*
X16805963Y-15516812D01*
X16986915Y-15745384D02*
X16872630Y-15745384D01*
X16929772Y-15745384D02*
X16929772Y-15545384D01*
X16929772Y-15545384D02*
X16910725Y-15573955D01*
X16910725Y-15573955D02*
X16891677Y-15593003D01*
X16891677Y-15593003D02*
X16872630Y-15602526D01*
X17225011Y-15745384D02*
X17225011Y-15545384D01*
X17310725Y-15745384D02*
X17310725Y-15640622D01*
X17310725Y-15640622D02*
X17301201Y-15621574D01*
X17301201Y-15621574D02*
X17282153Y-15612050D01*
X17282153Y-15612050D02*
X17253582Y-15612050D01*
X17253582Y-15612050D02*
X17234534Y-15621574D01*
X17234534Y-15621574D02*
X17225011Y-15631098D01*
X17434534Y-15745384D02*
X17415487Y-15735860D01*
X17415487Y-15735860D02*
X17405963Y-15726336D01*
X17405963Y-15726336D02*
X17396439Y-15707288D01*
X17396439Y-15707288D02*
X17396439Y-15650146D01*
X17396439Y-15650146D02*
X17405963Y-15631098D01*
X17405963Y-15631098D02*
X17415487Y-15621574D01*
X17415487Y-15621574D02*
X17434534Y-15612050D01*
X17434534Y-15612050D02*
X17463106Y-15612050D01*
X17463106Y-15612050D02*
X17482153Y-15621574D01*
X17482153Y-15621574D02*
X17491677Y-15631098D01*
X17491677Y-15631098D02*
X17501201Y-15650146D01*
X17501201Y-15650146D02*
X17501201Y-15707288D01*
X17501201Y-15707288D02*
X17491677Y-15726336D01*
X17491677Y-15726336D02*
X17482153Y-15735860D01*
X17482153Y-15735860D02*
X17463106Y-15745384D01*
X17463106Y-15745384D02*
X17434534Y-15745384D01*
X17615487Y-15745384D02*
X17596439Y-15735860D01*
X17596439Y-15735860D02*
X17586915Y-15716812D01*
X17586915Y-15716812D02*
X17586915Y-15545384D01*
X17767868Y-15735860D02*
X17748820Y-15745384D01*
X17748820Y-15745384D02*
X17710725Y-15745384D01*
X17710725Y-15745384D02*
X17691677Y-15735860D01*
X17691677Y-15735860D02*
X17682153Y-15716812D01*
X17682153Y-15716812D02*
X17682153Y-15640622D01*
X17682153Y-15640622D02*
X17691677Y-15621574D01*
X17691677Y-15621574D02*
X17710725Y-15612050D01*
X17710725Y-15612050D02*
X17748820Y-15612050D01*
X17748820Y-15612050D02*
X17767868Y-15621574D01*
X17767868Y-15621574D02*
X17777392Y-15640622D01*
X17777392Y-15640622D02*
X17777392Y-15659669D01*
X17777392Y-15659669D02*
X17682153Y-15678717D01*
X17844058Y-15821574D02*
X17853582Y-15812050D01*
X17853582Y-15812050D02*
X17872630Y-15783479D01*
X17872630Y-15783479D02*
X17882153Y-15764431D01*
X17882153Y-15764431D02*
X17891677Y-15735860D01*
X17891677Y-15735860D02*
X17901201Y-15688241D01*
X17901201Y-15688241D02*
X17901201Y-15650146D01*
X17901201Y-15650146D02*
X17891677Y-15602526D01*
X17891677Y-15602526D02*
X17882153Y-15573955D01*
X17882153Y-15573955D02*
X17872630Y-15554907D01*
X17872630Y-15554907D02*
X17853582Y-15526336D01*
X17853582Y-15526336D02*
X17844058Y-15516812D01*
X18205963Y-15821574D02*
X18196439Y-15812050D01*
X18196439Y-15812050D02*
X18177392Y-15783479D01*
X18177392Y-15783479D02*
X18167868Y-15764431D01*
X18167868Y-15764431D02*
X18158344Y-15735860D01*
X18158344Y-15735860D02*
X18148820Y-15688241D01*
X18148820Y-15688241D02*
X18148820Y-15650146D01*
X18148820Y-15650146D02*
X18158344Y-15602526D01*
X18158344Y-15602526D02*
X18167868Y-15573955D01*
X18167868Y-15573955D02*
X18177392Y-15554907D01*
X18177392Y-15554907D02*
X18196439Y-15526336D01*
X18196439Y-15526336D02*
X18205963Y-15516812D01*
X18282153Y-15612050D02*
X18282153Y-15745384D01*
X18282153Y-15631098D02*
X18291677Y-15621574D01*
X18291677Y-15621574D02*
X18310725Y-15612050D01*
X18310725Y-15612050D02*
X18339296Y-15612050D01*
X18339296Y-15612050D02*
X18358344Y-15621574D01*
X18358344Y-15621574D02*
X18367868Y-15640622D01*
X18367868Y-15640622D02*
X18367868Y-15745384D01*
X18491677Y-15745384D02*
X18472630Y-15735860D01*
X18472630Y-15735860D02*
X18463106Y-15726336D01*
X18463106Y-15726336D02*
X18453582Y-15707288D01*
X18453582Y-15707288D02*
X18453582Y-15650146D01*
X18453582Y-15650146D02*
X18463106Y-15631098D01*
X18463106Y-15631098D02*
X18472630Y-15621574D01*
X18472630Y-15621574D02*
X18491677Y-15612050D01*
X18491677Y-15612050D02*
X18520249Y-15612050D01*
X18520249Y-15612050D02*
X18539296Y-15621574D01*
X18539296Y-15621574D02*
X18548820Y-15631098D01*
X18548820Y-15631098D02*
X18558344Y-15650146D01*
X18558344Y-15650146D02*
X18558344Y-15707288D01*
X18558344Y-15707288D02*
X18548820Y-15726336D01*
X18548820Y-15726336D02*
X18539296Y-15735860D01*
X18539296Y-15735860D02*
X18520249Y-15745384D01*
X18520249Y-15745384D02*
X18491677Y-15745384D01*
X18615487Y-15612050D02*
X18691677Y-15612050D01*
X18644058Y-15545384D02*
X18644058Y-15716812D01*
X18644058Y-15716812D02*
X18653582Y-15735860D01*
X18653582Y-15735860D02*
X18672630Y-15745384D01*
X18672630Y-15745384D02*
X18691677Y-15745384D01*
X18910725Y-15612050D02*
X18910725Y-15812050D01*
X18910725Y-15621574D02*
X18929773Y-15612050D01*
X18929773Y-15612050D02*
X18967868Y-15612050D01*
X18967868Y-15612050D02*
X18986915Y-15621574D01*
X18986915Y-15621574D02*
X18996439Y-15631098D01*
X18996439Y-15631098D02*
X19005963Y-15650146D01*
X19005963Y-15650146D02*
X19005963Y-15707288D01*
X19005963Y-15707288D02*
X18996439Y-15726336D01*
X18996439Y-15726336D02*
X18986915Y-15735860D01*
X18986915Y-15735860D02*
X18967868Y-15745384D01*
X18967868Y-15745384D02*
X18929773Y-15745384D01*
X18929773Y-15745384D02*
X18910725Y-15735860D01*
X19120249Y-15745384D02*
X19101201Y-15735860D01*
X19101201Y-15735860D02*
X19091677Y-15716812D01*
X19091677Y-15716812D02*
X19091677Y-15545384D01*
X19282154Y-15745384D02*
X19282154Y-15640622D01*
X19282154Y-15640622D02*
X19272630Y-15621574D01*
X19272630Y-15621574D02*
X19253582Y-15612050D01*
X19253582Y-15612050D02*
X19215487Y-15612050D01*
X19215487Y-15612050D02*
X19196439Y-15621574D01*
X19282154Y-15735860D02*
X19263106Y-15745384D01*
X19263106Y-15745384D02*
X19215487Y-15745384D01*
X19215487Y-15745384D02*
X19196439Y-15735860D01*
X19196439Y-15735860D02*
X19186915Y-15716812D01*
X19186915Y-15716812D02*
X19186915Y-15697765D01*
X19186915Y-15697765D02*
X19196439Y-15678717D01*
X19196439Y-15678717D02*
X19215487Y-15669193D01*
X19215487Y-15669193D02*
X19263106Y-15669193D01*
X19263106Y-15669193D02*
X19282154Y-15659669D01*
X19348820Y-15612050D02*
X19425011Y-15612050D01*
X19377392Y-15545384D02*
X19377392Y-15716812D01*
X19377392Y-15716812D02*
X19386915Y-15735860D01*
X19386915Y-15735860D02*
X19405963Y-15745384D01*
X19405963Y-15745384D02*
X19425011Y-15745384D01*
X19567868Y-15735860D02*
X19548820Y-15745384D01*
X19548820Y-15745384D02*
X19510725Y-15745384D01*
X19510725Y-15745384D02*
X19491677Y-15735860D01*
X19491677Y-15735860D02*
X19482154Y-15716812D01*
X19482154Y-15716812D02*
X19482154Y-15640622D01*
X19482154Y-15640622D02*
X19491677Y-15621574D01*
X19491677Y-15621574D02*
X19510725Y-15612050D01*
X19510725Y-15612050D02*
X19548820Y-15612050D01*
X19548820Y-15612050D02*
X19567868Y-15621574D01*
X19567868Y-15621574D02*
X19577392Y-15640622D01*
X19577392Y-15640622D02*
X19577392Y-15659669D01*
X19577392Y-15659669D02*
X19482154Y-15678717D01*
X19748820Y-15745384D02*
X19748820Y-15545384D01*
X19748820Y-15735860D02*
X19729773Y-15745384D01*
X19729773Y-15745384D02*
X19691677Y-15745384D01*
X19691677Y-15745384D02*
X19672630Y-15735860D01*
X19672630Y-15735860D02*
X19663106Y-15726336D01*
X19663106Y-15726336D02*
X19653582Y-15707288D01*
X19653582Y-15707288D02*
X19653582Y-15650146D01*
X19653582Y-15650146D02*
X19663106Y-15631098D01*
X19663106Y-15631098D02*
X19672630Y-15621574D01*
X19672630Y-15621574D02*
X19691677Y-15612050D01*
X19691677Y-15612050D02*
X19729773Y-15612050D01*
X19729773Y-15612050D02*
X19748820Y-15621574D01*
X19825011Y-15821574D02*
X19834535Y-15812050D01*
X19834535Y-15812050D02*
X19853582Y-15783479D01*
X19853582Y-15783479D02*
X19863106Y-15764431D01*
X19863106Y-15764431D02*
X19872630Y-15735860D01*
X19872630Y-15735860D02*
X19882154Y-15688241D01*
X19882154Y-15688241D02*
X19882154Y-15650146D01*
X19882154Y-15650146D02*
X19872630Y-15602526D01*
X19872630Y-15602526D02*
X19863106Y-15573955D01*
X19863106Y-15573955D02*
X19853582Y-15554907D01*
X19853582Y-15554907D02*
X19834535Y-15526336D01*
X19834535Y-15526336D02*
X19825011Y-15516812D01*
M02*
