%TF.GenerationSoftware,KiCad,Pcbnew,10.0.1*%
%TF.CreationDate,2026-05-24T07:38:35+08:00*%
%TF.ProjectId,ESPrinkler Retic PCB,45535072-696e-46b6-9c65-722052657469,rev?*%
%TF.SameCoordinates,Original*%
%TF.FileFunction,Drillmap*%
%TF.FilePolarity,Positive*%
%FSLAX45Y45*%
G04 Gerber Fmt 4.5, Leading zero omitted, Abs format (unit mm)*
G04 Created by KiCad (PCBNEW 10.0.1) date 2026-05-24 07:38:35*
%MOMM*%
%LPD*%
G01*
G04 APERTURE LIST*
%ADD10C,0.050000*%
%ADD11C,0.200000*%
%ADD12C,0.100000*%
%ADD13C,0.110000*%
%ADD14C,0.120000*%
%ADD15C,0.130000*%
%ADD16C,0.160000*%
%ADD17C,0.320000*%
G04 APERTURE END LIST*
D10*
X13233400Y-6591300D02*
G75*
G02*
X13385800Y-6438900I152400J0D01*
G01*
X13233400Y-14859000D02*
X13233400Y-6591300D01*
X13385800Y-6438900D02*
X25120600Y-6438900D01*
X13385800Y-15011400D02*
G75*
G02*
X13233400Y-14859000I0J152400D01*
G01*
X25120600Y-6438900D02*
G75*
G02*
X25273000Y-6591300I0J-152400D01*
G01*
X25120600Y-15011400D02*
X13385800Y-15011400D01*
X25273000Y-6591300D02*
X25273000Y-14859000D01*
X25273000Y-14859000D02*
G75*
G02*
X25120600Y-15011400I-152400J0D01*
G01*
D11*
D12*
X13345400Y-7579600D02*
X13375400Y-7609600D01*
X13375400Y-7579600D02*
X13345400Y-7609600D01*
X13345400Y-8341600D02*
X13375400Y-8371600D01*
X13375400Y-8341600D02*
X13345400Y-8371600D01*
X13345400Y-9103600D02*
X13375400Y-9133600D01*
X13375400Y-9103600D02*
X13345400Y-9133600D01*
X13345400Y-9865600D02*
X13375400Y-9895600D01*
X13375400Y-9865600D02*
X13345400Y-9895600D01*
X13650200Y-7325600D02*
X13680200Y-7355600D01*
X13680200Y-7325600D02*
X13650200Y-7355600D01*
X13675600Y-10094200D02*
X13705600Y-10124200D01*
X13705600Y-10094200D02*
X13675600Y-10124200D01*
X14158200Y-6970000D02*
X14188200Y-7000000D01*
X14188200Y-6970000D02*
X14158200Y-7000000D01*
X14234400Y-6563600D02*
X14264400Y-6593600D01*
X14264400Y-6563600D02*
X14234400Y-6593600D01*
X14285200Y-10094200D02*
X14315200Y-10124200D01*
X14315200Y-10094200D02*
X14285200Y-10124200D01*
X14666200Y-10322800D02*
X14696200Y-10352800D01*
X14696200Y-10322800D02*
X14666200Y-10352800D01*
X14666200Y-11084800D02*
X14696200Y-11114800D01*
X14696200Y-11084800D02*
X14666200Y-11114800D01*
X14666200Y-12380200D02*
X14696200Y-12410200D01*
X14696200Y-12380200D02*
X14666200Y-12410200D01*
X14996400Y-6563600D02*
X15026400Y-6593600D01*
X15026400Y-6563600D02*
X14996400Y-6593600D01*
X14996400Y-6843000D02*
X15026400Y-6873000D01*
X15026400Y-6843000D02*
X14996400Y-6873000D01*
X14996400Y-7198600D02*
X15026400Y-7228600D01*
X15026400Y-7198600D02*
X14996400Y-7228600D01*
X15098000Y-6843000D02*
X15128000Y-6873000D01*
X15128000Y-6843000D02*
X15098000Y-6873000D01*
X15098000Y-7198600D02*
X15128000Y-7228600D01*
X15128000Y-7198600D02*
X15098000Y-7228600D01*
X15148800Y-11313400D02*
X15178800Y-11343400D01*
X15178800Y-11313400D02*
X15148800Y-11343400D01*
X15199600Y-6843000D02*
X15229600Y-6873000D01*
X15229600Y-6843000D02*
X15199600Y-6873000D01*
X15199600Y-7198600D02*
X15229600Y-7228600D01*
X15229600Y-7198600D02*
X15199600Y-7228600D01*
X15301200Y-6843000D02*
X15331200Y-6873000D01*
X15331200Y-6843000D02*
X15301200Y-6873000D01*
X15301200Y-7198600D02*
X15331200Y-7228600D01*
X15331200Y-7198600D02*
X15301200Y-7228600D01*
X15402800Y-6843000D02*
X15432800Y-6873000D01*
X15432800Y-6843000D02*
X15402800Y-6873000D01*
X15402800Y-7198600D02*
X15432800Y-7228600D01*
X15432800Y-7198600D02*
X15402800Y-7228600D01*
X15606000Y-7757400D02*
X15636000Y-7787400D01*
X15636000Y-7757400D02*
X15606000Y-7787400D01*
X15606000Y-7935200D02*
X15636000Y-7965200D01*
X15636000Y-7935200D02*
X15606000Y-7965200D01*
X15606000Y-8113000D02*
X15636000Y-8143000D01*
X15636000Y-8113000D02*
X15606000Y-8143000D01*
X15758400Y-6563600D02*
X15788400Y-6593600D01*
X15788400Y-6563600D02*
X15758400Y-6593600D01*
X15758400Y-12380200D02*
X15788400Y-12410200D01*
X15788400Y-12380200D02*
X15758400Y-12410200D01*
X16241000Y-11313400D02*
X16271000Y-11343400D01*
X16271000Y-11313400D02*
X16241000Y-11343400D01*
X16520400Y-6563600D02*
X16550400Y-6593600D01*
X16550400Y-6563600D02*
X16520400Y-6593600D01*
X16850600Y-12380200D02*
X16880600Y-12410200D01*
X16880600Y-12380200D02*
X16850600Y-12410200D01*
X17333200Y-11313400D02*
X17363200Y-11343400D01*
X17363200Y-11313400D02*
X17333200Y-11343400D01*
X17942800Y-12380200D02*
X17972800Y-12410200D01*
X17972800Y-12380200D02*
X17942800Y-12410200D01*
X18044400Y-6563600D02*
X18074400Y-6593600D01*
X18074400Y-6563600D02*
X18044400Y-6593600D01*
X18425400Y-11313400D02*
X18455400Y-11343400D01*
X18455400Y-11313400D02*
X18425400Y-11343400D01*
X18806400Y-6563600D02*
X18836400Y-6593600D01*
X18836400Y-6563600D02*
X18806400Y-6593600D01*
X19035000Y-12380200D02*
X19065000Y-12410200D01*
X19065000Y-12380200D02*
X19035000Y-12410200D01*
X19517600Y-11313400D02*
X19547600Y-11343400D01*
X19547600Y-11313400D02*
X19517600Y-11343400D01*
X20127200Y-12380200D02*
X20157200Y-12410200D01*
X20157200Y-12380200D02*
X20127200Y-12410200D01*
X20609800Y-11313400D02*
X20639800Y-11343400D01*
X20639800Y-11313400D02*
X20609800Y-11343400D01*
X21219400Y-12380200D02*
X21249400Y-12410200D01*
X21249400Y-12380200D02*
X21219400Y-12410200D01*
X21702000Y-11313400D02*
X21732000Y-11343400D01*
X21732000Y-11313400D02*
X21702000Y-11343400D01*
X22311600Y-12380200D02*
X22341600Y-12410200D01*
X22341600Y-12380200D02*
X22311600Y-12410200D01*
X22794200Y-11313400D02*
X22824200Y-11343400D01*
X22824200Y-11313400D02*
X22794200Y-11343400D01*
X23403800Y-12380200D02*
X23433800Y-12410200D01*
X23433800Y-12380200D02*
X23403800Y-12410200D01*
X23886400Y-11313400D02*
X23916400Y-11343400D01*
X23916400Y-11313400D02*
X23886400Y-11343400D01*
X24724600Y-11313400D02*
X24754600Y-11343400D01*
X24754600Y-11313400D02*
X24724600Y-11343400D01*
X24750000Y-7376400D02*
X24780000Y-7406400D01*
X24780000Y-7376400D02*
X24750000Y-7406400D01*
X25105600Y-7427200D02*
X25135600Y-7457200D01*
X25135600Y-7427200D02*
X25105600Y-7457200D01*
X25105600Y-8189200D02*
X25135600Y-8219200D01*
X25135600Y-8189200D02*
X25105600Y-8219200D01*
X25105600Y-8951200D02*
X25135600Y-8981200D01*
X25135600Y-8951200D02*
X25105600Y-8981200D01*
X25105600Y-9713200D02*
X25135600Y-9743200D01*
X25135600Y-9713200D02*
X25105600Y-9743200D01*
X25105600Y-10475200D02*
X25135600Y-10505200D01*
X25135600Y-10475200D02*
X25105600Y-10505200D01*
X25105600Y-11237200D02*
X25135600Y-11267200D01*
X25135600Y-11237200D02*
X25105600Y-11267200D01*
X13450200Y-6870700D02*
G75*
G02*
X13400200Y-6870700I-25000J0D01*
G01*
X13400200Y-6870700D02*
G75*
G02*
X13450200Y-6870700I25000J0D01*
G01*
X13450200Y-14579600D02*
G75*
G02*
X13400200Y-14579600I-25000J0D01*
G01*
X13400200Y-14579600D02*
G75*
G02*
X13450200Y-14579600I25000J0D01*
G01*
X13520494Y-6700994D02*
G75*
G02*
X13470494Y-6700994I-25000J0D01*
G01*
X13470494Y-6700994D02*
G75*
G02*
X13520494Y-6700994I25000J0D01*
G01*
X13520494Y-7040406D02*
G75*
G02*
X13470494Y-7040406I-25000J0D01*
G01*
X13470494Y-7040406D02*
G75*
G02*
X13520494Y-7040406I25000J0D01*
G01*
X13520494Y-14409894D02*
G75*
G02*
X13470494Y-14409894I-25000J0D01*
G01*
X13470494Y-14409894D02*
G75*
G02*
X13520494Y-14409894I25000J0D01*
G01*
X13520494Y-14749306D02*
G75*
G02*
X13470494Y-14749306I-25000J0D01*
G01*
X13470494Y-14749306D02*
G75*
G02*
X13520494Y-14749306I25000J0D01*
G01*
X13690200Y-6630700D02*
G75*
G02*
X13640200Y-6630700I-25000J0D01*
G01*
X13640200Y-6630700D02*
G75*
G02*
X13690200Y-6630700I25000J0D01*
G01*
X13690200Y-7110700D02*
G75*
G02*
X13640200Y-7110700I-25000J0D01*
G01*
X13640200Y-7110700D02*
G75*
G02*
X13690200Y-7110700I25000J0D01*
G01*
X13690200Y-14339600D02*
G75*
G02*
X13640200Y-14339600I-25000J0D01*
G01*
X13640200Y-14339600D02*
G75*
G02*
X13690200Y-14339600I25000J0D01*
G01*
X13690200Y-14819600D02*
G75*
G02*
X13640200Y-14819600I-25000J0D01*
G01*
X13640200Y-14819600D02*
G75*
G02*
X13690200Y-14819600I25000J0D01*
G01*
X13859906Y-6700994D02*
G75*
G02*
X13809906Y-6700994I-25000J0D01*
G01*
X13809906Y-6700994D02*
G75*
G02*
X13859906Y-6700994I25000J0D01*
G01*
X13859906Y-7040406D02*
G75*
G02*
X13809906Y-7040406I-25000J0D01*
G01*
X13809906Y-7040406D02*
G75*
G02*
X13859906Y-7040406I25000J0D01*
G01*
X13859906Y-14409894D02*
G75*
G02*
X13809906Y-14409894I-25000J0D01*
G01*
X13809906Y-14409894D02*
G75*
G02*
X13859906Y-14409894I25000J0D01*
G01*
X13859906Y-14749306D02*
G75*
G02*
X13809906Y-14749306I-25000J0D01*
G01*
X13809906Y-14749306D02*
G75*
G02*
X13859906Y-14749306I25000J0D01*
G01*
X13930200Y-6870700D02*
G75*
G02*
X13880200Y-6870700I-25000J0D01*
G01*
X13880200Y-6870700D02*
G75*
G02*
X13930200Y-6870700I25000J0D01*
G01*
X13930200Y-14579600D02*
G75*
G02*
X13880200Y-14579600I-25000J0D01*
G01*
X13880200Y-14579600D02*
G75*
G02*
X13930200Y-14579600I25000J0D01*
G01*
X24626200Y-6870700D02*
G75*
G02*
X24576200Y-6870700I-25000J0D01*
G01*
X24576200Y-6870700D02*
G75*
G02*
X24626200Y-6870700I25000J0D01*
G01*
X24626200Y-14579600D02*
G75*
G02*
X24576200Y-14579600I-25000J0D01*
G01*
X24576200Y-14579600D02*
G75*
G02*
X24626200Y-14579600I25000J0D01*
G01*
X24696494Y-6700994D02*
G75*
G02*
X24646494Y-6700994I-25000J0D01*
G01*
X24646494Y-6700994D02*
G75*
G02*
X24696494Y-6700994I25000J0D01*
G01*
X24696494Y-7040406D02*
G75*
G02*
X24646494Y-7040406I-25000J0D01*
G01*
X24646494Y-7040406D02*
G75*
G02*
X24696494Y-7040406I25000J0D01*
G01*
X24696494Y-14409894D02*
G75*
G02*
X24646494Y-14409894I-25000J0D01*
G01*
X24646494Y-14409894D02*
G75*
G02*
X24696494Y-14409894I25000J0D01*
G01*
X24696494Y-14749306D02*
G75*
G02*
X24646494Y-14749306I-25000J0D01*
G01*
X24646494Y-14749306D02*
G75*
G02*
X24696494Y-14749306I25000J0D01*
G01*
X24866200Y-6630700D02*
G75*
G02*
X24816200Y-6630700I-25000J0D01*
G01*
X24816200Y-6630700D02*
G75*
G02*
X24866200Y-6630700I25000J0D01*
G01*
X24866200Y-7110700D02*
G75*
G02*
X24816200Y-7110700I-25000J0D01*
G01*
X24816200Y-7110700D02*
G75*
G02*
X24866200Y-7110700I25000J0D01*
G01*
X24866200Y-14339600D02*
G75*
G02*
X24816200Y-14339600I-25000J0D01*
G01*
X24816200Y-14339600D02*
G75*
G02*
X24866200Y-14339600I25000J0D01*
G01*
X24866200Y-14819600D02*
G75*
G02*
X24816200Y-14819600I-25000J0D01*
G01*
X24816200Y-14819600D02*
G75*
G02*
X24866200Y-14819600I25000J0D01*
G01*
X25035906Y-6700994D02*
G75*
G02*
X24985906Y-6700994I-25000J0D01*
G01*
X24985906Y-6700994D02*
G75*
G02*
X25035906Y-6700994I25000J0D01*
G01*
X25035906Y-7040406D02*
G75*
G02*
X24985906Y-7040406I-25000J0D01*
G01*
X24985906Y-7040406D02*
G75*
G02*
X25035906Y-7040406I25000J0D01*
G01*
X25035906Y-14409894D02*
G75*
G02*
X24985906Y-14409894I-25000J0D01*
G01*
X24985906Y-14409894D02*
G75*
G02*
X25035906Y-14409894I25000J0D01*
G01*
X25035906Y-14749306D02*
G75*
G02*
X24985906Y-14749306I-25000J0D01*
G01*
X24985906Y-14749306D02*
G75*
G02*
X25035906Y-14749306I25000J0D01*
G01*
X25106200Y-6870700D02*
G75*
G02*
X25056200Y-6870700I-25000J0D01*
G01*
X25056200Y-6870700D02*
G75*
G02*
X25106200Y-6870700I25000J0D01*
G01*
X25106200Y-14579600D02*
G75*
G02*
X25056200Y-14579600I-25000J0D01*
G01*
X25056200Y-14579600D02*
G75*
G02*
X25106200Y-14579600I25000J0D01*
G01*
X15849600Y-7126800D02*
X15849600Y-7206800D01*
X15809600Y-7166800D02*
X15889600Y-7166800D01*
X15849600Y-7376800D02*
X15849600Y-7456800D01*
X15809600Y-7416800D02*
X15889600Y-7416800D01*
X13695252Y-10990152D02*
X13695252Y-10930048D01*
X13635148Y-10930048D01*
X13635148Y-10990152D01*
X13695252Y-10990152D01*
X14205252Y-11170152D02*
X14205252Y-11110048D01*
X14145148Y-11110048D01*
X14145148Y-11170152D01*
X14205252Y-11170152D01*
X19431000Y-6857200D02*
X19481000Y-6807200D01*
X19431000Y-6757200D01*
X19381000Y-6807200D01*
X19431000Y-6857200D01*
X19431000Y-9397200D02*
X19481000Y-9347200D01*
X19431000Y-9297200D01*
X19381000Y-9347200D01*
X19431000Y-9397200D01*
X19685000Y-6857200D02*
X19735000Y-6807200D01*
X19685000Y-6757200D01*
X19635000Y-6807200D01*
X19685000Y-6857200D01*
X19685000Y-9397200D02*
X19735000Y-9347200D01*
X19685000Y-9297200D01*
X19635000Y-9347200D01*
X19685000Y-9397200D01*
X19939000Y-6857200D02*
X19989000Y-6807200D01*
X19939000Y-6757200D01*
X19889000Y-6807200D01*
X19939000Y-6857200D01*
X19939000Y-9397200D02*
X19989000Y-9347200D01*
X19939000Y-9297200D01*
X19889000Y-9347200D01*
X19939000Y-9397200D01*
X20193000Y-6857200D02*
X20243000Y-6807200D01*
X20193000Y-6757200D01*
X20143000Y-6807200D01*
X20193000Y-6857200D01*
X20193000Y-9397200D02*
X20243000Y-9347200D01*
X20193000Y-9297200D01*
X20143000Y-9347200D01*
X20193000Y-9397200D01*
X20447000Y-6857200D02*
X20497000Y-6807200D01*
X20447000Y-6757200D01*
X20397000Y-6807200D01*
X20447000Y-6857200D01*
X20447000Y-9397200D02*
X20497000Y-9347200D01*
X20447000Y-9297200D01*
X20397000Y-9347200D01*
X20447000Y-9397200D01*
X20701000Y-6857200D02*
X20751000Y-6807200D01*
X20701000Y-6757200D01*
X20651000Y-6807200D01*
X20701000Y-6857200D01*
X20701000Y-9397200D02*
X20751000Y-9347200D01*
X20701000Y-9297200D01*
X20651000Y-9347200D01*
X20701000Y-9397200D01*
X20955000Y-6857200D02*
X21005000Y-6807200D01*
X20955000Y-6757200D01*
X20905000Y-6807200D01*
X20955000Y-6857200D01*
X20955000Y-9397200D02*
X21005000Y-9347200D01*
X20955000Y-9297200D01*
X20905000Y-9347200D01*
X20955000Y-9397200D01*
X21209000Y-6857200D02*
X21259000Y-6807200D01*
X21209000Y-6757200D01*
X21159000Y-6807200D01*
X21209000Y-6857200D01*
X21209000Y-9397200D02*
X21259000Y-9347200D01*
X21209000Y-9297200D01*
X21159000Y-9347200D01*
X21209000Y-9397200D01*
X21463000Y-6857200D02*
X21513000Y-6807200D01*
X21463000Y-6757200D01*
X21413000Y-6807200D01*
X21463000Y-6857200D01*
X21463000Y-9397200D02*
X21513000Y-9347200D01*
X21463000Y-9297200D01*
X21413000Y-9347200D01*
X21463000Y-9397200D01*
X21717000Y-6857200D02*
X21767000Y-6807200D01*
X21717000Y-6757200D01*
X21667000Y-6807200D01*
X21717000Y-6857200D01*
X21717000Y-9397200D02*
X21767000Y-9347200D01*
X21717000Y-9297200D01*
X21667000Y-9347200D01*
X21717000Y-9397200D01*
X21971000Y-6857200D02*
X22021000Y-6807200D01*
X21971000Y-6757200D01*
X21921000Y-6807200D01*
X21971000Y-6857200D01*
X21971000Y-9397200D02*
X22021000Y-9347200D01*
X21971000Y-9297200D01*
X21921000Y-9347200D01*
X21971000Y-9397200D01*
X22225000Y-6857200D02*
X22275000Y-6807200D01*
X22225000Y-6757200D01*
X22175000Y-6807200D01*
X22225000Y-6857200D01*
X22225000Y-9397200D02*
X22275000Y-9347200D01*
X22225000Y-9297200D01*
X22175000Y-9347200D01*
X22225000Y-9397200D01*
X22479000Y-6857200D02*
X22529000Y-6807200D01*
X22479000Y-6757200D01*
X22429000Y-6807200D01*
X22479000Y-6857200D01*
X22479000Y-9397200D02*
X22529000Y-9347200D01*
X22479000Y-9297200D01*
X22429000Y-9347200D01*
X22479000Y-9397200D01*
X22733000Y-6857200D02*
X22783000Y-6807200D01*
X22733000Y-6757200D01*
X22683000Y-6807200D01*
X22733000Y-6857200D01*
X22733000Y-9397200D02*
X22783000Y-9347200D01*
X22733000Y-9297200D01*
X22683000Y-9347200D01*
X22733000Y-9397200D01*
X22987000Y-6857200D02*
X23037000Y-6807200D01*
X22987000Y-6757200D01*
X22937000Y-6807200D01*
X22987000Y-6857200D01*
X22987000Y-9397200D02*
X23037000Y-9347200D01*
X22987000Y-9297200D01*
X22937000Y-9347200D01*
X22987000Y-9397200D01*
X23241000Y-6857200D02*
X23291000Y-6807200D01*
X23241000Y-6757200D01*
X23191000Y-6807200D01*
X23241000Y-6857200D01*
X23241000Y-9397200D02*
X23291000Y-9347200D01*
X23241000Y-9297200D01*
X23191000Y-9347200D01*
X23241000Y-9397200D01*
X23495000Y-6857200D02*
X23545000Y-6807200D01*
X23495000Y-6757200D01*
X23445000Y-6807200D01*
X23495000Y-6857200D01*
X23495000Y-9397200D02*
X23545000Y-9347200D01*
X23495000Y-9297200D01*
X23445000Y-9347200D01*
X23495000Y-9397200D01*
X23749000Y-6857200D02*
X23799000Y-6807200D01*
X23749000Y-6757200D01*
X23699000Y-6807200D01*
X23749000Y-6857200D01*
X23749000Y-9397200D02*
X23799000Y-9347200D01*
X23749000Y-9297200D01*
X23699000Y-9347200D01*
X23749000Y-9397200D01*
X24003000Y-6857200D02*
X24053000Y-6807200D01*
X24003000Y-6757200D01*
X23953000Y-6807200D01*
X24003000Y-6857200D01*
X24003000Y-9397200D02*
X24053000Y-9347200D01*
X24003000Y-9297200D01*
X23953000Y-9347200D01*
X24003000Y-9397200D01*
D13*
X14854800Y-12653600D02*
X14964800Y-12763600D01*
X14964800Y-12653600D02*
X14854800Y-12763600D01*
X14964800Y-12708600D02*
G75*
G02*
X14854800Y-12708600I-55000J0D01*
G01*
X14854800Y-12708600D02*
G75*
G02*
X14964800Y-12708600I55000J0D01*
G01*
X15108800Y-12653600D02*
X15218800Y-12763600D01*
X15218800Y-12653600D02*
X15108800Y-12763600D01*
X15218800Y-12708600D02*
G75*
G02*
X15108800Y-12708600I-55000J0D01*
G01*
X15108800Y-12708600D02*
G75*
G02*
X15218800Y-12708600I55000J0D01*
G01*
X15362800Y-12653600D02*
X15472800Y-12763600D01*
X15472800Y-12653600D02*
X15362800Y-12763600D01*
X15472800Y-12708600D02*
G75*
G02*
X15362800Y-12708600I-55000J0D01*
G01*
X15362800Y-12708600D02*
G75*
G02*
X15472800Y-12708600I55000J0D01*
G01*
X15947000Y-12653600D02*
X16057000Y-12763600D01*
X16057000Y-12653600D02*
X15947000Y-12763600D01*
X16057000Y-12708600D02*
G75*
G02*
X15947000Y-12708600I-55000J0D01*
G01*
X15947000Y-12708600D02*
G75*
G02*
X16057000Y-12708600I55000J0D01*
G01*
X16201000Y-12653600D02*
X16311000Y-12763600D01*
X16311000Y-12653600D02*
X16201000Y-12763600D01*
X16311000Y-12708600D02*
G75*
G02*
X16201000Y-12708600I-55000J0D01*
G01*
X16201000Y-12708600D02*
G75*
G02*
X16311000Y-12708600I55000J0D01*
G01*
X16455000Y-12653600D02*
X16565000Y-12763600D01*
X16565000Y-12653600D02*
X16455000Y-12763600D01*
X16565000Y-12708600D02*
G75*
G02*
X16455000Y-12708600I-55000J0D01*
G01*
X16455000Y-12708600D02*
G75*
G02*
X16565000Y-12708600I55000J0D01*
G01*
X17039200Y-12653600D02*
X17149200Y-12763600D01*
X17149200Y-12653600D02*
X17039200Y-12763600D01*
X17149200Y-12708600D02*
G75*
G02*
X17039200Y-12708600I-55000J0D01*
G01*
X17039200Y-12708600D02*
G75*
G02*
X17149200Y-12708600I55000J0D01*
G01*
X17293200Y-12653600D02*
X17403200Y-12763600D01*
X17403200Y-12653600D02*
X17293200Y-12763600D01*
X17403200Y-12708600D02*
G75*
G02*
X17293200Y-12708600I-55000J0D01*
G01*
X17293200Y-12708600D02*
G75*
G02*
X17403200Y-12708600I55000J0D01*
G01*
X17547200Y-12653600D02*
X17657200Y-12763600D01*
X17657200Y-12653600D02*
X17547200Y-12763600D01*
X17657200Y-12708600D02*
G75*
G02*
X17547200Y-12708600I-55000J0D01*
G01*
X17547200Y-12708600D02*
G75*
G02*
X17657200Y-12708600I55000J0D01*
G01*
X18131400Y-12653600D02*
X18241400Y-12763600D01*
X18241400Y-12653600D02*
X18131400Y-12763600D01*
X18241400Y-12708600D02*
G75*
G02*
X18131400Y-12708600I-55000J0D01*
G01*
X18131400Y-12708600D02*
G75*
G02*
X18241400Y-12708600I55000J0D01*
G01*
X18385400Y-12653600D02*
X18495400Y-12763600D01*
X18495400Y-12653600D02*
X18385400Y-12763600D01*
X18495400Y-12708600D02*
G75*
G02*
X18385400Y-12708600I-55000J0D01*
G01*
X18385400Y-12708600D02*
G75*
G02*
X18495400Y-12708600I55000J0D01*
G01*
X18639400Y-12653600D02*
X18749400Y-12763600D01*
X18749400Y-12653600D02*
X18639400Y-12763600D01*
X18749400Y-12708600D02*
G75*
G02*
X18639400Y-12708600I-55000J0D01*
G01*
X18639400Y-12708600D02*
G75*
G02*
X18749400Y-12708600I55000J0D01*
G01*
X19223600Y-12653600D02*
X19333600Y-12763600D01*
X19333600Y-12653600D02*
X19223600Y-12763600D01*
X19333600Y-12708600D02*
G75*
G02*
X19223600Y-12708600I-55000J0D01*
G01*
X19223600Y-12708600D02*
G75*
G02*
X19333600Y-12708600I55000J0D01*
G01*
X19477600Y-12653600D02*
X19587600Y-12763600D01*
X19587600Y-12653600D02*
X19477600Y-12763600D01*
X19587600Y-12708600D02*
G75*
G02*
X19477600Y-12708600I-55000J0D01*
G01*
X19477600Y-12708600D02*
G75*
G02*
X19587600Y-12708600I55000J0D01*
G01*
X19731600Y-12653600D02*
X19841600Y-12763600D01*
X19841600Y-12653600D02*
X19731600Y-12763600D01*
X19841600Y-12708600D02*
G75*
G02*
X19731600Y-12708600I-55000J0D01*
G01*
X19731600Y-12708600D02*
G75*
G02*
X19841600Y-12708600I55000J0D01*
G01*
X20315800Y-12653600D02*
X20425800Y-12763600D01*
X20425800Y-12653600D02*
X20315800Y-12763600D01*
X20425800Y-12708600D02*
G75*
G02*
X20315800Y-12708600I-55000J0D01*
G01*
X20315800Y-12708600D02*
G75*
G02*
X20425800Y-12708600I55000J0D01*
G01*
X20569800Y-12653600D02*
X20679800Y-12763600D01*
X20679800Y-12653600D02*
X20569800Y-12763600D01*
X20679800Y-12708600D02*
G75*
G02*
X20569800Y-12708600I-55000J0D01*
G01*
X20569800Y-12708600D02*
G75*
G02*
X20679800Y-12708600I55000J0D01*
G01*
X20823800Y-12653600D02*
X20933800Y-12763600D01*
X20933800Y-12653600D02*
X20823800Y-12763600D01*
X20933800Y-12708600D02*
G75*
G02*
X20823800Y-12708600I-55000J0D01*
G01*
X20823800Y-12708600D02*
G75*
G02*
X20933800Y-12708600I55000J0D01*
G01*
X21408000Y-12653600D02*
X21518000Y-12763600D01*
X21518000Y-12653600D02*
X21408000Y-12763600D01*
X21518000Y-12708600D02*
G75*
G02*
X21408000Y-12708600I-55000J0D01*
G01*
X21408000Y-12708600D02*
G75*
G02*
X21518000Y-12708600I55000J0D01*
G01*
X21662000Y-12653600D02*
X21772000Y-12763600D01*
X21772000Y-12653600D02*
X21662000Y-12763600D01*
X21772000Y-12708600D02*
G75*
G02*
X21662000Y-12708600I-55000J0D01*
G01*
X21662000Y-12708600D02*
G75*
G02*
X21772000Y-12708600I55000J0D01*
G01*
X21916000Y-12653600D02*
X22026000Y-12763600D01*
X22026000Y-12653600D02*
X21916000Y-12763600D01*
X22026000Y-12708600D02*
G75*
G02*
X21916000Y-12708600I-55000J0D01*
G01*
X21916000Y-12708600D02*
G75*
G02*
X22026000Y-12708600I55000J0D01*
G01*
X22500200Y-12653600D02*
X22610200Y-12763600D01*
X22610200Y-12653600D02*
X22500200Y-12763600D01*
X22610200Y-12708600D02*
G75*
G02*
X22500200Y-12708600I-55000J0D01*
G01*
X22500200Y-12708600D02*
G75*
G02*
X22610200Y-12708600I55000J0D01*
G01*
X22754200Y-12653600D02*
X22864200Y-12763600D01*
X22864200Y-12653600D02*
X22754200Y-12763600D01*
X22864200Y-12708600D02*
G75*
G02*
X22754200Y-12708600I-55000J0D01*
G01*
X22754200Y-12708600D02*
G75*
G02*
X22864200Y-12708600I55000J0D01*
G01*
X23008200Y-12653600D02*
X23118200Y-12763600D01*
X23118200Y-12653600D02*
X23008200Y-12763600D01*
X23118200Y-12708600D02*
G75*
G02*
X23008200Y-12708600I-55000J0D01*
G01*
X23008200Y-12708600D02*
G75*
G02*
X23118200Y-12708600I55000J0D01*
G01*
X23592400Y-12653600D02*
X23702400Y-12763600D01*
X23702400Y-12653600D02*
X23592400Y-12763600D01*
X23702400Y-12708600D02*
G75*
G02*
X23592400Y-12708600I-55000J0D01*
G01*
X23592400Y-12708600D02*
G75*
G02*
X23702400Y-12708600I55000J0D01*
G01*
X23846400Y-12653600D02*
X23956400Y-12763600D01*
X23956400Y-12653600D02*
X23846400Y-12763600D01*
X23956400Y-12708600D02*
G75*
G02*
X23846400Y-12708600I-55000J0D01*
G01*
X23846400Y-12708600D02*
G75*
G02*
X23956400Y-12708600I55000J0D01*
G01*
X24100400Y-12653600D02*
X24210400Y-12763600D01*
X24210400Y-12653600D02*
X24100400Y-12763600D01*
X24210400Y-12708600D02*
G75*
G02*
X24100400Y-12708600I-55000J0D01*
G01*
X24100400Y-12708600D02*
G75*
G02*
X24210400Y-12708600I55000J0D01*
G01*
D14*
X13791000Y-8830000D02*
X13911000Y-8950000D01*
X13911000Y-8830000D02*
X13791000Y-8950000D01*
X13851000Y-8830000D02*
X13851000Y-8950000D01*
X13791000Y-8890000D02*
X13911000Y-8890000D01*
X14291000Y-8830000D02*
X14411000Y-8950000D01*
X14411000Y-8830000D02*
X14291000Y-8950000D01*
X14351000Y-8830000D02*
X14351000Y-8950000D01*
X14291000Y-8890000D02*
X14411000Y-8890000D01*
D15*
X13778000Y-11578800D02*
X13908000Y-11708800D01*
X13908000Y-11578800D02*
X13778000Y-11708800D01*
X13888962Y-11689762D02*
X13888962Y-11597838D01*
X13797038Y-11597838D01*
X13797038Y-11689762D01*
X13888962Y-11689762D01*
X13778000Y-13828800D02*
X13908000Y-13958800D01*
X13908000Y-13828800D02*
X13778000Y-13958800D01*
X13888962Y-13939762D02*
X13888962Y-13847838D01*
X13797038Y-13847838D01*
X13797038Y-13939762D01*
X13888962Y-13939762D01*
X17053200Y-7199400D02*
X17183200Y-7329400D01*
X17183200Y-7199400D02*
X17053200Y-7329400D01*
X17164162Y-7310362D02*
X17164162Y-7218438D01*
X17072238Y-7218438D01*
X17072238Y-7310362D01*
X17164162Y-7310362D01*
X17553200Y-7199400D02*
X17683200Y-7329400D01*
X17683200Y-7199400D02*
X17553200Y-7329400D01*
X17664162Y-7310362D02*
X17664162Y-7218438D01*
X17572238Y-7218438D01*
X17572238Y-7310362D01*
X17664162Y-7310362D01*
X18053200Y-7199400D02*
X18183200Y-7329400D01*
X18183200Y-7199400D02*
X18053200Y-7329400D01*
X18164162Y-7310362D02*
X18164162Y-7218438D01*
X18072238Y-7218438D01*
X18072238Y-7310362D01*
X18164162Y-7310362D01*
X18553200Y-7199400D02*
X18683200Y-7329400D01*
X18683200Y-7199400D02*
X18553200Y-7329400D01*
X18664162Y-7310362D02*
X18664162Y-7218438D01*
X18572238Y-7218438D01*
X18572238Y-7310362D01*
X18664162Y-7310362D01*
D16*
X14982200Y-13504100D02*
X15142200Y-13664100D01*
X15142200Y-13504100D02*
X14982200Y-13664100D01*
X15062200Y-13664100D02*
X15142200Y-13584100D01*
X15062200Y-13504100D01*
X14982200Y-13584100D01*
X15062200Y-13664100D01*
X15744200Y-13504100D02*
X15904200Y-13664100D01*
X15904200Y-13504100D02*
X15744200Y-13664100D01*
X15824200Y-13664100D02*
X15904200Y-13584100D01*
X15824200Y-13504100D01*
X15744200Y-13584100D01*
X15824200Y-13664100D01*
X16506200Y-13504100D02*
X16666200Y-13664100D01*
X16666200Y-13504100D02*
X16506200Y-13664100D01*
X16586200Y-13664100D02*
X16666200Y-13584100D01*
X16586200Y-13504100D01*
X16506200Y-13584100D01*
X16586200Y-13664100D01*
X17268200Y-13504100D02*
X17428200Y-13664100D01*
X17428200Y-13504100D02*
X17268200Y-13664100D01*
X17348200Y-13664100D02*
X17428200Y-13584100D01*
X17348200Y-13504100D01*
X17268200Y-13584100D01*
X17348200Y-13664100D01*
X18030200Y-13504100D02*
X18190200Y-13664100D01*
X18190200Y-13504100D02*
X18030200Y-13664100D01*
X18110200Y-13664100D02*
X18190200Y-13584100D01*
X18110200Y-13504100D01*
X18030200Y-13584100D01*
X18110200Y-13664100D01*
X18792200Y-13504100D02*
X18952200Y-13664100D01*
X18952200Y-13504100D02*
X18792200Y-13664100D01*
X18872200Y-13664100D02*
X18952200Y-13584100D01*
X18872200Y-13504100D01*
X18792200Y-13584100D01*
X18872200Y-13664100D01*
X19554200Y-13504100D02*
X19714200Y-13664100D01*
X19714200Y-13504100D02*
X19554200Y-13664100D01*
X19634200Y-13664100D02*
X19714200Y-13584100D01*
X19634200Y-13504100D01*
X19554200Y-13584100D01*
X19634200Y-13664100D01*
X20316200Y-13504100D02*
X20476200Y-13664100D01*
X20476200Y-13504100D02*
X20316200Y-13664100D01*
X20396200Y-13664100D02*
X20476200Y-13584100D01*
X20396200Y-13504100D01*
X20316200Y-13584100D01*
X20396200Y-13664100D01*
X21078200Y-13504100D02*
X21238200Y-13664100D01*
X21238200Y-13504100D02*
X21078200Y-13664100D01*
X21158200Y-13664100D02*
X21238200Y-13584100D01*
X21158200Y-13504100D01*
X21078200Y-13584100D01*
X21158200Y-13664100D01*
X21840200Y-13504100D02*
X22000200Y-13664100D01*
X22000200Y-13504100D02*
X21840200Y-13664100D01*
X21920200Y-13664100D02*
X22000200Y-13584100D01*
X21920200Y-13504100D01*
X21840200Y-13584100D01*
X21920200Y-13664100D01*
X22602200Y-13504100D02*
X22762200Y-13664100D01*
X22762200Y-13504100D02*
X22602200Y-13664100D01*
X22682200Y-13664100D02*
X22762200Y-13584100D01*
X22682200Y-13504100D01*
X22602200Y-13584100D01*
X22682200Y-13664100D01*
X23364200Y-13504100D02*
X23524200Y-13664100D01*
X23524200Y-13504100D02*
X23364200Y-13664100D01*
X23444200Y-13664100D02*
X23524200Y-13584100D01*
X23444200Y-13504100D01*
X23364200Y-13584100D01*
X23444200Y-13664100D01*
D17*
X13665200Y-6710700D02*
X13665200Y-7030700D01*
X13505200Y-6870700D02*
X13825200Y-6870700D01*
X13825200Y-6870700D02*
G75*
G02*
X13505200Y-6870700I-160000J0D01*
G01*
X13505200Y-6870700D02*
G75*
G02*
X13825200Y-6870700I160000J0D01*
G01*
X13665200Y-14419600D02*
X13665200Y-14739600D01*
X13505200Y-14579600D02*
X13825200Y-14579600D01*
X13825200Y-14579600D02*
G75*
G02*
X13505200Y-14579600I-160000J0D01*
G01*
X13505200Y-14579600D02*
G75*
G02*
X13825200Y-14579600I160000J0D01*
G01*
X24841200Y-6710700D02*
X24841200Y-7030700D01*
X24681200Y-6870700D02*
X25001200Y-6870700D01*
X25001200Y-6870700D02*
G75*
G02*
X24681200Y-6870700I-160000J0D01*
G01*
X24681200Y-6870700D02*
G75*
G02*
X25001200Y-6870700I160000J0D01*
G01*
X24841200Y-14419600D02*
X24841200Y-14739600D01*
X24681200Y-14579600D02*
X25001200Y-14579600D01*
X25001200Y-14579600D02*
G75*
G02*
X24681200Y-14579600I-160000J0D01*
G01*
X24681200Y-14579600D02*
G75*
G02*
X25001200Y-14579600I160000J0D01*
G01*
D11*
X13491677Y-15325384D02*
X13491677Y-15125384D01*
X13491677Y-15125384D02*
X13539296Y-15125384D01*
X13539296Y-15125384D02*
X13567867Y-15134907D01*
X13567867Y-15134907D02*
X13586915Y-15153955D01*
X13586915Y-15153955D02*
X13596439Y-15173003D01*
X13596439Y-15173003D02*
X13605962Y-15211098D01*
X13605962Y-15211098D02*
X13605962Y-15239669D01*
X13605962Y-15239669D02*
X13596439Y-15277765D01*
X13596439Y-15277765D02*
X13586915Y-15296812D01*
X13586915Y-15296812D02*
X13567867Y-15315860D01*
X13567867Y-15315860D02*
X13539296Y-15325384D01*
X13539296Y-15325384D02*
X13491677Y-15325384D01*
X13691677Y-15325384D02*
X13691677Y-15192050D01*
X13691677Y-15230146D02*
X13701201Y-15211098D01*
X13701201Y-15211098D02*
X13710724Y-15201574D01*
X13710724Y-15201574D02*
X13729772Y-15192050D01*
X13729772Y-15192050D02*
X13748820Y-15192050D01*
X13815486Y-15325384D02*
X13815486Y-15192050D01*
X13815486Y-15125384D02*
X13805962Y-15134907D01*
X13805962Y-15134907D02*
X13815486Y-15144431D01*
X13815486Y-15144431D02*
X13825010Y-15134907D01*
X13825010Y-15134907D02*
X13815486Y-15125384D01*
X13815486Y-15125384D02*
X13815486Y-15144431D01*
X13939296Y-15325384D02*
X13920248Y-15315860D01*
X13920248Y-15315860D02*
X13910724Y-15296812D01*
X13910724Y-15296812D02*
X13910724Y-15125384D01*
X14044058Y-15325384D02*
X14025010Y-15315860D01*
X14025010Y-15315860D02*
X14015486Y-15296812D01*
X14015486Y-15296812D02*
X14015486Y-15125384D01*
X14272629Y-15325384D02*
X14272629Y-15125384D01*
X14272629Y-15125384D02*
X14339296Y-15268241D01*
X14339296Y-15268241D02*
X14405962Y-15125384D01*
X14405962Y-15125384D02*
X14405962Y-15325384D01*
X14586915Y-15325384D02*
X14586915Y-15220622D01*
X14586915Y-15220622D02*
X14577391Y-15201574D01*
X14577391Y-15201574D02*
X14558343Y-15192050D01*
X14558343Y-15192050D02*
X14520248Y-15192050D01*
X14520248Y-15192050D02*
X14501201Y-15201574D01*
X14586915Y-15315860D02*
X14567867Y-15325384D01*
X14567867Y-15325384D02*
X14520248Y-15325384D01*
X14520248Y-15325384D02*
X14501201Y-15315860D01*
X14501201Y-15315860D02*
X14491677Y-15296812D01*
X14491677Y-15296812D02*
X14491677Y-15277765D01*
X14491677Y-15277765D02*
X14501201Y-15258717D01*
X14501201Y-15258717D02*
X14520248Y-15249193D01*
X14520248Y-15249193D02*
X14567867Y-15249193D01*
X14567867Y-15249193D02*
X14586915Y-15239669D01*
X14682153Y-15192050D02*
X14682153Y-15392050D01*
X14682153Y-15201574D02*
X14701201Y-15192050D01*
X14701201Y-15192050D02*
X14739296Y-15192050D01*
X14739296Y-15192050D02*
X14758343Y-15201574D01*
X14758343Y-15201574D02*
X14767867Y-15211098D01*
X14767867Y-15211098D02*
X14777391Y-15230146D01*
X14777391Y-15230146D02*
X14777391Y-15287288D01*
X14777391Y-15287288D02*
X14767867Y-15306336D01*
X14767867Y-15306336D02*
X14758343Y-15315860D01*
X14758343Y-15315860D02*
X14739296Y-15325384D01*
X14739296Y-15325384D02*
X14701201Y-15325384D01*
X14701201Y-15325384D02*
X14682153Y-15315860D01*
X14863105Y-15306336D02*
X14872629Y-15315860D01*
X14872629Y-15315860D02*
X14863105Y-15325384D01*
X14863105Y-15325384D02*
X14853582Y-15315860D01*
X14853582Y-15315860D02*
X14863105Y-15306336D01*
X14863105Y-15306336D02*
X14863105Y-15325384D01*
X14863105Y-15201574D02*
X14872629Y-15211098D01*
X14872629Y-15211098D02*
X14863105Y-15220622D01*
X14863105Y-15220622D02*
X14853582Y-15211098D01*
X14853582Y-15211098D02*
X14863105Y-15201574D01*
X14863105Y-15201574D02*
X14863105Y-15220622D01*
D12*
X13200900Y-15638900D02*
X13230900Y-15668900D01*
X13230900Y-15638900D02*
X13200900Y-15668900D01*
D11*
X13529772Y-15545384D02*
X13548820Y-15545384D01*
X13548820Y-15545384D02*
X13567867Y-15554907D01*
X13567867Y-15554907D02*
X13577391Y-15564431D01*
X13577391Y-15564431D02*
X13586915Y-15583479D01*
X13586915Y-15583479D02*
X13596439Y-15621574D01*
X13596439Y-15621574D02*
X13596439Y-15669193D01*
X13596439Y-15669193D02*
X13586915Y-15707288D01*
X13586915Y-15707288D02*
X13577391Y-15726336D01*
X13577391Y-15726336D02*
X13567867Y-15735860D01*
X13567867Y-15735860D02*
X13548820Y-15745384D01*
X13548820Y-15745384D02*
X13529772Y-15745384D01*
X13529772Y-15745384D02*
X13510724Y-15735860D01*
X13510724Y-15735860D02*
X13501201Y-15726336D01*
X13501201Y-15726336D02*
X13491677Y-15707288D01*
X13491677Y-15707288D02*
X13482153Y-15669193D01*
X13482153Y-15669193D02*
X13482153Y-15621574D01*
X13482153Y-15621574D02*
X13491677Y-15583479D01*
X13491677Y-15583479D02*
X13501201Y-15564431D01*
X13501201Y-15564431D02*
X13510724Y-15554907D01*
X13510724Y-15554907D02*
X13529772Y-15545384D01*
X13682153Y-15726336D02*
X13691677Y-15735860D01*
X13691677Y-15735860D02*
X13682153Y-15745384D01*
X13682153Y-15745384D02*
X13672629Y-15735860D01*
X13672629Y-15735860D02*
X13682153Y-15726336D01*
X13682153Y-15726336D02*
X13682153Y-15745384D01*
X13758343Y-15545384D02*
X13882153Y-15545384D01*
X13882153Y-15545384D02*
X13815486Y-15621574D01*
X13815486Y-15621574D02*
X13844058Y-15621574D01*
X13844058Y-15621574D02*
X13863105Y-15631098D01*
X13863105Y-15631098D02*
X13872629Y-15640622D01*
X13872629Y-15640622D02*
X13882153Y-15659669D01*
X13882153Y-15659669D02*
X13882153Y-15707288D01*
X13882153Y-15707288D02*
X13872629Y-15726336D01*
X13872629Y-15726336D02*
X13863105Y-15735860D01*
X13863105Y-15735860D02*
X13844058Y-15745384D01*
X13844058Y-15745384D02*
X13786915Y-15745384D01*
X13786915Y-15745384D02*
X13767867Y-15735860D01*
X13767867Y-15735860D02*
X13758343Y-15726336D01*
X14005962Y-15545384D02*
X14025010Y-15545384D01*
X14025010Y-15545384D02*
X14044058Y-15554907D01*
X14044058Y-15554907D02*
X14053582Y-15564431D01*
X14053582Y-15564431D02*
X14063105Y-15583479D01*
X14063105Y-15583479D02*
X14072629Y-15621574D01*
X14072629Y-15621574D02*
X14072629Y-15669193D01*
X14072629Y-15669193D02*
X14063105Y-15707288D01*
X14063105Y-15707288D02*
X14053582Y-15726336D01*
X14053582Y-15726336D02*
X14044058Y-15735860D01*
X14044058Y-15735860D02*
X14025010Y-15745384D01*
X14025010Y-15745384D02*
X14005962Y-15745384D01*
X14005962Y-15745384D02*
X13986915Y-15735860D01*
X13986915Y-15735860D02*
X13977391Y-15726336D01*
X13977391Y-15726336D02*
X13967867Y-15707288D01*
X13967867Y-15707288D02*
X13958343Y-15669193D01*
X13958343Y-15669193D02*
X13958343Y-15621574D01*
X13958343Y-15621574D02*
X13967867Y-15583479D01*
X13967867Y-15583479D02*
X13977391Y-15564431D01*
X13977391Y-15564431D02*
X13986915Y-15554907D01*
X13986915Y-15554907D02*
X14005962Y-15545384D01*
X14196439Y-15545384D02*
X14215486Y-15545384D01*
X14215486Y-15545384D02*
X14234534Y-15554907D01*
X14234534Y-15554907D02*
X14244058Y-15564431D01*
X14244058Y-15564431D02*
X14253582Y-15583479D01*
X14253582Y-15583479D02*
X14263105Y-15621574D01*
X14263105Y-15621574D02*
X14263105Y-15669193D01*
X14263105Y-15669193D02*
X14253582Y-15707288D01*
X14253582Y-15707288D02*
X14244058Y-15726336D01*
X14244058Y-15726336D02*
X14234534Y-15735860D01*
X14234534Y-15735860D02*
X14215486Y-15745384D01*
X14215486Y-15745384D02*
X14196439Y-15745384D01*
X14196439Y-15745384D02*
X14177391Y-15735860D01*
X14177391Y-15735860D02*
X14167867Y-15726336D01*
X14167867Y-15726336D02*
X14158343Y-15707288D01*
X14158343Y-15707288D02*
X14148820Y-15669193D01*
X14148820Y-15669193D02*
X14148820Y-15621574D01*
X14148820Y-15621574D02*
X14158343Y-15583479D01*
X14158343Y-15583479D02*
X14167867Y-15564431D01*
X14167867Y-15564431D02*
X14177391Y-15554907D01*
X14177391Y-15554907D02*
X14196439Y-15545384D01*
X14348820Y-15745384D02*
X14348820Y-15612050D01*
X14348820Y-15631098D02*
X14358343Y-15621574D01*
X14358343Y-15621574D02*
X14377391Y-15612050D01*
X14377391Y-15612050D02*
X14405963Y-15612050D01*
X14405963Y-15612050D02*
X14425010Y-15621574D01*
X14425010Y-15621574D02*
X14434534Y-15640622D01*
X14434534Y-15640622D02*
X14434534Y-15745384D01*
X14434534Y-15640622D02*
X14444058Y-15621574D01*
X14444058Y-15621574D02*
X14463105Y-15612050D01*
X14463105Y-15612050D02*
X14491677Y-15612050D01*
X14491677Y-15612050D02*
X14510724Y-15621574D01*
X14510724Y-15621574D02*
X14520248Y-15640622D01*
X14520248Y-15640622D02*
X14520248Y-15745384D01*
X14615486Y-15745384D02*
X14615486Y-15612050D01*
X14615486Y-15631098D02*
X14625010Y-15621574D01*
X14625010Y-15621574D02*
X14644058Y-15612050D01*
X14644058Y-15612050D02*
X14672629Y-15612050D01*
X14672629Y-15612050D02*
X14691677Y-15621574D01*
X14691677Y-15621574D02*
X14701201Y-15640622D01*
X14701201Y-15640622D02*
X14701201Y-15745384D01*
X14701201Y-15640622D02*
X14710724Y-15621574D01*
X14710724Y-15621574D02*
X14729772Y-15612050D01*
X14729772Y-15612050D02*
X14758343Y-15612050D01*
X14758343Y-15612050D02*
X14777391Y-15621574D01*
X14777391Y-15621574D02*
X14786915Y-15640622D01*
X14786915Y-15640622D02*
X14786915Y-15745384D01*
X15177391Y-15535860D02*
X15005963Y-15793003D01*
X15434534Y-15545384D02*
X15453582Y-15545384D01*
X15453582Y-15545384D02*
X15472629Y-15554907D01*
X15472629Y-15554907D02*
X15482153Y-15564431D01*
X15482153Y-15564431D02*
X15491677Y-15583479D01*
X15491677Y-15583479D02*
X15501201Y-15621574D01*
X15501201Y-15621574D02*
X15501201Y-15669193D01*
X15501201Y-15669193D02*
X15491677Y-15707288D01*
X15491677Y-15707288D02*
X15482153Y-15726336D01*
X15482153Y-15726336D02*
X15472629Y-15735860D01*
X15472629Y-15735860D02*
X15453582Y-15745384D01*
X15453582Y-15745384D02*
X15434534Y-15745384D01*
X15434534Y-15745384D02*
X15415486Y-15735860D01*
X15415486Y-15735860D02*
X15405963Y-15726336D01*
X15405963Y-15726336D02*
X15396439Y-15707288D01*
X15396439Y-15707288D02*
X15386915Y-15669193D01*
X15386915Y-15669193D02*
X15386915Y-15621574D01*
X15386915Y-15621574D02*
X15396439Y-15583479D01*
X15396439Y-15583479D02*
X15405963Y-15564431D01*
X15405963Y-15564431D02*
X15415486Y-15554907D01*
X15415486Y-15554907D02*
X15434534Y-15545384D01*
X15586915Y-15726336D02*
X15596439Y-15735860D01*
X15596439Y-15735860D02*
X15586915Y-15745384D01*
X15586915Y-15745384D02*
X15577391Y-15735860D01*
X15577391Y-15735860D02*
X15586915Y-15726336D01*
X15586915Y-15726336D02*
X15586915Y-15745384D01*
X15720248Y-15545384D02*
X15739296Y-15545384D01*
X15739296Y-15545384D02*
X15758344Y-15554907D01*
X15758344Y-15554907D02*
X15767867Y-15564431D01*
X15767867Y-15564431D02*
X15777391Y-15583479D01*
X15777391Y-15583479D02*
X15786915Y-15621574D01*
X15786915Y-15621574D02*
X15786915Y-15669193D01*
X15786915Y-15669193D02*
X15777391Y-15707288D01*
X15777391Y-15707288D02*
X15767867Y-15726336D01*
X15767867Y-15726336D02*
X15758344Y-15735860D01*
X15758344Y-15735860D02*
X15739296Y-15745384D01*
X15739296Y-15745384D02*
X15720248Y-15745384D01*
X15720248Y-15745384D02*
X15701201Y-15735860D01*
X15701201Y-15735860D02*
X15691677Y-15726336D01*
X15691677Y-15726336D02*
X15682153Y-15707288D01*
X15682153Y-15707288D02*
X15672629Y-15669193D01*
X15672629Y-15669193D02*
X15672629Y-15621574D01*
X15672629Y-15621574D02*
X15682153Y-15583479D01*
X15682153Y-15583479D02*
X15691677Y-15564431D01*
X15691677Y-15564431D02*
X15701201Y-15554907D01*
X15701201Y-15554907D02*
X15720248Y-15545384D01*
X15977391Y-15745384D02*
X15863106Y-15745384D01*
X15920248Y-15745384D02*
X15920248Y-15545384D01*
X15920248Y-15545384D02*
X15901201Y-15573955D01*
X15901201Y-15573955D02*
X15882153Y-15593003D01*
X15882153Y-15593003D02*
X15863106Y-15602526D01*
X16167867Y-15745384D02*
X16053582Y-15745384D01*
X16110725Y-15745384D02*
X16110725Y-15545384D01*
X16110725Y-15545384D02*
X16091677Y-15573955D01*
X16091677Y-15573955D02*
X16072629Y-15593003D01*
X16072629Y-15593003D02*
X16053582Y-15602526D01*
X16282153Y-15631098D02*
X16263106Y-15621574D01*
X16263106Y-15621574D02*
X16253582Y-15612050D01*
X16253582Y-15612050D02*
X16244058Y-15593003D01*
X16244058Y-15593003D02*
X16244058Y-15583479D01*
X16244058Y-15583479D02*
X16253582Y-15564431D01*
X16253582Y-15564431D02*
X16263106Y-15554907D01*
X16263106Y-15554907D02*
X16282153Y-15545384D01*
X16282153Y-15545384D02*
X16320248Y-15545384D01*
X16320248Y-15545384D02*
X16339296Y-15554907D01*
X16339296Y-15554907D02*
X16348820Y-15564431D01*
X16348820Y-15564431D02*
X16358344Y-15583479D01*
X16358344Y-15583479D02*
X16358344Y-15593003D01*
X16358344Y-15593003D02*
X16348820Y-15612050D01*
X16348820Y-15612050D02*
X16339296Y-15621574D01*
X16339296Y-15621574D02*
X16320248Y-15631098D01*
X16320248Y-15631098D02*
X16282153Y-15631098D01*
X16282153Y-15631098D02*
X16263106Y-15640622D01*
X16263106Y-15640622D02*
X16253582Y-15650146D01*
X16253582Y-15650146D02*
X16244058Y-15669193D01*
X16244058Y-15669193D02*
X16244058Y-15707288D01*
X16244058Y-15707288D02*
X16253582Y-15726336D01*
X16253582Y-15726336D02*
X16263106Y-15735860D01*
X16263106Y-15735860D02*
X16282153Y-15745384D01*
X16282153Y-15745384D02*
X16320248Y-15745384D01*
X16320248Y-15745384D02*
X16339296Y-15735860D01*
X16339296Y-15735860D02*
X16348820Y-15726336D01*
X16348820Y-15726336D02*
X16358344Y-15707288D01*
X16358344Y-15707288D02*
X16358344Y-15669193D01*
X16358344Y-15669193D02*
X16348820Y-15650146D01*
X16348820Y-15650146D02*
X16339296Y-15640622D01*
X16339296Y-15640622D02*
X16320248Y-15631098D01*
X16434534Y-15545384D02*
X16434534Y-15583479D01*
X16510725Y-15545384D02*
X16510725Y-15583479D01*
X16805963Y-15821574D02*
X16796439Y-15812050D01*
X16796439Y-15812050D02*
X16777391Y-15783479D01*
X16777391Y-15783479D02*
X16767868Y-15764431D01*
X16767868Y-15764431D02*
X16758344Y-15735860D01*
X16758344Y-15735860D02*
X16748820Y-15688241D01*
X16748820Y-15688241D02*
X16748820Y-15650146D01*
X16748820Y-15650146D02*
X16758344Y-15602526D01*
X16758344Y-15602526D02*
X16767868Y-15573955D01*
X16767868Y-15573955D02*
X16777391Y-15554907D01*
X16777391Y-15554907D02*
X16796439Y-15526336D01*
X16796439Y-15526336D02*
X16805963Y-15516812D01*
X16977391Y-15545384D02*
X16882153Y-15545384D01*
X16882153Y-15545384D02*
X16872630Y-15640622D01*
X16872630Y-15640622D02*
X16882153Y-15631098D01*
X16882153Y-15631098D02*
X16901201Y-15621574D01*
X16901201Y-15621574D02*
X16948820Y-15621574D01*
X16948820Y-15621574D02*
X16967868Y-15631098D01*
X16967868Y-15631098D02*
X16977391Y-15640622D01*
X16977391Y-15640622D02*
X16986915Y-15659669D01*
X16986915Y-15659669D02*
X16986915Y-15707288D01*
X16986915Y-15707288D02*
X16977391Y-15726336D01*
X16977391Y-15726336D02*
X16967868Y-15735860D01*
X16967868Y-15735860D02*
X16948820Y-15745384D01*
X16948820Y-15745384D02*
X16901201Y-15745384D01*
X16901201Y-15745384D02*
X16882153Y-15735860D01*
X16882153Y-15735860D02*
X16872630Y-15726336D01*
X17167868Y-15545384D02*
X17072630Y-15545384D01*
X17072630Y-15545384D02*
X17063106Y-15640622D01*
X17063106Y-15640622D02*
X17072630Y-15631098D01*
X17072630Y-15631098D02*
X17091677Y-15621574D01*
X17091677Y-15621574D02*
X17139296Y-15621574D01*
X17139296Y-15621574D02*
X17158344Y-15631098D01*
X17158344Y-15631098D02*
X17167868Y-15640622D01*
X17167868Y-15640622D02*
X17177391Y-15659669D01*
X17177391Y-15659669D02*
X17177391Y-15707288D01*
X17177391Y-15707288D02*
X17167868Y-15726336D01*
X17167868Y-15726336D02*
X17158344Y-15735860D01*
X17158344Y-15735860D02*
X17139296Y-15745384D01*
X17139296Y-15745384D02*
X17091677Y-15745384D01*
X17091677Y-15745384D02*
X17072630Y-15735860D01*
X17072630Y-15735860D02*
X17063106Y-15726336D01*
X17415487Y-15745384D02*
X17415487Y-15545384D01*
X17501201Y-15745384D02*
X17501201Y-15640622D01*
X17501201Y-15640622D02*
X17491677Y-15621574D01*
X17491677Y-15621574D02*
X17472630Y-15612050D01*
X17472630Y-15612050D02*
X17444058Y-15612050D01*
X17444058Y-15612050D02*
X17425011Y-15621574D01*
X17425011Y-15621574D02*
X17415487Y-15631098D01*
X17625011Y-15745384D02*
X17605963Y-15735860D01*
X17605963Y-15735860D02*
X17596439Y-15726336D01*
X17596439Y-15726336D02*
X17586915Y-15707288D01*
X17586915Y-15707288D02*
X17586915Y-15650146D01*
X17586915Y-15650146D02*
X17596439Y-15631098D01*
X17596439Y-15631098D02*
X17605963Y-15621574D01*
X17605963Y-15621574D02*
X17625011Y-15612050D01*
X17625011Y-15612050D02*
X17653582Y-15612050D01*
X17653582Y-15612050D02*
X17672630Y-15621574D01*
X17672630Y-15621574D02*
X17682153Y-15631098D01*
X17682153Y-15631098D02*
X17691677Y-15650146D01*
X17691677Y-15650146D02*
X17691677Y-15707288D01*
X17691677Y-15707288D02*
X17682153Y-15726336D01*
X17682153Y-15726336D02*
X17672630Y-15735860D01*
X17672630Y-15735860D02*
X17653582Y-15745384D01*
X17653582Y-15745384D02*
X17625011Y-15745384D01*
X17805963Y-15745384D02*
X17786915Y-15735860D01*
X17786915Y-15735860D02*
X17777392Y-15716812D01*
X17777392Y-15716812D02*
X17777392Y-15545384D01*
X17958344Y-15735860D02*
X17939296Y-15745384D01*
X17939296Y-15745384D02*
X17901201Y-15745384D01*
X17901201Y-15745384D02*
X17882153Y-15735860D01*
X17882153Y-15735860D02*
X17872630Y-15716812D01*
X17872630Y-15716812D02*
X17872630Y-15640622D01*
X17872630Y-15640622D02*
X17882153Y-15621574D01*
X17882153Y-15621574D02*
X17901201Y-15612050D01*
X17901201Y-15612050D02*
X17939296Y-15612050D01*
X17939296Y-15612050D02*
X17958344Y-15621574D01*
X17958344Y-15621574D02*
X17967868Y-15640622D01*
X17967868Y-15640622D02*
X17967868Y-15659669D01*
X17967868Y-15659669D02*
X17872630Y-15678717D01*
X18044058Y-15735860D02*
X18063106Y-15745384D01*
X18063106Y-15745384D02*
X18101201Y-15745384D01*
X18101201Y-15745384D02*
X18120249Y-15735860D01*
X18120249Y-15735860D02*
X18129773Y-15716812D01*
X18129773Y-15716812D02*
X18129773Y-15707288D01*
X18129773Y-15707288D02*
X18120249Y-15688241D01*
X18120249Y-15688241D02*
X18101201Y-15678717D01*
X18101201Y-15678717D02*
X18072630Y-15678717D01*
X18072630Y-15678717D02*
X18053582Y-15669193D01*
X18053582Y-15669193D02*
X18044058Y-15650146D01*
X18044058Y-15650146D02*
X18044058Y-15640622D01*
X18044058Y-15640622D02*
X18053582Y-15621574D01*
X18053582Y-15621574D02*
X18072630Y-15612050D01*
X18072630Y-15612050D02*
X18101201Y-15612050D01*
X18101201Y-15612050D02*
X18120249Y-15621574D01*
X18196439Y-15821574D02*
X18205963Y-15812050D01*
X18205963Y-15812050D02*
X18225011Y-15783479D01*
X18225011Y-15783479D02*
X18234534Y-15764431D01*
X18234534Y-15764431D02*
X18244058Y-15735860D01*
X18244058Y-15735860D02*
X18253582Y-15688241D01*
X18253582Y-15688241D02*
X18253582Y-15650146D01*
X18253582Y-15650146D02*
X18244058Y-15602526D01*
X18244058Y-15602526D02*
X18234534Y-15573955D01*
X18234534Y-15573955D02*
X18225011Y-15554907D01*
X18225011Y-15554907D02*
X18205963Y-15526336D01*
X18205963Y-15526336D02*
X18196439Y-15516812D01*
D12*
X13230900Y-15917900D02*
G75*
G02*
X13180900Y-15917900I-25000J0D01*
G01*
X13180900Y-15917900D02*
G75*
G02*
X13230900Y-15917900I25000J0D01*
G01*
D11*
X13529772Y-15809384D02*
X13548820Y-15809384D01*
X13548820Y-15809384D02*
X13567867Y-15818907D01*
X13567867Y-15818907D02*
X13577391Y-15828431D01*
X13577391Y-15828431D02*
X13586915Y-15847479D01*
X13586915Y-15847479D02*
X13596439Y-15885574D01*
X13596439Y-15885574D02*
X13596439Y-15933193D01*
X13596439Y-15933193D02*
X13586915Y-15971288D01*
X13586915Y-15971288D02*
X13577391Y-15990336D01*
X13577391Y-15990336D02*
X13567867Y-15999860D01*
X13567867Y-15999860D02*
X13548820Y-16009384D01*
X13548820Y-16009384D02*
X13529772Y-16009384D01*
X13529772Y-16009384D02*
X13510724Y-15999860D01*
X13510724Y-15999860D02*
X13501201Y-15990336D01*
X13501201Y-15990336D02*
X13491677Y-15971288D01*
X13491677Y-15971288D02*
X13482153Y-15933193D01*
X13482153Y-15933193D02*
X13482153Y-15885574D01*
X13482153Y-15885574D02*
X13491677Y-15847479D01*
X13491677Y-15847479D02*
X13501201Y-15828431D01*
X13501201Y-15828431D02*
X13510724Y-15818907D01*
X13510724Y-15818907D02*
X13529772Y-15809384D01*
X13682153Y-15990336D02*
X13691677Y-15999860D01*
X13691677Y-15999860D02*
X13682153Y-16009384D01*
X13682153Y-16009384D02*
X13672629Y-15999860D01*
X13672629Y-15999860D02*
X13682153Y-15990336D01*
X13682153Y-15990336D02*
X13682153Y-16009384D01*
X13872629Y-15809384D02*
X13777391Y-15809384D01*
X13777391Y-15809384D02*
X13767867Y-15904622D01*
X13767867Y-15904622D02*
X13777391Y-15895098D01*
X13777391Y-15895098D02*
X13796439Y-15885574D01*
X13796439Y-15885574D02*
X13844058Y-15885574D01*
X13844058Y-15885574D02*
X13863105Y-15895098D01*
X13863105Y-15895098D02*
X13872629Y-15904622D01*
X13872629Y-15904622D02*
X13882153Y-15923669D01*
X13882153Y-15923669D02*
X13882153Y-15971288D01*
X13882153Y-15971288D02*
X13872629Y-15990336D01*
X13872629Y-15990336D02*
X13863105Y-15999860D01*
X13863105Y-15999860D02*
X13844058Y-16009384D01*
X13844058Y-16009384D02*
X13796439Y-16009384D01*
X13796439Y-16009384D02*
X13777391Y-15999860D01*
X13777391Y-15999860D02*
X13767867Y-15990336D01*
X14005962Y-15809384D02*
X14025010Y-15809384D01*
X14025010Y-15809384D02*
X14044058Y-15818907D01*
X14044058Y-15818907D02*
X14053582Y-15828431D01*
X14053582Y-15828431D02*
X14063105Y-15847479D01*
X14063105Y-15847479D02*
X14072629Y-15885574D01*
X14072629Y-15885574D02*
X14072629Y-15933193D01*
X14072629Y-15933193D02*
X14063105Y-15971288D01*
X14063105Y-15971288D02*
X14053582Y-15990336D01*
X14053582Y-15990336D02*
X14044058Y-15999860D01*
X14044058Y-15999860D02*
X14025010Y-16009384D01*
X14025010Y-16009384D02*
X14005962Y-16009384D01*
X14005962Y-16009384D02*
X13986915Y-15999860D01*
X13986915Y-15999860D02*
X13977391Y-15990336D01*
X13977391Y-15990336D02*
X13967867Y-15971288D01*
X13967867Y-15971288D02*
X13958343Y-15933193D01*
X13958343Y-15933193D02*
X13958343Y-15885574D01*
X13958343Y-15885574D02*
X13967867Y-15847479D01*
X13967867Y-15847479D02*
X13977391Y-15828431D01*
X13977391Y-15828431D02*
X13986915Y-15818907D01*
X13986915Y-15818907D02*
X14005962Y-15809384D01*
X14196439Y-15809384D02*
X14215486Y-15809384D01*
X14215486Y-15809384D02*
X14234534Y-15818907D01*
X14234534Y-15818907D02*
X14244058Y-15828431D01*
X14244058Y-15828431D02*
X14253582Y-15847479D01*
X14253582Y-15847479D02*
X14263105Y-15885574D01*
X14263105Y-15885574D02*
X14263105Y-15933193D01*
X14263105Y-15933193D02*
X14253582Y-15971288D01*
X14253582Y-15971288D02*
X14244058Y-15990336D01*
X14244058Y-15990336D02*
X14234534Y-15999860D01*
X14234534Y-15999860D02*
X14215486Y-16009384D01*
X14215486Y-16009384D02*
X14196439Y-16009384D01*
X14196439Y-16009384D02*
X14177391Y-15999860D01*
X14177391Y-15999860D02*
X14167867Y-15990336D01*
X14167867Y-15990336D02*
X14158343Y-15971288D01*
X14158343Y-15971288D02*
X14148820Y-15933193D01*
X14148820Y-15933193D02*
X14148820Y-15885574D01*
X14148820Y-15885574D02*
X14158343Y-15847479D01*
X14158343Y-15847479D02*
X14167867Y-15828431D01*
X14167867Y-15828431D02*
X14177391Y-15818907D01*
X14177391Y-15818907D02*
X14196439Y-15809384D01*
X14348820Y-16009384D02*
X14348820Y-15876050D01*
X14348820Y-15895098D02*
X14358343Y-15885574D01*
X14358343Y-15885574D02*
X14377391Y-15876050D01*
X14377391Y-15876050D02*
X14405963Y-15876050D01*
X14405963Y-15876050D02*
X14425010Y-15885574D01*
X14425010Y-15885574D02*
X14434534Y-15904622D01*
X14434534Y-15904622D02*
X14434534Y-16009384D01*
X14434534Y-15904622D02*
X14444058Y-15885574D01*
X14444058Y-15885574D02*
X14463105Y-15876050D01*
X14463105Y-15876050D02*
X14491677Y-15876050D01*
X14491677Y-15876050D02*
X14510724Y-15885574D01*
X14510724Y-15885574D02*
X14520248Y-15904622D01*
X14520248Y-15904622D02*
X14520248Y-16009384D01*
X14615486Y-16009384D02*
X14615486Y-15876050D01*
X14615486Y-15895098D02*
X14625010Y-15885574D01*
X14625010Y-15885574D02*
X14644058Y-15876050D01*
X14644058Y-15876050D02*
X14672629Y-15876050D01*
X14672629Y-15876050D02*
X14691677Y-15885574D01*
X14691677Y-15885574D02*
X14701201Y-15904622D01*
X14701201Y-15904622D02*
X14701201Y-16009384D01*
X14701201Y-15904622D02*
X14710724Y-15885574D01*
X14710724Y-15885574D02*
X14729772Y-15876050D01*
X14729772Y-15876050D02*
X14758343Y-15876050D01*
X14758343Y-15876050D02*
X14777391Y-15885574D01*
X14777391Y-15885574D02*
X14786915Y-15904622D01*
X14786915Y-15904622D02*
X14786915Y-16009384D01*
X15177391Y-15799860D02*
X15005963Y-16057003D01*
X15434534Y-15809384D02*
X15453582Y-15809384D01*
X15453582Y-15809384D02*
X15472629Y-15818907D01*
X15472629Y-15818907D02*
X15482153Y-15828431D01*
X15482153Y-15828431D02*
X15491677Y-15847479D01*
X15491677Y-15847479D02*
X15501201Y-15885574D01*
X15501201Y-15885574D02*
X15501201Y-15933193D01*
X15501201Y-15933193D02*
X15491677Y-15971288D01*
X15491677Y-15971288D02*
X15482153Y-15990336D01*
X15482153Y-15990336D02*
X15472629Y-15999860D01*
X15472629Y-15999860D02*
X15453582Y-16009384D01*
X15453582Y-16009384D02*
X15434534Y-16009384D01*
X15434534Y-16009384D02*
X15415486Y-15999860D01*
X15415486Y-15999860D02*
X15405963Y-15990336D01*
X15405963Y-15990336D02*
X15396439Y-15971288D01*
X15396439Y-15971288D02*
X15386915Y-15933193D01*
X15386915Y-15933193D02*
X15386915Y-15885574D01*
X15386915Y-15885574D02*
X15396439Y-15847479D01*
X15396439Y-15847479D02*
X15405963Y-15828431D01*
X15405963Y-15828431D02*
X15415486Y-15818907D01*
X15415486Y-15818907D02*
X15434534Y-15809384D01*
X15586915Y-15990336D02*
X15596439Y-15999860D01*
X15596439Y-15999860D02*
X15586915Y-16009384D01*
X15586915Y-16009384D02*
X15577391Y-15999860D01*
X15577391Y-15999860D02*
X15586915Y-15990336D01*
X15586915Y-15990336D02*
X15586915Y-16009384D01*
X15720248Y-15809384D02*
X15739296Y-15809384D01*
X15739296Y-15809384D02*
X15758344Y-15818907D01*
X15758344Y-15818907D02*
X15767867Y-15828431D01*
X15767867Y-15828431D02*
X15777391Y-15847479D01*
X15777391Y-15847479D02*
X15786915Y-15885574D01*
X15786915Y-15885574D02*
X15786915Y-15933193D01*
X15786915Y-15933193D02*
X15777391Y-15971288D01*
X15777391Y-15971288D02*
X15767867Y-15990336D01*
X15767867Y-15990336D02*
X15758344Y-15999860D01*
X15758344Y-15999860D02*
X15739296Y-16009384D01*
X15739296Y-16009384D02*
X15720248Y-16009384D01*
X15720248Y-16009384D02*
X15701201Y-15999860D01*
X15701201Y-15999860D02*
X15691677Y-15990336D01*
X15691677Y-15990336D02*
X15682153Y-15971288D01*
X15682153Y-15971288D02*
X15672629Y-15933193D01*
X15672629Y-15933193D02*
X15672629Y-15885574D01*
X15672629Y-15885574D02*
X15682153Y-15847479D01*
X15682153Y-15847479D02*
X15691677Y-15828431D01*
X15691677Y-15828431D02*
X15701201Y-15818907D01*
X15701201Y-15818907D02*
X15720248Y-15809384D01*
X15977391Y-16009384D02*
X15863106Y-16009384D01*
X15920248Y-16009384D02*
X15920248Y-15809384D01*
X15920248Y-15809384D02*
X15901201Y-15837955D01*
X15901201Y-15837955D02*
X15882153Y-15857003D01*
X15882153Y-15857003D02*
X15863106Y-15866526D01*
X16072629Y-16009384D02*
X16110725Y-16009384D01*
X16110725Y-16009384D02*
X16129772Y-15999860D01*
X16129772Y-15999860D02*
X16139296Y-15990336D01*
X16139296Y-15990336D02*
X16158344Y-15961765D01*
X16158344Y-15961765D02*
X16167867Y-15923669D01*
X16167867Y-15923669D02*
X16167867Y-15847479D01*
X16167867Y-15847479D02*
X16158344Y-15828431D01*
X16158344Y-15828431D02*
X16148820Y-15818907D01*
X16148820Y-15818907D02*
X16129772Y-15809384D01*
X16129772Y-15809384D02*
X16091677Y-15809384D01*
X16091677Y-15809384D02*
X16072629Y-15818907D01*
X16072629Y-15818907D02*
X16063106Y-15828431D01*
X16063106Y-15828431D02*
X16053582Y-15847479D01*
X16053582Y-15847479D02*
X16053582Y-15895098D01*
X16053582Y-15895098D02*
X16063106Y-15914146D01*
X16063106Y-15914146D02*
X16072629Y-15923669D01*
X16072629Y-15923669D02*
X16091677Y-15933193D01*
X16091677Y-15933193D02*
X16129772Y-15933193D01*
X16129772Y-15933193D02*
X16148820Y-15923669D01*
X16148820Y-15923669D02*
X16158344Y-15914146D01*
X16158344Y-15914146D02*
X16167867Y-15895098D01*
X16234534Y-15809384D02*
X16367867Y-15809384D01*
X16367867Y-15809384D02*
X16282153Y-16009384D01*
X16434534Y-15809384D02*
X16434534Y-15847479D01*
X16510725Y-15809384D02*
X16510725Y-15847479D01*
X16805963Y-16085574D02*
X16796439Y-16076050D01*
X16796439Y-16076050D02*
X16777391Y-16047479D01*
X16777391Y-16047479D02*
X16767868Y-16028431D01*
X16767868Y-16028431D02*
X16758344Y-15999860D01*
X16758344Y-15999860D02*
X16748820Y-15952241D01*
X16748820Y-15952241D02*
X16748820Y-15914146D01*
X16748820Y-15914146D02*
X16758344Y-15866526D01*
X16758344Y-15866526D02*
X16767868Y-15837955D01*
X16767868Y-15837955D02*
X16777391Y-15818907D01*
X16777391Y-15818907D02*
X16796439Y-15790336D01*
X16796439Y-15790336D02*
X16805963Y-15780812D01*
X16863106Y-15809384D02*
X16986915Y-15809384D01*
X16986915Y-15809384D02*
X16920249Y-15885574D01*
X16920249Y-15885574D02*
X16948820Y-15885574D01*
X16948820Y-15885574D02*
X16967868Y-15895098D01*
X16967868Y-15895098D02*
X16977391Y-15904622D01*
X16977391Y-15904622D02*
X16986915Y-15923669D01*
X16986915Y-15923669D02*
X16986915Y-15971288D01*
X16986915Y-15971288D02*
X16977391Y-15990336D01*
X16977391Y-15990336D02*
X16967868Y-15999860D01*
X16967868Y-15999860D02*
X16948820Y-16009384D01*
X16948820Y-16009384D02*
X16891677Y-16009384D01*
X16891677Y-16009384D02*
X16872630Y-15999860D01*
X16872630Y-15999860D02*
X16863106Y-15990336D01*
X17063106Y-15828431D02*
X17072630Y-15818907D01*
X17072630Y-15818907D02*
X17091677Y-15809384D01*
X17091677Y-15809384D02*
X17139296Y-15809384D01*
X17139296Y-15809384D02*
X17158344Y-15818907D01*
X17158344Y-15818907D02*
X17167868Y-15828431D01*
X17167868Y-15828431D02*
X17177391Y-15847479D01*
X17177391Y-15847479D02*
X17177391Y-15866526D01*
X17177391Y-15866526D02*
X17167868Y-15895098D01*
X17167868Y-15895098D02*
X17053582Y-16009384D01*
X17053582Y-16009384D02*
X17177391Y-16009384D01*
X17415487Y-16009384D02*
X17415487Y-15809384D01*
X17501201Y-16009384D02*
X17501201Y-15904622D01*
X17501201Y-15904622D02*
X17491677Y-15885574D01*
X17491677Y-15885574D02*
X17472630Y-15876050D01*
X17472630Y-15876050D02*
X17444058Y-15876050D01*
X17444058Y-15876050D02*
X17425011Y-15885574D01*
X17425011Y-15885574D02*
X17415487Y-15895098D01*
X17625011Y-16009384D02*
X17605963Y-15999860D01*
X17605963Y-15999860D02*
X17596439Y-15990336D01*
X17596439Y-15990336D02*
X17586915Y-15971288D01*
X17586915Y-15971288D02*
X17586915Y-15914146D01*
X17586915Y-15914146D02*
X17596439Y-15895098D01*
X17596439Y-15895098D02*
X17605963Y-15885574D01*
X17605963Y-15885574D02*
X17625011Y-15876050D01*
X17625011Y-15876050D02*
X17653582Y-15876050D01*
X17653582Y-15876050D02*
X17672630Y-15885574D01*
X17672630Y-15885574D02*
X17682153Y-15895098D01*
X17682153Y-15895098D02*
X17691677Y-15914146D01*
X17691677Y-15914146D02*
X17691677Y-15971288D01*
X17691677Y-15971288D02*
X17682153Y-15990336D01*
X17682153Y-15990336D02*
X17672630Y-15999860D01*
X17672630Y-15999860D02*
X17653582Y-16009384D01*
X17653582Y-16009384D02*
X17625011Y-16009384D01*
X17805963Y-16009384D02*
X17786915Y-15999860D01*
X17786915Y-15999860D02*
X17777392Y-15980812D01*
X17777392Y-15980812D02*
X17777392Y-15809384D01*
X17958344Y-15999860D02*
X17939296Y-16009384D01*
X17939296Y-16009384D02*
X17901201Y-16009384D01*
X17901201Y-16009384D02*
X17882153Y-15999860D01*
X17882153Y-15999860D02*
X17872630Y-15980812D01*
X17872630Y-15980812D02*
X17872630Y-15904622D01*
X17872630Y-15904622D02*
X17882153Y-15885574D01*
X17882153Y-15885574D02*
X17901201Y-15876050D01*
X17901201Y-15876050D02*
X17939296Y-15876050D01*
X17939296Y-15876050D02*
X17958344Y-15885574D01*
X17958344Y-15885574D02*
X17967868Y-15904622D01*
X17967868Y-15904622D02*
X17967868Y-15923669D01*
X17967868Y-15923669D02*
X17872630Y-15942717D01*
X18044058Y-15999860D02*
X18063106Y-16009384D01*
X18063106Y-16009384D02*
X18101201Y-16009384D01*
X18101201Y-16009384D02*
X18120249Y-15999860D01*
X18120249Y-15999860D02*
X18129773Y-15980812D01*
X18129773Y-15980812D02*
X18129773Y-15971288D01*
X18129773Y-15971288D02*
X18120249Y-15952241D01*
X18120249Y-15952241D02*
X18101201Y-15942717D01*
X18101201Y-15942717D02*
X18072630Y-15942717D01*
X18072630Y-15942717D02*
X18053582Y-15933193D01*
X18053582Y-15933193D02*
X18044058Y-15914146D01*
X18044058Y-15914146D02*
X18044058Y-15904622D01*
X18044058Y-15904622D02*
X18053582Y-15885574D01*
X18053582Y-15885574D02*
X18072630Y-15876050D01*
X18072630Y-15876050D02*
X18101201Y-15876050D01*
X18101201Y-15876050D02*
X18120249Y-15885574D01*
X18196439Y-16085574D02*
X18205963Y-16076050D01*
X18205963Y-16076050D02*
X18225011Y-16047479D01*
X18225011Y-16047479D02*
X18234534Y-16028431D01*
X18234534Y-16028431D02*
X18244058Y-15999860D01*
X18244058Y-15999860D02*
X18253582Y-15952241D01*
X18253582Y-15952241D02*
X18253582Y-15914146D01*
X18253582Y-15914146D02*
X18244058Y-15866526D01*
X18244058Y-15866526D02*
X18234534Y-15837955D01*
X18234534Y-15837955D02*
X18225011Y-15818907D01*
X18225011Y-15818907D02*
X18205963Y-15790336D01*
X18205963Y-15790336D02*
X18196439Y-15780812D01*
D12*
X13190900Y-16141900D02*
X13190900Y-16221900D01*
X13150900Y-16181900D02*
X13230900Y-16181900D01*
D11*
X13529772Y-16073384D02*
X13548820Y-16073384D01*
X13548820Y-16073384D02*
X13567867Y-16082907D01*
X13567867Y-16082907D02*
X13577391Y-16092431D01*
X13577391Y-16092431D02*
X13586915Y-16111479D01*
X13586915Y-16111479D02*
X13596439Y-16149574D01*
X13596439Y-16149574D02*
X13596439Y-16197193D01*
X13596439Y-16197193D02*
X13586915Y-16235288D01*
X13586915Y-16235288D02*
X13577391Y-16254336D01*
X13577391Y-16254336D02*
X13567867Y-16263860D01*
X13567867Y-16263860D02*
X13548820Y-16273384D01*
X13548820Y-16273384D02*
X13529772Y-16273384D01*
X13529772Y-16273384D02*
X13510724Y-16263860D01*
X13510724Y-16263860D02*
X13501201Y-16254336D01*
X13501201Y-16254336D02*
X13491677Y-16235288D01*
X13491677Y-16235288D02*
X13482153Y-16197193D01*
X13482153Y-16197193D02*
X13482153Y-16149574D01*
X13482153Y-16149574D02*
X13491677Y-16111479D01*
X13491677Y-16111479D02*
X13501201Y-16092431D01*
X13501201Y-16092431D02*
X13510724Y-16082907D01*
X13510724Y-16082907D02*
X13529772Y-16073384D01*
X13682153Y-16254336D02*
X13691677Y-16263860D01*
X13691677Y-16263860D02*
X13682153Y-16273384D01*
X13682153Y-16273384D02*
X13672629Y-16263860D01*
X13672629Y-16263860D02*
X13682153Y-16254336D01*
X13682153Y-16254336D02*
X13682153Y-16273384D01*
X13805962Y-16159098D02*
X13786915Y-16149574D01*
X13786915Y-16149574D02*
X13777391Y-16140050D01*
X13777391Y-16140050D02*
X13767867Y-16121003D01*
X13767867Y-16121003D02*
X13767867Y-16111479D01*
X13767867Y-16111479D02*
X13777391Y-16092431D01*
X13777391Y-16092431D02*
X13786915Y-16082907D01*
X13786915Y-16082907D02*
X13805962Y-16073384D01*
X13805962Y-16073384D02*
X13844058Y-16073384D01*
X13844058Y-16073384D02*
X13863105Y-16082907D01*
X13863105Y-16082907D02*
X13872629Y-16092431D01*
X13872629Y-16092431D02*
X13882153Y-16111479D01*
X13882153Y-16111479D02*
X13882153Y-16121003D01*
X13882153Y-16121003D02*
X13872629Y-16140050D01*
X13872629Y-16140050D02*
X13863105Y-16149574D01*
X13863105Y-16149574D02*
X13844058Y-16159098D01*
X13844058Y-16159098D02*
X13805962Y-16159098D01*
X13805962Y-16159098D02*
X13786915Y-16168622D01*
X13786915Y-16168622D02*
X13777391Y-16178146D01*
X13777391Y-16178146D02*
X13767867Y-16197193D01*
X13767867Y-16197193D02*
X13767867Y-16235288D01*
X13767867Y-16235288D02*
X13777391Y-16254336D01*
X13777391Y-16254336D02*
X13786915Y-16263860D01*
X13786915Y-16263860D02*
X13805962Y-16273384D01*
X13805962Y-16273384D02*
X13844058Y-16273384D01*
X13844058Y-16273384D02*
X13863105Y-16263860D01*
X13863105Y-16263860D02*
X13872629Y-16254336D01*
X13872629Y-16254336D02*
X13882153Y-16235288D01*
X13882153Y-16235288D02*
X13882153Y-16197193D01*
X13882153Y-16197193D02*
X13872629Y-16178146D01*
X13872629Y-16178146D02*
X13863105Y-16168622D01*
X13863105Y-16168622D02*
X13844058Y-16159098D01*
X14005962Y-16073384D02*
X14025010Y-16073384D01*
X14025010Y-16073384D02*
X14044058Y-16082907D01*
X14044058Y-16082907D02*
X14053582Y-16092431D01*
X14053582Y-16092431D02*
X14063105Y-16111479D01*
X14063105Y-16111479D02*
X14072629Y-16149574D01*
X14072629Y-16149574D02*
X14072629Y-16197193D01*
X14072629Y-16197193D02*
X14063105Y-16235288D01*
X14063105Y-16235288D02*
X14053582Y-16254336D01*
X14053582Y-16254336D02*
X14044058Y-16263860D01*
X14044058Y-16263860D02*
X14025010Y-16273384D01*
X14025010Y-16273384D02*
X14005962Y-16273384D01*
X14005962Y-16273384D02*
X13986915Y-16263860D01*
X13986915Y-16263860D02*
X13977391Y-16254336D01*
X13977391Y-16254336D02*
X13967867Y-16235288D01*
X13967867Y-16235288D02*
X13958343Y-16197193D01*
X13958343Y-16197193D02*
X13958343Y-16149574D01*
X13958343Y-16149574D02*
X13967867Y-16111479D01*
X13967867Y-16111479D02*
X13977391Y-16092431D01*
X13977391Y-16092431D02*
X13986915Y-16082907D01*
X13986915Y-16082907D02*
X14005962Y-16073384D01*
X14196439Y-16073384D02*
X14215486Y-16073384D01*
X14215486Y-16073384D02*
X14234534Y-16082907D01*
X14234534Y-16082907D02*
X14244058Y-16092431D01*
X14244058Y-16092431D02*
X14253582Y-16111479D01*
X14253582Y-16111479D02*
X14263105Y-16149574D01*
X14263105Y-16149574D02*
X14263105Y-16197193D01*
X14263105Y-16197193D02*
X14253582Y-16235288D01*
X14253582Y-16235288D02*
X14244058Y-16254336D01*
X14244058Y-16254336D02*
X14234534Y-16263860D01*
X14234534Y-16263860D02*
X14215486Y-16273384D01*
X14215486Y-16273384D02*
X14196439Y-16273384D01*
X14196439Y-16273384D02*
X14177391Y-16263860D01*
X14177391Y-16263860D02*
X14167867Y-16254336D01*
X14167867Y-16254336D02*
X14158343Y-16235288D01*
X14158343Y-16235288D02*
X14148820Y-16197193D01*
X14148820Y-16197193D02*
X14148820Y-16149574D01*
X14148820Y-16149574D02*
X14158343Y-16111479D01*
X14158343Y-16111479D02*
X14167867Y-16092431D01*
X14167867Y-16092431D02*
X14177391Y-16082907D01*
X14177391Y-16082907D02*
X14196439Y-16073384D01*
X14348820Y-16273384D02*
X14348820Y-16140050D01*
X14348820Y-16159098D02*
X14358343Y-16149574D01*
X14358343Y-16149574D02*
X14377391Y-16140050D01*
X14377391Y-16140050D02*
X14405963Y-16140050D01*
X14405963Y-16140050D02*
X14425010Y-16149574D01*
X14425010Y-16149574D02*
X14434534Y-16168622D01*
X14434534Y-16168622D02*
X14434534Y-16273384D01*
X14434534Y-16168622D02*
X14444058Y-16149574D01*
X14444058Y-16149574D02*
X14463105Y-16140050D01*
X14463105Y-16140050D02*
X14491677Y-16140050D01*
X14491677Y-16140050D02*
X14510724Y-16149574D01*
X14510724Y-16149574D02*
X14520248Y-16168622D01*
X14520248Y-16168622D02*
X14520248Y-16273384D01*
X14615486Y-16273384D02*
X14615486Y-16140050D01*
X14615486Y-16159098D02*
X14625010Y-16149574D01*
X14625010Y-16149574D02*
X14644058Y-16140050D01*
X14644058Y-16140050D02*
X14672629Y-16140050D01*
X14672629Y-16140050D02*
X14691677Y-16149574D01*
X14691677Y-16149574D02*
X14701201Y-16168622D01*
X14701201Y-16168622D02*
X14701201Y-16273384D01*
X14701201Y-16168622D02*
X14710724Y-16149574D01*
X14710724Y-16149574D02*
X14729772Y-16140050D01*
X14729772Y-16140050D02*
X14758343Y-16140050D01*
X14758343Y-16140050D02*
X14777391Y-16149574D01*
X14777391Y-16149574D02*
X14786915Y-16168622D01*
X14786915Y-16168622D02*
X14786915Y-16273384D01*
X15177391Y-16063860D02*
X15005963Y-16321003D01*
X15434534Y-16073384D02*
X15453582Y-16073384D01*
X15453582Y-16073384D02*
X15472629Y-16082907D01*
X15472629Y-16082907D02*
X15482153Y-16092431D01*
X15482153Y-16092431D02*
X15491677Y-16111479D01*
X15491677Y-16111479D02*
X15501201Y-16149574D01*
X15501201Y-16149574D02*
X15501201Y-16197193D01*
X15501201Y-16197193D02*
X15491677Y-16235288D01*
X15491677Y-16235288D02*
X15482153Y-16254336D01*
X15482153Y-16254336D02*
X15472629Y-16263860D01*
X15472629Y-16263860D02*
X15453582Y-16273384D01*
X15453582Y-16273384D02*
X15434534Y-16273384D01*
X15434534Y-16273384D02*
X15415486Y-16263860D01*
X15415486Y-16263860D02*
X15405963Y-16254336D01*
X15405963Y-16254336D02*
X15396439Y-16235288D01*
X15396439Y-16235288D02*
X15386915Y-16197193D01*
X15386915Y-16197193D02*
X15386915Y-16149574D01*
X15386915Y-16149574D02*
X15396439Y-16111479D01*
X15396439Y-16111479D02*
X15405963Y-16092431D01*
X15405963Y-16092431D02*
X15415486Y-16082907D01*
X15415486Y-16082907D02*
X15434534Y-16073384D01*
X15586915Y-16254336D02*
X15596439Y-16263860D01*
X15596439Y-16263860D02*
X15586915Y-16273384D01*
X15586915Y-16273384D02*
X15577391Y-16263860D01*
X15577391Y-16263860D02*
X15586915Y-16254336D01*
X15586915Y-16254336D02*
X15586915Y-16273384D01*
X15720248Y-16073384D02*
X15739296Y-16073384D01*
X15739296Y-16073384D02*
X15758344Y-16082907D01*
X15758344Y-16082907D02*
X15767867Y-16092431D01*
X15767867Y-16092431D02*
X15777391Y-16111479D01*
X15777391Y-16111479D02*
X15786915Y-16149574D01*
X15786915Y-16149574D02*
X15786915Y-16197193D01*
X15786915Y-16197193D02*
X15777391Y-16235288D01*
X15777391Y-16235288D02*
X15767867Y-16254336D01*
X15767867Y-16254336D02*
X15758344Y-16263860D01*
X15758344Y-16263860D02*
X15739296Y-16273384D01*
X15739296Y-16273384D02*
X15720248Y-16273384D01*
X15720248Y-16273384D02*
X15701201Y-16263860D01*
X15701201Y-16263860D02*
X15691677Y-16254336D01*
X15691677Y-16254336D02*
X15682153Y-16235288D01*
X15682153Y-16235288D02*
X15672629Y-16197193D01*
X15672629Y-16197193D02*
X15672629Y-16149574D01*
X15672629Y-16149574D02*
X15682153Y-16111479D01*
X15682153Y-16111479D02*
X15691677Y-16092431D01*
X15691677Y-16092431D02*
X15701201Y-16082907D01*
X15701201Y-16082907D02*
X15720248Y-16073384D01*
X15853582Y-16073384D02*
X15977391Y-16073384D01*
X15977391Y-16073384D02*
X15910725Y-16149574D01*
X15910725Y-16149574D02*
X15939296Y-16149574D01*
X15939296Y-16149574D02*
X15958344Y-16159098D01*
X15958344Y-16159098D02*
X15967867Y-16168622D01*
X15967867Y-16168622D02*
X15977391Y-16187669D01*
X15977391Y-16187669D02*
X15977391Y-16235288D01*
X15977391Y-16235288D02*
X15967867Y-16254336D01*
X15967867Y-16254336D02*
X15958344Y-16263860D01*
X15958344Y-16263860D02*
X15939296Y-16273384D01*
X15939296Y-16273384D02*
X15882153Y-16273384D01*
X15882153Y-16273384D02*
X15863106Y-16263860D01*
X15863106Y-16263860D02*
X15853582Y-16254336D01*
X16167867Y-16273384D02*
X16053582Y-16273384D01*
X16110725Y-16273384D02*
X16110725Y-16073384D01*
X16110725Y-16073384D02*
X16091677Y-16101955D01*
X16091677Y-16101955D02*
X16072629Y-16121003D01*
X16072629Y-16121003D02*
X16053582Y-16130526D01*
X16348820Y-16073384D02*
X16253582Y-16073384D01*
X16253582Y-16073384D02*
X16244058Y-16168622D01*
X16244058Y-16168622D02*
X16253582Y-16159098D01*
X16253582Y-16159098D02*
X16272629Y-16149574D01*
X16272629Y-16149574D02*
X16320248Y-16149574D01*
X16320248Y-16149574D02*
X16339296Y-16159098D01*
X16339296Y-16159098D02*
X16348820Y-16168622D01*
X16348820Y-16168622D02*
X16358344Y-16187669D01*
X16358344Y-16187669D02*
X16358344Y-16235288D01*
X16358344Y-16235288D02*
X16348820Y-16254336D01*
X16348820Y-16254336D02*
X16339296Y-16263860D01*
X16339296Y-16263860D02*
X16320248Y-16273384D01*
X16320248Y-16273384D02*
X16272629Y-16273384D01*
X16272629Y-16273384D02*
X16253582Y-16263860D01*
X16253582Y-16263860D02*
X16244058Y-16254336D01*
X16434534Y-16073384D02*
X16434534Y-16111479D01*
X16510725Y-16073384D02*
X16510725Y-16111479D01*
X16805963Y-16349574D02*
X16796439Y-16340050D01*
X16796439Y-16340050D02*
X16777391Y-16311479D01*
X16777391Y-16311479D02*
X16767868Y-16292431D01*
X16767868Y-16292431D02*
X16758344Y-16263860D01*
X16758344Y-16263860D02*
X16748820Y-16216241D01*
X16748820Y-16216241D02*
X16748820Y-16178146D01*
X16748820Y-16178146D02*
X16758344Y-16130526D01*
X16758344Y-16130526D02*
X16767868Y-16101955D01*
X16767868Y-16101955D02*
X16777391Y-16082907D01*
X16777391Y-16082907D02*
X16796439Y-16054336D01*
X16796439Y-16054336D02*
X16805963Y-16044812D01*
X16872630Y-16092431D02*
X16882153Y-16082907D01*
X16882153Y-16082907D02*
X16901201Y-16073384D01*
X16901201Y-16073384D02*
X16948820Y-16073384D01*
X16948820Y-16073384D02*
X16967868Y-16082907D01*
X16967868Y-16082907D02*
X16977391Y-16092431D01*
X16977391Y-16092431D02*
X16986915Y-16111479D01*
X16986915Y-16111479D02*
X16986915Y-16130526D01*
X16986915Y-16130526D02*
X16977391Y-16159098D01*
X16977391Y-16159098D02*
X16863106Y-16273384D01*
X16863106Y-16273384D02*
X16986915Y-16273384D01*
X17225011Y-16273384D02*
X17225011Y-16073384D01*
X17310725Y-16273384D02*
X17310725Y-16168622D01*
X17310725Y-16168622D02*
X17301201Y-16149574D01*
X17301201Y-16149574D02*
X17282153Y-16140050D01*
X17282153Y-16140050D02*
X17253582Y-16140050D01*
X17253582Y-16140050D02*
X17234534Y-16149574D01*
X17234534Y-16149574D02*
X17225011Y-16159098D01*
X17434534Y-16273384D02*
X17415487Y-16263860D01*
X17415487Y-16263860D02*
X17405963Y-16254336D01*
X17405963Y-16254336D02*
X17396439Y-16235288D01*
X17396439Y-16235288D02*
X17396439Y-16178146D01*
X17396439Y-16178146D02*
X17405963Y-16159098D01*
X17405963Y-16159098D02*
X17415487Y-16149574D01*
X17415487Y-16149574D02*
X17434534Y-16140050D01*
X17434534Y-16140050D02*
X17463106Y-16140050D01*
X17463106Y-16140050D02*
X17482153Y-16149574D01*
X17482153Y-16149574D02*
X17491677Y-16159098D01*
X17491677Y-16159098D02*
X17501201Y-16178146D01*
X17501201Y-16178146D02*
X17501201Y-16235288D01*
X17501201Y-16235288D02*
X17491677Y-16254336D01*
X17491677Y-16254336D02*
X17482153Y-16263860D01*
X17482153Y-16263860D02*
X17463106Y-16273384D01*
X17463106Y-16273384D02*
X17434534Y-16273384D01*
X17615487Y-16273384D02*
X17596439Y-16263860D01*
X17596439Y-16263860D02*
X17586915Y-16244812D01*
X17586915Y-16244812D02*
X17586915Y-16073384D01*
X17767868Y-16263860D02*
X17748820Y-16273384D01*
X17748820Y-16273384D02*
X17710725Y-16273384D01*
X17710725Y-16273384D02*
X17691677Y-16263860D01*
X17691677Y-16263860D02*
X17682153Y-16244812D01*
X17682153Y-16244812D02*
X17682153Y-16168622D01*
X17682153Y-16168622D02*
X17691677Y-16149574D01*
X17691677Y-16149574D02*
X17710725Y-16140050D01*
X17710725Y-16140050D02*
X17748820Y-16140050D01*
X17748820Y-16140050D02*
X17767868Y-16149574D01*
X17767868Y-16149574D02*
X17777392Y-16168622D01*
X17777392Y-16168622D02*
X17777392Y-16187669D01*
X17777392Y-16187669D02*
X17682153Y-16206717D01*
X17853582Y-16263860D02*
X17872630Y-16273384D01*
X17872630Y-16273384D02*
X17910725Y-16273384D01*
X17910725Y-16273384D02*
X17929773Y-16263860D01*
X17929773Y-16263860D02*
X17939296Y-16244812D01*
X17939296Y-16244812D02*
X17939296Y-16235288D01*
X17939296Y-16235288D02*
X17929773Y-16216241D01*
X17929773Y-16216241D02*
X17910725Y-16206717D01*
X17910725Y-16206717D02*
X17882153Y-16206717D01*
X17882153Y-16206717D02*
X17863106Y-16197193D01*
X17863106Y-16197193D02*
X17853582Y-16178146D01*
X17853582Y-16178146D02*
X17853582Y-16168622D01*
X17853582Y-16168622D02*
X17863106Y-16149574D01*
X17863106Y-16149574D02*
X17882153Y-16140050D01*
X17882153Y-16140050D02*
X17910725Y-16140050D01*
X17910725Y-16140050D02*
X17929773Y-16149574D01*
X18005963Y-16349574D02*
X18015487Y-16340050D01*
X18015487Y-16340050D02*
X18034534Y-16311479D01*
X18034534Y-16311479D02*
X18044058Y-16292431D01*
X18044058Y-16292431D02*
X18053582Y-16263860D01*
X18053582Y-16263860D02*
X18063106Y-16216241D01*
X18063106Y-16216241D02*
X18063106Y-16178146D01*
X18063106Y-16178146D02*
X18053582Y-16130526D01*
X18053582Y-16130526D02*
X18044058Y-16101955D01*
X18044058Y-16101955D02*
X18034534Y-16082907D01*
X18034534Y-16082907D02*
X18015487Y-16054336D01*
X18015487Y-16054336D02*
X18005963Y-16044812D01*
D12*
X13218452Y-16475952D02*
X13218452Y-16415848D01*
X13158348Y-16415848D01*
X13158348Y-16475952D01*
X13218452Y-16475952D01*
D11*
X13529772Y-16337384D02*
X13548820Y-16337384D01*
X13548820Y-16337384D02*
X13567867Y-16346907D01*
X13567867Y-16346907D02*
X13577391Y-16356431D01*
X13577391Y-16356431D02*
X13586915Y-16375479D01*
X13586915Y-16375479D02*
X13596439Y-16413574D01*
X13596439Y-16413574D02*
X13596439Y-16461193D01*
X13596439Y-16461193D02*
X13586915Y-16499288D01*
X13586915Y-16499288D02*
X13577391Y-16518336D01*
X13577391Y-16518336D02*
X13567867Y-16527860D01*
X13567867Y-16527860D02*
X13548820Y-16537384D01*
X13548820Y-16537384D02*
X13529772Y-16537384D01*
X13529772Y-16537384D02*
X13510724Y-16527860D01*
X13510724Y-16527860D02*
X13501201Y-16518336D01*
X13501201Y-16518336D02*
X13491677Y-16499288D01*
X13491677Y-16499288D02*
X13482153Y-16461193D01*
X13482153Y-16461193D02*
X13482153Y-16413574D01*
X13482153Y-16413574D02*
X13491677Y-16375479D01*
X13491677Y-16375479D02*
X13501201Y-16356431D01*
X13501201Y-16356431D02*
X13510724Y-16346907D01*
X13510724Y-16346907D02*
X13529772Y-16337384D01*
X13682153Y-16518336D02*
X13691677Y-16527860D01*
X13691677Y-16527860D02*
X13682153Y-16537384D01*
X13682153Y-16537384D02*
X13672629Y-16527860D01*
X13672629Y-16527860D02*
X13682153Y-16518336D01*
X13682153Y-16518336D02*
X13682153Y-16537384D01*
X13805962Y-16423098D02*
X13786915Y-16413574D01*
X13786915Y-16413574D02*
X13777391Y-16404050D01*
X13777391Y-16404050D02*
X13767867Y-16385003D01*
X13767867Y-16385003D02*
X13767867Y-16375479D01*
X13767867Y-16375479D02*
X13777391Y-16356431D01*
X13777391Y-16356431D02*
X13786915Y-16346907D01*
X13786915Y-16346907D02*
X13805962Y-16337384D01*
X13805962Y-16337384D02*
X13844058Y-16337384D01*
X13844058Y-16337384D02*
X13863105Y-16346907D01*
X13863105Y-16346907D02*
X13872629Y-16356431D01*
X13872629Y-16356431D02*
X13882153Y-16375479D01*
X13882153Y-16375479D02*
X13882153Y-16385003D01*
X13882153Y-16385003D02*
X13872629Y-16404050D01*
X13872629Y-16404050D02*
X13863105Y-16413574D01*
X13863105Y-16413574D02*
X13844058Y-16423098D01*
X13844058Y-16423098D02*
X13805962Y-16423098D01*
X13805962Y-16423098D02*
X13786915Y-16432622D01*
X13786915Y-16432622D02*
X13777391Y-16442146D01*
X13777391Y-16442146D02*
X13767867Y-16461193D01*
X13767867Y-16461193D02*
X13767867Y-16499288D01*
X13767867Y-16499288D02*
X13777391Y-16518336D01*
X13777391Y-16518336D02*
X13786915Y-16527860D01*
X13786915Y-16527860D02*
X13805962Y-16537384D01*
X13805962Y-16537384D02*
X13844058Y-16537384D01*
X13844058Y-16537384D02*
X13863105Y-16527860D01*
X13863105Y-16527860D02*
X13872629Y-16518336D01*
X13872629Y-16518336D02*
X13882153Y-16499288D01*
X13882153Y-16499288D02*
X13882153Y-16461193D01*
X13882153Y-16461193D02*
X13872629Y-16442146D01*
X13872629Y-16442146D02*
X13863105Y-16432622D01*
X13863105Y-16432622D02*
X13844058Y-16423098D01*
X14063105Y-16337384D02*
X13967867Y-16337384D01*
X13967867Y-16337384D02*
X13958343Y-16432622D01*
X13958343Y-16432622D02*
X13967867Y-16423098D01*
X13967867Y-16423098D02*
X13986915Y-16413574D01*
X13986915Y-16413574D02*
X14034534Y-16413574D01*
X14034534Y-16413574D02*
X14053582Y-16423098D01*
X14053582Y-16423098D02*
X14063105Y-16432622D01*
X14063105Y-16432622D02*
X14072629Y-16451669D01*
X14072629Y-16451669D02*
X14072629Y-16499288D01*
X14072629Y-16499288D02*
X14063105Y-16518336D01*
X14063105Y-16518336D02*
X14053582Y-16527860D01*
X14053582Y-16527860D02*
X14034534Y-16537384D01*
X14034534Y-16537384D02*
X13986915Y-16537384D01*
X13986915Y-16537384D02*
X13967867Y-16527860D01*
X13967867Y-16527860D02*
X13958343Y-16518336D01*
X14196439Y-16337384D02*
X14215486Y-16337384D01*
X14215486Y-16337384D02*
X14234534Y-16346907D01*
X14234534Y-16346907D02*
X14244058Y-16356431D01*
X14244058Y-16356431D02*
X14253582Y-16375479D01*
X14253582Y-16375479D02*
X14263105Y-16413574D01*
X14263105Y-16413574D02*
X14263105Y-16461193D01*
X14263105Y-16461193D02*
X14253582Y-16499288D01*
X14253582Y-16499288D02*
X14244058Y-16518336D01*
X14244058Y-16518336D02*
X14234534Y-16527860D01*
X14234534Y-16527860D02*
X14215486Y-16537384D01*
X14215486Y-16537384D02*
X14196439Y-16537384D01*
X14196439Y-16537384D02*
X14177391Y-16527860D01*
X14177391Y-16527860D02*
X14167867Y-16518336D01*
X14167867Y-16518336D02*
X14158343Y-16499288D01*
X14158343Y-16499288D02*
X14148820Y-16461193D01*
X14148820Y-16461193D02*
X14148820Y-16413574D01*
X14148820Y-16413574D02*
X14158343Y-16375479D01*
X14158343Y-16375479D02*
X14167867Y-16356431D01*
X14167867Y-16356431D02*
X14177391Y-16346907D01*
X14177391Y-16346907D02*
X14196439Y-16337384D01*
X14348820Y-16537384D02*
X14348820Y-16404050D01*
X14348820Y-16423098D02*
X14358343Y-16413574D01*
X14358343Y-16413574D02*
X14377391Y-16404050D01*
X14377391Y-16404050D02*
X14405963Y-16404050D01*
X14405963Y-16404050D02*
X14425010Y-16413574D01*
X14425010Y-16413574D02*
X14434534Y-16432622D01*
X14434534Y-16432622D02*
X14434534Y-16537384D01*
X14434534Y-16432622D02*
X14444058Y-16413574D01*
X14444058Y-16413574D02*
X14463105Y-16404050D01*
X14463105Y-16404050D02*
X14491677Y-16404050D01*
X14491677Y-16404050D02*
X14510724Y-16413574D01*
X14510724Y-16413574D02*
X14520248Y-16432622D01*
X14520248Y-16432622D02*
X14520248Y-16537384D01*
X14615486Y-16537384D02*
X14615486Y-16404050D01*
X14615486Y-16423098D02*
X14625010Y-16413574D01*
X14625010Y-16413574D02*
X14644058Y-16404050D01*
X14644058Y-16404050D02*
X14672629Y-16404050D01*
X14672629Y-16404050D02*
X14691677Y-16413574D01*
X14691677Y-16413574D02*
X14701201Y-16432622D01*
X14701201Y-16432622D02*
X14701201Y-16537384D01*
X14701201Y-16432622D02*
X14710724Y-16413574D01*
X14710724Y-16413574D02*
X14729772Y-16404050D01*
X14729772Y-16404050D02*
X14758343Y-16404050D01*
X14758343Y-16404050D02*
X14777391Y-16413574D01*
X14777391Y-16413574D02*
X14786915Y-16432622D01*
X14786915Y-16432622D02*
X14786915Y-16537384D01*
X15177391Y-16327860D02*
X15005963Y-16585003D01*
X15434534Y-16337384D02*
X15453582Y-16337384D01*
X15453582Y-16337384D02*
X15472629Y-16346907D01*
X15472629Y-16346907D02*
X15482153Y-16356431D01*
X15482153Y-16356431D02*
X15491677Y-16375479D01*
X15491677Y-16375479D02*
X15501201Y-16413574D01*
X15501201Y-16413574D02*
X15501201Y-16461193D01*
X15501201Y-16461193D02*
X15491677Y-16499288D01*
X15491677Y-16499288D02*
X15482153Y-16518336D01*
X15482153Y-16518336D02*
X15472629Y-16527860D01*
X15472629Y-16527860D02*
X15453582Y-16537384D01*
X15453582Y-16537384D02*
X15434534Y-16537384D01*
X15434534Y-16537384D02*
X15415486Y-16527860D01*
X15415486Y-16527860D02*
X15405963Y-16518336D01*
X15405963Y-16518336D02*
X15396439Y-16499288D01*
X15396439Y-16499288D02*
X15386915Y-16461193D01*
X15386915Y-16461193D02*
X15386915Y-16413574D01*
X15386915Y-16413574D02*
X15396439Y-16375479D01*
X15396439Y-16375479D02*
X15405963Y-16356431D01*
X15405963Y-16356431D02*
X15415486Y-16346907D01*
X15415486Y-16346907D02*
X15434534Y-16337384D01*
X15586915Y-16518336D02*
X15596439Y-16527860D01*
X15596439Y-16527860D02*
X15586915Y-16537384D01*
X15586915Y-16537384D02*
X15577391Y-16527860D01*
X15577391Y-16527860D02*
X15586915Y-16518336D01*
X15586915Y-16518336D02*
X15586915Y-16537384D01*
X15720248Y-16337384D02*
X15739296Y-16337384D01*
X15739296Y-16337384D02*
X15758344Y-16346907D01*
X15758344Y-16346907D02*
X15767867Y-16356431D01*
X15767867Y-16356431D02*
X15777391Y-16375479D01*
X15777391Y-16375479D02*
X15786915Y-16413574D01*
X15786915Y-16413574D02*
X15786915Y-16461193D01*
X15786915Y-16461193D02*
X15777391Y-16499288D01*
X15777391Y-16499288D02*
X15767867Y-16518336D01*
X15767867Y-16518336D02*
X15758344Y-16527860D01*
X15758344Y-16527860D02*
X15739296Y-16537384D01*
X15739296Y-16537384D02*
X15720248Y-16537384D01*
X15720248Y-16537384D02*
X15701201Y-16527860D01*
X15701201Y-16527860D02*
X15691677Y-16518336D01*
X15691677Y-16518336D02*
X15682153Y-16499288D01*
X15682153Y-16499288D02*
X15672629Y-16461193D01*
X15672629Y-16461193D02*
X15672629Y-16413574D01*
X15672629Y-16413574D02*
X15682153Y-16375479D01*
X15682153Y-16375479D02*
X15691677Y-16356431D01*
X15691677Y-16356431D02*
X15701201Y-16346907D01*
X15701201Y-16346907D02*
X15720248Y-16337384D01*
X15853582Y-16337384D02*
X15977391Y-16337384D01*
X15977391Y-16337384D02*
X15910725Y-16413574D01*
X15910725Y-16413574D02*
X15939296Y-16413574D01*
X15939296Y-16413574D02*
X15958344Y-16423098D01*
X15958344Y-16423098D02*
X15967867Y-16432622D01*
X15967867Y-16432622D02*
X15977391Y-16451669D01*
X15977391Y-16451669D02*
X15977391Y-16499288D01*
X15977391Y-16499288D02*
X15967867Y-16518336D01*
X15967867Y-16518336D02*
X15958344Y-16527860D01*
X15958344Y-16527860D02*
X15939296Y-16537384D01*
X15939296Y-16537384D02*
X15882153Y-16537384D01*
X15882153Y-16537384D02*
X15863106Y-16527860D01*
X15863106Y-16527860D02*
X15853582Y-16518336D01*
X16044058Y-16337384D02*
X16167867Y-16337384D01*
X16167867Y-16337384D02*
X16101201Y-16413574D01*
X16101201Y-16413574D02*
X16129772Y-16413574D01*
X16129772Y-16413574D02*
X16148820Y-16423098D01*
X16148820Y-16423098D02*
X16158344Y-16432622D01*
X16158344Y-16432622D02*
X16167867Y-16451669D01*
X16167867Y-16451669D02*
X16167867Y-16499288D01*
X16167867Y-16499288D02*
X16158344Y-16518336D01*
X16158344Y-16518336D02*
X16148820Y-16527860D01*
X16148820Y-16527860D02*
X16129772Y-16537384D01*
X16129772Y-16537384D02*
X16072629Y-16537384D01*
X16072629Y-16537384D02*
X16053582Y-16527860D01*
X16053582Y-16527860D02*
X16044058Y-16518336D01*
X16348820Y-16337384D02*
X16253582Y-16337384D01*
X16253582Y-16337384D02*
X16244058Y-16432622D01*
X16244058Y-16432622D02*
X16253582Y-16423098D01*
X16253582Y-16423098D02*
X16272629Y-16413574D01*
X16272629Y-16413574D02*
X16320248Y-16413574D01*
X16320248Y-16413574D02*
X16339296Y-16423098D01*
X16339296Y-16423098D02*
X16348820Y-16432622D01*
X16348820Y-16432622D02*
X16358344Y-16451669D01*
X16358344Y-16451669D02*
X16358344Y-16499288D01*
X16358344Y-16499288D02*
X16348820Y-16518336D01*
X16348820Y-16518336D02*
X16339296Y-16527860D01*
X16339296Y-16527860D02*
X16320248Y-16537384D01*
X16320248Y-16537384D02*
X16272629Y-16537384D01*
X16272629Y-16537384D02*
X16253582Y-16527860D01*
X16253582Y-16527860D02*
X16244058Y-16518336D01*
X16434534Y-16337384D02*
X16434534Y-16375479D01*
X16510725Y-16337384D02*
X16510725Y-16375479D01*
X16805963Y-16613574D02*
X16796439Y-16604050D01*
X16796439Y-16604050D02*
X16777391Y-16575479D01*
X16777391Y-16575479D02*
X16767868Y-16556431D01*
X16767868Y-16556431D02*
X16758344Y-16527860D01*
X16758344Y-16527860D02*
X16748820Y-16480241D01*
X16748820Y-16480241D02*
X16748820Y-16442146D01*
X16748820Y-16442146D02*
X16758344Y-16394526D01*
X16758344Y-16394526D02*
X16767868Y-16365955D01*
X16767868Y-16365955D02*
X16777391Y-16346907D01*
X16777391Y-16346907D02*
X16796439Y-16318336D01*
X16796439Y-16318336D02*
X16805963Y-16308812D01*
X16872630Y-16356431D02*
X16882153Y-16346907D01*
X16882153Y-16346907D02*
X16901201Y-16337384D01*
X16901201Y-16337384D02*
X16948820Y-16337384D01*
X16948820Y-16337384D02*
X16967868Y-16346907D01*
X16967868Y-16346907D02*
X16977391Y-16356431D01*
X16977391Y-16356431D02*
X16986915Y-16375479D01*
X16986915Y-16375479D02*
X16986915Y-16394526D01*
X16986915Y-16394526D02*
X16977391Y-16423098D01*
X16977391Y-16423098D02*
X16863106Y-16537384D01*
X16863106Y-16537384D02*
X16986915Y-16537384D01*
X17225011Y-16537384D02*
X17225011Y-16337384D01*
X17310725Y-16537384D02*
X17310725Y-16432622D01*
X17310725Y-16432622D02*
X17301201Y-16413574D01*
X17301201Y-16413574D02*
X17282153Y-16404050D01*
X17282153Y-16404050D02*
X17253582Y-16404050D01*
X17253582Y-16404050D02*
X17234534Y-16413574D01*
X17234534Y-16413574D02*
X17225011Y-16423098D01*
X17434534Y-16537384D02*
X17415487Y-16527860D01*
X17415487Y-16527860D02*
X17405963Y-16518336D01*
X17405963Y-16518336D02*
X17396439Y-16499288D01*
X17396439Y-16499288D02*
X17396439Y-16442146D01*
X17396439Y-16442146D02*
X17405963Y-16423098D01*
X17405963Y-16423098D02*
X17415487Y-16413574D01*
X17415487Y-16413574D02*
X17434534Y-16404050D01*
X17434534Y-16404050D02*
X17463106Y-16404050D01*
X17463106Y-16404050D02*
X17482153Y-16413574D01*
X17482153Y-16413574D02*
X17491677Y-16423098D01*
X17491677Y-16423098D02*
X17501201Y-16442146D01*
X17501201Y-16442146D02*
X17501201Y-16499288D01*
X17501201Y-16499288D02*
X17491677Y-16518336D01*
X17491677Y-16518336D02*
X17482153Y-16527860D01*
X17482153Y-16527860D02*
X17463106Y-16537384D01*
X17463106Y-16537384D02*
X17434534Y-16537384D01*
X17615487Y-16537384D02*
X17596439Y-16527860D01*
X17596439Y-16527860D02*
X17586915Y-16508812D01*
X17586915Y-16508812D02*
X17586915Y-16337384D01*
X17767868Y-16527860D02*
X17748820Y-16537384D01*
X17748820Y-16537384D02*
X17710725Y-16537384D01*
X17710725Y-16537384D02*
X17691677Y-16527860D01*
X17691677Y-16527860D02*
X17682153Y-16508812D01*
X17682153Y-16508812D02*
X17682153Y-16432622D01*
X17682153Y-16432622D02*
X17691677Y-16413574D01*
X17691677Y-16413574D02*
X17710725Y-16404050D01*
X17710725Y-16404050D02*
X17748820Y-16404050D01*
X17748820Y-16404050D02*
X17767868Y-16413574D01*
X17767868Y-16413574D02*
X17777392Y-16432622D01*
X17777392Y-16432622D02*
X17777392Y-16451669D01*
X17777392Y-16451669D02*
X17682153Y-16470717D01*
X17853582Y-16527860D02*
X17872630Y-16537384D01*
X17872630Y-16537384D02*
X17910725Y-16537384D01*
X17910725Y-16537384D02*
X17929773Y-16527860D01*
X17929773Y-16527860D02*
X17939296Y-16508812D01*
X17939296Y-16508812D02*
X17939296Y-16499288D01*
X17939296Y-16499288D02*
X17929773Y-16480241D01*
X17929773Y-16480241D02*
X17910725Y-16470717D01*
X17910725Y-16470717D02*
X17882153Y-16470717D01*
X17882153Y-16470717D02*
X17863106Y-16461193D01*
X17863106Y-16461193D02*
X17853582Y-16442146D01*
X17853582Y-16442146D02*
X17853582Y-16432622D01*
X17853582Y-16432622D02*
X17863106Y-16413574D01*
X17863106Y-16413574D02*
X17882153Y-16404050D01*
X17882153Y-16404050D02*
X17910725Y-16404050D01*
X17910725Y-16404050D02*
X17929773Y-16413574D01*
X18005963Y-16613574D02*
X18015487Y-16604050D01*
X18015487Y-16604050D02*
X18034534Y-16575479D01*
X18034534Y-16575479D02*
X18044058Y-16556431D01*
X18044058Y-16556431D02*
X18053582Y-16527860D01*
X18053582Y-16527860D02*
X18063106Y-16480241D01*
X18063106Y-16480241D02*
X18063106Y-16442146D01*
X18063106Y-16442146D02*
X18053582Y-16394526D01*
X18053582Y-16394526D02*
X18044058Y-16365955D01*
X18044058Y-16365955D02*
X18034534Y-16346907D01*
X18034534Y-16346907D02*
X18015487Y-16318336D01*
X18015487Y-16318336D02*
X18005963Y-16308812D01*
D12*
X13180900Y-16759900D02*
X13230900Y-16709900D01*
X13180900Y-16659900D01*
X13130900Y-16709900D01*
X13180900Y-16759900D01*
D11*
X13596439Y-16801384D02*
X13482153Y-16801384D01*
X13539296Y-16801384D02*
X13539296Y-16601384D01*
X13539296Y-16601384D02*
X13520248Y-16629955D01*
X13520248Y-16629955D02*
X13501201Y-16649003D01*
X13501201Y-16649003D02*
X13482153Y-16658526D01*
X13682153Y-16782336D02*
X13691677Y-16791860D01*
X13691677Y-16791860D02*
X13682153Y-16801384D01*
X13682153Y-16801384D02*
X13672629Y-16791860D01*
X13672629Y-16791860D02*
X13682153Y-16782336D01*
X13682153Y-16782336D02*
X13682153Y-16801384D01*
X13815486Y-16601384D02*
X13834534Y-16601384D01*
X13834534Y-16601384D02*
X13853582Y-16610907D01*
X13853582Y-16610907D02*
X13863105Y-16620431D01*
X13863105Y-16620431D02*
X13872629Y-16639479D01*
X13872629Y-16639479D02*
X13882153Y-16677574D01*
X13882153Y-16677574D02*
X13882153Y-16725193D01*
X13882153Y-16725193D02*
X13872629Y-16763288D01*
X13872629Y-16763288D02*
X13863105Y-16782336D01*
X13863105Y-16782336D02*
X13853582Y-16791860D01*
X13853582Y-16791860D02*
X13834534Y-16801384D01*
X13834534Y-16801384D02*
X13815486Y-16801384D01*
X13815486Y-16801384D02*
X13796439Y-16791860D01*
X13796439Y-16791860D02*
X13786915Y-16782336D01*
X13786915Y-16782336D02*
X13777391Y-16763288D01*
X13777391Y-16763288D02*
X13767867Y-16725193D01*
X13767867Y-16725193D02*
X13767867Y-16677574D01*
X13767867Y-16677574D02*
X13777391Y-16639479D01*
X13777391Y-16639479D02*
X13786915Y-16620431D01*
X13786915Y-16620431D02*
X13796439Y-16610907D01*
X13796439Y-16610907D02*
X13815486Y-16601384D01*
X14005962Y-16601384D02*
X14025010Y-16601384D01*
X14025010Y-16601384D02*
X14044058Y-16610907D01*
X14044058Y-16610907D02*
X14053582Y-16620431D01*
X14053582Y-16620431D02*
X14063105Y-16639479D01*
X14063105Y-16639479D02*
X14072629Y-16677574D01*
X14072629Y-16677574D02*
X14072629Y-16725193D01*
X14072629Y-16725193D02*
X14063105Y-16763288D01*
X14063105Y-16763288D02*
X14053582Y-16782336D01*
X14053582Y-16782336D02*
X14044058Y-16791860D01*
X14044058Y-16791860D02*
X14025010Y-16801384D01*
X14025010Y-16801384D02*
X14005962Y-16801384D01*
X14005962Y-16801384D02*
X13986915Y-16791860D01*
X13986915Y-16791860D02*
X13977391Y-16782336D01*
X13977391Y-16782336D02*
X13967867Y-16763288D01*
X13967867Y-16763288D02*
X13958343Y-16725193D01*
X13958343Y-16725193D02*
X13958343Y-16677574D01*
X13958343Y-16677574D02*
X13967867Y-16639479D01*
X13967867Y-16639479D02*
X13977391Y-16620431D01*
X13977391Y-16620431D02*
X13986915Y-16610907D01*
X13986915Y-16610907D02*
X14005962Y-16601384D01*
X14196439Y-16601384D02*
X14215486Y-16601384D01*
X14215486Y-16601384D02*
X14234534Y-16610907D01*
X14234534Y-16610907D02*
X14244058Y-16620431D01*
X14244058Y-16620431D02*
X14253582Y-16639479D01*
X14253582Y-16639479D02*
X14263105Y-16677574D01*
X14263105Y-16677574D02*
X14263105Y-16725193D01*
X14263105Y-16725193D02*
X14253582Y-16763288D01*
X14253582Y-16763288D02*
X14244058Y-16782336D01*
X14244058Y-16782336D02*
X14234534Y-16791860D01*
X14234534Y-16791860D02*
X14215486Y-16801384D01*
X14215486Y-16801384D02*
X14196439Y-16801384D01*
X14196439Y-16801384D02*
X14177391Y-16791860D01*
X14177391Y-16791860D02*
X14167867Y-16782336D01*
X14167867Y-16782336D02*
X14158343Y-16763288D01*
X14158343Y-16763288D02*
X14148820Y-16725193D01*
X14148820Y-16725193D02*
X14148820Y-16677574D01*
X14148820Y-16677574D02*
X14158343Y-16639479D01*
X14158343Y-16639479D02*
X14167867Y-16620431D01*
X14167867Y-16620431D02*
X14177391Y-16610907D01*
X14177391Y-16610907D02*
X14196439Y-16601384D01*
X14348820Y-16801384D02*
X14348820Y-16668050D01*
X14348820Y-16687098D02*
X14358343Y-16677574D01*
X14358343Y-16677574D02*
X14377391Y-16668050D01*
X14377391Y-16668050D02*
X14405963Y-16668050D01*
X14405963Y-16668050D02*
X14425010Y-16677574D01*
X14425010Y-16677574D02*
X14434534Y-16696622D01*
X14434534Y-16696622D02*
X14434534Y-16801384D01*
X14434534Y-16696622D02*
X14444058Y-16677574D01*
X14444058Y-16677574D02*
X14463105Y-16668050D01*
X14463105Y-16668050D02*
X14491677Y-16668050D01*
X14491677Y-16668050D02*
X14510724Y-16677574D01*
X14510724Y-16677574D02*
X14520248Y-16696622D01*
X14520248Y-16696622D02*
X14520248Y-16801384D01*
X14615486Y-16801384D02*
X14615486Y-16668050D01*
X14615486Y-16687098D02*
X14625010Y-16677574D01*
X14625010Y-16677574D02*
X14644058Y-16668050D01*
X14644058Y-16668050D02*
X14672629Y-16668050D01*
X14672629Y-16668050D02*
X14691677Y-16677574D01*
X14691677Y-16677574D02*
X14701201Y-16696622D01*
X14701201Y-16696622D02*
X14701201Y-16801384D01*
X14701201Y-16696622D02*
X14710724Y-16677574D01*
X14710724Y-16677574D02*
X14729772Y-16668050D01*
X14729772Y-16668050D02*
X14758343Y-16668050D01*
X14758343Y-16668050D02*
X14777391Y-16677574D01*
X14777391Y-16677574D02*
X14786915Y-16696622D01*
X14786915Y-16696622D02*
X14786915Y-16801384D01*
X15177391Y-16591860D02*
X15005963Y-16849003D01*
X15434534Y-16601384D02*
X15453582Y-16601384D01*
X15453582Y-16601384D02*
X15472629Y-16610907D01*
X15472629Y-16610907D02*
X15482153Y-16620431D01*
X15482153Y-16620431D02*
X15491677Y-16639479D01*
X15491677Y-16639479D02*
X15501201Y-16677574D01*
X15501201Y-16677574D02*
X15501201Y-16725193D01*
X15501201Y-16725193D02*
X15491677Y-16763288D01*
X15491677Y-16763288D02*
X15482153Y-16782336D01*
X15482153Y-16782336D02*
X15472629Y-16791860D01*
X15472629Y-16791860D02*
X15453582Y-16801384D01*
X15453582Y-16801384D02*
X15434534Y-16801384D01*
X15434534Y-16801384D02*
X15415486Y-16791860D01*
X15415486Y-16791860D02*
X15405963Y-16782336D01*
X15405963Y-16782336D02*
X15396439Y-16763288D01*
X15396439Y-16763288D02*
X15386915Y-16725193D01*
X15386915Y-16725193D02*
X15386915Y-16677574D01*
X15386915Y-16677574D02*
X15396439Y-16639479D01*
X15396439Y-16639479D02*
X15405963Y-16620431D01*
X15405963Y-16620431D02*
X15415486Y-16610907D01*
X15415486Y-16610907D02*
X15434534Y-16601384D01*
X15586915Y-16782336D02*
X15596439Y-16791860D01*
X15596439Y-16791860D02*
X15586915Y-16801384D01*
X15586915Y-16801384D02*
X15577391Y-16791860D01*
X15577391Y-16791860D02*
X15586915Y-16782336D01*
X15586915Y-16782336D02*
X15586915Y-16801384D01*
X15720248Y-16601384D02*
X15739296Y-16601384D01*
X15739296Y-16601384D02*
X15758344Y-16610907D01*
X15758344Y-16610907D02*
X15767867Y-16620431D01*
X15767867Y-16620431D02*
X15777391Y-16639479D01*
X15777391Y-16639479D02*
X15786915Y-16677574D01*
X15786915Y-16677574D02*
X15786915Y-16725193D01*
X15786915Y-16725193D02*
X15777391Y-16763288D01*
X15777391Y-16763288D02*
X15767867Y-16782336D01*
X15767867Y-16782336D02*
X15758344Y-16791860D01*
X15758344Y-16791860D02*
X15739296Y-16801384D01*
X15739296Y-16801384D02*
X15720248Y-16801384D01*
X15720248Y-16801384D02*
X15701201Y-16791860D01*
X15701201Y-16791860D02*
X15691677Y-16782336D01*
X15691677Y-16782336D02*
X15682153Y-16763288D01*
X15682153Y-16763288D02*
X15672629Y-16725193D01*
X15672629Y-16725193D02*
X15672629Y-16677574D01*
X15672629Y-16677574D02*
X15682153Y-16639479D01*
X15682153Y-16639479D02*
X15691677Y-16620431D01*
X15691677Y-16620431D02*
X15701201Y-16610907D01*
X15701201Y-16610907D02*
X15720248Y-16601384D01*
X15853582Y-16601384D02*
X15977391Y-16601384D01*
X15977391Y-16601384D02*
X15910725Y-16677574D01*
X15910725Y-16677574D02*
X15939296Y-16677574D01*
X15939296Y-16677574D02*
X15958344Y-16687098D01*
X15958344Y-16687098D02*
X15967867Y-16696622D01*
X15967867Y-16696622D02*
X15977391Y-16715669D01*
X15977391Y-16715669D02*
X15977391Y-16763288D01*
X15977391Y-16763288D02*
X15967867Y-16782336D01*
X15967867Y-16782336D02*
X15958344Y-16791860D01*
X15958344Y-16791860D02*
X15939296Y-16801384D01*
X15939296Y-16801384D02*
X15882153Y-16801384D01*
X15882153Y-16801384D02*
X15863106Y-16791860D01*
X15863106Y-16791860D02*
X15853582Y-16782336D01*
X16072629Y-16801384D02*
X16110725Y-16801384D01*
X16110725Y-16801384D02*
X16129772Y-16791860D01*
X16129772Y-16791860D02*
X16139296Y-16782336D01*
X16139296Y-16782336D02*
X16158344Y-16753765D01*
X16158344Y-16753765D02*
X16167867Y-16715669D01*
X16167867Y-16715669D02*
X16167867Y-16639479D01*
X16167867Y-16639479D02*
X16158344Y-16620431D01*
X16158344Y-16620431D02*
X16148820Y-16610907D01*
X16148820Y-16610907D02*
X16129772Y-16601384D01*
X16129772Y-16601384D02*
X16091677Y-16601384D01*
X16091677Y-16601384D02*
X16072629Y-16610907D01*
X16072629Y-16610907D02*
X16063106Y-16620431D01*
X16063106Y-16620431D02*
X16053582Y-16639479D01*
X16053582Y-16639479D02*
X16053582Y-16687098D01*
X16053582Y-16687098D02*
X16063106Y-16706146D01*
X16063106Y-16706146D02*
X16072629Y-16715669D01*
X16072629Y-16715669D02*
X16091677Y-16725193D01*
X16091677Y-16725193D02*
X16129772Y-16725193D01*
X16129772Y-16725193D02*
X16148820Y-16715669D01*
X16148820Y-16715669D02*
X16158344Y-16706146D01*
X16158344Y-16706146D02*
X16167867Y-16687098D01*
X16339296Y-16668050D02*
X16339296Y-16801384D01*
X16291677Y-16591860D02*
X16244058Y-16734717D01*
X16244058Y-16734717D02*
X16367867Y-16734717D01*
X16434534Y-16601384D02*
X16434534Y-16639479D01*
X16510725Y-16601384D02*
X16510725Y-16639479D01*
X16805963Y-16877574D02*
X16796439Y-16868050D01*
X16796439Y-16868050D02*
X16777391Y-16839479D01*
X16777391Y-16839479D02*
X16767868Y-16820431D01*
X16767868Y-16820431D02*
X16758344Y-16791860D01*
X16758344Y-16791860D02*
X16748820Y-16744241D01*
X16748820Y-16744241D02*
X16748820Y-16706146D01*
X16748820Y-16706146D02*
X16758344Y-16658526D01*
X16758344Y-16658526D02*
X16767868Y-16629955D01*
X16767868Y-16629955D02*
X16777391Y-16610907D01*
X16777391Y-16610907D02*
X16796439Y-16582336D01*
X16796439Y-16582336D02*
X16805963Y-16572812D01*
X16863106Y-16601384D02*
X16986915Y-16601384D01*
X16986915Y-16601384D02*
X16920249Y-16677574D01*
X16920249Y-16677574D02*
X16948820Y-16677574D01*
X16948820Y-16677574D02*
X16967868Y-16687098D01*
X16967868Y-16687098D02*
X16977391Y-16696622D01*
X16977391Y-16696622D02*
X16986915Y-16715669D01*
X16986915Y-16715669D02*
X16986915Y-16763288D01*
X16986915Y-16763288D02*
X16977391Y-16782336D01*
X16977391Y-16782336D02*
X16967868Y-16791860D01*
X16967868Y-16791860D02*
X16948820Y-16801384D01*
X16948820Y-16801384D02*
X16891677Y-16801384D01*
X16891677Y-16801384D02*
X16872630Y-16791860D01*
X16872630Y-16791860D02*
X16863106Y-16782336D01*
X17101201Y-16687098D02*
X17082153Y-16677574D01*
X17082153Y-16677574D02*
X17072630Y-16668050D01*
X17072630Y-16668050D02*
X17063106Y-16649003D01*
X17063106Y-16649003D02*
X17063106Y-16639479D01*
X17063106Y-16639479D02*
X17072630Y-16620431D01*
X17072630Y-16620431D02*
X17082153Y-16610907D01*
X17082153Y-16610907D02*
X17101201Y-16601384D01*
X17101201Y-16601384D02*
X17139296Y-16601384D01*
X17139296Y-16601384D02*
X17158344Y-16610907D01*
X17158344Y-16610907D02*
X17167868Y-16620431D01*
X17167868Y-16620431D02*
X17177391Y-16639479D01*
X17177391Y-16639479D02*
X17177391Y-16649003D01*
X17177391Y-16649003D02*
X17167868Y-16668050D01*
X17167868Y-16668050D02*
X17158344Y-16677574D01*
X17158344Y-16677574D02*
X17139296Y-16687098D01*
X17139296Y-16687098D02*
X17101201Y-16687098D01*
X17101201Y-16687098D02*
X17082153Y-16696622D01*
X17082153Y-16696622D02*
X17072630Y-16706146D01*
X17072630Y-16706146D02*
X17063106Y-16725193D01*
X17063106Y-16725193D02*
X17063106Y-16763288D01*
X17063106Y-16763288D02*
X17072630Y-16782336D01*
X17072630Y-16782336D02*
X17082153Y-16791860D01*
X17082153Y-16791860D02*
X17101201Y-16801384D01*
X17101201Y-16801384D02*
X17139296Y-16801384D01*
X17139296Y-16801384D02*
X17158344Y-16791860D01*
X17158344Y-16791860D02*
X17167868Y-16782336D01*
X17167868Y-16782336D02*
X17177391Y-16763288D01*
X17177391Y-16763288D02*
X17177391Y-16725193D01*
X17177391Y-16725193D02*
X17167868Y-16706146D01*
X17167868Y-16706146D02*
X17158344Y-16696622D01*
X17158344Y-16696622D02*
X17139296Y-16687098D01*
X17415487Y-16801384D02*
X17415487Y-16601384D01*
X17501201Y-16801384D02*
X17501201Y-16696622D01*
X17501201Y-16696622D02*
X17491677Y-16677574D01*
X17491677Y-16677574D02*
X17472630Y-16668050D01*
X17472630Y-16668050D02*
X17444058Y-16668050D01*
X17444058Y-16668050D02*
X17425011Y-16677574D01*
X17425011Y-16677574D02*
X17415487Y-16687098D01*
X17625011Y-16801384D02*
X17605963Y-16791860D01*
X17605963Y-16791860D02*
X17596439Y-16782336D01*
X17596439Y-16782336D02*
X17586915Y-16763288D01*
X17586915Y-16763288D02*
X17586915Y-16706146D01*
X17586915Y-16706146D02*
X17596439Y-16687098D01*
X17596439Y-16687098D02*
X17605963Y-16677574D01*
X17605963Y-16677574D02*
X17625011Y-16668050D01*
X17625011Y-16668050D02*
X17653582Y-16668050D01*
X17653582Y-16668050D02*
X17672630Y-16677574D01*
X17672630Y-16677574D02*
X17682153Y-16687098D01*
X17682153Y-16687098D02*
X17691677Y-16706146D01*
X17691677Y-16706146D02*
X17691677Y-16763288D01*
X17691677Y-16763288D02*
X17682153Y-16782336D01*
X17682153Y-16782336D02*
X17672630Y-16791860D01*
X17672630Y-16791860D02*
X17653582Y-16801384D01*
X17653582Y-16801384D02*
X17625011Y-16801384D01*
X17805963Y-16801384D02*
X17786915Y-16791860D01*
X17786915Y-16791860D02*
X17777392Y-16772812D01*
X17777392Y-16772812D02*
X17777392Y-16601384D01*
X17958344Y-16791860D02*
X17939296Y-16801384D01*
X17939296Y-16801384D02*
X17901201Y-16801384D01*
X17901201Y-16801384D02*
X17882153Y-16791860D01*
X17882153Y-16791860D02*
X17872630Y-16772812D01*
X17872630Y-16772812D02*
X17872630Y-16696622D01*
X17872630Y-16696622D02*
X17882153Y-16677574D01*
X17882153Y-16677574D02*
X17901201Y-16668050D01*
X17901201Y-16668050D02*
X17939296Y-16668050D01*
X17939296Y-16668050D02*
X17958344Y-16677574D01*
X17958344Y-16677574D02*
X17967868Y-16696622D01*
X17967868Y-16696622D02*
X17967868Y-16715669D01*
X17967868Y-16715669D02*
X17872630Y-16734717D01*
X18044058Y-16791860D02*
X18063106Y-16801384D01*
X18063106Y-16801384D02*
X18101201Y-16801384D01*
X18101201Y-16801384D02*
X18120249Y-16791860D01*
X18120249Y-16791860D02*
X18129773Y-16772812D01*
X18129773Y-16772812D02*
X18129773Y-16763288D01*
X18129773Y-16763288D02*
X18120249Y-16744241D01*
X18120249Y-16744241D02*
X18101201Y-16734717D01*
X18101201Y-16734717D02*
X18072630Y-16734717D01*
X18072630Y-16734717D02*
X18053582Y-16725193D01*
X18053582Y-16725193D02*
X18044058Y-16706146D01*
X18044058Y-16706146D02*
X18044058Y-16696622D01*
X18044058Y-16696622D02*
X18053582Y-16677574D01*
X18053582Y-16677574D02*
X18072630Y-16668050D01*
X18072630Y-16668050D02*
X18101201Y-16668050D01*
X18101201Y-16668050D02*
X18120249Y-16677574D01*
X18196439Y-16877574D02*
X18205963Y-16868050D01*
X18205963Y-16868050D02*
X18225011Y-16839479D01*
X18225011Y-16839479D02*
X18234534Y-16820431D01*
X18234534Y-16820431D02*
X18244058Y-16791860D01*
X18244058Y-16791860D02*
X18253582Y-16744241D01*
X18253582Y-16744241D02*
X18253582Y-16706146D01*
X18253582Y-16706146D02*
X18244058Y-16658526D01*
X18244058Y-16658526D02*
X18234534Y-16629955D01*
X18234534Y-16629955D02*
X18225011Y-16610907D01*
X18225011Y-16610907D02*
X18205963Y-16582336D01*
X18205963Y-16582336D02*
X18196439Y-16572812D01*
D13*
X13120900Y-16918900D02*
X13230900Y-17028900D01*
X13230900Y-16918900D02*
X13120900Y-17028900D01*
X13230900Y-16973900D02*
G75*
G02*
X13120900Y-16973900I-55000J0D01*
G01*
X13120900Y-16973900D02*
G75*
G02*
X13230900Y-16973900I55000J0D01*
G01*
D11*
X13596439Y-17065384D02*
X13482153Y-17065384D01*
X13539296Y-17065384D02*
X13539296Y-16865384D01*
X13539296Y-16865384D02*
X13520248Y-16893955D01*
X13520248Y-16893955D02*
X13501201Y-16913003D01*
X13501201Y-16913003D02*
X13482153Y-16922527D01*
X13682153Y-17046336D02*
X13691677Y-17055860D01*
X13691677Y-17055860D02*
X13682153Y-17065384D01*
X13682153Y-17065384D02*
X13672629Y-17055860D01*
X13672629Y-17055860D02*
X13682153Y-17046336D01*
X13682153Y-17046336D02*
X13682153Y-17065384D01*
X13882153Y-17065384D02*
X13767867Y-17065384D01*
X13825010Y-17065384D02*
X13825010Y-16865384D01*
X13825010Y-16865384D02*
X13805962Y-16893955D01*
X13805962Y-16893955D02*
X13786915Y-16913003D01*
X13786915Y-16913003D02*
X13767867Y-16922527D01*
X14005962Y-16865384D02*
X14025010Y-16865384D01*
X14025010Y-16865384D02*
X14044058Y-16874908D01*
X14044058Y-16874908D02*
X14053582Y-16884431D01*
X14053582Y-16884431D02*
X14063105Y-16903479D01*
X14063105Y-16903479D02*
X14072629Y-16941574D01*
X14072629Y-16941574D02*
X14072629Y-16989193D01*
X14072629Y-16989193D02*
X14063105Y-17027288D01*
X14063105Y-17027288D02*
X14053582Y-17046336D01*
X14053582Y-17046336D02*
X14044058Y-17055860D01*
X14044058Y-17055860D02*
X14025010Y-17065384D01*
X14025010Y-17065384D02*
X14005962Y-17065384D01*
X14005962Y-17065384D02*
X13986915Y-17055860D01*
X13986915Y-17055860D02*
X13977391Y-17046336D01*
X13977391Y-17046336D02*
X13967867Y-17027288D01*
X13967867Y-17027288D02*
X13958343Y-16989193D01*
X13958343Y-16989193D02*
X13958343Y-16941574D01*
X13958343Y-16941574D02*
X13967867Y-16903479D01*
X13967867Y-16903479D02*
X13977391Y-16884431D01*
X13977391Y-16884431D02*
X13986915Y-16874908D01*
X13986915Y-16874908D02*
X14005962Y-16865384D01*
X14196439Y-16865384D02*
X14215486Y-16865384D01*
X14215486Y-16865384D02*
X14234534Y-16874908D01*
X14234534Y-16874908D02*
X14244058Y-16884431D01*
X14244058Y-16884431D02*
X14253582Y-16903479D01*
X14253582Y-16903479D02*
X14263105Y-16941574D01*
X14263105Y-16941574D02*
X14263105Y-16989193D01*
X14263105Y-16989193D02*
X14253582Y-17027288D01*
X14253582Y-17027288D02*
X14244058Y-17046336D01*
X14244058Y-17046336D02*
X14234534Y-17055860D01*
X14234534Y-17055860D02*
X14215486Y-17065384D01*
X14215486Y-17065384D02*
X14196439Y-17065384D01*
X14196439Y-17065384D02*
X14177391Y-17055860D01*
X14177391Y-17055860D02*
X14167867Y-17046336D01*
X14167867Y-17046336D02*
X14158343Y-17027288D01*
X14158343Y-17027288D02*
X14148820Y-16989193D01*
X14148820Y-16989193D02*
X14148820Y-16941574D01*
X14148820Y-16941574D02*
X14158343Y-16903479D01*
X14158343Y-16903479D02*
X14167867Y-16884431D01*
X14167867Y-16884431D02*
X14177391Y-16874908D01*
X14177391Y-16874908D02*
X14196439Y-16865384D01*
X14348820Y-17065384D02*
X14348820Y-16932050D01*
X14348820Y-16951098D02*
X14358343Y-16941574D01*
X14358343Y-16941574D02*
X14377391Y-16932050D01*
X14377391Y-16932050D02*
X14405963Y-16932050D01*
X14405963Y-16932050D02*
X14425010Y-16941574D01*
X14425010Y-16941574D02*
X14434534Y-16960622D01*
X14434534Y-16960622D02*
X14434534Y-17065384D01*
X14434534Y-16960622D02*
X14444058Y-16941574D01*
X14444058Y-16941574D02*
X14463105Y-16932050D01*
X14463105Y-16932050D02*
X14491677Y-16932050D01*
X14491677Y-16932050D02*
X14510724Y-16941574D01*
X14510724Y-16941574D02*
X14520248Y-16960622D01*
X14520248Y-16960622D02*
X14520248Y-17065384D01*
X14615486Y-17065384D02*
X14615486Y-16932050D01*
X14615486Y-16951098D02*
X14625010Y-16941574D01*
X14625010Y-16941574D02*
X14644058Y-16932050D01*
X14644058Y-16932050D02*
X14672629Y-16932050D01*
X14672629Y-16932050D02*
X14691677Y-16941574D01*
X14691677Y-16941574D02*
X14701201Y-16960622D01*
X14701201Y-16960622D02*
X14701201Y-17065384D01*
X14701201Y-16960622D02*
X14710724Y-16941574D01*
X14710724Y-16941574D02*
X14729772Y-16932050D01*
X14729772Y-16932050D02*
X14758343Y-16932050D01*
X14758343Y-16932050D02*
X14777391Y-16941574D01*
X14777391Y-16941574D02*
X14786915Y-16960622D01*
X14786915Y-16960622D02*
X14786915Y-17065384D01*
X15177391Y-16855860D02*
X15005963Y-17113003D01*
X15434534Y-16865384D02*
X15453582Y-16865384D01*
X15453582Y-16865384D02*
X15472629Y-16874908D01*
X15472629Y-16874908D02*
X15482153Y-16884431D01*
X15482153Y-16884431D02*
X15491677Y-16903479D01*
X15491677Y-16903479D02*
X15501201Y-16941574D01*
X15501201Y-16941574D02*
X15501201Y-16989193D01*
X15501201Y-16989193D02*
X15491677Y-17027288D01*
X15491677Y-17027288D02*
X15482153Y-17046336D01*
X15482153Y-17046336D02*
X15472629Y-17055860D01*
X15472629Y-17055860D02*
X15453582Y-17065384D01*
X15453582Y-17065384D02*
X15434534Y-17065384D01*
X15434534Y-17065384D02*
X15415486Y-17055860D01*
X15415486Y-17055860D02*
X15405963Y-17046336D01*
X15405963Y-17046336D02*
X15396439Y-17027288D01*
X15396439Y-17027288D02*
X15386915Y-16989193D01*
X15386915Y-16989193D02*
X15386915Y-16941574D01*
X15386915Y-16941574D02*
X15396439Y-16903479D01*
X15396439Y-16903479D02*
X15405963Y-16884431D01*
X15405963Y-16884431D02*
X15415486Y-16874908D01*
X15415486Y-16874908D02*
X15434534Y-16865384D01*
X15586915Y-17046336D02*
X15596439Y-17055860D01*
X15596439Y-17055860D02*
X15586915Y-17065384D01*
X15586915Y-17065384D02*
X15577391Y-17055860D01*
X15577391Y-17055860D02*
X15586915Y-17046336D01*
X15586915Y-17046336D02*
X15586915Y-17065384D01*
X15720248Y-16865384D02*
X15739296Y-16865384D01*
X15739296Y-16865384D02*
X15758344Y-16874908D01*
X15758344Y-16874908D02*
X15767867Y-16884431D01*
X15767867Y-16884431D02*
X15777391Y-16903479D01*
X15777391Y-16903479D02*
X15786915Y-16941574D01*
X15786915Y-16941574D02*
X15786915Y-16989193D01*
X15786915Y-16989193D02*
X15777391Y-17027288D01*
X15777391Y-17027288D02*
X15767867Y-17046336D01*
X15767867Y-17046336D02*
X15758344Y-17055860D01*
X15758344Y-17055860D02*
X15739296Y-17065384D01*
X15739296Y-17065384D02*
X15720248Y-17065384D01*
X15720248Y-17065384D02*
X15701201Y-17055860D01*
X15701201Y-17055860D02*
X15691677Y-17046336D01*
X15691677Y-17046336D02*
X15682153Y-17027288D01*
X15682153Y-17027288D02*
X15672629Y-16989193D01*
X15672629Y-16989193D02*
X15672629Y-16941574D01*
X15672629Y-16941574D02*
X15682153Y-16903479D01*
X15682153Y-16903479D02*
X15691677Y-16884431D01*
X15691677Y-16884431D02*
X15701201Y-16874908D01*
X15701201Y-16874908D02*
X15720248Y-16865384D01*
X15958344Y-16932050D02*
X15958344Y-17065384D01*
X15910725Y-16855860D02*
X15863106Y-16998717D01*
X15863106Y-16998717D02*
X15986915Y-16998717D01*
X16044058Y-16865384D02*
X16167867Y-16865384D01*
X16167867Y-16865384D02*
X16101201Y-16941574D01*
X16101201Y-16941574D02*
X16129772Y-16941574D01*
X16129772Y-16941574D02*
X16148820Y-16951098D01*
X16148820Y-16951098D02*
X16158344Y-16960622D01*
X16158344Y-16960622D02*
X16167867Y-16979669D01*
X16167867Y-16979669D02*
X16167867Y-17027288D01*
X16167867Y-17027288D02*
X16158344Y-17046336D01*
X16158344Y-17046336D02*
X16148820Y-17055860D01*
X16148820Y-17055860D02*
X16129772Y-17065384D01*
X16129772Y-17065384D02*
X16072629Y-17065384D01*
X16072629Y-17065384D02*
X16053582Y-17055860D01*
X16053582Y-17055860D02*
X16044058Y-17046336D01*
X16234534Y-16865384D02*
X16358344Y-16865384D01*
X16358344Y-16865384D02*
X16291677Y-16941574D01*
X16291677Y-16941574D02*
X16320248Y-16941574D01*
X16320248Y-16941574D02*
X16339296Y-16951098D01*
X16339296Y-16951098D02*
X16348820Y-16960622D01*
X16348820Y-16960622D02*
X16358344Y-16979669D01*
X16358344Y-16979669D02*
X16358344Y-17027288D01*
X16358344Y-17027288D02*
X16348820Y-17046336D01*
X16348820Y-17046336D02*
X16339296Y-17055860D01*
X16339296Y-17055860D02*
X16320248Y-17065384D01*
X16320248Y-17065384D02*
X16263106Y-17065384D01*
X16263106Y-17065384D02*
X16244058Y-17055860D01*
X16244058Y-17055860D02*
X16234534Y-17046336D01*
X16434534Y-16865384D02*
X16434534Y-16903479D01*
X16510725Y-16865384D02*
X16510725Y-16903479D01*
X16805963Y-17141574D02*
X16796439Y-17132050D01*
X16796439Y-17132050D02*
X16777391Y-17103479D01*
X16777391Y-17103479D02*
X16767868Y-17084431D01*
X16767868Y-17084431D02*
X16758344Y-17055860D01*
X16758344Y-17055860D02*
X16748820Y-17008241D01*
X16748820Y-17008241D02*
X16748820Y-16970146D01*
X16748820Y-16970146D02*
X16758344Y-16922527D01*
X16758344Y-16922527D02*
X16767868Y-16893955D01*
X16767868Y-16893955D02*
X16777391Y-16874908D01*
X16777391Y-16874908D02*
X16796439Y-16846336D01*
X16796439Y-16846336D02*
X16805963Y-16836812D01*
X16872630Y-16884431D02*
X16882153Y-16874908D01*
X16882153Y-16874908D02*
X16901201Y-16865384D01*
X16901201Y-16865384D02*
X16948820Y-16865384D01*
X16948820Y-16865384D02*
X16967868Y-16874908D01*
X16967868Y-16874908D02*
X16977391Y-16884431D01*
X16977391Y-16884431D02*
X16986915Y-16903479D01*
X16986915Y-16903479D02*
X16986915Y-16922527D01*
X16986915Y-16922527D02*
X16977391Y-16951098D01*
X16977391Y-16951098D02*
X16863106Y-17065384D01*
X16863106Y-17065384D02*
X16986915Y-17065384D01*
X17053582Y-16865384D02*
X17186915Y-16865384D01*
X17186915Y-16865384D02*
X17101201Y-17065384D01*
X17415487Y-17065384D02*
X17415487Y-16865384D01*
X17501201Y-17065384D02*
X17501201Y-16960622D01*
X17501201Y-16960622D02*
X17491677Y-16941574D01*
X17491677Y-16941574D02*
X17472630Y-16932050D01*
X17472630Y-16932050D02*
X17444058Y-16932050D01*
X17444058Y-16932050D02*
X17425011Y-16941574D01*
X17425011Y-16941574D02*
X17415487Y-16951098D01*
X17625011Y-17065384D02*
X17605963Y-17055860D01*
X17605963Y-17055860D02*
X17596439Y-17046336D01*
X17596439Y-17046336D02*
X17586915Y-17027288D01*
X17586915Y-17027288D02*
X17586915Y-16970146D01*
X17586915Y-16970146D02*
X17596439Y-16951098D01*
X17596439Y-16951098D02*
X17605963Y-16941574D01*
X17605963Y-16941574D02*
X17625011Y-16932050D01*
X17625011Y-16932050D02*
X17653582Y-16932050D01*
X17653582Y-16932050D02*
X17672630Y-16941574D01*
X17672630Y-16941574D02*
X17682153Y-16951098D01*
X17682153Y-16951098D02*
X17691677Y-16970146D01*
X17691677Y-16970146D02*
X17691677Y-17027288D01*
X17691677Y-17027288D02*
X17682153Y-17046336D01*
X17682153Y-17046336D02*
X17672630Y-17055860D01*
X17672630Y-17055860D02*
X17653582Y-17065384D01*
X17653582Y-17065384D02*
X17625011Y-17065384D01*
X17805963Y-17065384D02*
X17786915Y-17055860D01*
X17786915Y-17055860D02*
X17777392Y-17036812D01*
X17777392Y-17036812D02*
X17777392Y-16865384D01*
X17958344Y-17055860D02*
X17939296Y-17065384D01*
X17939296Y-17065384D02*
X17901201Y-17065384D01*
X17901201Y-17065384D02*
X17882153Y-17055860D01*
X17882153Y-17055860D02*
X17872630Y-17036812D01*
X17872630Y-17036812D02*
X17872630Y-16960622D01*
X17872630Y-16960622D02*
X17882153Y-16941574D01*
X17882153Y-16941574D02*
X17901201Y-16932050D01*
X17901201Y-16932050D02*
X17939296Y-16932050D01*
X17939296Y-16932050D02*
X17958344Y-16941574D01*
X17958344Y-16941574D02*
X17967868Y-16960622D01*
X17967868Y-16960622D02*
X17967868Y-16979669D01*
X17967868Y-16979669D02*
X17872630Y-16998717D01*
X18044058Y-17055860D02*
X18063106Y-17065384D01*
X18063106Y-17065384D02*
X18101201Y-17065384D01*
X18101201Y-17065384D02*
X18120249Y-17055860D01*
X18120249Y-17055860D02*
X18129773Y-17036812D01*
X18129773Y-17036812D02*
X18129773Y-17027288D01*
X18129773Y-17027288D02*
X18120249Y-17008241D01*
X18120249Y-17008241D02*
X18101201Y-16998717D01*
X18101201Y-16998717D02*
X18072630Y-16998717D01*
X18072630Y-16998717D02*
X18053582Y-16989193D01*
X18053582Y-16989193D02*
X18044058Y-16970146D01*
X18044058Y-16970146D02*
X18044058Y-16960622D01*
X18044058Y-16960622D02*
X18053582Y-16941574D01*
X18053582Y-16941574D02*
X18072630Y-16932050D01*
X18072630Y-16932050D02*
X18101201Y-16932050D01*
X18101201Y-16932050D02*
X18120249Y-16941574D01*
X18196439Y-17141574D02*
X18205963Y-17132050D01*
X18205963Y-17132050D02*
X18225011Y-17103479D01*
X18225011Y-17103479D02*
X18234534Y-17084431D01*
X18234534Y-17084431D02*
X18244058Y-17055860D01*
X18244058Y-17055860D02*
X18253582Y-17008241D01*
X18253582Y-17008241D02*
X18253582Y-16970146D01*
X18253582Y-16970146D02*
X18244058Y-16922527D01*
X18244058Y-16922527D02*
X18234534Y-16893955D01*
X18234534Y-16893955D02*
X18225011Y-16874908D01*
X18225011Y-16874908D02*
X18205963Y-16846336D01*
X18205963Y-16846336D02*
X18196439Y-16836812D01*
D14*
X13110900Y-17177900D02*
X13230900Y-17297900D01*
X13230900Y-17177900D02*
X13110900Y-17297900D01*
X13170900Y-17177900D02*
X13170900Y-17297900D01*
X13110900Y-17237900D02*
X13230900Y-17237900D01*
D11*
X13596439Y-17329384D02*
X13482153Y-17329384D01*
X13539296Y-17329384D02*
X13539296Y-17129384D01*
X13539296Y-17129384D02*
X13520248Y-17157955D01*
X13520248Y-17157955D02*
X13501201Y-17177003D01*
X13501201Y-17177003D02*
X13482153Y-17186527D01*
X13682153Y-17310336D02*
X13691677Y-17319860D01*
X13691677Y-17319860D02*
X13682153Y-17329384D01*
X13682153Y-17329384D02*
X13672629Y-17319860D01*
X13672629Y-17319860D02*
X13682153Y-17310336D01*
X13682153Y-17310336D02*
X13682153Y-17329384D01*
X13767867Y-17148431D02*
X13777391Y-17138908D01*
X13777391Y-17138908D02*
X13796439Y-17129384D01*
X13796439Y-17129384D02*
X13844058Y-17129384D01*
X13844058Y-17129384D02*
X13863105Y-17138908D01*
X13863105Y-17138908D02*
X13872629Y-17148431D01*
X13872629Y-17148431D02*
X13882153Y-17167479D01*
X13882153Y-17167479D02*
X13882153Y-17186527D01*
X13882153Y-17186527D02*
X13872629Y-17215098D01*
X13872629Y-17215098D02*
X13758343Y-17329384D01*
X13758343Y-17329384D02*
X13882153Y-17329384D01*
X14005962Y-17129384D02*
X14025010Y-17129384D01*
X14025010Y-17129384D02*
X14044058Y-17138908D01*
X14044058Y-17138908D02*
X14053582Y-17148431D01*
X14053582Y-17148431D02*
X14063105Y-17167479D01*
X14063105Y-17167479D02*
X14072629Y-17205574D01*
X14072629Y-17205574D02*
X14072629Y-17253193D01*
X14072629Y-17253193D02*
X14063105Y-17291288D01*
X14063105Y-17291288D02*
X14053582Y-17310336D01*
X14053582Y-17310336D02*
X14044058Y-17319860D01*
X14044058Y-17319860D02*
X14025010Y-17329384D01*
X14025010Y-17329384D02*
X14005962Y-17329384D01*
X14005962Y-17329384D02*
X13986915Y-17319860D01*
X13986915Y-17319860D02*
X13977391Y-17310336D01*
X13977391Y-17310336D02*
X13967867Y-17291288D01*
X13967867Y-17291288D02*
X13958343Y-17253193D01*
X13958343Y-17253193D02*
X13958343Y-17205574D01*
X13958343Y-17205574D02*
X13967867Y-17167479D01*
X13967867Y-17167479D02*
X13977391Y-17148431D01*
X13977391Y-17148431D02*
X13986915Y-17138908D01*
X13986915Y-17138908D02*
X14005962Y-17129384D01*
X14196439Y-17129384D02*
X14215486Y-17129384D01*
X14215486Y-17129384D02*
X14234534Y-17138908D01*
X14234534Y-17138908D02*
X14244058Y-17148431D01*
X14244058Y-17148431D02*
X14253582Y-17167479D01*
X14253582Y-17167479D02*
X14263105Y-17205574D01*
X14263105Y-17205574D02*
X14263105Y-17253193D01*
X14263105Y-17253193D02*
X14253582Y-17291288D01*
X14253582Y-17291288D02*
X14244058Y-17310336D01*
X14244058Y-17310336D02*
X14234534Y-17319860D01*
X14234534Y-17319860D02*
X14215486Y-17329384D01*
X14215486Y-17329384D02*
X14196439Y-17329384D01*
X14196439Y-17329384D02*
X14177391Y-17319860D01*
X14177391Y-17319860D02*
X14167867Y-17310336D01*
X14167867Y-17310336D02*
X14158343Y-17291288D01*
X14158343Y-17291288D02*
X14148820Y-17253193D01*
X14148820Y-17253193D02*
X14148820Y-17205574D01*
X14148820Y-17205574D02*
X14158343Y-17167479D01*
X14158343Y-17167479D02*
X14167867Y-17148431D01*
X14167867Y-17148431D02*
X14177391Y-17138908D01*
X14177391Y-17138908D02*
X14196439Y-17129384D01*
X14348820Y-17329384D02*
X14348820Y-17196050D01*
X14348820Y-17215098D02*
X14358343Y-17205574D01*
X14358343Y-17205574D02*
X14377391Y-17196050D01*
X14377391Y-17196050D02*
X14405963Y-17196050D01*
X14405963Y-17196050D02*
X14425010Y-17205574D01*
X14425010Y-17205574D02*
X14434534Y-17224622D01*
X14434534Y-17224622D02*
X14434534Y-17329384D01*
X14434534Y-17224622D02*
X14444058Y-17205574D01*
X14444058Y-17205574D02*
X14463105Y-17196050D01*
X14463105Y-17196050D02*
X14491677Y-17196050D01*
X14491677Y-17196050D02*
X14510724Y-17205574D01*
X14510724Y-17205574D02*
X14520248Y-17224622D01*
X14520248Y-17224622D02*
X14520248Y-17329384D01*
X14615486Y-17329384D02*
X14615486Y-17196050D01*
X14615486Y-17215098D02*
X14625010Y-17205574D01*
X14625010Y-17205574D02*
X14644058Y-17196050D01*
X14644058Y-17196050D02*
X14672629Y-17196050D01*
X14672629Y-17196050D02*
X14691677Y-17205574D01*
X14691677Y-17205574D02*
X14701201Y-17224622D01*
X14701201Y-17224622D02*
X14701201Y-17329384D01*
X14701201Y-17224622D02*
X14710724Y-17205574D01*
X14710724Y-17205574D02*
X14729772Y-17196050D01*
X14729772Y-17196050D02*
X14758343Y-17196050D01*
X14758343Y-17196050D02*
X14777391Y-17205574D01*
X14777391Y-17205574D02*
X14786915Y-17224622D01*
X14786915Y-17224622D02*
X14786915Y-17329384D01*
X15177391Y-17119860D02*
X15005963Y-17377003D01*
X15434534Y-17129384D02*
X15453582Y-17129384D01*
X15453582Y-17129384D02*
X15472629Y-17138908D01*
X15472629Y-17138908D02*
X15482153Y-17148431D01*
X15482153Y-17148431D02*
X15491677Y-17167479D01*
X15491677Y-17167479D02*
X15501201Y-17205574D01*
X15501201Y-17205574D02*
X15501201Y-17253193D01*
X15501201Y-17253193D02*
X15491677Y-17291288D01*
X15491677Y-17291288D02*
X15482153Y-17310336D01*
X15482153Y-17310336D02*
X15472629Y-17319860D01*
X15472629Y-17319860D02*
X15453582Y-17329384D01*
X15453582Y-17329384D02*
X15434534Y-17329384D01*
X15434534Y-17329384D02*
X15415486Y-17319860D01*
X15415486Y-17319860D02*
X15405963Y-17310336D01*
X15405963Y-17310336D02*
X15396439Y-17291288D01*
X15396439Y-17291288D02*
X15386915Y-17253193D01*
X15386915Y-17253193D02*
X15386915Y-17205574D01*
X15386915Y-17205574D02*
X15396439Y-17167479D01*
X15396439Y-17167479D02*
X15405963Y-17148431D01*
X15405963Y-17148431D02*
X15415486Y-17138908D01*
X15415486Y-17138908D02*
X15434534Y-17129384D01*
X15586915Y-17310336D02*
X15596439Y-17319860D01*
X15596439Y-17319860D02*
X15586915Y-17329384D01*
X15586915Y-17329384D02*
X15577391Y-17319860D01*
X15577391Y-17319860D02*
X15586915Y-17310336D01*
X15586915Y-17310336D02*
X15586915Y-17329384D01*
X15720248Y-17129384D02*
X15739296Y-17129384D01*
X15739296Y-17129384D02*
X15758344Y-17138908D01*
X15758344Y-17138908D02*
X15767867Y-17148431D01*
X15767867Y-17148431D02*
X15777391Y-17167479D01*
X15777391Y-17167479D02*
X15786915Y-17205574D01*
X15786915Y-17205574D02*
X15786915Y-17253193D01*
X15786915Y-17253193D02*
X15777391Y-17291288D01*
X15777391Y-17291288D02*
X15767867Y-17310336D01*
X15767867Y-17310336D02*
X15758344Y-17319860D01*
X15758344Y-17319860D02*
X15739296Y-17329384D01*
X15739296Y-17329384D02*
X15720248Y-17329384D01*
X15720248Y-17329384D02*
X15701201Y-17319860D01*
X15701201Y-17319860D02*
X15691677Y-17310336D01*
X15691677Y-17310336D02*
X15682153Y-17291288D01*
X15682153Y-17291288D02*
X15672629Y-17253193D01*
X15672629Y-17253193D02*
X15672629Y-17205574D01*
X15672629Y-17205574D02*
X15682153Y-17167479D01*
X15682153Y-17167479D02*
X15691677Y-17148431D01*
X15691677Y-17148431D02*
X15701201Y-17138908D01*
X15701201Y-17138908D02*
X15720248Y-17129384D01*
X15958344Y-17196050D02*
X15958344Y-17329384D01*
X15910725Y-17119860D02*
X15863106Y-17262717D01*
X15863106Y-17262717D02*
X15986915Y-17262717D01*
X16044058Y-17129384D02*
X16177391Y-17129384D01*
X16177391Y-17129384D02*
X16091677Y-17329384D01*
X16244058Y-17148431D02*
X16253582Y-17138908D01*
X16253582Y-17138908D02*
X16272629Y-17129384D01*
X16272629Y-17129384D02*
X16320248Y-17129384D01*
X16320248Y-17129384D02*
X16339296Y-17138908D01*
X16339296Y-17138908D02*
X16348820Y-17148431D01*
X16348820Y-17148431D02*
X16358344Y-17167479D01*
X16358344Y-17167479D02*
X16358344Y-17186527D01*
X16358344Y-17186527D02*
X16348820Y-17215098D01*
X16348820Y-17215098D02*
X16234534Y-17329384D01*
X16234534Y-17329384D02*
X16358344Y-17329384D01*
X16434534Y-17129384D02*
X16434534Y-17167479D01*
X16510725Y-17129384D02*
X16510725Y-17167479D01*
X16805963Y-17405574D02*
X16796439Y-17396050D01*
X16796439Y-17396050D02*
X16777391Y-17367479D01*
X16777391Y-17367479D02*
X16767868Y-17348431D01*
X16767868Y-17348431D02*
X16758344Y-17319860D01*
X16758344Y-17319860D02*
X16748820Y-17272241D01*
X16748820Y-17272241D02*
X16748820Y-17234146D01*
X16748820Y-17234146D02*
X16758344Y-17186527D01*
X16758344Y-17186527D02*
X16767868Y-17157955D01*
X16767868Y-17157955D02*
X16777391Y-17138908D01*
X16777391Y-17138908D02*
X16796439Y-17110336D01*
X16796439Y-17110336D02*
X16805963Y-17100812D01*
X16872630Y-17148431D02*
X16882153Y-17138908D01*
X16882153Y-17138908D02*
X16901201Y-17129384D01*
X16901201Y-17129384D02*
X16948820Y-17129384D01*
X16948820Y-17129384D02*
X16967868Y-17138908D01*
X16967868Y-17138908D02*
X16977391Y-17148431D01*
X16977391Y-17148431D02*
X16986915Y-17167479D01*
X16986915Y-17167479D02*
X16986915Y-17186527D01*
X16986915Y-17186527D02*
X16977391Y-17215098D01*
X16977391Y-17215098D02*
X16863106Y-17329384D01*
X16863106Y-17329384D02*
X16986915Y-17329384D01*
X17225011Y-17329384D02*
X17225011Y-17129384D01*
X17310725Y-17329384D02*
X17310725Y-17224622D01*
X17310725Y-17224622D02*
X17301201Y-17205574D01*
X17301201Y-17205574D02*
X17282153Y-17196050D01*
X17282153Y-17196050D02*
X17253582Y-17196050D01*
X17253582Y-17196050D02*
X17234534Y-17205574D01*
X17234534Y-17205574D02*
X17225011Y-17215098D01*
X17434534Y-17329384D02*
X17415487Y-17319860D01*
X17415487Y-17319860D02*
X17405963Y-17310336D01*
X17405963Y-17310336D02*
X17396439Y-17291288D01*
X17396439Y-17291288D02*
X17396439Y-17234146D01*
X17396439Y-17234146D02*
X17405963Y-17215098D01*
X17405963Y-17215098D02*
X17415487Y-17205574D01*
X17415487Y-17205574D02*
X17434534Y-17196050D01*
X17434534Y-17196050D02*
X17463106Y-17196050D01*
X17463106Y-17196050D02*
X17482153Y-17205574D01*
X17482153Y-17205574D02*
X17491677Y-17215098D01*
X17491677Y-17215098D02*
X17501201Y-17234146D01*
X17501201Y-17234146D02*
X17501201Y-17291288D01*
X17501201Y-17291288D02*
X17491677Y-17310336D01*
X17491677Y-17310336D02*
X17482153Y-17319860D01*
X17482153Y-17319860D02*
X17463106Y-17329384D01*
X17463106Y-17329384D02*
X17434534Y-17329384D01*
X17615487Y-17329384D02*
X17596439Y-17319860D01*
X17596439Y-17319860D02*
X17586915Y-17300812D01*
X17586915Y-17300812D02*
X17586915Y-17129384D01*
X17767868Y-17319860D02*
X17748820Y-17329384D01*
X17748820Y-17329384D02*
X17710725Y-17329384D01*
X17710725Y-17329384D02*
X17691677Y-17319860D01*
X17691677Y-17319860D02*
X17682153Y-17300812D01*
X17682153Y-17300812D02*
X17682153Y-17224622D01*
X17682153Y-17224622D02*
X17691677Y-17205574D01*
X17691677Y-17205574D02*
X17710725Y-17196050D01*
X17710725Y-17196050D02*
X17748820Y-17196050D01*
X17748820Y-17196050D02*
X17767868Y-17205574D01*
X17767868Y-17205574D02*
X17777392Y-17224622D01*
X17777392Y-17224622D02*
X17777392Y-17243669D01*
X17777392Y-17243669D02*
X17682153Y-17262717D01*
X17853582Y-17319860D02*
X17872630Y-17329384D01*
X17872630Y-17329384D02*
X17910725Y-17329384D01*
X17910725Y-17329384D02*
X17929773Y-17319860D01*
X17929773Y-17319860D02*
X17939296Y-17300812D01*
X17939296Y-17300812D02*
X17939296Y-17291288D01*
X17939296Y-17291288D02*
X17929773Y-17272241D01*
X17929773Y-17272241D02*
X17910725Y-17262717D01*
X17910725Y-17262717D02*
X17882153Y-17262717D01*
X17882153Y-17262717D02*
X17863106Y-17253193D01*
X17863106Y-17253193D02*
X17853582Y-17234146D01*
X17853582Y-17234146D02*
X17853582Y-17224622D01*
X17853582Y-17224622D02*
X17863106Y-17205574D01*
X17863106Y-17205574D02*
X17882153Y-17196050D01*
X17882153Y-17196050D02*
X17910725Y-17196050D01*
X17910725Y-17196050D02*
X17929773Y-17205574D01*
X18005963Y-17405574D02*
X18015487Y-17396050D01*
X18015487Y-17396050D02*
X18034534Y-17367479D01*
X18034534Y-17367479D02*
X18044058Y-17348431D01*
X18044058Y-17348431D02*
X18053582Y-17319860D01*
X18053582Y-17319860D02*
X18063106Y-17272241D01*
X18063106Y-17272241D02*
X18063106Y-17234146D01*
X18063106Y-17234146D02*
X18053582Y-17186527D01*
X18053582Y-17186527D02*
X18044058Y-17157955D01*
X18044058Y-17157955D02*
X18034534Y-17138908D01*
X18034534Y-17138908D02*
X18015487Y-17110336D01*
X18015487Y-17110336D02*
X18005963Y-17100812D01*
D15*
X13100900Y-17436900D02*
X13230900Y-17566900D01*
X13230900Y-17436900D02*
X13100900Y-17566900D01*
X13211862Y-17547862D02*
X13211862Y-17455938D01*
X13119938Y-17455938D01*
X13119938Y-17547862D01*
X13211862Y-17547862D01*
D11*
X13596439Y-17593384D02*
X13482153Y-17593384D01*
X13539296Y-17593384D02*
X13539296Y-17393384D01*
X13539296Y-17393384D02*
X13520248Y-17421955D01*
X13520248Y-17421955D02*
X13501201Y-17441003D01*
X13501201Y-17441003D02*
X13482153Y-17450527D01*
X13682153Y-17574336D02*
X13691677Y-17583860D01*
X13691677Y-17583860D02*
X13682153Y-17593384D01*
X13682153Y-17593384D02*
X13672629Y-17583860D01*
X13672629Y-17583860D02*
X13682153Y-17574336D01*
X13682153Y-17574336D02*
X13682153Y-17593384D01*
X13758343Y-17393384D02*
X13882153Y-17393384D01*
X13882153Y-17393384D02*
X13815486Y-17469574D01*
X13815486Y-17469574D02*
X13844058Y-17469574D01*
X13844058Y-17469574D02*
X13863105Y-17479098D01*
X13863105Y-17479098D02*
X13872629Y-17488622D01*
X13872629Y-17488622D02*
X13882153Y-17507669D01*
X13882153Y-17507669D02*
X13882153Y-17555288D01*
X13882153Y-17555288D02*
X13872629Y-17574336D01*
X13872629Y-17574336D02*
X13863105Y-17583860D01*
X13863105Y-17583860D02*
X13844058Y-17593384D01*
X13844058Y-17593384D02*
X13786915Y-17593384D01*
X13786915Y-17593384D02*
X13767867Y-17583860D01*
X13767867Y-17583860D02*
X13758343Y-17574336D01*
X14005962Y-17393384D02*
X14025010Y-17393384D01*
X14025010Y-17393384D02*
X14044058Y-17402908D01*
X14044058Y-17402908D02*
X14053582Y-17412431D01*
X14053582Y-17412431D02*
X14063105Y-17431479D01*
X14063105Y-17431479D02*
X14072629Y-17469574D01*
X14072629Y-17469574D02*
X14072629Y-17517193D01*
X14072629Y-17517193D02*
X14063105Y-17555288D01*
X14063105Y-17555288D02*
X14053582Y-17574336D01*
X14053582Y-17574336D02*
X14044058Y-17583860D01*
X14044058Y-17583860D02*
X14025010Y-17593384D01*
X14025010Y-17593384D02*
X14005962Y-17593384D01*
X14005962Y-17593384D02*
X13986915Y-17583860D01*
X13986915Y-17583860D02*
X13977391Y-17574336D01*
X13977391Y-17574336D02*
X13967867Y-17555288D01*
X13967867Y-17555288D02*
X13958343Y-17517193D01*
X13958343Y-17517193D02*
X13958343Y-17469574D01*
X13958343Y-17469574D02*
X13967867Y-17431479D01*
X13967867Y-17431479D02*
X13977391Y-17412431D01*
X13977391Y-17412431D02*
X13986915Y-17402908D01*
X13986915Y-17402908D02*
X14005962Y-17393384D01*
X14196439Y-17393384D02*
X14215486Y-17393384D01*
X14215486Y-17393384D02*
X14234534Y-17402908D01*
X14234534Y-17402908D02*
X14244058Y-17412431D01*
X14244058Y-17412431D02*
X14253582Y-17431479D01*
X14253582Y-17431479D02*
X14263105Y-17469574D01*
X14263105Y-17469574D02*
X14263105Y-17517193D01*
X14263105Y-17517193D02*
X14253582Y-17555288D01*
X14253582Y-17555288D02*
X14244058Y-17574336D01*
X14244058Y-17574336D02*
X14234534Y-17583860D01*
X14234534Y-17583860D02*
X14215486Y-17593384D01*
X14215486Y-17593384D02*
X14196439Y-17593384D01*
X14196439Y-17593384D02*
X14177391Y-17583860D01*
X14177391Y-17583860D02*
X14167867Y-17574336D01*
X14167867Y-17574336D02*
X14158343Y-17555288D01*
X14158343Y-17555288D02*
X14148820Y-17517193D01*
X14148820Y-17517193D02*
X14148820Y-17469574D01*
X14148820Y-17469574D02*
X14158343Y-17431479D01*
X14158343Y-17431479D02*
X14167867Y-17412431D01*
X14167867Y-17412431D02*
X14177391Y-17402908D01*
X14177391Y-17402908D02*
X14196439Y-17393384D01*
X14348820Y-17593384D02*
X14348820Y-17460050D01*
X14348820Y-17479098D02*
X14358343Y-17469574D01*
X14358343Y-17469574D02*
X14377391Y-17460050D01*
X14377391Y-17460050D02*
X14405963Y-17460050D01*
X14405963Y-17460050D02*
X14425010Y-17469574D01*
X14425010Y-17469574D02*
X14434534Y-17488622D01*
X14434534Y-17488622D02*
X14434534Y-17593384D01*
X14434534Y-17488622D02*
X14444058Y-17469574D01*
X14444058Y-17469574D02*
X14463105Y-17460050D01*
X14463105Y-17460050D02*
X14491677Y-17460050D01*
X14491677Y-17460050D02*
X14510724Y-17469574D01*
X14510724Y-17469574D02*
X14520248Y-17488622D01*
X14520248Y-17488622D02*
X14520248Y-17593384D01*
X14615486Y-17593384D02*
X14615486Y-17460050D01*
X14615486Y-17479098D02*
X14625010Y-17469574D01*
X14625010Y-17469574D02*
X14644058Y-17460050D01*
X14644058Y-17460050D02*
X14672629Y-17460050D01*
X14672629Y-17460050D02*
X14691677Y-17469574D01*
X14691677Y-17469574D02*
X14701201Y-17488622D01*
X14701201Y-17488622D02*
X14701201Y-17593384D01*
X14701201Y-17488622D02*
X14710724Y-17469574D01*
X14710724Y-17469574D02*
X14729772Y-17460050D01*
X14729772Y-17460050D02*
X14758343Y-17460050D01*
X14758343Y-17460050D02*
X14777391Y-17469574D01*
X14777391Y-17469574D02*
X14786915Y-17488622D01*
X14786915Y-17488622D02*
X14786915Y-17593384D01*
X15177391Y-17383860D02*
X15005963Y-17641003D01*
X15434534Y-17393384D02*
X15453582Y-17393384D01*
X15453582Y-17393384D02*
X15472629Y-17402908D01*
X15472629Y-17402908D02*
X15482153Y-17412431D01*
X15482153Y-17412431D02*
X15491677Y-17431479D01*
X15491677Y-17431479D02*
X15501201Y-17469574D01*
X15501201Y-17469574D02*
X15501201Y-17517193D01*
X15501201Y-17517193D02*
X15491677Y-17555288D01*
X15491677Y-17555288D02*
X15482153Y-17574336D01*
X15482153Y-17574336D02*
X15472629Y-17583860D01*
X15472629Y-17583860D02*
X15453582Y-17593384D01*
X15453582Y-17593384D02*
X15434534Y-17593384D01*
X15434534Y-17593384D02*
X15415486Y-17583860D01*
X15415486Y-17583860D02*
X15405963Y-17574336D01*
X15405963Y-17574336D02*
X15396439Y-17555288D01*
X15396439Y-17555288D02*
X15386915Y-17517193D01*
X15386915Y-17517193D02*
X15386915Y-17469574D01*
X15386915Y-17469574D02*
X15396439Y-17431479D01*
X15396439Y-17431479D02*
X15405963Y-17412431D01*
X15405963Y-17412431D02*
X15415486Y-17402908D01*
X15415486Y-17402908D02*
X15434534Y-17393384D01*
X15586915Y-17574336D02*
X15596439Y-17583860D01*
X15596439Y-17583860D02*
X15586915Y-17593384D01*
X15586915Y-17593384D02*
X15577391Y-17583860D01*
X15577391Y-17583860D02*
X15586915Y-17574336D01*
X15586915Y-17574336D02*
X15586915Y-17593384D01*
X15720248Y-17393384D02*
X15739296Y-17393384D01*
X15739296Y-17393384D02*
X15758344Y-17402908D01*
X15758344Y-17402908D02*
X15767867Y-17412431D01*
X15767867Y-17412431D02*
X15777391Y-17431479D01*
X15777391Y-17431479D02*
X15786915Y-17469574D01*
X15786915Y-17469574D02*
X15786915Y-17517193D01*
X15786915Y-17517193D02*
X15777391Y-17555288D01*
X15777391Y-17555288D02*
X15767867Y-17574336D01*
X15767867Y-17574336D02*
X15758344Y-17583860D01*
X15758344Y-17583860D02*
X15739296Y-17593384D01*
X15739296Y-17593384D02*
X15720248Y-17593384D01*
X15720248Y-17593384D02*
X15701201Y-17583860D01*
X15701201Y-17583860D02*
X15691677Y-17574336D01*
X15691677Y-17574336D02*
X15682153Y-17555288D01*
X15682153Y-17555288D02*
X15672629Y-17517193D01*
X15672629Y-17517193D02*
X15672629Y-17469574D01*
X15672629Y-17469574D02*
X15682153Y-17431479D01*
X15682153Y-17431479D02*
X15691677Y-17412431D01*
X15691677Y-17412431D02*
X15701201Y-17402908D01*
X15701201Y-17402908D02*
X15720248Y-17393384D01*
X15967867Y-17393384D02*
X15872629Y-17393384D01*
X15872629Y-17393384D02*
X15863106Y-17488622D01*
X15863106Y-17488622D02*
X15872629Y-17479098D01*
X15872629Y-17479098D02*
X15891677Y-17469574D01*
X15891677Y-17469574D02*
X15939296Y-17469574D01*
X15939296Y-17469574D02*
X15958344Y-17479098D01*
X15958344Y-17479098D02*
X15967867Y-17488622D01*
X15967867Y-17488622D02*
X15977391Y-17507669D01*
X15977391Y-17507669D02*
X15977391Y-17555288D01*
X15977391Y-17555288D02*
X15967867Y-17574336D01*
X15967867Y-17574336D02*
X15958344Y-17583860D01*
X15958344Y-17583860D02*
X15939296Y-17593384D01*
X15939296Y-17593384D02*
X15891677Y-17593384D01*
X15891677Y-17593384D02*
X15872629Y-17583860D01*
X15872629Y-17583860D02*
X15863106Y-17574336D01*
X16167867Y-17593384D02*
X16053582Y-17593384D01*
X16110725Y-17593384D02*
X16110725Y-17393384D01*
X16110725Y-17393384D02*
X16091677Y-17421955D01*
X16091677Y-17421955D02*
X16072629Y-17441003D01*
X16072629Y-17441003D02*
X16053582Y-17450527D01*
X16244058Y-17412431D02*
X16253582Y-17402908D01*
X16253582Y-17402908D02*
X16272629Y-17393384D01*
X16272629Y-17393384D02*
X16320248Y-17393384D01*
X16320248Y-17393384D02*
X16339296Y-17402908D01*
X16339296Y-17402908D02*
X16348820Y-17412431D01*
X16348820Y-17412431D02*
X16358344Y-17431479D01*
X16358344Y-17431479D02*
X16358344Y-17450527D01*
X16358344Y-17450527D02*
X16348820Y-17479098D01*
X16348820Y-17479098D02*
X16234534Y-17593384D01*
X16234534Y-17593384D02*
X16358344Y-17593384D01*
X16434534Y-17393384D02*
X16434534Y-17431479D01*
X16510725Y-17393384D02*
X16510725Y-17431479D01*
X16805963Y-17669574D02*
X16796439Y-17660050D01*
X16796439Y-17660050D02*
X16777391Y-17631479D01*
X16777391Y-17631479D02*
X16767868Y-17612431D01*
X16767868Y-17612431D02*
X16758344Y-17583860D01*
X16758344Y-17583860D02*
X16748820Y-17536241D01*
X16748820Y-17536241D02*
X16748820Y-17498146D01*
X16748820Y-17498146D02*
X16758344Y-17450527D01*
X16758344Y-17450527D02*
X16767868Y-17421955D01*
X16767868Y-17421955D02*
X16777391Y-17402908D01*
X16777391Y-17402908D02*
X16796439Y-17374336D01*
X16796439Y-17374336D02*
X16805963Y-17364812D01*
X16967868Y-17393384D02*
X16929772Y-17393384D01*
X16929772Y-17393384D02*
X16910725Y-17402908D01*
X16910725Y-17402908D02*
X16901201Y-17412431D01*
X16901201Y-17412431D02*
X16882153Y-17441003D01*
X16882153Y-17441003D02*
X16872630Y-17479098D01*
X16872630Y-17479098D02*
X16872630Y-17555288D01*
X16872630Y-17555288D02*
X16882153Y-17574336D01*
X16882153Y-17574336D02*
X16891677Y-17583860D01*
X16891677Y-17583860D02*
X16910725Y-17593384D01*
X16910725Y-17593384D02*
X16948820Y-17593384D01*
X16948820Y-17593384D02*
X16967868Y-17583860D01*
X16967868Y-17583860D02*
X16977391Y-17574336D01*
X16977391Y-17574336D02*
X16986915Y-17555288D01*
X16986915Y-17555288D02*
X16986915Y-17507669D01*
X16986915Y-17507669D02*
X16977391Y-17488622D01*
X16977391Y-17488622D02*
X16967868Y-17479098D01*
X16967868Y-17479098D02*
X16948820Y-17469574D01*
X16948820Y-17469574D02*
X16910725Y-17469574D01*
X16910725Y-17469574D02*
X16891677Y-17479098D01*
X16891677Y-17479098D02*
X16882153Y-17488622D01*
X16882153Y-17488622D02*
X16872630Y-17507669D01*
X17225011Y-17593384D02*
X17225011Y-17393384D01*
X17310725Y-17593384D02*
X17310725Y-17488622D01*
X17310725Y-17488622D02*
X17301201Y-17469574D01*
X17301201Y-17469574D02*
X17282153Y-17460050D01*
X17282153Y-17460050D02*
X17253582Y-17460050D01*
X17253582Y-17460050D02*
X17234534Y-17469574D01*
X17234534Y-17469574D02*
X17225011Y-17479098D01*
X17434534Y-17593384D02*
X17415487Y-17583860D01*
X17415487Y-17583860D02*
X17405963Y-17574336D01*
X17405963Y-17574336D02*
X17396439Y-17555288D01*
X17396439Y-17555288D02*
X17396439Y-17498146D01*
X17396439Y-17498146D02*
X17405963Y-17479098D01*
X17405963Y-17479098D02*
X17415487Y-17469574D01*
X17415487Y-17469574D02*
X17434534Y-17460050D01*
X17434534Y-17460050D02*
X17463106Y-17460050D01*
X17463106Y-17460050D02*
X17482153Y-17469574D01*
X17482153Y-17469574D02*
X17491677Y-17479098D01*
X17491677Y-17479098D02*
X17501201Y-17498146D01*
X17501201Y-17498146D02*
X17501201Y-17555288D01*
X17501201Y-17555288D02*
X17491677Y-17574336D01*
X17491677Y-17574336D02*
X17482153Y-17583860D01*
X17482153Y-17583860D02*
X17463106Y-17593384D01*
X17463106Y-17593384D02*
X17434534Y-17593384D01*
X17615487Y-17593384D02*
X17596439Y-17583860D01*
X17596439Y-17583860D02*
X17586915Y-17564812D01*
X17586915Y-17564812D02*
X17586915Y-17393384D01*
X17767868Y-17583860D02*
X17748820Y-17593384D01*
X17748820Y-17593384D02*
X17710725Y-17593384D01*
X17710725Y-17593384D02*
X17691677Y-17583860D01*
X17691677Y-17583860D02*
X17682153Y-17564812D01*
X17682153Y-17564812D02*
X17682153Y-17488622D01*
X17682153Y-17488622D02*
X17691677Y-17469574D01*
X17691677Y-17469574D02*
X17710725Y-17460050D01*
X17710725Y-17460050D02*
X17748820Y-17460050D01*
X17748820Y-17460050D02*
X17767868Y-17469574D01*
X17767868Y-17469574D02*
X17777392Y-17488622D01*
X17777392Y-17488622D02*
X17777392Y-17507669D01*
X17777392Y-17507669D02*
X17682153Y-17526717D01*
X17853582Y-17583860D02*
X17872630Y-17593384D01*
X17872630Y-17593384D02*
X17910725Y-17593384D01*
X17910725Y-17593384D02*
X17929773Y-17583860D01*
X17929773Y-17583860D02*
X17939296Y-17564812D01*
X17939296Y-17564812D02*
X17939296Y-17555288D01*
X17939296Y-17555288D02*
X17929773Y-17536241D01*
X17929773Y-17536241D02*
X17910725Y-17526717D01*
X17910725Y-17526717D02*
X17882153Y-17526717D01*
X17882153Y-17526717D02*
X17863106Y-17517193D01*
X17863106Y-17517193D02*
X17853582Y-17498146D01*
X17853582Y-17498146D02*
X17853582Y-17488622D01*
X17853582Y-17488622D02*
X17863106Y-17469574D01*
X17863106Y-17469574D02*
X17882153Y-17460050D01*
X17882153Y-17460050D02*
X17910725Y-17460050D01*
X17910725Y-17460050D02*
X17929773Y-17469574D01*
X18005963Y-17669574D02*
X18015487Y-17660050D01*
X18015487Y-17660050D02*
X18034534Y-17631479D01*
X18034534Y-17631479D02*
X18044058Y-17612431D01*
X18044058Y-17612431D02*
X18053582Y-17583860D01*
X18053582Y-17583860D02*
X18063106Y-17536241D01*
X18063106Y-17536241D02*
X18063106Y-17498146D01*
X18063106Y-17498146D02*
X18053582Y-17450527D01*
X18053582Y-17450527D02*
X18044058Y-17421955D01*
X18044058Y-17421955D02*
X18034534Y-17402908D01*
X18034534Y-17402908D02*
X18015487Y-17374336D01*
X18015487Y-17374336D02*
X18005963Y-17364812D01*
D16*
X13070900Y-17685900D02*
X13230900Y-17845900D01*
X13230900Y-17685900D02*
X13070900Y-17845900D01*
X13150900Y-17845900D02*
X13230900Y-17765900D01*
X13150900Y-17685900D01*
X13070900Y-17765900D01*
X13150900Y-17845900D01*
D11*
X13596439Y-17857384D02*
X13482153Y-17857384D01*
X13539296Y-17857384D02*
X13539296Y-17657384D01*
X13539296Y-17657384D02*
X13520248Y-17685955D01*
X13520248Y-17685955D02*
X13501201Y-17705003D01*
X13501201Y-17705003D02*
X13482153Y-17714527D01*
X13682153Y-17838336D02*
X13691677Y-17847860D01*
X13691677Y-17847860D02*
X13682153Y-17857384D01*
X13682153Y-17857384D02*
X13672629Y-17847860D01*
X13672629Y-17847860D02*
X13682153Y-17838336D01*
X13682153Y-17838336D02*
X13682153Y-17857384D01*
X13863105Y-17657384D02*
X13825010Y-17657384D01*
X13825010Y-17657384D02*
X13805962Y-17666908D01*
X13805962Y-17666908D02*
X13796439Y-17676431D01*
X13796439Y-17676431D02*
X13777391Y-17705003D01*
X13777391Y-17705003D02*
X13767867Y-17743098D01*
X13767867Y-17743098D02*
X13767867Y-17819288D01*
X13767867Y-17819288D02*
X13777391Y-17838336D01*
X13777391Y-17838336D02*
X13786915Y-17847860D01*
X13786915Y-17847860D02*
X13805962Y-17857384D01*
X13805962Y-17857384D02*
X13844058Y-17857384D01*
X13844058Y-17857384D02*
X13863105Y-17847860D01*
X13863105Y-17847860D02*
X13872629Y-17838336D01*
X13872629Y-17838336D02*
X13882153Y-17819288D01*
X13882153Y-17819288D02*
X13882153Y-17771669D01*
X13882153Y-17771669D02*
X13872629Y-17752622D01*
X13872629Y-17752622D02*
X13863105Y-17743098D01*
X13863105Y-17743098D02*
X13844058Y-17733574D01*
X13844058Y-17733574D02*
X13805962Y-17733574D01*
X13805962Y-17733574D02*
X13786915Y-17743098D01*
X13786915Y-17743098D02*
X13777391Y-17752622D01*
X13777391Y-17752622D02*
X13767867Y-17771669D01*
X14005962Y-17657384D02*
X14025010Y-17657384D01*
X14025010Y-17657384D02*
X14044058Y-17666908D01*
X14044058Y-17666908D02*
X14053582Y-17676431D01*
X14053582Y-17676431D02*
X14063105Y-17695479D01*
X14063105Y-17695479D02*
X14072629Y-17733574D01*
X14072629Y-17733574D02*
X14072629Y-17781193D01*
X14072629Y-17781193D02*
X14063105Y-17819288D01*
X14063105Y-17819288D02*
X14053582Y-17838336D01*
X14053582Y-17838336D02*
X14044058Y-17847860D01*
X14044058Y-17847860D02*
X14025010Y-17857384D01*
X14025010Y-17857384D02*
X14005962Y-17857384D01*
X14005962Y-17857384D02*
X13986915Y-17847860D01*
X13986915Y-17847860D02*
X13977391Y-17838336D01*
X13977391Y-17838336D02*
X13967867Y-17819288D01*
X13967867Y-17819288D02*
X13958343Y-17781193D01*
X13958343Y-17781193D02*
X13958343Y-17733574D01*
X13958343Y-17733574D02*
X13967867Y-17695479D01*
X13967867Y-17695479D02*
X13977391Y-17676431D01*
X13977391Y-17676431D02*
X13986915Y-17666908D01*
X13986915Y-17666908D02*
X14005962Y-17657384D01*
X14196439Y-17657384D02*
X14215486Y-17657384D01*
X14215486Y-17657384D02*
X14234534Y-17666908D01*
X14234534Y-17666908D02*
X14244058Y-17676431D01*
X14244058Y-17676431D02*
X14253582Y-17695479D01*
X14253582Y-17695479D02*
X14263105Y-17733574D01*
X14263105Y-17733574D02*
X14263105Y-17781193D01*
X14263105Y-17781193D02*
X14253582Y-17819288D01*
X14253582Y-17819288D02*
X14244058Y-17838336D01*
X14244058Y-17838336D02*
X14234534Y-17847860D01*
X14234534Y-17847860D02*
X14215486Y-17857384D01*
X14215486Y-17857384D02*
X14196439Y-17857384D01*
X14196439Y-17857384D02*
X14177391Y-17847860D01*
X14177391Y-17847860D02*
X14167867Y-17838336D01*
X14167867Y-17838336D02*
X14158343Y-17819288D01*
X14158343Y-17819288D02*
X14148820Y-17781193D01*
X14148820Y-17781193D02*
X14148820Y-17733574D01*
X14148820Y-17733574D02*
X14158343Y-17695479D01*
X14158343Y-17695479D02*
X14167867Y-17676431D01*
X14167867Y-17676431D02*
X14177391Y-17666908D01*
X14177391Y-17666908D02*
X14196439Y-17657384D01*
X14348820Y-17857384D02*
X14348820Y-17724050D01*
X14348820Y-17743098D02*
X14358343Y-17733574D01*
X14358343Y-17733574D02*
X14377391Y-17724050D01*
X14377391Y-17724050D02*
X14405963Y-17724050D01*
X14405963Y-17724050D02*
X14425010Y-17733574D01*
X14425010Y-17733574D02*
X14434534Y-17752622D01*
X14434534Y-17752622D02*
X14434534Y-17857384D01*
X14434534Y-17752622D02*
X14444058Y-17733574D01*
X14444058Y-17733574D02*
X14463105Y-17724050D01*
X14463105Y-17724050D02*
X14491677Y-17724050D01*
X14491677Y-17724050D02*
X14510724Y-17733574D01*
X14510724Y-17733574D02*
X14520248Y-17752622D01*
X14520248Y-17752622D02*
X14520248Y-17857384D01*
X14615486Y-17857384D02*
X14615486Y-17724050D01*
X14615486Y-17743098D02*
X14625010Y-17733574D01*
X14625010Y-17733574D02*
X14644058Y-17724050D01*
X14644058Y-17724050D02*
X14672629Y-17724050D01*
X14672629Y-17724050D02*
X14691677Y-17733574D01*
X14691677Y-17733574D02*
X14701201Y-17752622D01*
X14701201Y-17752622D02*
X14701201Y-17857384D01*
X14701201Y-17752622D02*
X14710724Y-17733574D01*
X14710724Y-17733574D02*
X14729772Y-17724050D01*
X14729772Y-17724050D02*
X14758343Y-17724050D01*
X14758343Y-17724050D02*
X14777391Y-17733574D01*
X14777391Y-17733574D02*
X14786915Y-17752622D01*
X14786915Y-17752622D02*
X14786915Y-17857384D01*
X15177391Y-17647860D02*
X15005963Y-17905003D01*
X15434534Y-17657384D02*
X15453582Y-17657384D01*
X15453582Y-17657384D02*
X15472629Y-17666908D01*
X15472629Y-17666908D02*
X15482153Y-17676431D01*
X15482153Y-17676431D02*
X15491677Y-17695479D01*
X15491677Y-17695479D02*
X15501201Y-17733574D01*
X15501201Y-17733574D02*
X15501201Y-17781193D01*
X15501201Y-17781193D02*
X15491677Y-17819288D01*
X15491677Y-17819288D02*
X15482153Y-17838336D01*
X15482153Y-17838336D02*
X15472629Y-17847860D01*
X15472629Y-17847860D02*
X15453582Y-17857384D01*
X15453582Y-17857384D02*
X15434534Y-17857384D01*
X15434534Y-17857384D02*
X15415486Y-17847860D01*
X15415486Y-17847860D02*
X15405963Y-17838336D01*
X15405963Y-17838336D02*
X15396439Y-17819288D01*
X15396439Y-17819288D02*
X15386915Y-17781193D01*
X15386915Y-17781193D02*
X15386915Y-17733574D01*
X15386915Y-17733574D02*
X15396439Y-17695479D01*
X15396439Y-17695479D02*
X15405963Y-17676431D01*
X15405963Y-17676431D02*
X15415486Y-17666908D01*
X15415486Y-17666908D02*
X15434534Y-17657384D01*
X15586915Y-17838336D02*
X15596439Y-17847860D01*
X15596439Y-17847860D02*
X15586915Y-17857384D01*
X15586915Y-17857384D02*
X15577391Y-17847860D01*
X15577391Y-17847860D02*
X15586915Y-17838336D01*
X15586915Y-17838336D02*
X15586915Y-17857384D01*
X15720248Y-17657384D02*
X15739296Y-17657384D01*
X15739296Y-17657384D02*
X15758344Y-17666908D01*
X15758344Y-17666908D02*
X15767867Y-17676431D01*
X15767867Y-17676431D02*
X15777391Y-17695479D01*
X15777391Y-17695479D02*
X15786915Y-17733574D01*
X15786915Y-17733574D02*
X15786915Y-17781193D01*
X15786915Y-17781193D02*
X15777391Y-17819288D01*
X15777391Y-17819288D02*
X15767867Y-17838336D01*
X15767867Y-17838336D02*
X15758344Y-17847860D01*
X15758344Y-17847860D02*
X15739296Y-17857384D01*
X15739296Y-17857384D02*
X15720248Y-17857384D01*
X15720248Y-17857384D02*
X15701201Y-17847860D01*
X15701201Y-17847860D02*
X15691677Y-17838336D01*
X15691677Y-17838336D02*
X15682153Y-17819288D01*
X15682153Y-17819288D02*
X15672629Y-17781193D01*
X15672629Y-17781193D02*
X15672629Y-17733574D01*
X15672629Y-17733574D02*
X15682153Y-17695479D01*
X15682153Y-17695479D02*
X15691677Y-17676431D01*
X15691677Y-17676431D02*
X15701201Y-17666908D01*
X15701201Y-17666908D02*
X15720248Y-17657384D01*
X15958344Y-17657384D02*
X15920248Y-17657384D01*
X15920248Y-17657384D02*
X15901201Y-17666908D01*
X15901201Y-17666908D02*
X15891677Y-17676431D01*
X15891677Y-17676431D02*
X15872629Y-17705003D01*
X15872629Y-17705003D02*
X15863106Y-17743098D01*
X15863106Y-17743098D02*
X15863106Y-17819288D01*
X15863106Y-17819288D02*
X15872629Y-17838336D01*
X15872629Y-17838336D02*
X15882153Y-17847860D01*
X15882153Y-17847860D02*
X15901201Y-17857384D01*
X15901201Y-17857384D02*
X15939296Y-17857384D01*
X15939296Y-17857384D02*
X15958344Y-17847860D01*
X15958344Y-17847860D02*
X15967867Y-17838336D01*
X15967867Y-17838336D02*
X15977391Y-17819288D01*
X15977391Y-17819288D02*
X15977391Y-17771669D01*
X15977391Y-17771669D02*
X15967867Y-17752622D01*
X15967867Y-17752622D02*
X15958344Y-17743098D01*
X15958344Y-17743098D02*
X15939296Y-17733574D01*
X15939296Y-17733574D02*
X15901201Y-17733574D01*
X15901201Y-17733574D02*
X15882153Y-17743098D01*
X15882153Y-17743098D02*
X15872629Y-17752622D01*
X15872629Y-17752622D02*
X15863106Y-17771669D01*
X16044058Y-17657384D02*
X16167867Y-17657384D01*
X16167867Y-17657384D02*
X16101201Y-17733574D01*
X16101201Y-17733574D02*
X16129772Y-17733574D01*
X16129772Y-17733574D02*
X16148820Y-17743098D01*
X16148820Y-17743098D02*
X16158344Y-17752622D01*
X16158344Y-17752622D02*
X16167867Y-17771669D01*
X16167867Y-17771669D02*
X16167867Y-17819288D01*
X16167867Y-17819288D02*
X16158344Y-17838336D01*
X16158344Y-17838336D02*
X16148820Y-17847860D01*
X16148820Y-17847860D02*
X16129772Y-17857384D01*
X16129772Y-17857384D02*
X16072629Y-17857384D01*
X16072629Y-17857384D02*
X16053582Y-17847860D01*
X16053582Y-17847860D02*
X16044058Y-17838336D01*
X16291677Y-17657384D02*
X16310725Y-17657384D01*
X16310725Y-17657384D02*
X16329772Y-17666908D01*
X16329772Y-17666908D02*
X16339296Y-17676431D01*
X16339296Y-17676431D02*
X16348820Y-17695479D01*
X16348820Y-17695479D02*
X16358344Y-17733574D01*
X16358344Y-17733574D02*
X16358344Y-17781193D01*
X16358344Y-17781193D02*
X16348820Y-17819288D01*
X16348820Y-17819288D02*
X16339296Y-17838336D01*
X16339296Y-17838336D02*
X16329772Y-17847860D01*
X16329772Y-17847860D02*
X16310725Y-17857384D01*
X16310725Y-17857384D02*
X16291677Y-17857384D01*
X16291677Y-17857384D02*
X16272629Y-17847860D01*
X16272629Y-17847860D02*
X16263106Y-17838336D01*
X16263106Y-17838336D02*
X16253582Y-17819288D01*
X16253582Y-17819288D02*
X16244058Y-17781193D01*
X16244058Y-17781193D02*
X16244058Y-17733574D01*
X16244058Y-17733574D02*
X16253582Y-17695479D01*
X16253582Y-17695479D02*
X16263106Y-17676431D01*
X16263106Y-17676431D02*
X16272629Y-17666908D01*
X16272629Y-17666908D02*
X16291677Y-17657384D01*
X16434534Y-17657384D02*
X16434534Y-17695479D01*
X16510725Y-17657384D02*
X16510725Y-17695479D01*
X16805963Y-17933574D02*
X16796439Y-17924050D01*
X16796439Y-17924050D02*
X16777391Y-17895479D01*
X16777391Y-17895479D02*
X16767868Y-17876431D01*
X16767868Y-17876431D02*
X16758344Y-17847860D01*
X16758344Y-17847860D02*
X16748820Y-17800241D01*
X16748820Y-17800241D02*
X16748820Y-17762146D01*
X16748820Y-17762146D02*
X16758344Y-17714527D01*
X16758344Y-17714527D02*
X16767868Y-17685955D01*
X16767868Y-17685955D02*
X16777391Y-17666908D01*
X16777391Y-17666908D02*
X16796439Y-17638336D01*
X16796439Y-17638336D02*
X16805963Y-17628812D01*
X16986915Y-17857384D02*
X16872630Y-17857384D01*
X16929772Y-17857384D02*
X16929772Y-17657384D01*
X16929772Y-17657384D02*
X16910725Y-17685955D01*
X16910725Y-17685955D02*
X16891677Y-17705003D01*
X16891677Y-17705003D02*
X16872630Y-17714527D01*
X17063106Y-17676431D02*
X17072630Y-17666908D01*
X17072630Y-17666908D02*
X17091677Y-17657384D01*
X17091677Y-17657384D02*
X17139296Y-17657384D01*
X17139296Y-17657384D02*
X17158344Y-17666908D01*
X17158344Y-17666908D02*
X17167868Y-17676431D01*
X17167868Y-17676431D02*
X17177391Y-17695479D01*
X17177391Y-17695479D02*
X17177391Y-17714527D01*
X17177391Y-17714527D02*
X17167868Y-17743098D01*
X17167868Y-17743098D02*
X17053582Y-17857384D01*
X17053582Y-17857384D02*
X17177391Y-17857384D01*
X17415487Y-17857384D02*
X17415487Y-17657384D01*
X17501201Y-17857384D02*
X17501201Y-17752622D01*
X17501201Y-17752622D02*
X17491677Y-17733574D01*
X17491677Y-17733574D02*
X17472630Y-17724050D01*
X17472630Y-17724050D02*
X17444058Y-17724050D01*
X17444058Y-17724050D02*
X17425011Y-17733574D01*
X17425011Y-17733574D02*
X17415487Y-17743098D01*
X17625011Y-17857384D02*
X17605963Y-17847860D01*
X17605963Y-17847860D02*
X17596439Y-17838336D01*
X17596439Y-17838336D02*
X17586915Y-17819288D01*
X17586915Y-17819288D02*
X17586915Y-17762146D01*
X17586915Y-17762146D02*
X17596439Y-17743098D01*
X17596439Y-17743098D02*
X17605963Y-17733574D01*
X17605963Y-17733574D02*
X17625011Y-17724050D01*
X17625011Y-17724050D02*
X17653582Y-17724050D01*
X17653582Y-17724050D02*
X17672630Y-17733574D01*
X17672630Y-17733574D02*
X17682153Y-17743098D01*
X17682153Y-17743098D02*
X17691677Y-17762146D01*
X17691677Y-17762146D02*
X17691677Y-17819288D01*
X17691677Y-17819288D02*
X17682153Y-17838336D01*
X17682153Y-17838336D02*
X17672630Y-17847860D01*
X17672630Y-17847860D02*
X17653582Y-17857384D01*
X17653582Y-17857384D02*
X17625011Y-17857384D01*
X17805963Y-17857384D02*
X17786915Y-17847860D01*
X17786915Y-17847860D02*
X17777392Y-17828812D01*
X17777392Y-17828812D02*
X17777392Y-17657384D01*
X17958344Y-17847860D02*
X17939296Y-17857384D01*
X17939296Y-17857384D02*
X17901201Y-17857384D01*
X17901201Y-17857384D02*
X17882153Y-17847860D01*
X17882153Y-17847860D02*
X17872630Y-17828812D01*
X17872630Y-17828812D02*
X17872630Y-17752622D01*
X17872630Y-17752622D02*
X17882153Y-17733574D01*
X17882153Y-17733574D02*
X17901201Y-17724050D01*
X17901201Y-17724050D02*
X17939296Y-17724050D01*
X17939296Y-17724050D02*
X17958344Y-17733574D01*
X17958344Y-17733574D02*
X17967868Y-17752622D01*
X17967868Y-17752622D02*
X17967868Y-17771669D01*
X17967868Y-17771669D02*
X17872630Y-17790717D01*
X18044058Y-17847860D02*
X18063106Y-17857384D01*
X18063106Y-17857384D02*
X18101201Y-17857384D01*
X18101201Y-17857384D02*
X18120249Y-17847860D01*
X18120249Y-17847860D02*
X18129773Y-17828812D01*
X18129773Y-17828812D02*
X18129773Y-17819288D01*
X18129773Y-17819288D02*
X18120249Y-17800241D01*
X18120249Y-17800241D02*
X18101201Y-17790717D01*
X18101201Y-17790717D02*
X18072630Y-17790717D01*
X18072630Y-17790717D02*
X18053582Y-17781193D01*
X18053582Y-17781193D02*
X18044058Y-17762146D01*
X18044058Y-17762146D02*
X18044058Y-17752622D01*
X18044058Y-17752622D02*
X18053582Y-17733574D01*
X18053582Y-17733574D02*
X18072630Y-17724050D01*
X18072630Y-17724050D02*
X18101201Y-17724050D01*
X18101201Y-17724050D02*
X18120249Y-17733574D01*
X18196439Y-17933574D02*
X18205963Y-17924050D01*
X18205963Y-17924050D02*
X18225011Y-17895479D01*
X18225011Y-17895479D02*
X18234534Y-17876431D01*
X18234534Y-17876431D02*
X18244058Y-17847860D01*
X18244058Y-17847860D02*
X18253582Y-17800241D01*
X18253582Y-17800241D02*
X18253582Y-17762146D01*
X18253582Y-17762146D02*
X18244058Y-17714527D01*
X18244058Y-17714527D02*
X18234534Y-17685955D01*
X18234534Y-17685955D02*
X18225011Y-17666908D01*
X18225011Y-17666908D02*
X18205963Y-17638336D01*
X18205963Y-17638336D02*
X18196439Y-17628812D01*
X13130900Y-17945900D02*
X13130900Y-18145900D01*
X13030900Y-18045900D02*
X13230900Y-18045900D01*
X13230900Y-18045900D02*
G75*
G02*
X13030900Y-18045900I-100000J0D01*
G01*
X13030900Y-18045900D02*
G75*
G02*
X13230900Y-18045900I100000J0D01*
G01*
X13472629Y-17937384D02*
X13596439Y-17937384D01*
X13596439Y-17937384D02*
X13529772Y-18013574D01*
X13529772Y-18013574D02*
X13558343Y-18013574D01*
X13558343Y-18013574D02*
X13577391Y-18023098D01*
X13577391Y-18023098D02*
X13586915Y-18032622D01*
X13586915Y-18032622D02*
X13596439Y-18051669D01*
X13596439Y-18051669D02*
X13596439Y-18099288D01*
X13596439Y-18099288D02*
X13586915Y-18118336D01*
X13586915Y-18118336D02*
X13577391Y-18127860D01*
X13577391Y-18127860D02*
X13558343Y-18137384D01*
X13558343Y-18137384D02*
X13501201Y-18137384D01*
X13501201Y-18137384D02*
X13482153Y-18127860D01*
X13482153Y-18127860D02*
X13472629Y-18118336D01*
X13682153Y-18118336D02*
X13691677Y-18127860D01*
X13691677Y-18127860D02*
X13682153Y-18137384D01*
X13682153Y-18137384D02*
X13672629Y-18127860D01*
X13672629Y-18127860D02*
X13682153Y-18118336D01*
X13682153Y-18118336D02*
X13682153Y-18137384D01*
X13767867Y-17956431D02*
X13777391Y-17946908D01*
X13777391Y-17946908D02*
X13796439Y-17937384D01*
X13796439Y-17937384D02*
X13844058Y-17937384D01*
X13844058Y-17937384D02*
X13863105Y-17946908D01*
X13863105Y-17946908D02*
X13872629Y-17956431D01*
X13872629Y-17956431D02*
X13882153Y-17975479D01*
X13882153Y-17975479D02*
X13882153Y-17994527D01*
X13882153Y-17994527D02*
X13872629Y-18023098D01*
X13872629Y-18023098D02*
X13758343Y-18137384D01*
X13758343Y-18137384D02*
X13882153Y-18137384D01*
X14005962Y-17937384D02*
X14025010Y-17937384D01*
X14025010Y-17937384D02*
X14044058Y-17946908D01*
X14044058Y-17946908D02*
X14053582Y-17956431D01*
X14053582Y-17956431D02*
X14063105Y-17975479D01*
X14063105Y-17975479D02*
X14072629Y-18013574D01*
X14072629Y-18013574D02*
X14072629Y-18061193D01*
X14072629Y-18061193D02*
X14063105Y-18099288D01*
X14063105Y-18099288D02*
X14053582Y-18118336D01*
X14053582Y-18118336D02*
X14044058Y-18127860D01*
X14044058Y-18127860D02*
X14025010Y-18137384D01*
X14025010Y-18137384D02*
X14005962Y-18137384D01*
X14005962Y-18137384D02*
X13986915Y-18127860D01*
X13986915Y-18127860D02*
X13977391Y-18118336D01*
X13977391Y-18118336D02*
X13967867Y-18099288D01*
X13967867Y-18099288D02*
X13958343Y-18061193D01*
X13958343Y-18061193D02*
X13958343Y-18013574D01*
X13958343Y-18013574D02*
X13967867Y-17975479D01*
X13967867Y-17975479D02*
X13977391Y-17956431D01*
X13977391Y-17956431D02*
X13986915Y-17946908D01*
X13986915Y-17946908D02*
X14005962Y-17937384D01*
X14196439Y-17937384D02*
X14215486Y-17937384D01*
X14215486Y-17937384D02*
X14234534Y-17946908D01*
X14234534Y-17946908D02*
X14244058Y-17956431D01*
X14244058Y-17956431D02*
X14253582Y-17975479D01*
X14253582Y-17975479D02*
X14263105Y-18013574D01*
X14263105Y-18013574D02*
X14263105Y-18061193D01*
X14263105Y-18061193D02*
X14253582Y-18099288D01*
X14253582Y-18099288D02*
X14244058Y-18118336D01*
X14244058Y-18118336D02*
X14234534Y-18127860D01*
X14234534Y-18127860D02*
X14215486Y-18137384D01*
X14215486Y-18137384D02*
X14196439Y-18137384D01*
X14196439Y-18137384D02*
X14177391Y-18127860D01*
X14177391Y-18127860D02*
X14167867Y-18118336D01*
X14167867Y-18118336D02*
X14158343Y-18099288D01*
X14158343Y-18099288D02*
X14148820Y-18061193D01*
X14148820Y-18061193D02*
X14148820Y-18013574D01*
X14148820Y-18013574D02*
X14158343Y-17975479D01*
X14158343Y-17975479D02*
X14167867Y-17956431D01*
X14167867Y-17956431D02*
X14177391Y-17946908D01*
X14177391Y-17946908D02*
X14196439Y-17937384D01*
X14348820Y-18137384D02*
X14348820Y-18004050D01*
X14348820Y-18023098D02*
X14358343Y-18013574D01*
X14358343Y-18013574D02*
X14377391Y-18004050D01*
X14377391Y-18004050D02*
X14405963Y-18004050D01*
X14405963Y-18004050D02*
X14425010Y-18013574D01*
X14425010Y-18013574D02*
X14434534Y-18032622D01*
X14434534Y-18032622D02*
X14434534Y-18137384D01*
X14434534Y-18032622D02*
X14444058Y-18013574D01*
X14444058Y-18013574D02*
X14463105Y-18004050D01*
X14463105Y-18004050D02*
X14491677Y-18004050D01*
X14491677Y-18004050D02*
X14510724Y-18013574D01*
X14510724Y-18013574D02*
X14520248Y-18032622D01*
X14520248Y-18032622D02*
X14520248Y-18137384D01*
X14615486Y-18137384D02*
X14615486Y-18004050D01*
X14615486Y-18023098D02*
X14625010Y-18013574D01*
X14625010Y-18013574D02*
X14644058Y-18004050D01*
X14644058Y-18004050D02*
X14672629Y-18004050D01*
X14672629Y-18004050D02*
X14691677Y-18013574D01*
X14691677Y-18013574D02*
X14701201Y-18032622D01*
X14701201Y-18032622D02*
X14701201Y-18137384D01*
X14701201Y-18032622D02*
X14710724Y-18013574D01*
X14710724Y-18013574D02*
X14729772Y-18004050D01*
X14729772Y-18004050D02*
X14758343Y-18004050D01*
X14758343Y-18004050D02*
X14777391Y-18013574D01*
X14777391Y-18013574D02*
X14786915Y-18032622D01*
X14786915Y-18032622D02*
X14786915Y-18137384D01*
X15177391Y-17927860D02*
X15005963Y-18185003D01*
X15434534Y-17937384D02*
X15453582Y-17937384D01*
X15453582Y-17937384D02*
X15472629Y-17946908D01*
X15472629Y-17946908D02*
X15482153Y-17956431D01*
X15482153Y-17956431D02*
X15491677Y-17975479D01*
X15491677Y-17975479D02*
X15501201Y-18013574D01*
X15501201Y-18013574D02*
X15501201Y-18061193D01*
X15501201Y-18061193D02*
X15491677Y-18099288D01*
X15491677Y-18099288D02*
X15482153Y-18118336D01*
X15482153Y-18118336D02*
X15472629Y-18127860D01*
X15472629Y-18127860D02*
X15453582Y-18137384D01*
X15453582Y-18137384D02*
X15434534Y-18137384D01*
X15434534Y-18137384D02*
X15415486Y-18127860D01*
X15415486Y-18127860D02*
X15405963Y-18118336D01*
X15405963Y-18118336D02*
X15396439Y-18099288D01*
X15396439Y-18099288D02*
X15386915Y-18061193D01*
X15386915Y-18061193D02*
X15386915Y-18013574D01*
X15386915Y-18013574D02*
X15396439Y-17975479D01*
X15396439Y-17975479D02*
X15405963Y-17956431D01*
X15405963Y-17956431D02*
X15415486Y-17946908D01*
X15415486Y-17946908D02*
X15434534Y-17937384D01*
X15586915Y-18118336D02*
X15596439Y-18127860D01*
X15596439Y-18127860D02*
X15586915Y-18137384D01*
X15586915Y-18137384D02*
X15577391Y-18127860D01*
X15577391Y-18127860D02*
X15586915Y-18118336D01*
X15586915Y-18118336D02*
X15586915Y-18137384D01*
X15786915Y-18137384D02*
X15672629Y-18137384D01*
X15729772Y-18137384D02*
X15729772Y-17937384D01*
X15729772Y-17937384D02*
X15710725Y-17965955D01*
X15710725Y-17965955D02*
X15691677Y-17985003D01*
X15691677Y-17985003D02*
X15672629Y-17994527D01*
X15863106Y-17956431D02*
X15872629Y-17946908D01*
X15872629Y-17946908D02*
X15891677Y-17937384D01*
X15891677Y-17937384D02*
X15939296Y-17937384D01*
X15939296Y-17937384D02*
X15958344Y-17946908D01*
X15958344Y-17946908D02*
X15967867Y-17956431D01*
X15967867Y-17956431D02*
X15977391Y-17975479D01*
X15977391Y-17975479D02*
X15977391Y-17994527D01*
X15977391Y-17994527D02*
X15967867Y-18023098D01*
X15967867Y-18023098D02*
X15853582Y-18137384D01*
X15853582Y-18137384D02*
X15977391Y-18137384D01*
X16148820Y-17937384D02*
X16110725Y-17937384D01*
X16110725Y-17937384D02*
X16091677Y-17946908D01*
X16091677Y-17946908D02*
X16082153Y-17956431D01*
X16082153Y-17956431D02*
X16063106Y-17985003D01*
X16063106Y-17985003D02*
X16053582Y-18023098D01*
X16053582Y-18023098D02*
X16053582Y-18099288D01*
X16053582Y-18099288D02*
X16063106Y-18118336D01*
X16063106Y-18118336D02*
X16072629Y-18127860D01*
X16072629Y-18127860D02*
X16091677Y-18137384D01*
X16091677Y-18137384D02*
X16129772Y-18137384D01*
X16129772Y-18137384D02*
X16148820Y-18127860D01*
X16148820Y-18127860D02*
X16158344Y-18118336D01*
X16158344Y-18118336D02*
X16167867Y-18099288D01*
X16167867Y-18099288D02*
X16167867Y-18051669D01*
X16167867Y-18051669D02*
X16158344Y-18032622D01*
X16158344Y-18032622D02*
X16148820Y-18023098D01*
X16148820Y-18023098D02*
X16129772Y-18013574D01*
X16129772Y-18013574D02*
X16091677Y-18013574D01*
X16091677Y-18013574D02*
X16072629Y-18023098D01*
X16072629Y-18023098D02*
X16063106Y-18032622D01*
X16063106Y-18032622D02*
X16053582Y-18051669D01*
X16291677Y-17937384D02*
X16310725Y-17937384D01*
X16310725Y-17937384D02*
X16329772Y-17946908D01*
X16329772Y-17946908D02*
X16339296Y-17956431D01*
X16339296Y-17956431D02*
X16348820Y-17975479D01*
X16348820Y-17975479D02*
X16358344Y-18013574D01*
X16358344Y-18013574D02*
X16358344Y-18061193D01*
X16358344Y-18061193D02*
X16348820Y-18099288D01*
X16348820Y-18099288D02*
X16339296Y-18118336D01*
X16339296Y-18118336D02*
X16329772Y-18127860D01*
X16329772Y-18127860D02*
X16310725Y-18137384D01*
X16310725Y-18137384D02*
X16291677Y-18137384D01*
X16291677Y-18137384D02*
X16272629Y-18127860D01*
X16272629Y-18127860D02*
X16263106Y-18118336D01*
X16263106Y-18118336D02*
X16253582Y-18099288D01*
X16253582Y-18099288D02*
X16244058Y-18061193D01*
X16244058Y-18061193D02*
X16244058Y-18013574D01*
X16244058Y-18013574D02*
X16253582Y-17975479D01*
X16253582Y-17975479D02*
X16263106Y-17956431D01*
X16263106Y-17956431D02*
X16272629Y-17946908D01*
X16272629Y-17946908D02*
X16291677Y-17937384D01*
X16434534Y-17937384D02*
X16434534Y-17975479D01*
X16510725Y-17937384D02*
X16510725Y-17975479D01*
X16805963Y-18213574D02*
X16796439Y-18204050D01*
X16796439Y-18204050D02*
X16777391Y-18175479D01*
X16777391Y-18175479D02*
X16767868Y-18156431D01*
X16767868Y-18156431D02*
X16758344Y-18127860D01*
X16758344Y-18127860D02*
X16748820Y-18080241D01*
X16748820Y-18080241D02*
X16748820Y-18042146D01*
X16748820Y-18042146D02*
X16758344Y-17994527D01*
X16758344Y-17994527D02*
X16767868Y-17965955D01*
X16767868Y-17965955D02*
X16777391Y-17946908D01*
X16777391Y-17946908D02*
X16796439Y-17918336D01*
X16796439Y-17918336D02*
X16805963Y-17908812D01*
X16967868Y-18004050D02*
X16967868Y-18137384D01*
X16920249Y-17927860D02*
X16872630Y-18070717D01*
X16872630Y-18070717D02*
X16996439Y-18070717D01*
X17225011Y-18137384D02*
X17225011Y-17937384D01*
X17310725Y-18137384D02*
X17310725Y-18032622D01*
X17310725Y-18032622D02*
X17301201Y-18013574D01*
X17301201Y-18013574D02*
X17282153Y-18004050D01*
X17282153Y-18004050D02*
X17253582Y-18004050D01*
X17253582Y-18004050D02*
X17234534Y-18013574D01*
X17234534Y-18013574D02*
X17225011Y-18023098D01*
X17434534Y-18137384D02*
X17415487Y-18127860D01*
X17415487Y-18127860D02*
X17405963Y-18118336D01*
X17405963Y-18118336D02*
X17396439Y-18099288D01*
X17396439Y-18099288D02*
X17396439Y-18042146D01*
X17396439Y-18042146D02*
X17405963Y-18023098D01*
X17405963Y-18023098D02*
X17415487Y-18013574D01*
X17415487Y-18013574D02*
X17434534Y-18004050D01*
X17434534Y-18004050D02*
X17463106Y-18004050D01*
X17463106Y-18004050D02*
X17482153Y-18013574D01*
X17482153Y-18013574D02*
X17491677Y-18023098D01*
X17491677Y-18023098D02*
X17501201Y-18042146D01*
X17501201Y-18042146D02*
X17501201Y-18099288D01*
X17501201Y-18099288D02*
X17491677Y-18118336D01*
X17491677Y-18118336D02*
X17482153Y-18127860D01*
X17482153Y-18127860D02*
X17463106Y-18137384D01*
X17463106Y-18137384D02*
X17434534Y-18137384D01*
X17615487Y-18137384D02*
X17596439Y-18127860D01*
X17596439Y-18127860D02*
X17586915Y-18108812D01*
X17586915Y-18108812D02*
X17586915Y-17937384D01*
X17767868Y-18127860D02*
X17748820Y-18137384D01*
X17748820Y-18137384D02*
X17710725Y-18137384D01*
X17710725Y-18137384D02*
X17691677Y-18127860D01*
X17691677Y-18127860D02*
X17682153Y-18108812D01*
X17682153Y-18108812D02*
X17682153Y-18032622D01*
X17682153Y-18032622D02*
X17691677Y-18013574D01*
X17691677Y-18013574D02*
X17710725Y-18004050D01*
X17710725Y-18004050D02*
X17748820Y-18004050D01*
X17748820Y-18004050D02*
X17767868Y-18013574D01*
X17767868Y-18013574D02*
X17777392Y-18032622D01*
X17777392Y-18032622D02*
X17777392Y-18051669D01*
X17777392Y-18051669D02*
X17682153Y-18070717D01*
X17853582Y-18127860D02*
X17872630Y-18137384D01*
X17872630Y-18137384D02*
X17910725Y-18137384D01*
X17910725Y-18137384D02*
X17929773Y-18127860D01*
X17929773Y-18127860D02*
X17939296Y-18108812D01*
X17939296Y-18108812D02*
X17939296Y-18099288D01*
X17939296Y-18099288D02*
X17929773Y-18080241D01*
X17929773Y-18080241D02*
X17910725Y-18070717D01*
X17910725Y-18070717D02*
X17882153Y-18070717D01*
X17882153Y-18070717D02*
X17863106Y-18061193D01*
X17863106Y-18061193D02*
X17853582Y-18042146D01*
X17853582Y-18042146D02*
X17853582Y-18032622D01*
X17853582Y-18032622D02*
X17863106Y-18013574D01*
X17863106Y-18013574D02*
X17882153Y-18004050D01*
X17882153Y-18004050D02*
X17910725Y-18004050D01*
X17910725Y-18004050D02*
X17929773Y-18013574D01*
X18005963Y-18213574D02*
X18015487Y-18204050D01*
X18015487Y-18204050D02*
X18034534Y-18175479D01*
X18034534Y-18175479D02*
X18044058Y-18156431D01*
X18044058Y-18156431D02*
X18053582Y-18127860D01*
X18053582Y-18127860D02*
X18063106Y-18080241D01*
X18063106Y-18080241D02*
X18063106Y-18042146D01*
X18063106Y-18042146D02*
X18053582Y-17994527D01*
X18053582Y-17994527D02*
X18044058Y-17965955D01*
X18044058Y-17965955D02*
X18034534Y-17946908D01*
X18034534Y-17946908D02*
X18015487Y-17918336D01*
X18015487Y-17918336D02*
X18005963Y-17908812D01*
M02*
