G04 #@! TF.GenerationSoftware,KiCad,Pcbnew,10.0.1*
G04 #@! TF.CreationDate,2026-05-24T07:37:45+08:00*
G04 #@! TF.ProjectId,ESPrinkler Retic PCB,45535072-696e-46b6-9c65-722052657469,rev?*
G04 #@! TF.SameCoordinates,Original*
G04 #@! TF.FileFunction,Soldermask,Top*
G04 #@! TF.FilePolarity,Negative*
%FSLAX46Y46*%
G04 Gerber Fmt 4.6, Leading zero omitted, Abs format (unit mm)*
G04 Created by KiCad (PCBNEW 10.0.1) date 2026-05-24 07:37:45*
%MOMM*%
%LPD*%
G01*
G04 APERTURE LIST*
G04 Aperture macros list*
%AMRoundRect*
0 Rectangle with rounded corners*
0 $1 Rounding radius*
0 $2 $3 $4 $5 $6 $7 $8 $9 X,Y pos of 4 corners*
0 Add a 4 corners polygon primitive as box body*
4,1,4,$2,$3,$4,$5,$6,$7,$8,$9,$2,$3,0*
0 Add four circle primitives for the rounded corners*
1,1,$1+$1,$2,$3*
1,1,$1+$1,$4,$5*
1,1,$1+$1,$6,$7*
1,1,$1+$1,$8,$9*
0 Add four rect primitives between the rounded corners*
20,1,$1+$1,$2,$3,$4,$5,0*
20,1,$1+$1,$4,$5,$6,$7,0*
20,1,$1+$1,$6,$7,$8,$9,0*
20,1,$1+$1,$8,$9,$2,$3,0*%
G04 Aperture macros list end*
%ADD10R,1.651000X1.955800*%
%ADD11R,1.524000X1.955800*%
%ADD12RoundRect,0.250000X0.450000X-0.262500X0.450000X0.262500X-0.450000X0.262500X-0.450000X-0.262500X0*%
%ADD13C,1.500000*%
%ADD14RoundRect,0.250000X-0.450000X0.262500X-0.450000X-0.262500X0.450000X-0.262500X0.450000X0.262500X0*%
%ADD15RoundRect,0.249999X-0.525001X0.800001X-0.525001X-0.800001X0.525001X-0.800001X0.525001X0.800001X0*%
%ADD16C,0.800000*%
%ADD17C,6.400000*%
%ADD18RoundRect,0.249999X-0.450001X-1.850001X0.450001X-1.850001X0.450001X1.850001X-0.450001X1.850001X0*%
%ADD19RoundRect,0.250000X0.262500X0.450000X-0.262500X0.450000X-0.262500X-0.450000X0.262500X-0.450000X0*%
%ADD20R,1.700000X1.700000*%
%ADD21C,1.700000*%
%ADD22RoundRect,0.250000X-0.262500X-0.450000X0.262500X-0.450000X0.262500X0.450000X-0.262500X0.450000X0*%
%ADD23RoundRect,0.200000X-0.200000X0.750000X-0.200000X-0.750000X0.200000X-0.750000X0.200000X0.750000X0*%
%ADD24RoundRect,0.250000X1.000000X0.650000X-1.000000X0.650000X-1.000000X-0.650000X1.000000X-0.650000X0*%
%ADD25RoundRect,0.250000X0.550000X-0.550000X0.550000X0.550000X-0.550000X0.550000X-0.550000X-0.550000X0*%
%ADD26C,1.600000*%
%ADD27C,3.200000*%
%ADD28RoundRect,0.218750X-0.218750X-0.256250X0.218750X-0.256250X0.218750X0.256250X-0.218750X0.256250X0*%
%ADD29RoundRect,0.250001X0.949999X0.949999X-0.949999X0.949999X-0.949999X-0.949999X0.949999X-0.949999X0*%
%ADD30C,2.400000*%
%ADD31RoundRect,0.250000X0.650000X-0.325000X0.650000X0.325000X-0.650000X0.325000X-0.650000X-0.325000X0*%
%ADD32RoundRect,0.200000X0.750000X0.200000X-0.750000X0.200000X-0.750000X-0.200000X0.750000X-0.200000X0*%
%ADD33RoundRect,0.250000X-0.475000X0.250000X-0.475000X-0.250000X0.475000X-0.250000X0.475000X0.250000X0*%
%ADD34RoundRect,0.218750X-0.256250X0.218750X-0.256250X-0.218750X0.256250X-0.218750X0.256250X0.218750X0*%
%ADD35RoundRect,0.150000X0.150000X-0.825000X0.150000X0.825000X-0.150000X0.825000X-0.150000X-0.825000X0*%
%ADD36C,1.400000*%
%ADD37RoundRect,0.250000X1.050000X1.050000X-1.050000X1.050000X-1.050000X-1.050000X1.050000X-1.050000X0*%
%ADD38C,2.600000*%
%ADD39C,2.700000*%
%ADD40C,3.000000*%
%ADD41R,1.905000X2.000000*%
%ADD42O,1.905000X2.000000*%
G04 APERTURE END LIST*
D10*
G04 #@! TO.C,U3*
X165163500Y-109689900D03*
D11*
X162560000Y-109689900D03*
D10*
X159956500Y-109689900D03*
X159956500Y-118910100D03*
D11*
X162560000Y-118910100D03*
D10*
X165163500Y-118910100D03*
G04 #@! TD*
D12*
G04 #@! TO.C,R55*
X230632000Y-122832500D03*
X230632000Y-121007500D03*
G04 #@! TD*
D13*
G04 #@! TO.C,TP6*
X160311250Y-84959500D03*
G04 #@! TD*
D10*
G04 #@! TO.C,U8*
X219773500Y-109689900D03*
D11*
X217170000Y-109689900D03*
D10*
X214566500Y-109689900D03*
X214566500Y-118910100D03*
D11*
X217170000Y-118910100D03*
D10*
X219773500Y-118910100D03*
G04 #@! TD*
D14*
G04 #@! TO.C,R69*
X209296000Y-101703500D03*
X209296000Y-103528500D03*
G04 #@! TD*
D13*
G04 #@! TO.C,TP2*
X138176000Y-103886000D03*
G04 #@! TD*
D12*
G04 #@! TO.C,R36*
X159766000Y-105052500D03*
X159766000Y-103227500D03*
G04 #@! TD*
D14*
G04 #@! TO.C,R32*
X187452000Y-105259500D03*
X187452000Y-107084500D03*
G04 #@! TD*
G04 #@! TO.C,R25*
X146812000Y-125071500D03*
X146812000Y-126896500D03*
G04 #@! TD*
G04 #@! TO.C,R57*
X201422000Y-125071500D03*
X201422000Y-126896500D03*
G04 #@! TD*
G04 #@! TO.C,R43*
X187452000Y-101703500D03*
X187452000Y-103528500D03*
G04 #@! TD*
G04 #@! TO.C,R40*
X154686000Y-101703500D03*
X154686000Y-103528500D03*
G04 #@! TD*
D13*
G04 #@! TO.C,TP25*
X240030000Y-99314000D03*
G04 #@! TD*
D15*
G04 #@! TO.C,D1*
X144399000Y-98604000D03*
X141859000Y-98604000D03*
X141859000Y-105104000D03*
X144399000Y-105104000D03*
G04 #@! TD*
D16*
G04 #@! TO.C,H4*
X134252000Y-145796000D03*
X134954944Y-144098944D03*
X134954944Y-147493056D03*
X136652000Y-143396000D03*
D17*
X136652000Y-145796000D03*
D16*
X136652000Y-148196000D03*
X138349056Y-144098944D03*
X138349056Y-147493056D03*
X139052000Y-145796000D03*
G04 #@! TD*
D18*
G04 #@! TO.C,L2*
X154106000Y-79502000D03*
X157806000Y-79502000D03*
G04 #@! TD*
D19*
G04 #@! TO.C,R8*
X188594500Y-82169000D03*
X186769500Y-82169000D03*
G04 #@! TD*
D12*
G04 #@! TO.C,R20*
X154178000Y-122832500D03*
X154178000Y-121007500D03*
G04 #@! TD*
D14*
G04 #@! TO.C,R29*
X168656000Y-125071500D03*
X168656000Y-126896500D03*
G04 #@! TD*
D19*
G04 #@! TO.C,R13*
X183689000Y-124714000D03*
X181864000Y-124714000D03*
G04 #@! TD*
G04 #@! TO.C,R47*
X227377000Y-124714000D03*
X225552000Y-124714000D03*
G04 #@! TD*
D20*
G04 #@! TO.C,J6*
X240030000Y-68072000D03*
D21*
X237490000Y-68072000D03*
X234950000Y-68072000D03*
X232410000Y-68072000D03*
X229870000Y-68072000D03*
X227330000Y-68072000D03*
X224790000Y-68072000D03*
X222250000Y-68072000D03*
X219710000Y-68072000D03*
X217170000Y-68072000D03*
X214630000Y-68072000D03*
X212090000Y-68072000D03*
X209550000Y-68072000D03*
X207010000Y-68072000D03*
X204470000Y-68072000D03*
X201930000Y-68072000D03*
X199390000Y-68072000D03*
X196850000Y-68072000D03*
X194310000Y-68072000D03*
G04 #@! TD*
D13*
G04 #@! TO.C,TP13*
X154686000Y-99314000D03*
G04 #@! TD*
D14*
G04 #@! TO.C,R60*
X220218000Y-105259500D03*
X220218000Y-107084500D03*
G04 #@! TD*
D22*
G04 #@! TO.C,R7*
X183086500Y-82169000D03*
X184911500Y-82169000D03*
G04 #@! TD*
G04 #@! TO.C,R2*
X169648500Y-82169000D03*
X171473500Y-82169000D03*
G04 #@! TD*
D14*
G04 #@! TO.C,R26*
X154686000Y-105259500D03*
X154686000Y-107084500D03*
G04 #@! TD*
D10*
G04 #@! TO.C,U2*
X154241500Y-109689900D03*
D11*
X151638000Y-109689900D03*
D10*
X149034500Y-109689900D03*
X149034500Y-118910100D03*
D11*
X151638000Y-118910100D03*
D10*
X154241500Y-118910100D03*
G04 #@! TD*
D23*
G04 #@! TO.C,Q7*
X196276000Y-103680000D03*
X194376000Y-103680000D03*
X195326000Y-106680000D03*
G04 #@! TD*
D16*
G04 #@! TO.C,H2*
X246012000Y-68707000D03*
X246714944Y-67009944D03*
X246714944Y-70404056D03*
X248412000Y-66307000D03*
D17*
X248412000Y-68707000D03*
D16*
X248412000Y-71107000D03*
X250109056Y-67009944D03*
X250109056Y-70404056D03*
X250812000Y-68707000D03*
G04 #@! TD*
D14*
G04 #@! TO.C,R34*
X198374000Y-105259500D03*
X198374000Y-107084500D03*
G04 #@! TD*
D12*
G04 #@! TO.C,R65*
X203454000Y-105052500D03*
X203454000Y-103227500D03*
G04 #@! TD*
G04 #@! TO.C,R66*
X214376000Y-105052500D03*
X214376000Y-103227500D03*
G04 #@! TD*
D14*
G04 #@! TO.C,R70*
X220218000Y-101703500D03*
X220218000Y-103528500D03*
G04 #@! TD*
G04 #@! TO.C,R33*
X190500000Y-125071500D03*
X190500000Y-126896500D03*
G04 #@! TD*
D10*
G04 #@! TO.C,U5*
X187007500Y-109689900D03*
D11*
X184404000Y-109689900D03*
D10*
X181800500Y-109689900D03*
X181800500Y-118910100D03*
D11*
X184404000Y-118910100D03*
D10*
X187007500Y-118910100D03*
G04 #@! TD*
D12*
G04 #@! TO.C,R21*
X165100000Y-122832500D03*
X165100000Y-121007500D03*
G04 #@! TD*
D19*
G04 #@! TO.C,R12*
X172767000Y-124714000D03*
X170942000Y-124714000D03*
G04 #@! TD*
D23*
G04 #@! TO.C,Q9*
X218120000Y-103656000D03*
X216220000Y-103656000D03*
X217170000Y-106656000D03*
G04 #@! TD*
D24*
G04 #@! TO.C,D2*
X151098000Y-78486000D03*
X147098000Y-78486000D03*
G04 #@! TD*
D25*
G04 #@! TO.C,C4*
X158496000Y-74168000D03*
D26*
X158496000Y-71668000D03*
G04 #@! TD*
D19*
G04 #@! TO.C,R14*
X194611000Y-124714000D03*
X192786000Y-124714000D03*
G04 #@! TD*
D27*
G04 #@! TO.C,J1*
X150622000Y-135841000D03*
X158242000Y-135841000D03*
X165862000Y-135841000D03*
G04 #@! TD*
D12*
G04 #@! TO.C,R1*
X169164000Y-80033500D03*
X169164000Y-78208500D03*
G04 #@! TD*
D23*
G04 #@! TO.C,Q3*
X152588000Y-103656000D03*
X150688000Y-103656000D03*
X151638000Y-106656000D03*
G04 #@! TD*
D13*
G04 #@! TO.C,TP14*
X165608000Y-99314000D03*
G04 #@! TD*
D28*
G04 #@! TO.C,D12*
X195554500Y-145542000D03*
X197129500Y-145542000D03*
G04 #@! TD*
D27*
G04 #@! TO.C,J2*
X173482000Y-135841000D03*
X181102000Y-135841000D03*
X188722000Y-135841000D03*
G04 #@! TD*
D29*
G04 #@! TO.C,C1*
X143510000Y-88900000D03*
D30*
X138510000Y-88900000D03*
G04 #@! TD*
D12*
G04 #@! TO.C,R23*
X186944000Y-122832500D03*
X186944000Y-121007500D03*
G04 #@! TD*
D13*
G04 #@! TO.C,TP22*
X209296000Y-99314000D03*
G04 #@! TD*
D14*
G04 #@! TO.C,R41*
X165608000Y-101703500D03*
X165608000Y-103528500D03*
G04 #@! TD*
G04 #@! TO.C,R62*
X231140000Y-105259500D03*
X231140000Y-107084500D03*
G04 #@! TD*
D12*
G04 #@! TO.C,R4*
X182602000Y-80033500D03*
X182602000Y-78208500D03*
G04 #@! TD*
D14*
G04 #@! TO.C,R31*
X179578000Y-125071500D03*
X179578000Y-126896500D03*
G04 #@! TD*
D28*
G04 #@! TO.C,D19*
X218414500Y-145542000D03*
X219989500Y-145542000D03*
G04 #@! TD*
D19*
G04 #@! TO.C,R3*
X175156500Y-82169000D03*
X173331500Y-82169000D03*
G04 #@! TD*
D23*
G04 #@! TO.C,Q6*
X185378000Y-103656000D03*
X183478000Y-103656000D03*
X184428000Y-106656000D03*
G04 #@! TD*
D10*
G04 #@! TO.C,U9*
X230695500Y-109689900D03*
D11*
X228092000Y-109689900D03*
D10*
X225488500Y-109689900D03*
X225488500Y-118910100D03*
D11*
X228092000Y-118910100D03*
D10*
X230695500Y-118910100D03*
G04 #@! TD*
D28*
G04 #@! TO.C,D21*
X233654500Y-145542000D03*
X235229500Y-145542000D03*
G04 #@! TD*
D12*
G04 #@! TO.C,R67*
X225298000Y-105052500D03*
X225298000Y-103227500D03*
G04 #@! TD*
D31*
G04 #@! TO.C,C2*
X148082000Y-74881000D03*
X148082000Y-71931000D03*
G04 #@! TD*
D14*
G04 #@! TO.C,R58*
X209296000Y-105259500D03*
X209296000Y-107084500D03*
G04 #@! TD*
D13*
G04 #@! TO.C,TP16*
X187452000Y-99314000D03*
G04 #@! TD*
D28*
G04 #@! TO.C,D18*
X210794500Y-145542000D03*
X212369500Y-145542000D03*
G04 #@! TD*
D13*
G04 #@! TO.C,TP23*
X220218000Y-99314000D03*
G04 #@! TD*
D32*
G04 #@! TO.C,Q1*
X174601000Y-80071000D03*
X174601000Y-78171000D03*
X171601000Y-79121000D03*
G04 #@! TD*
D28*
G04 #@! TO.C,D20*
X226034500Y-145542000D03*
X227609500Y-145542000D03*
G04 #@! TD*
D14*
G04 #@! TO.C,R42*
X176530000Y-101703500D03*
X176530000Y-103528500D03*
G04 #@! TD*
G04 #@! TO.C,R61*
X223266000Y-125071500D03*
X223266000Y-126896500D03*
G04 #@! TD*
D23*
G04 #@! TO.C,Q10*
X229042000Y-103680000D03*
X227142000Y-103680000D03*
X228092000Y-106680000D03*
G04 #@! TD*
D28*
G04 #@! TO.C,D10*
X180314500Y-145542000D03*
X181889500Y-145542000D03*
G04 #@! TD*
D16*
G04 #@! TO.C,H3*
X246012000Y-145796000D03*
X246714944Y-144098944D03*
X246714944Y-147493056D03*
X248412000Y-143396000D03*
D17*
X248412000Y-145796000D03*
D16*
X248412000Y-148196000D03*
X250109056Y-144098944D03*
X250109056Y-147493056D03*
X250812000Y-145796000D03*
G04 #@! TD*
D13*
G04 #@! TO.C,TP3*
X154432000Y-95250000D03*
G04 #@! TD*
D23*
G04 #@! TO.C,Q8*
X207198000Y-103656000D03*
X205298000Y-103656000D03*
X206248000Y-106656000D03*
G04 #@! TD*
D33*
G04 #@! TO.C,C3*
X145796000Y-72964000D03*
X145796000Y-74864000D03*
G04 #@! TD*
D12*
G04 #@! TO.C,R37*
X170688000Y-105052500D03*
X170688000Y-103227500D03*
G04 #@! TD*
D10*
G04 #@! TO.C,U6*
X197929500Y-109689900D03*
D11*
X195326000Y-109689900D03*
D10*
X192722500Y-109689900D03*
X192722500Y-118910100D03*
D11*
X195326000Y-118910100D03*
D10*
X197929500Y-118910100D03*
G04 #@! TD*
D19*
G04 #@! TO.C,R46*
X216455000Y-124714000D03*
X214630000Y-124714000D03*
G04 #@! TD*
D13*
G04 #@! TO.C,TP4*
X151638000Y-95250000D03*
G04 #@! TD*
D10*
G04 #@! TO.C,U4*
X176085500Y-109689900D03*
D11*
X173482000Y-109689900D03*
D10*
X170878500Y-109689900D03*
X170878500Y-118910100D03*
D11*
X173482000Y-118910100D03*
D10*
X176085500Y-118910100D03*
G04 #@! TD*
D12*
G04 #@! TO.C,R53*
X208788000Y-122832500D03*
X208788000Y-121007500D03*
G04 #@! TD*
D23*
G04 #@! TO.C,Q5*
X174432000Y-103656000D03*
X172532000Y-103656000D03*
X173482000Y-106656000D03*
G04 #@! TD*
D13*
G04 #@! TO.C,TP1*
X134874000Y-103886000D03*
G04 #@! TD*
D34*
G04 #@! TO.C,D3*
X160274000Y-81254500D03*
X160274000Y-82829500D03*
G04 #@! TD*
D14*
G04 #@! TO.C,R27*
X157734000Y-125071500D03*
X157734000Y-126896500D03*
G04 #@! TD*
G04 #@! TO.C,R28*
X165608000Y-105259500D03*
X165608000Y-107084500D03*
G04 #@! TD*
D28*
G04 #@! TO.C,D11*
X187934500Y-145542000D03*
X189509500Y-145542000D03*
G04 #@! TD*
G04 #@! TO.C,D13*
X203174500Y-145542000D03*
X204749500Y-145542000D03*
G04 #@! TD*
D12*
G04 #@! TO.C,R35*
X148844000Y-105052500D03*
X148844000Y-103227500D03*
G04 #@! TD*
D10*
G04 #@! TO.C,U10*
X241617500Y-109689900D03*
D11*
X239014000Y-109689900D03*
D10*
X236410500Y-109689900D03*
X236410500Y-118910100D03*
D11*
X239014000Y-118910100D03*
D10*
X241617500Y-118910100D03*
G04 #@! TD*
D19*
G04 #@! TO.C,R48*
X238299000Y-124714000D03*
X236474000Y-124714000D03*
G04 #@! TD*
D12*
G04 #@! TO.C,R38*
X181610000Y-105052500D03*
X181610000Y-103227500D03*
G04 #@! TD*
D13*
G04 #@! TO.C,TP15*
X176530000Y-99314000D03*
G04 #@! TD*
D35*
G04 #@! TO.C,U1*
X150241000Y-75373000D03*
X151511000Y-75373000D03*
X152781000Y-75373000D03*
X154051000Y-75373000D03*
X154051000Y-70423000D03*
X152781000Y-70423000D03*
X151511000Y-70423000D03*
X150241000Y-70423000D03*
G04 #@! TD*
D36*
G04 #@! TO.C,F2*
X136652000Y-109601000D03*
X141752000Y-111401000D03*
G04 #@! TD*
D12*
G04 #@! TO.C,R56*
X241554000Y-122832500D03*
X241554000Y-121007500D03*
G04 #@! TD*
D14*
G04 #@! TO.C,R63*
X234188000Y-125071500D03*
X234188000Y-126896500D03*
G04 #@! TD*
D12*
G04 #@! TO.C,R59*
X212344000Y-126896500D03*
X212344000Y-125071500D03*
G04 #@! TD*
D27*
G04 #@! TO.C,J3*
X196342000Y-135841000D03*
X203962000Y-135841000D03*
X211582000Y-135841000D03*
G04 #@! TD*
D20*
G04 #@! TO.C,J7*
X240030000Y-93472000D03*
D21*
X237490000Y-93472000D03*
X234950000Y-93472000D03*
X232410000Y-93472000D03*
X229870000Y-93472000D03*
X227330000Y-93472000D03*
X224790000Y-93472000D03*
X222250000Y-93472000D03*
X219710000Y-93472000D03*
X217170000Y-93472000D03*
X214630000Y-93472000D03*
X212090000Y-93472000D03*
X209550000Y-93472000D03*
X207010000Y-93472000D03*
X204470000Y-93472000D03*
X201930000Y-93472000D03*
X199390000Y-93472000D03*
X196850000Y-93472000D03*
X194310000Y-93472000D03*
G04 #@! TD*
D16*
G04 #@! TO.C,H1*
X134252000Y-68707000D03*
X134954944Y-67009944D03*
X134954944Y-70404056D03*
X136652000Y-66307000D03*
D17*
X136652000Y-68707000D03*
D16*
X136652000Y-71107000D03*
X138349056Y-67009944D03*
X138349056Y-70404056D03*
X139052000Y-68707000D03*
G04 #@! TD*
D24*
G04 #@! TO.C,D22*
X143464000Y-78489000D03*
X139464000Y-78489000D03*
G04 #@! TD*
D12*
G04 #@! TO.C,R22*
X176022000Y-122832500D03*
X176022000Y-121007500D03*
G04 #@! TD*
D13*
G04 #@! TO.C,TP17*
X198374000Y-99314000D03*
G04 #@! TD*
D27*
G04 #@! TO.C,J4*
X219202000Y-135841000D03*
X226822000Y-135841000D03*
X234442000Y-135841000D03*
G04 #@! TD*
D13*
G04 #@! TO.C,TP7*
X188595000Y-85725000D03*
G04 #@! TD*
D12*
G04 #@! TO.C,R39*
X192532000Y-105052500D03*
X192532000Y-103227500D03*
G04 #@! TD*
G04 #@! TO.C,R54*
X219710000Y-122832500D03*
X219710000Y-121007500D03*
G04 #@! TD*
D14*
G04 #@! TO.C,R71*
X231140000Y-101703500D03*
X231140000Y-103528500D03*
G04 #@! TD*
G04 #@! TO.C,R44*
X198374000Y-101703500D03*
X198374000Y-103528500D03*
G04 #@! TD*
D12*
G04 #@! TO.C,R68*
X236220000Y-105052500D03*
X236220000Y-103227500D03*
G04 #@! TD*
D23*
G04 #@! TO.C,Q4*
X163510000Y-103656000D03*
X161610000Y-103656000D03*
X162560000Y-106656000D03*
G04 #@! TD*
D14*
G04 #@! TO.C,R64*
X242062000Y-105259500D03*
X242062000Y-107084500D03*
G04 #@! TD*
D23*
G04 #@! TO.C,Q11*
X239964000Y-103656000D03*
X238064000Y-103656000D03*
X239014000Y-106656000D03*
G04 #@! TD*
D28*
G04 #@! TO.C,D9*
X172694500Y-145542000D03*
X174269500Y-145542000D03*
G04 #@! TD*
D13*
G04 #@! TO.C,TP24*
X231140000Y-99314000D03*
G04 #@! TD*
G04 #@! TO.C,TP5*
X175133000Y-85725000D03*
G04 #@! TD*
D10*
G04 #@! TO.C,U7*
X208851500Y-109689900D03*
D11*
X206248000Y-109689900D03*
D10*
X203644500Y-109689900D03*
X203644500Y-118910100D03*
D11*
X206248000Y-118910100D03*
D10*
X208851500Y-118910100D03*
G04 #@! TD*
D32*
G04 #@! TO.C,Q2*
X188039000Y-80071000D03*
X188039000Y-78171000D03*
X185039000Y-79121000D03*
G04 #@! TD*
D19*
G04 #@! TO.C,R10*
X150923000Y-124714000D03*
X149098000Y-124714000D03*
G04 #@! TD*
G04 #@! TO.C,R45*
X205533000Y-124714000D03*
X203708000Y-124714000D03*
G04 #@! TD*
D12*
G04 #@! TO.C,R24*
X197866000Y-122832500D03*
X197866000Y-121007500D03*
G04 #@! TD*
D37*
G04 #@! TO.C,J5*
X186182000Y-72644000D03*
D38*
X181182000Y-72644000D03*
X176182000Y-72644000D03*
X171182000Y-72644000D03*
G04 #@! TD*
D39*
G04 #@! TO.C,F1*
X138430000Y-127688000D03*
D40*
X138430000Y-138938000D03*
X138430000Y-116438000D03*
G04 #@! TD*
D14*
G04 #@! TO.C,R30*
X176530000Y-105259500D03*
X176530000Y-107084500D03*
G04 #@! TD*
D12*
G04 #@! TO.C,R9*
X160274000Y-79398500D03*
X160274000Y-77573500D03*
G04 #@! TD*
D19*
G04 #@! TO.C,R11*
X161845000Y-124714000D03*
X160020000Y-124714000D03*
G04 #@! TD*
D14*
G04 #@! TO.C,R72*
X242062000Y-101703500D03*
X242062000Y-103528500D03*
G04 #@! TD*
D41*
G04 #@! TO.C,D8*
X197866000Y-127086000D03*
D42*
X195326000Y-127086000D03*
X192786000Y-127086000D03*
G04 #@! TD*
D41*
G04 #@! TO.C,D17*
X241554000Y-127086000D03*
D42*
X239014000Y-127086000D03*
X236474000Y-127086000D03*
G04 #@! TD*
D41*
G04 #@! TO.C,D6*
X176022000Y-127086000D03*
D42*
X173482000Y-127086000D03*
X170942000Y-127086000D03*
G04 #@! TD*
D41*
G04 #@! TO.C,D15*
X219710000Y-127086000D03*
D42*
X217170000Y-127086000D03*
X214630000Y-127086000D03*
G04 #@! TD*
D41*
G04 #@! TO.C,D7*
X186944000Y-127086000D03*
D42*
X184404000Y-127086000D03*
X181864000Y-127086000D03*
G04 #@! TD*
D41*
G04 #@! TO.C,D4*
X154178000Y-127086000D03*
D42*
X151638000Y-127086000D03*
X149098000Y-127086000D03*
G04 #@! TD*
D41*
G04 #@! TO.C,D14*
X208788000Y-127086000D03*
D42*
X206248000Y-127086000D03*
X203708000Y-127086000D03*
G04 #@! TD*
D41*
G04 #@! TO.C,D5*
X165100000Y-127086000D03*
D42*
X162560000Y-127086000D03*
X160020000Y-127086000D03*
G04 #@! TD*
D41*
G04 #@! TO.C,D16*
X230632000Y-127086000D03*
D42*
X228092000Y-127086000D03*
X225552000Y-127086000D03*
G04 #@! TD*
M02*
