M48
; DRILL file {KiCad 9.0.0} date 2025-06-11T08:24:19+0800
; FORMAT={-:-/ absolute / metric / decimal}
; #@! TF.CreationDate,2025-06-11T08:24:19+08:00
; #@! TF.GenerationSoftware,Kicad,Pcbnew,9.0.0
; #@! TF.FileFunction,Plated,1,2,PTH
FMAT,2
METRIC
; #@! TA.AperFunction,Plated,PTH,ViaDrill
T1C0.300
; #@! TA.AperFunction,Plated,PTH,ComponentDrill
T2C0.300
; #@! TA.AperFunction,Plated,PTH,ComponentDrill
T3C0.800
; #@! TA.AperFunction,Plated,PTH,ComponentDrill
T4C0.850
; #@! TA.AperFunction,Plated,PTH,ComponentDrill
T5C1.000
; #@! TA.AperFunction,Plated,PTH,ComponentDrill
T6C1.100
; #@! TA.AperFunction,Plated,PTH,ComponentDrill
T7C1.200
; #@! TA.AperFunction,Plated,PTH,ComponentDrill
T8C1.300
; #@! TA.AperFunction,Plated,PTH,ComponentDrill
T9C1.700
%
G90
G05
T1
X149.606Y-97.409
X150.876Y-121.92
X151.511Y-89.059
X155.575Y-81.058
X155.575Y-86.011
X158.967Y-100.838
X161.798Y-121.92
X162.941Y-85.376
X168.656Y-106.172
X172.72Y-121.92
X179.832Y-106.172
X183.642Y-121.92
X190.754Y-106.172
X194.564Y-121.92
X201.676Y-106.172
X205.486Y-121.92
X212.344Y-106.172
X215.773Y-74.041
X216.408Y-121.92
X223.266Y-106.172
X225.171Y-73.66
X227.076Y-85.09
X227.076Y-121.92
X234.188Y-106.172
X237.617Y-77.597
X237.617Y-82.423
X237.998Y-121.92
X244.856Y-106.172
X247.65Y-109.093
X250.698Y-97.917
T2
X150.876Y-84.316
X150.876Y-85.416
X150.876Y-86.716
X150.876Y-87.916
X152.076Y-84.316
X152.076Y-85.416
X152.076Y-86.716
X152.076Y-87.916
T3
X158.967Y-81.671
X158.967Y-84.171
T4
X136.652Y-109.601
X141.752Y-111.401
T5
X194.31Y-68.072
X194.31Y-93.472
X196.85Y-68.072
X196.85Y-93.472
X199.39Y-68.072
X199.39Y-93.472
X201.93Y-68.072
X201.93Y-93.472
X204.47Y-68.072
X204.47Y-93.472
X207.01Y-68.072
X207.01Y-93.472
X209.55Y-68.072
X209.55Y-93.472
X212.09Y-68.072
X212.09Y-93.472
X214.63Y-68.072
X214.63Y-93.472
X217.17Y-68.072
X217.17Y-93.472
X219.71Y-68.072
X219.71Y-93.472
X222.25Y-68.072
X222.25Y-93.472
X224.79Y-68.072
X224.79Y-93.472
X227.33Y-68.072
X227.33Y-93.472
X229.87Y-68.072
X229.87Y-93.472
X232.41Y-68.072
X232.41Y-93.472
X234.95Y-68.072
X234.95Y-93.472
X237.49Y-68.072
X237.49Y-93.472
X240.03Y-68.072
X240.03Y-93.472
T6
X149.098Y-127.086
X151.638Y-127.086
X154.178Y-127.086
X160.02Y-127.086
X162.56Y-127.086
X165.1Y-127.086
X170.942Y-127.086
X173.482Y-127.086
X176.022Y-127.086
X181.864Y-127.086
X184.404Y-127.086
X186.944Y-127.086
X192.786Y-127.086
X195.326Y-127.086
X197.866Y-127.086
X203.708Y-127.086
X206.248Y-127.086
X208.788Y-127.086
X214.63Y-127.086
X217.17Y-127.086
X219.71Y-127.086
X225.552Y-127.086
X228.092Y-127.086
X230.632Y-127.086
X236.474Y-127.086
X239.014Y-127.086
X241.554Y-127.086
T7
X140.716Y-78.627
X140.716Y-83.627
T8
X138.43Y-116.438
X138.43Y-138.938
X171.252Y-72.641
X176.252Y-72.641
X181.252Y-72.641
X186.252Y-72.641
T9
X150.622Y-136.652
X158.242Y-136.652
X165.862Y-136.652
X173.482Y-136.652
X181.102Y-136.652
X188.722Y-136.652
X196.342Y-136.652
X203.962Y-136.652
X211.582Y-136.652
X219.202Y-136.652
X226.822Y-136.652
X234.442Y-136.652
M30
