%TF.GenerationSoftware,KiCad,Pcbnew,9.0.0*%
%TF.CreationDate,2025-06-10T08:07:50+08:00*%
%TF.ProjectId,ESPrinkler Retic PCB,45535072-696e-46b6-9c65-722052657469,rev?*%
%TF.SameCoordinates,Original*%
%TF.FileFunction,Copper,L2,Bot*%
%TF.FilePolarity,Positive*%
%FSLAX46Y46*%
G04 Gerber Fmt 4.6, Leading zero omitted, Abs format (unit mm)*
G04 Created by KiCad (PCBNEW 9.0.0) date 2025-06-10 08:07:50*
%MOMM*%
%LPD*%
G01*
G04 APERTURE LIST*
G04 Aperture macros list*
%AMRoundRect*
0 Rectangle with rounded corners*
0 $1 Rounding radius*
0 $2 $3 $4 $5 $6 $7 $8 $9 X,Y pos of 4 corners*
0 Add a 4 corners polygon primitive as box body*
4,1,4,$2,$3,$4,$5,$6,$7,$8,$9,$2,$3,0*
0 Add four circle primitives for the rounded corners*
1,1,$1+$1,$2,$3*
1,1,$1+$1,$4,$5*
1,1,$1+$1,$6,$7*
1,1,$1+$1,$8,$9*
0 Add four rect primitives between the rounded corners*
20,1,$1+$1,$2,$3,$4,$5,0*
20,1,$1+$1,$4,$5,$6,$7,0*
20,1,$1+$1,$6,$7,$8,$9,0*
20,1,$1+$1,$8,$9,$2,$3,0*%
G04 Aperture macros list end*
%TA.AperFunction,ComponentPad*%
%ADD10RoundRect,0.250000X1.050000X-1.050000X1.050000X1.050000X-1.050000X1.050000X-1.050000X-1.050000X0*%
%TD*%
%TA.AperFunction,ComponentPad*%
%ADD11C,2.600000*%
%TD*%
%TA.AperFunction,ComponentPad*%
%ADD12RoundRect,0.250000X0.550000X-0.550000X0.550000X0.550000X-0.550000X0.550000X-0.550000X-0.550000X0*%
%TD*%
%TA.AperFunction,ComponentPad*%
%ADD13C,1.600000*%
%TD*%
%TA.AperFunction,ComponentPad*%
%ADD14RoundRect,0.250001X0.949999X-0.949999X0.949999X0.949999X-0.949999X0.949999X-0.949999X-0.949999X0*%
%TD*%
%TA.AperFunction,ComponentPad*%
%ADD15C,2.400000*%
%TD*%
%TA.AperFunction,ComponentPad*%
%ADD16C,0.600000*%
%TD*%
%TA.AperFunction,SMDPad,CuDef*%
%ADD17R,2.950000X4.500000*%
%TD*%
%TA.AperFunction,ComponentPad*%
%ADD18C,3.500000*%
%TD*%
%TA.AperFunction,ComponentPad*%
%ADD19C,1.400000*%
%TD*%
%TA.AperFunction,ComponentPad*%
%ADD20R,1.700000X1.700000*%
%TD*%
%TA.AperFunction,ComponentPad*%
%ADD21C,1.700000*%
%TD*%
%TA.AperFunction,ComponentPad*%
%ADD22C,3.000000*%
%TD*%
%TA.AperFunction,ComponentPad*%
%ADD23R,1.905000X2.000000*%
%TD*%
%TA.AperFunction,ComponentPad*%
%ADD24O,1.905000X2.000000*%
%TD*%
%TA.AperFunction,SMDPad,CuDef*%
%ADD25RoundRect,0.952500X4.127500X2.222500X-4.127500X2.222500X-4.127500X-2.222500X4.127500X-2.222500X0*%
%TD*%
%TA.AperFunction,ViaPad*%
%ADD26C,0.600000*%
%TD*%
%TA.AperFunction,Conductor*%
%ADD27C,0.500000*%
%TD*%
%TA.AperFunction,Conductor*%
%ADD28C,1.000000*%
%TD*%
G04 APERTURE END LIST*
D10*
%TO.P,J6,1,Pin_1*%
%TO.N,+5V*%
X244223500Y-89923000D03*
D11*
%TO.P,J6,2,Pin_2*%
%TO.N,Net-(J6-Pin_2)*%
X244223500Y-84923000D03*
%TO.P,J6,3,Pin_3*%
%TO.N,+5V*%
X244223500Y-79923000D03*
%TO.P,J6,4,Pin_4*%
%TO.N,Net-(J6-Pin_4)*%
X244223500Y-74923000D03*
%TD*%
D12*
%TO.P,C4,1*%
%TO.N,+5V*%
X158966750Y-79313000D03*
D13*
%TO.P,C4,2*%
%TO.N,GND*%
X158966750Y-76813000D03*
%TD*%
D14*
%TO.P,C1,1*%
%TO.N,VCC*%
X140716000Y-78769216D03*
D15*
%TO.P,C1,2*%
%TO.N,GND*%
X140716000Y-73769216D03*
%TD*%
D16*
%TO.P,U1,9,GNDPAD*%
%TO.N,GND*%
X152076000Y-83058000D03*
X152076000Y-81858000D03*
X152076000Y-80558000D03*
X152076000Y-79458000D03*
D17*
X151476000Y-81258000D03*
D16*
X150876000Y-83058000D03*
X150876000Y-81858000D03*
X150876000Y-80558000D03*
X150876000Y-79458000D03*
%TD*%
D18*
%TO.P,J1,1,Pin_1*%
%TO.N,Net-(J1-Pin_1)*%
X150622000Y-136652000D03*
%TO.P,J1,2,Pin_2*%
%TO.N,NEUT*%
X158242000Y-136652000D03*
%TO.P,J1,3,Pin_3*%
X165862000Y-136652000D03*
%TO.P,J1,4,Pin_4*%
%TO.N,/Power & IO/To Pump*%
X173482000Y-136652000D03*
%TO.P,J1,5,Pin_5*%
%TO.N,/Power & IO/To Zone 1*%
X181102000Y-136652000D03*
%TO.P,J1,6,Pin_6*%
%TO.N,/Power & IO/To Zone 2*%
X188722000Y-136652000D03*
%TO.P,J1,7,Pin_7*%
%TO.N,/Power & IO/To Zone 3*%
X196342000Y-136652000D03*
%TO.P,J1,8,Pin_8*%
%TO.N,/Power & IO/To Zone 4*%
X203962000Y-136652000D03*
%TO.P,J1,9,Pin_9*%
%TO.N,/Power & IO/To Zone 5*%
X211582000Y-136652000D03*
%TO.P,J1,10,Pin_10*%
%TO.N,/Power & IO/To Zone 6*%
X219202000Y-136652000D03*
%TO.P,J1,11,Pin_11*%
%TO.N,/Power & IO/To Zone 7*%
X226822000Y-136652000D03*
%TO.P,J1,12,Pin_12*%
%TO.N,/Power & IO/To Zone 8*%
X234442000Y-136652000D03*
%TD*%
D19*
%TO.P,F2,1*%
%TO.N,LIVE*%
X136652000Y-109601000D03*
%TO.P,F2,2*%
%TO.N,NEUT*%
X141752000Y-111401000D03*
%TD*%
D20*
%TO.P,J4,1,Pin_1*%
%TO.N,unconnected-(J4-Pin_1-Pad1)*%
X227456999Y-64897001D03*
D21*
%TO.P,J4,2,Pin_2*%
%TO.N,unconnected-(J4-Pin_2-Pad2)*%
X224916999Y-64897001D03*
%TO.P,J4,3,Pin_3*%
%TO.N,unconnected-(J4-Pin_3-Pad3)*%
X222376999Y-64897001D03*
%TO.P,J4,4,Pin_4*%
%TO.N,unconnected-(J4-Pin_4-Pad4)*%
X219836999Y-64897001D03*
%TO.P,J4,5,Pin_5*%
%TO.N,unconnected-(J4-Pin_5-Pad5)*%
X217296999Y-64897001D03*
%TO.P,J4,6,Pin_6*%
%TO.N,unconnected-(J4-Pin_6-Pad6)*%
X214756999Y-64897001D03*
%TO.P,J4,7,Pin_7*%
%TO.N,unconnected-(J4-Pin_7-Pad7)*%
X212216999Y-64897001D03*
%TO.P,J4,8,Pin_8*%
%TO.N,unconnected-(J4-Pin_8-Pad8)*%
X209676999Y-64897001D03*
%TO.P,J4,9,Pin_9*%
%TO.N,unconnected-(J4-Pin_9-Pad9)*%
X207136999Y-64897001D03*
%TO.P,J4,10,Pin_10*%
%TO.N,unconnected-(J4-Pin_10-Pad10)*%
X204596999Y-64897001D03*
%TO.P,J4,11,Pin_11*%
%TO.N,/ESP32/Status LED*%
X202056999Y-64897001D03*
%TO.P,J4,12,Pin_12*%
%TO.N,/ESP32/WIFI LED*%
X199516999Y-64897001D03*
%TO.P,J4,13,Pin_13*%
%TO.N,unconnected-(J4-Pin_13-Pad13)*%
X196976999Y-64897001D03*
%TO.P,J4,14,Pin_14*%
%TO.N,GND*%
X194436999Y-64897001D03*
%TO.P,J4,15,Pin_15*%
%TO.N,unconnected-(J4-Pin_15-Pad15)*%
X191896999Y-64897001D03*
%TO.P,J4,16,Pin_16*%
%TO.N,unconnected-(J4-Pin_16-Pad16)*%
X189356999Y-64897001D03*
%TO.P,J4,17,Pin_17*%
%TO.N,unconnected-(J4-Pin_17-Pad17)*%
X186816999Y-64897001D03*
%TO.P,J4,18,Pin_18*%
%TO.N,unconnected-(J4-Pin_18-Pad18)*%
X184276999Y-64897001D03*
%TO.P,J4,19,Pin_19*%
%TO.N,+5V*%
X181736999Y-64897001D03*
%TD*%
D20*
%TO.P,J5,1,Pin_1*%
%TO.N,GND*%
X227456999Y-90297001D03*
D21*
%TO.P,J5,2,Pin_2*%
%TO.N,/ESP32/Zone 8*%
X224916999Y-90297001D03*
%TO.P,J5,3,Pin_3*%
%TO.N,/ESP32/Zone 7*%
X222376999Y-90297001D03*
%TO.P,J5,4,Pin_4*%
%TO.N,/ESP32/Zone 6*%
X219836999Y-90297001D03*
%TO.P,J5,5,Pin_5*%
%TO.N,/ESP32/Zone 5*%
X217296999Y-90297001D03*
%TO.P,J5,6,Pin_6*%
%TO.N,/ESP32/Zone 4*%
X214756999Y-90297001D03*
%TO.P,J5,7,Pin_7*%
%TO.N,GND*%
X212216999Y-90297001D03*
%TO.P,J5,8,Pin_8*%
%TO.N,/ESP32/Zone 3*%
X209676999Y-90297001D03*
%TO.P,J5,9,Pin_9*%
%TO.N,/ESP32/Zone 2*%
X207136999Y-90297001D03*
%TO.P,J5,10,Pin_10*%
%TO.N,/ESP32/Zone 1*%
X204596999Y-90297001D03*
%TO.P,J5,11,Pin_11*%
%TO.N,/ESP32/Pump*%
X202056999Y-90297001D03*
%TO.P,J5,12,Pin_12*%
%TO.N,unconnected-(J5-Pin_12-Pad12)*%
X199516999Y-90297001D03*
%TO.P,J5,13,Pin_13*%
%TO.N,unconnected-(J5-Pin_13-Pad13)*%
X196976999Y-90297001D03*
%TO.P,J5,14,Pin_14*%
%TO.N,unconnected-(J5-Pin_14-Pad14)*%
X194436999Y-90297001D03*
%TO.P,J5,15,Pin_15*%
%TO.N,unconnected-(J5-Pin_15-Pad15)*%
X191896999Y-90297001D03*
%TO.P,J5,16,Pin_16*%
%TO.N,unconnected-(J5-Pin_16-Pad16)*%
X189356999Y-90297001D03*
%TO.P,J5,17,Pin_17*%
%TO.N,unconnected-(J5-Pin_17-Pad17)*%
X186816999Y-90297001D03*
%TO.P,J5,18,Pin_18*%
%TO.N,unconnected-(J5-Pin_18-Pad18)*%
X184276999Y-90297001D03*
%TO.P,J5,19,Pin_19*%
%TO.N,unconnected-(J5-Pin_19-Pad19)*%
X181736999Y-90297001D03*
%TD*%
D22*
%TO.P,F1,1*%
%TO.N,Net-(J1-Pin_1)*%
X138430000Y-138938000D03*
%TO.P,F1,2*%
%TO.N,LIVE*%
X138430000Y-116438000D03*
%TD*%
D23*
%TO.P,D8,1,A1*%
%TO.N,/Power & IO/To Zone 4*%
X197866000Y-127086000D03*
D24*
%TO.P,D8,2,A2*%
%TO.N,LIVE*%
X195326000Y-127086000D03*
%TO.P,D8,3,G*%
%TO.N,Net-(D8-G)*%
X192786000Y-127086000D03*
D25*
%TO.P,D8,4*%
%TO.N,N/C*%
X195326000Y-110830000D03*
%TD*%
D23*
%TO.P,D17,1,A1*%
%TO.N,/Power & IO/To Zone 8*%
X241554000Y-127086000D03*
D24*
%TO.P,D17,2,A2*%
%TO.N,LIVE*%
X239014000Y-127086000D03*
%TO.P,D17,3,G*%
%TO.N,Net-(D17-G)*%
X236474000Y-127086000D03*
D25*
%TO.P,D17,4*%
%TO.N,N/C*%
X239014000Y-110830000D03*
%TD*%
D23*
%TO.P,D6,1,A1*%
%TO.N,/Power & IO/To Zone 2*%
X176022000Y-127086000D03*
D24*
%TO.P,D6,2,A2*%
%TO.N,LIVE*%
X173482000Y-127086000D03*
%TO.P,D6,3,G*%
%TO.N,Net-(D6-G)*%
X170942000Y-127086000D03*
D25*
%TO.P,D6,4*%
%TO.N,N/C*%
X173482000Y-110830000D03*
%TD*%
D23*
%TO.P,D15,1,A1*%
%TO.N,/Power & IO/To Zone 6*%
X219710000Y-127086000D03*
D24*
%TO.P,D15,2,A2*%
%TO.N,LIVE*%
X217170000Y-127086000D03*
%TO.P,D15,3,G*%
%TO.N,Net-(D15-G)*%
X214630000Y-127086000D03*
D25*
%TO.P,D15,4*%
%TO.N,N/C*%
X217170000Y-110830000D03*
%TD*%
D23*
%TO.P,D7,1,A1*%
%TO.N,/Power & IO/To Zone 3*%
X186944000Y-127086000D03*
D24*
%TO.P,D7,2,A2*%
%TO.N,LIVE*%
X184404000Y-127086000D03*
%TO.P,D7,3,G*%
%TO.N,Net-(D7-G)*%
X181864000Y-127086000D03*
D25*
%TO.P,D7,4*%
%TO.N,N/C*%
X184404000Y-110830000D03*
%TD*%
D23*
%TO.P,D4,1,A1*%
%TO.N,/Power & IO/To Pump*%
X154178000Y-127086000D03*
D24*
%TO.P,D4,2,A2*%
%TO.N,LIVE*%
X151638000Y-127086000D03*
%TO.P,D4,3,G*%
%TO.N,Net-(D4-G)*%
X149098000Y-127086000D03*
D25*
%TO.P,D4,4*%
%TO.N,N/C*%
X151638000Y-110830000D03*
%TD*%
D23*
%TO.P,D14,1,A1*%
%TO.N,/Power & IO/To Zone 5*%
X208788000Y-127086000D03*
D24*
%TO.P,D14,2,A2*%
%TO.N,LIVE*%
X206248000Y-127086000D03*
%TO.P,D14,3,G*%
%TO.N,Net-(D14-G)*%
X203708000Y-127086000D03*
D25*
%TO.P,D14,4*%
%TO.N,N/C*%
X206248000Y-110830000D03*
%TD*%
D23*
%TO.P,D5,1,A1*%
%TO.N,/Power & IO/To Zone 1*%
X165100000Y-127086000D03*
D24*
%TO.P,D5,2,A2*%
%TO.N,LIVE*%
X162560000Y-127086000D03*
%TO.P,D5,3,G*%
%TO.N,Net-(D5-G)*%
X160020000Y-127086000D03*
D25*
%TO.P,D5,4*%
%TO.N,N/C*%
X162560000Y-110830000D03*
%TD*%
D23*
%TO.P,D16,1,A1*%
%TO.N,/Power & IO/To Zone 7*%
X230632000Y-127086000D03*
D24*
%TO.P,D16,2,A2*%
%TO.N,LIVE*%
X228092000Y-127086000D03*
%TO.P,D16,3,G*%
%TO.N,Net-(D16-G)*%
X225552000Y-127086000D03*
D25*
%TO.P,D16,4*%
%TO.N,N/C*%
X228092000Y-110830000D03*
%TD*%
D26*
%TO.N,GND*%
X149606000Y-97409000D03*
X169926000Y-97409000D03*
X247650000Y-109093000D03*
X237617000Y-82423000D03*
X225171000Y-73660000D03*
X213106000Y-97282000D03*
X250698000Y-97917000D03*
X224028000Y-98044000D03*
X215773000Y-74041000D03*
X242062000Y-96393000D03*
X155575000Y-76200000D03*
X162941000Y-80518000D03*
X181991000Y-76581000D03*
X155575000Y-81153000D03*
X186309000Y-84582000D03*
X160401000Y-97028000D03*
X238252000Y-62357000D03*
X227076000Y-85090000D03*
X202565000Y-97917000D03*
X192659000Y-97663000D03*
X237617000Y-77597000D03*
X181102000Y-98171000D03*
X157226000Y-70104000D03*
X151511000Y-84201000D03*
X247777000Y-70358000D03*
%TO.N,+5V*%
X201676000Y-106172000D03*
X223266000Y-106172000D03*
X244856000Y-106172000D03*
X168656000Y-106172000D03*
X179832000Y-106172000D03*
X190754000Y-106172000D03*
X158966750Y-100838000D03*
X234188000Y-106172000D03*
X212344000Y-106172000D03*
%TO.N,LIVE*%
X150876000Y-121920000D03*
X216408000Y-121920000D03*
X161798000Y-121920000D03*
X183642000Y-121920000D03*
X194564000Y-121920000D03*
X237998000Y-121920000D03*
X227076000Y-121920000D03*
X172720000Y-121920000D03*
X205486000Y-121920000D03*
%TD*%
D27*
%TO.N,+5V*%
X234150500Y-69850000D02*
X244223500Y-79923000D01*
X212344000Y-106172000D02*
X223266000Y-106172000D01*
X183515000Y-69850000D02*
X234150500Y-69850000D01*
X181736999Y-68071999D02*
X183515000Y-69850000D01*
X164146000Y-79313000D02*
X158966750Y-79313000D01*
X181736999Y-64897001D02*
X178561999Y-64897001D01*
X190754000Y-106172000D02*
X201676000Y-106172000D01*
X201676000Y-106172000D02*
X212344000Y-106172000D01*
X168656000Y-106172000D02*
X161036000Y-106172000D01*
X234188000Y-106172000D02*
X244856000Y-106172000D01*
X179832000Y-106172000D02*
X168656000Y-106172000D01*
X190754000Y-106172000D02*
X179832000Y-106172000D01*
X178561999Y-64897001D02*
X164146000Y-79313000D01*
X248285000Y-102743000D02*
X248285000Y-83984500D01*
X158966750Y-104102750D02*
X158966750Y-100838000D01*
X158966750Y-100838000D02*
X158966750Y-79313000D01*
X244856000Y-106172000D02*
X248285000Y-102743000D01*
X161036000Y-106172000D02*
X158966750Y-104102750D01*
X248285000Y-83984500D02*
X244223500Y-79923000D01*
X181736999Y-64897001D02*
X181736999Y-68071999D01*
X223266000Y-106172000D02*
X234188000Y-106172000D01*
D28*
%TO.N,/Power & IO/To Pump*%
X154178000Y-131699000D02*
X154178000Y-127086000D01*
X155829000Y-133350000D02*
X154178000Y-131699000D01*
X170180000Y-133350000D02*
X155829000Y-133350000D01*
X173482000Y-136652000D02*
X170180000Y-133350000D01*
%TO.N,/Power & IO/To Zone 1*%
X176276000Y-131826000D02*
X166751000Y-131826000D01*
X165100000Y-130175000D02*
X165100000Y-127086000D01*
X166751000Y-131826000D02*
X165100000Y-130175000D01*
X181102000Y-136652000D02*
X176276000Y-131826000D01*
%TO.N,/Power & IO/To Zone 2*%
X188722000Y-136652000D02*
X184023000Y-131953000D01*
X176022000Y-129286000D02*
X176022000Y-127086000D01*
X178689000Y-131953000D02*
X176022000Y-129286000D01*
X184023000Y-131953000D02*
X178689000Y-131953000D01*
%TO.N,/Power & IO/To Zone 3*%
X196342000Y-136652000D02*
X193167000Y-133477000D01*
X186944000Y-130556000D02*
X186944000Y-127086000D01*
X189865000Y-133477000D02*
X186944000Y-130556000D01*
X193167000Y-133477000D02*
X189865000Y-133477000D01*
%TO.N,/Power & IO/To Zone 4*%
X203962000Y-136652000D02*
X197866000Y-130556000D01*
X197866000Y-130556000D02*
X197866000Y-127086000D01*
%TO.N,/Power & IO/To Zone 5*%
X211582000Y-136652000D02*
X208788000Y-133858000D01*
X208788000Y-133858000D02*
X208788000Y-127086000D01*
%TO.N,/Power & IO/To Zone 6*%
X219202000Y-133223000D02*
X219202000Y-136652000D01*
X219710000Y-127086000D02*
X219710000Y-132715000D01*
X219710000Y-132715000D02*
X219202000Y-133223000D01*
%TO.N,/Power & IO/To Zone 7*%
X230632000Y-132842000D02*
X230632000Y-127086000D01*
X226822000Y-136652000D02*
X230632000Y-132842000D01*
%TO.N,/Power & IO/To Zone 8*%
X241554000Y-129540000D02*
X241554000Y-127086000D01*
X234442000Y-136652000D02*
X241554000Y-129540000D01*
%TO.N,LIVE*%
X151638000Y-121920000D02*
X150876000Y-121920000D01*
X143912000Y-121920000D02*
X138430000Y-116438000D01*
X205486000Y-121920000D02*
X206248000Y-121920000D01*
X172720000Y-121920000D02*
X173482000Y-121920000D01*
X153162000Y-121920000D02*
X151638000Y-121920000D01*
X237998000Y-121920000D02*
X239014000Y-122936000D01*
X195326000Y-127086000D02*
X195326000Y-121920000D01*
X162560000Y-121920000D02*
X172720000Y-121920000D01*
X151638000Y-127086000D02*
X151638000Y-121920000D01*
X173482000Y-127086000D02*
X173482000Y-121920000D01*
X150876000Y-121920000D02*
X143912000Y-121920000D01*
X153162000Y-121920000D02*
X161798000Y-121920000D01*
X183642000Y-121920000D02*
X184404000Y-121920000D01*
X239014000Y-122936000D02*
X239014000Y-127086000D01*
X195326000Y-121920000D02*
X205486000Y-121920000D01*
X206248000Y-127086000D02*
X206248000Y-121920000D01*
X136652000Y-109601000D02*
X136652000Y-114660000D01*
X173482000Y-121920000D02*
X183642000Y-121920000D01*
X184404000Y-121920000D02*
X194564000Y-121920000D01*
X227076000Y-121920000D02*
X228092000Y-121920000D01*
X194564000Y-121920000D02*
X195326000Y-121920000D01*
X228092000Y-127086000D02*
X228092000Y-121920000D01*
X184404000Y-127086000D02*
X184404000Y-121920000D01*
X228092000Y-121920000D02*
X237998000Y-121920000D01*
X216408000Y-121920000D02*
X217170000Y-121920000D01*
X161798000Y-121920000D02*
X162560000Y-121920000D01*
X206248000Y-121920000D02*
X216408000Y-121920000D01*
X162560000Y-127086000D02*
X162560000Y-121920000D01*
X217170000Y-127086000D02*
X217170000Y-121920000D01*
X136652000Y-114660000D02*
X138430000Y-116438000D01*
X217170000Y-121920000D02*
X227076000Y-121920000D01*
%TO.N,Net-(J1-Pin_1)*%
X140716000Y-136652000D02*
X150622000Y-136652000D01*
X138430000Y-138938000D02*
X140716000Y-136652000D01*
%TD*%
%TA.AperFunction,Conductor*%
%TO.N,GND*%
G36*
X180788456Y-65361853D02*
G01*
X180799078Y-65377749D01*
X180806056Y-65394595D01*
X180806058Y-65394599D01*
X180809454Y-65399681D01*
X180921021Y-65566655D01*
X181067344Y-65712978D01*
X181239399Y-65827941D01*
X181239400Y-65827941D01*
X181239401Y-65827942D01*
X181256249Y-65834920D01*
X181282768Y-65861436D01*
X181286499Y-65880190D01*
X181286499Y-68131309D01*
X181310712Y-68221671D01*
X181310712Y-68221672D01*
X181317199Y-68245885D01*
X181317200Y-68245887D01*
X181376510Y-68348613D01*
X183238386Y-70210489D01*
X183341113Y-70269799D01*
X183365326Y-70276286D01*
X183410508Y-70288393D01*
X183455689Y-70300500D01*
X183455691Y-70300500D01*
X233943601Y-70300500D01*
X233978249Y-70314852D01*
X242867662Y-79204265D01*
X242882014Y-79238913D01*
X242876674Y-79261158D01*
X242832930Y-79347011D01*
X242759947Y-79571631D01*
X242759946Y-79571634D01*
X242727976Y-79773490D01*
X242723000Y-79804908D01*
X242723000Y-80041092D01*
X242728509Y-80075876D01*
X242759946Y-80274365D01*
X242759947Y-80274368D01*
X242832932Y-80498993D01*
X242940153Y-80709427D01*
X242940156Y-80709431D01*
X242940157Y-80709433D01*
X243078983Y-80900510D01*
X243078985Y-80900512D01*
X243078988Y-80900516D01*
X243245983Y-81067511D01*
X243245986Y-81067513D01*
X243245990Y-81067517D01*
X243437067Y-81206343D01*
X243437069Y-81206344D01*
X243437072Y-81206346D01*
X243647506Y-81313567D01*
X243647508Y-81313568D01*
X243872132Y-81386553D01*
X244105408Y-81423500D01*
X244105409Y-81423500D01*
X244341591Y-81423500D01*
X244341592Y-81423500D01*
X244574868Y-81386553D01*
X244799492Y-81313568D01*
X244885341Y-81269824D01*
X244922726Y-81266882D01*
X244942233Y-81278836D01*
X247820148Y-84156751D01*
X247834500Y-84191399D01*
X247834500Y-102536100D01*
X247820148Y-102570748D01*
X244702798Y-105688097D01*
X244686902Y-105698719D01*
X244683934Y-105699948D01*
X244662814Y-105705608D01*
X244643875Y-105716541D01*
X244640911Y-105717770D01*
X244636079Y-105717770D01*
X244622159Y-105721500D01*
X234421841Y-105721500D01*
X234397344Y-105714936D01*
X234381186Y-105705608D01*
X234381183Y-105705607D01*
X234381181Y-105705606D01*
X234253895Y-105671500D01*
X234253892Y-105671500D01*
X234122108Y-105671500D01*
X234122105Y-105671500D01*
X233994818Y-105705606D01*
X233994815Y-105705607D01*
X233994814Y-105705608D01*
X233978655Y-105714936D01*
X233954159Y-105721500D01*
X223499841Y-105721500D01*
X223475344Y-105714936D01*
X223459186Y-105705608D01*
X223459183Y-105705607D01*
X223459181Y-105705606D01*
X223331895Y-105671500D01*
X223331892Y-105671500D01*
X223200108Y-105671500D01*
X223200105Y-105671500D01*
X223072818Y-105705606D01*
X223072815Y-105705607D01*
X223072814Y-105705608D01*
X223056655Y-105714936D01*
X223032159Y-105721500D01*
X212577841Y-105721500D01*
X212553344Y-105714936D01*
X212537186Y-105705608D01*
X212537183Y-105705607D01*
X212537181Y-105705606D01*
X212409895Y-105671500D01*
X212409892Y-105671500D01*
X212278108Y-105671500D01*
X212278105Y-105671500D01*
X212150818Y-105705606D01*
X212150815Y-105705607D01*
X212150814Y-105705608D01*
X212134655Y-105714936D01*
X212110159Y-105721500D01*
X201909841Y-105721500D01*
X201885344Y-105714936D01*
X201869186Y-105705608D01*
X201869183Y-105705607D01*
X201869181Y-105705606D01*
X201741895Y-105671500D01*
X201741892Y-105671500D01*
X201610108Y-105671500D01*
X201610105Y-105671500D01*
X201482818Y-105705606D01*
X201482815Y-105705607D01*
X201482814Y-105705608D01*
X201466655Y-105714936D01*
X201442159Y-105721500D01*
X190987841Y-105721500D01*
X190963344Y-105714936D01*
X190947186Y-105705608D01*
X190947183Y-105705607D01*
X190947181Y-105705606D01*
X190819895Y-105671500D01*
X190819892Y-105671500D01*
X190688108Y-105671500D01*
X190688105Y-105671500D01*
X190560818Y-105705606D01*
X190560815Y-105705607D01*
X190560814Y-105705608D01*
X190544655Y-105714936D01*
X190520159Y-105721500D01*
X180065841Y-105721500D01*
X180041344Y-105714936D01*
X180025186Y-105705608D01*
X180025183Y-105705607D01*
X180025181Y-105705606D01*
X179897895Y-105671500D01*
X179897892Y-105671500D01*
X179766108Y-105671500D01*
X179766105Y-105671500D01*
X179638818Y-105705606D01*
X179638815Y-105705607D01*
X179638814Y-105705608D01*
X179622655Y-105714936D01*
X179598159Y-105721500D01*
X168889841Y-105721500D01*
X168865344Y-105714936D01*
X168849186Y-105705608D01*
X168849183Y-105705607D01*
X168849181Y-105705606D01*
X168721895Y-105671500D01*
X168721892Y-105671500D01*
X168590108Y-105671500D01*
X168590105Y-105671500D01*
X168462818Y-105705606D01*
X168462815Y-105705607D01*
X168462814Y-105705608D01*
X168446655Y-105714936D01*
X168422159Y-105721500D01*
X161242899Y-105721500D01*
X161208251Y-105707148D01*
X159431602Y-103930499D01*
X159417250Y-103895851D01*
X159417250Y-101071841D01*
X159423815Y-101047341D01*
X159433141Y-101031187D01*
X159433142Y-101031186D01*
X159467249Y-100903895D01*
X159467250Y-100903895D01*
X159467250Y-100772105D01*
X159467249Y-100772104D01*
X159433143Y-100644818D01*
X159433142Y-100644814D01*
X159423813Y-100628655D01*
X159417250Y-100604159D01*
X159417250Y-90193536D01*
X180686499Y-90193536D01*
X180686499Y-90400466D01*
X180704307Y-90489994D01*
X180726868Y-90603418D01*
X180726870Y-90603424D01*
X180806057Y-90794597D01*
X180806058Y-90794599D01*
X180921022Y-90966656D01*
X181067344Y-91112978D01*
X181239401Y-91227942D01*
X181430579Y-91307131D01*
X181633534Y-91347501D01*
X181633537Y-91347501D01*
X181840461Y-91347501D01*
X181840464Y-91347501D01*
X182043419Y-91307131D01*
X182234597Y-91227942D01*
X182406654Y-91112978D01*
X182552976Y-90966656D01*
X182667940Y-90794599D01*
X182747129Y-90603421D01*
X182787499Y-90400466D01*
X182787499Y-90193536D01*
X183226499Y-90193536D01*
X183226499Y-90400466D01*
X183244307Y-90489994D01*
X183266868Y-90603418D01*
X183266870Y-90603424D01*
X183346057Y-90794597D01*
X183346058Y-90794599D01*
X183461022Y-90966656D01*
X183607344Y-91112978D01*
X183779401Y-91227942D01*
X183970579Y-91307131D01*
X184173534Y-91347501D01*
X184173537Y-91347501D01*
X184380461Y-91347501D01*
X184380464Y-91347501D01*
X184583419Y-91307131D01*
X184774597Y-91227942D01*
X184946654Y-91112978D01*
X185092976Y-90966656D01*
X185207940Y-90794599D01*
X185287129Y-90603421D01*
X185327499Y-90400466D01*
X185327499Y-90193536D01*
X185766499Y-90193536D01*
X185766499Y-90400466D01*
X185784307Y-90489994D01*
X185806868Y-90603418D01*
X185806870Y-90603424D01*
X185886057Y-90794597D01*
X185886058Y-90794599D01*
X186001022Y-90966656D01*
X186147344Y-91112978D01*
X186319401Y-91227942D01*
X186510579Y-91307131D01*
X186713534Y-91347501D01*
X186713537Y-91347501D01*
X186920461Y-91347501D01*
X186920464Y-91347501D01*
X187123419Y-91307131D01*
X187314597Y-91227942D01*
X187486654Y-91112978D01*
X187632976Y-90966656D01*
X187747940Y-90794599D01*
X187827129Y-90603421D01*
X187867499Y-90400466D01*
X187867499Y-90193536D01*
X188306499Y-90193536D01*
X188306499Y-90400466D01*
X188324307Y-90489994D01*
X188346868Y-90603418D01*
X188346870Y-90603424D01*
X188426057Y-90794597D01*
X188426058Y-90794599D01*
X188541022Y-90966656D01*
X188687344Y-91112978D01*
X188859401Y-91227942D01*
X189050579Y-91307131D01*
X189253534Y-91347501D01*
X189253537Y-91347501D01*
X189460461Y-91347501D01*
X189460464Y-91347501D01*
X189663419Y-91307131D01*
X189854597Y-91227942D01*
X190026654Y-91112978D01*
X190172976Y-90966656D01*
X190287940Y-90794599D01*
X190367129Y-90603421D01*
X190407499Y-90400466D01*
X190407499Y-90193536D01*
X190846499Y-90193536D01*
X190846499Y-90400466D01*
X190864307Y-90489994D01*
X190886868Y-90603418D01*
X190886870Y-90603424D01*
X190966057Y-90794597D01*
X190966058Y-90794599D01*
X191081022Y-90966656D01*
X191227344Y-91112978D01*
X191399401Y-91227942D01*
X191590579Y-91307131D01*
X191793534Y-91347501D01*
X191793537Y-91347501D01*
X192000461Y-91347501D01*
X192000464Y-91347501D01*
X192203419Y-91307131D01*
X192394597Y-91227942D01*
X192566654Y-91112978D01*
X192712976Y-90966656D01*
X192827940Y-90794599D01*
X192907129Y-90603421D01*
X192947499Y-90400466D01*
X192947499Y-90193536D01*
X193386499Y-90193536D01*
X193386499Y-90400466D01*
X193404307Y-90489994D01*
X193426868Y-90603418D01*
X193426870Y-90603424D01*
X193506057Y-90794597D01*
X193506058Y-90794599D01*
X193621022Y-90966656D01*
X193767344Y-91112978D01*
X193939401Y-91227942D01*
X194130579Y-91307131D01*
X194333534Y-91347501D01*
X194333537Y-91347501D01*
X194540461Y-91347501D01*
X194540464Y-91347501D01*
X194743419Y-91307131D01*
X194934597Y-91227942D01*
X195106654Y-91112978D01*
X195252976Y-90966656D01*
X195367940Y-90794599D01*
X195447129Y-90603421D01*
X195487499Y-90400466D01*
X195487499Y-90193536D01*
X195926499Y-90193536D01*
X195926499Y-90400466D01*
X195944307Y-90489994D01*
X195966868Y-90603418D01*
X195966870Y-90603424D01*
X196046057Y-90794597D01*
X196046058Y-90794599D01*
X196161022Y-90966656D01*
X196307344Y-91112978D01*
X196479401Y-91227942D01*
X196670579Y-91307131D01*
X196873534Y-91347501D01*
X196873537Y-91347501D01*
X197080461Y-91347501D01*
X197080464Y-91347501D01*
X197283419Y-91307131D01*
X197474597Y-91227942D01*
X197646654Y-91112978D01*
X197792976Y-90966656D01*
X197907940Y-90794599D01*
X197987129Y-90603421D01*
X198027499Y-90400466D01*
X198027499Y-90193536D01*
X198466499Y-90193536D01*
X198466499Y-90400466D01*
X198484307Y-90489994D01*
X198506868Y-90603418D01*
X198506870Y-90603424D01*
X198586057Y-90794597D01*
X198586058Y-90794599D01*
X198701022Y-90966656D01*
X198847344Y-91112978D01*
X199019401Y-91227942D01*
X199210579Y-91307131D01*
X199413534Y-91347501D01*
X199413537Y-91347501D01*
X199620461Y-91347501D01*
X199620464Y-91347501D01*
X199823419Y-91307131D01*
X200014597Y-91227942D01*
X200186654Y-91112978D01*
X200332976Y-90966656D01*
X200447940Y-90794599D01*
X200527129Y-90603421D01*
X200567499Y-90400466D01*
X200567499Y-90193536D01*
X201006499Y-90193536D01*
X201006499Y-90400466D01*
X201024307Y-90489994D01*
X201046868Y-90603418D01*
X201046870Y-90603424D01*
X201126057Y-90794597D01*
X201126058Y-90794599D01*
X201241022Y-90966656D01*
X201387344Y-91112978D01*
X201559401Y-91227942D01*
X201750579Y-91307131D01*
X201953534Y-91347501D01*
X201953537Y-91347501D01*
X202160461Y-91347501D01*
X202160464Y-91347501D01*
X202363419Y-91307131D01*
X202554597Y-91227942D01*
X202726654Y-91112978D01*
X202872976Y-90966656D01*
X202987940Y-90794599D01*
X203067129Y-90603421D01*
X203107499Y-90400466D01*
X203107499Y-90193536D01*
X203546499Y-90193536D01*
X203546499Y-90400466D01*
X203564307Y-90489994D01*
X203586868Y-90603418D01*
X203586870Y-90603424D01*
X203666057Y-90794597D01*
X203666058Y-90794599D01*
X203781022Y-90966656D01*
X203927344Y-91112978D01*
X204099401Y-91227942D01*
X204290579Y-91307131D01*
X204493534Y-91347501D01*
X204493537Y-91347501D01*
X204700461Y-91347501D01*
X204700464Y-91347501D01*
X204903419Y-91307131D01*
X205094597Y-91227942D01*
X205266654Y-91112978D01*
X205412976Y-90966656D01*
X205527940Y-90794599D01*
X205607129Y-90603421D01*
X205647499Y-90400466D01*
X205647499Y-90193536D01*
X206086499Y-90193536D01*
X206086499Y-90400466D01*
X206104307Y-90489994D01*
X206126868Y-90603418D01*
X206126870Y-90603424D01*
X206206057Y-90794597D01*
X206206058Y-90794599D01*
X206321022Y-90966656D01*
X206467344Y-91112978D01*
X206639401Y-91227942D01*
X206830579Y-91307131D01*
X207033534Y-91347501D01*
X207033537Y-91347501D01*
X207240461Y-91347501D01*
X207240464Y-91347501D01*
X207443419Y-91307131D01*
X207634597Y-91227942D01*
X207806654Y-91112978D01*
X207952976Y-90966656D01*
X208067940Y-90794599D01*
X208147129Y-90603421D01*
X208187499Y-90400466D01*
X208187499Y-90193536D01*
X208626499Y-90193536D01*
X208626499Y-90400466D01*
X208644307Y-90489994D01*
X208666868Y-90603418D01*
X208666870Y-90603424D01*
X208746057Y-90794597D01*
X208746058Y-90794599D01*
X208861022Y-90966656D01*
X209007344Y-91112978D01*
X209179401Y-91227942D01*
X209370579Y-91307131D01*
X209573534Y-91347501D01*
X209573537Y-91347501D01*
X209780461Y-91347501D01*
X209780464Y-91347501D01*
X209983419Y-91307131D01*
X210174597Y-91227942D01*
X210346654Y-91112978D01*
X210492976Y-90966656D01*
X210607940Y-90794599D01*
X210687129Y-90603421D01*
X210727499Y-90400466D01*
X210727499Y-90193588D01*
X211166999Y-90193588D01*
X211166999Y-90400413D01*
X211207348Y-90603272D01*
X211207350Y-90603278D01*
X211286501Y-90794364D01*
X211290053Y-90799680D01*
X211290054Y-90799681D01*
X211719093Y-90370642D01*
X211751074Y-90489994D01*
X211816900Y-90604008D01*
X211909992Y-90697100D01*
X212024006Y-90762926D01*
X212143357Y-90794906D01*
X211714318Y-91223944D01*
X211719641Y-91227501D01*
X211910721Y-91306649D01*
X211910727Y-91306651D01*
X212113586Y-91347001D01*
X212320412Y-91347001D01*
X212523270Y-91306651D01*
X212523276Y-91306649D01*
X212714359Y-91227499D01*
X212719679Y-91223944D01*
X212290640Y-90794906D01*
X212409992Y-90762926D01*
X212524006Y-90697100D01*
X212617098Y-90604008D01*
X212682924Y-90489994D01*
X212714904Y-90370642D01*
X213143942Y-90799681D01*
X213147497Y-90794361D01*
X213226647Y-90603278D01*
X213226649Y-90603272D01*
X213266999Y-90400413D01*
X213266999Y-90193588D01*
X213266989Y-90193536D01*
X213706499Y-90193536D01*
X213706499Y-90400466D01*
X213724307Y-90489994D01*
X213746868Y-90603418D01*
X213746870Y-90603424D01*
X213826057Y-90794597D01*
X213826058Y-90794599D01*
X213941022Y-90966656D01*
X214087344Y-91112978D01*
X214259401Y-91227942D01*
X214450579Y-91307131D01*
X214653534Y-91347501D01*
X214653537Y-91347501D01*
X214860461Y-91347501D01*
X214860464Y-91347501D01*
X215063419Y-91307131D01*
X215254597Y-91227942D01*
X215426654Y-91112978D01*
X215572976Y-90966656D01*
X215687940Y-90794599D01*
X215767129Y-90603421D01*
X215807499Y-90400466D01*
X215807499Y-90193536D01*
X216246499Y-90193536D01*
X216246499Y-90400466D01*
X216264307Y-90489994D01*
X216286868Y-90603418D01*
X216286870Y-90603424D01*
X216366057Y-90794597D01*
X216366058Y-90794599D01*
X216481022Y-90966656D01*
X216627344Y-91112978D01*
X216799401Y-91227942D01*
X216990579Y-91307131D01*
X217193534Y-91347501D01*
X217193537Y-91347501D01*
X217400461Y-91347501D01*
X217400464Y-91347501D01*
X217603419Y-91307131D01*
X217794597Y-91227942D01*
X217966654Y-91112978D01*
X218112976Y-90966656D01*
X218227940Y-90794599D01*
X218307129Y-90603421D01*
X218347499Y-90400466D01*
X218347499Y-90193536D01*
X218786499Y-90193536D01*
X218786499Y-90400466D01*
X218804307Y-90489994D01*
X218826868Y-90603418D01*
X218826870Y-90603424D01*
X218906057Y-90794597D01*
X218906058Y-90794599D01*
X219021022Y-90966656D01*
X219167344Y-91112978D01*
X219339401Y-91227942D01*
X219530579Y-91307131D01*
X219733534Y-91347501D01*
X219733537Y-91347501D01*
X219940461Y-91347501D01*
X219940464Y-91347501D01*
X220143419Y-91307131D01*
X220334597Y-91227942D01*
X220506654Y-91112978D01*
X220652976Y-90966656D01*
X220767940Y-90794599D01*
X220847129Y-90603421D01*
X220887499Y-90400466D01*
X220887499Y-90193536D01*
X221326499Y-90193536D01*
X221326499Y-90400466D01*
X221344307Y-90489994D01*
X221366868Y-90603418D01*
X221366870Y-90603424D01*
X221446057Y-90794597D01*
X221446058Y-90794599D01*
X221561022Y-90966656D01*
X221707344Y-91112978D01*
X221879401Y-91227942D01*
X222070579Y-91307131D01*
X222273534Y-91347501D01*
X222273537Y-91347501D01*
X222480461Y-91347501D01*
X222480464Y-91347501D01*
X222683419Y-91307131D01*
X222874597Y-91227942D01*
X223046654Y-91112978D01*
X223192976Y-90966656D01*
X223307940Y-90794599D01*
X223387129Y-90603421D01*
X223427499Y-90400466D01*
X223427499Y-90193536D01*
X223866499Y-90193536D01*
X223866499Y-90400466D01*
X223884307Y-90489994D01*
X223906868Y-90603418D01*
X223906870Y-90603424D01*
X223986057Y-90794597D01*
X223986058Y-90794599D01*
X224101022Y-90966656D01*
X224247344Y-91112978D01*
X224419401Y-91227942D01*
X224610579Y-91307131D01*
X224813534Y-91347501D01*
X224813537Y-91347501D01*
X225020461Y-91347501D01*
X225020464Y-91347501D01*
X225223419Y-91307131D01*
X225414597Y-91227942D01*
X225586654Y-91112978D01*
X225732976Y-90966656D01*
X225847940Y-90794599D01*
X225927129Y-90603421D01*
X225967499Y-90400466D01*
X225967499Y-90193536D01*
X225927129Y-89990581D01*
X225847940Y-89799403D01*
X225732976Y-89627346D01*
X225586654Y-89481024D01*
X225506259Y-89427306D01*
X226406999Y-89427306D01*
X226406999Y-89997001D01*
X227052855Y-89997001D01*
X226991074Y-90104008D01*
X226956999Y-90231175D01*
X226956999Y-90362827D01*
X226991074Y-90489994D01*
X227052855Y-90597001D01*
X226406999Y-90597001D01*
X226406999Y-91166695D01*
X226418603Y-91225037D01*
X226462806Y-91291193D01*
X226528962Y-91335396D01*
X226587304Y-91347001D01*
X227156999Y-91347001D01*
X227156999Y-90701145D01*
X227264006Y-90762926D01*
X227391173Y-90797001D01*
X227522825Y-90797001D01*
X227649992Y-90762926D01*
X227756999Y-90701145D01*
X227756999Y-91347001D01*
X228326694Y-91347001D01*
X228385035Y-91335396D01*
X228451191Y-91291193D01*
X228495394Y-91225037D01*
X228506999Y-91166695D01*
X228506999Y-90597001D01*
X227861143Y-90597001D01*
X227922924Y-90489994D01*
X227956999Y-90362827D01*
X227956999Y-90231175D01*
X227922924Y-90104008D01*
X227861143Y-89997001D01*
X228506999Y-89997001D01*
X228506999Y-89427306D01*
X228495394Y-89368964D01*
X228451191Y-89302808D01*
X228385035Y-89258605D01*
X228326694Y-89247001D01*
X227756999Y-89247001D01*
X227756999Y-89892856D01*
X227649992Y-89831076D01*
X227522825Y-89797001D01*
X227391173Y-89797001D01*
X227264006Y-89831076D01*
X227156999Y-89892856D01*
X227156999Y-89247001D01*
X226587304Y-89247001D01*
X226528962Y-89258605D01*
X226462806Y-89302808D01*
X226418603Y-89368964D01*
X226406999Y-89427306D01*
X225506259Y-89427306D01*
X225414597Y-89366060D01*
X225414595Y-89366059D01*
X225223422Y-89286872D01*
X225223416Y-89286870D01*
X225141571Y-89270590D01*
X225020464Y-89246501D01*
X224813534Y-89246501D01*
X224712519Y-89266593D01*
X224610581Y-89286870D01*
X224610575Y-89286872D01*
X224419402Y-89366059D01*
X224247344Y-89481023D01*
X224101021Y-89627346D01*
X223986057Y-89799404D01*
X223906870Y-89990577D01*
X223906868Y-89990583D01*
X223886591Y-90092521D01*
X223866499Y-90193536D01*
X223427499Y-90193536D01*
X223387129Y-89990581D01*
X223307940Y-89799403D01*
X223192976Y-89627346D01*
X223046654Y-89481024D01*
X222874597Y-89366060D01*
X222874595Y-89366059D01*
X222683422Y-89286872D01*
X222683416Y-89286870D01*
X222601571Y-89270590D01*
X222480464Y-89246501D01*
X222273534Y-89246501D01*
X222172519Y-89266593D01*
X222070581Y-89286870D01*
X222070575Y-89286872D01*
X221879402Y-89366059D01*
X221707344Y-89481023D01*
X221561021Y-89627346D01*
X221446057Y-89799404D01*
X221366870Y-89990577D01*
X221366868Y-89990583D01*
X221346591Y-90092521D01*
X221326499Y-90193536D01*
X220887499Y-90193536D01*
X220847129Y-89990581D01*
X220767940Y-89799403D01*
X220652976Y-89627346D01*
X220506654Y-89481024D01*
X220334597Y-89366060D01*
X220334595Y-89366059D01*
X220143422Y-89286872D01*
X220143416Y-89286870D01*
X220061571Y-89270590D01*
X219940464Y-89246501D01*
X219733534Y-89246501D01*
X219632519Y-89266593D01*
X219530581Y-89286870D01*
X219530575Y-89286872D01*
X219339402Y-89366059D01*
X219167344Y-89481023D01*
X219021021Y-89627346D01*
X218906057Y-89799404D01*
X218826870Y-89990577D01*
X218826868Y-89990583D01*
X218806591Y-90092521D01*
X218786499Y-90193536D01*
X218347499Y-90193536D01*
X218307129Y-89990581D01*
X218227940Y-89799403D01*
X218112976Y-89627346D01*
X217966654Y-89481024D01*
X217794597Y-89366060D01*
X217794595Y-89366059D01*
X217603422Y-89286872D01*
X217603416Y-89286870D01*
X217521571Y-89270590D01*
X217400464Y-89246501D01*
X217193534Y-89246501D01*
X217092519Y-89266593D01*
X216990581Y-89286870D01*
X216990575Y-89286872D01*
X216799402Y-89366059D01*
X216627344Y-89481023D01*
X216481021Y-89627346D01*
X216366057Y-89799404D01*
X216286870Y-89990577D01*
X216286868Y-89990583D01*
X216266591Y-90092521D01*
X216246499Y-90193536D01*
X215807499Y-90193536D01*
X215767129Y-89990581D01*
X215687940Y-89799403D01*
X215572976Y-89627346D01*
X215426654Y-89481024D01*
X215254597Y-89366060D01*
X215254595Y-89366059D01*
X215063422Y-89286872D01*
X215063416Y-89286870D01*
X214981571Y-89270590D01*
X214860464Y-89246501D01*
X214653534Y-89246501D01*
X214552519Y-89266593D01*
X214450581Y-89286870D01*
X214450575Y-89286872D01*
X214259402Y-89366059D01*
X214087344Y-89481023D01*
X213941021Y-89627346D01*
X213826057Y-89799404D01*
X213746870Y-89990577D01*
X213746868Y-89990583D01*
X213726591Y-90092521D01*
X213706499Y-90193536D01*
X213266989Y-90193536D01*
X213226649Y-89990729D01*
X213226647Y-89990723D01*
X213147499Y-89799643D01*
X213143942Y-89794320D01*
X212714904Y-90223358D01*
X212682924Y-90104008D01*
X212617098Y-89989994D01*
X212524006Y-89896902D01*
X212409992Y-89831076D01*
X212290641Y-89799095D01*
X212719679Y-89370056D01*
X212719678Y-89370055D01*
X212714362Y-89366503D01*
X212523276Y-89287352D01*
X212523270Y-89287350D01*
X212320412Y-89247001D01*
X212113586Y-89247001D01*
X211910727Y-89287350D01*
X211910721Y-89287352D01*
X211719634Y-89366504D01*
X211714318Y-89370055D01*
X211714318Y-89370056D01*
X212143357Y-89799095D01*
X212024006Y-89831076D01*
X211909992Y-89896902D01*
X211816900Y-89989994D01*
X211751074Y-90104008D01*
X211719093Y-90223359D01*
X211290054Y-89794320D01*
X211290053Y-89794320D01*
X211286502Y-89799636D01*
X211207350Y-89990723D01*
X211207348Y-89990729D01*
X211166999Y-90193588D01*
X210727499Y-90193588D01*
X210727499Y-90193536D01*
X210687129Y-89990581D01*
X210607940Y-89799403D01*
X210492976Y-89627346D01*
X210346654Y-89481024D01*
X210174597Y-89366060D01*
X210174595Y-89366059D01*
X209983422Y-89286872D01*
X209983416Y-89286870D01*
X209901571Y-89270590D01*
X209780464Y-89246501D01*
X209573534Y-89246501D01*
X209472519Y-89266593D01*
X209370581Y-89286870D01*
X209370575Y-89286872D01*
X209179402Y-89366059D01*
X209007344Y-89481023D01*
X208861021Y-89627346D01*
X208746057Y-89799404D01*
X208666870Y-89990577D01*
X208666868Y-89990583D01*
X208646591Y-90092521D01*
X208626499Y-90193536D01*
X208187499Y-90193536D01*
X208147129Y-89990581D01*
X208067940Y-89799403D01*
X207952976Y-89627346D01*
X207806654Y-89481024D01*
X207634597Y-89366060D01*
X207634595Y-89366059D01*
X207443422Y-89286872D01*
X207443416Y-89286870D01*
X207361571Y-89270590D01*
X207240464Y-89246501D01*
X207033534Y-89246501D01*
X206932519Y-89266593D01*
X206830581Y-89286870D01*
X206830575Y-89286872D01*
X206639402Y-89366059D01*
X206467344Y-89481023D01*
X206321021Y-89627346D01*
X206206057Y-89799404D01*
X206126870Y-89990577D01*
X206126868Y-89990583D01*
X206106591Y-90092521D01*
X206086499Y-90193536D01*
X205647499Y-90193536D01*
X205607129Y-89990581D01*
X205527940Y-89799403D01*
X205412976Y-89627346D01*
X205266654Y-89481024D01*
X205094597Y-89366060D01*
X205094595Y-89366059D01*
X204903422Y-89286872D01*
X204903416Y-89286870D01*
X204821571Y-89270590D01*
X204700464Y-89246501D01*
X204493534Y-89246501D01*
X204392519Y-89266593D01*
X204290581Y-89286870D01*
X204290575Y-89286872D01*
X204099402Y-89366059D01*
X203927344Y-89481023D01*
X203781021Y-89627346D01*
X203666057Y-89799404D01*
X203586870Y-89990577D01*
X203586868Y-89990583D01*
X203566591Y-90092521D01*
X203546499Y-90193536D01*
X203107499Y-90193536D01*
X203067129Y-89990581D01*
X202987940Y-89799403D01*
X202872976Y-89627346D01*
X202726654Y-89481024D01*
X202554597Y-89366060D01*
X202554595Y-89366059D01*
X202363422Y-89286872D01*
X202363416Y-89286870D01*
X202281571Y-89270590D01*
X202160464Y-89246501D01*
X201953534Y-89246501D01*
X201852519Y-89266593D01*
X201750581Y-89286870D01*
X201750575Y-89286872D01*
X201559402Y-89366059D01*
X201387344Y-89481023D01*
X201241021Y-89627346D01*
X201126057Y-89799404D01*
X201046870Y-89990577D01*
X201046868Y-89990583D01*
X201026591Y-90092521D01*
X201006499Y-90193536D01*
X200567499Y-90193536D01*
X200527129Y-89990581D01*
X200447940Y-89799403D01*
X200332976Y-89627346D01*
X200186654Y-89481024D01*
X200014597Y-89366060D01*
X200014595Y-89366059D01*
X199823422Y-89286872D01*
X199823416Y-89286870D01*
X199741571Y-89270590D01*
X199620464Y-89246501D01*
X199413534Y-89246501D01*
X199312519Y-89266593D01*
X199210581Y-89286870D01*
X199210575Y-89286872D01*
X199019402Y-89366059D01*
X198847344Y-89481023D01*
X198701021Y-89627346D01*
X198586057Y-89799404D01*
X198506870Y-89990577D01*
X198506868Y-89990583D01*
X198486591Y-90092521D01*
X198466499Y-90193536D01*
X198027499Y-90193536D01*
X197987129Y-89990581D01*
X197907940Y-89799403D01*
X197792976Y-89627346D01*
X197646654Y-89481024D01*
X197474597Y-89366060D01*
X197474595Y-89366059D01*
X197283422Y-89286872D01*
X197283416Y-89286870D01*
X197201571Y-89270590D01*
X197080464Y-89246501D01*
X196873534Y-89246501D01*
X196772519Y-89266593D01*
X196670581Y-89286870D01*
X196670575Y-89286872D01*
X196479402Y-89366059D01*
X196307344Y-89481023D01*
X196161021Y-89627346D01*
X196046057Y-89799404D01*
X195966870Y-89990577D01*
X195966868Y-89990583D01*
X195946591Y-90092521D01*
X195926499Y-90193536D01*
X195487499Y-90193536D01*
X195447129Y-89990581D01*
X195367940Y-89799403D01*
X195252976Y-89627346D01*
X195106654Y-89481024D01*
X194934597Y-89366060D01*
X194934595Y-89366059D01*
X194743422Y-89286872D01*
X194743416Y-89286870D01*
X194661571Y-89270590D01*
X194540464Y-89246501D01*
X194333534Y-89246501D01*
X194232519Y-89266593D01*
X194130581Y-89286870D01*
X194130575Y-89286872D01*
X193939402Y-89366059D01*
X193767344Y-89481023D01*
X193621021Y-89627346D01*
X193506057Y-89799404D01*
X193426870Y-89990577D01*
X193426868Y-89990583D01*
X193406591Y-90092521D01*
X193386499Y-90193536D01*
X192947499Y-90193536D01*
X192907129Y-89990581D01*
X192827940Y-89799403D01*
X192712976Y-89627346D01*
X192566654Y-89481024D01*
X192394597Y-89366060D01*
X192394595Y-89366059D01*
X192203422Y-89286872D01*
X192203416Y-89286870D01*
X192121571Y-89270590D01*
X192000464Y-89246501D01*
X191793534Y-89246501D01*
X191692519Y-89266593D01*
X191590581Y-89286870D01*
X191590575Y-89286872D01*
X191399402Y-89366059D01*
X191227344Y-89481023D01*
X191081021Y-89627346D01*
X190966057Y-89799404D01*
X190886870Y-89990577D01*
X190886868Y-89990583D01*
X190866591Y-90092521D01*
X190846499Y-90193536D01*
X190407499Y-90193536D01*
X190367129Y-89990581D01*
X190287940Y-89799403D01*
X190172976Y-89627346D01*
X190026654Y-89481024D01*
X189854597Y-89366060D01*
X189854595Y-89366059D01*
X189663422Y-89286872D01*
X189663416Y-89286870D01*
X189581571Y-89270590D01*
X189460464Y-89246501D01*
X189253534Y-89246501D01*
X189152519Y-89266593D01*
X189050581Y-89286870D01*
X189050575Y-89286872D01*
X188859402Y-89366059D01*
X188687344Y-89481023D01*
X188541021Y-89627346D01*
X188426057Y-89799404D01*
X188346870Y-89990577D01*
X188346868Y-89990583D01*
X188326591Y-90092521D01*
X188306499Y-90193536D01*
X187867499Y-90193536D01*
X187827129Y-89990581D01*
X187747940Y-89799403D01*
X187632976Y-89627346D01*
X187486654Y-89481024D01*
X187314597Y-89366060D01*
X187314595Y-89366059D01*
X187123422Y-89286872D01*
X187123416Y-89286870D01*
X187041571Y-89270590D01*
X186920464Y-89246501D01*
X186713534Y-89246501D01*
X186612519Y-89266593D01*
X186510581Y-89286870D01*
X186510575Y-89286872D01*
X186319402Y-89366059D01*
X186147344Y-89481023D01*
X186001021Y-89627346D01*
X185886057Y-89799404D01*
X185806870Y-89990577D01*
X185806868Y-89990583D01*
X185786591Y-90092521D01*
X185766499Y-90193536D01*
X185327499Y-90193536D01*
X185287129Y-89990581D01*
X185207940Y-89799403D01*
X185092976Y-89627346D01*
X184946654Y-89481024D01*
X184774597Y-89366060D01*
X184774595Y-89366059D01*
X184583422Y-89286872D01*
X184583416Y-89286870D01*
X184501571Y-89270590D01*
X184380464Y-89246501D01*
X184173534Y-89246501D01*
X184072519Y-89266593D01*
X183970581Y-89286870D01*
X183970575Y-89286872D01*
X183779402Y-89366059D01*
X183607344Y-89481023D01*
X183461021Y-89627346D01*
X183346057Y-89799404D01*
X183266870Y-89990577D01*
X183266868Y-89990583D01*
X183246591Y-90092521D01*
X183226499Y-90193536D01*
X182787499Y-90193536D01*
X182747129Y-89990581D01*
X182667940Y-89799403D01*
X182552976Y-89627346D01*
X182406654Y-89481024D01*
X182234597Y-89366060D01*
X182234595Y-89366059D01*
X182043422Y-89286872D01*
X182043416Y-89286870D01*
X181961571Y-89270590D01*
X181840464Y-89246501D01*
X181633534Y-89246501D01*
X181532519Y-89266593D01*
X181430581Y-89286870D01*
X181430575Y-89286872D01*
X181239402Y-89366059D01*
X181067344Y-89481023D01*
X180921021Y-89627346D01*
X180806057Y-89799404D01*
X180726870Y-89990577D01*
X180726868Y-89990583D01*
X180706591Y-90092521D01*
X180686499Y-90193536D01*
X159417250Y-90193536D01*
X159417250Y-88818724D01*
X242723000Y-88818724D01*
X242723000Y-91027275D01*
X242725853Y-91057698D01*
X242725853Y-91057699D01*
X242770704Y-91185876D01*
X242770708Y-91185885D01*
X242851349Y-91295150D01*
X242960614Y-91375791D01*
X242960617Y-91375792D01*
X242960618Y-91375793D01*
X242960620Y-91375793D01*
X242960623Y-91375795D01*
X243088801Y-91420646D01*
X243119234Y-91423500D01*
X243119244Y-91423500D01*
X245327756Y-91423500D01*
X245327766Y-91423500D01*
X245358199Y-91420646D01*
X245486382Y-91375793D01*
X245595650Y-91295150D01*
X245598570Y-91291193D01*
X245676291Y-91185885D01*
X245676291Y-91185884D01*
X245676293Y-91185882D01*
X245721146Y-91057699D01*
X245724000Y-91027266D01*
X245724000Y-88818734D01*
X245721146Y-88788301D01*
X245676293Y-88660118D01*
X245676292Y-88660117D01*
X245676291Y-88660114D01*
X245595650Y-88550849D01*
X245486385Y-88470208D01*
X245486376Y-88470204D01*
X245358198Y-88425353D01*
X245327775Y-88422500D01*
X245327766Y-88422500D01*
X243119234Y-88422500D01*
X243119224Y-88422500D01*
X243088801Y-88425353D01*
X243088800Y-88425353D01*
X242960623Y-88470204D01*
X242960614Y-88470208D01*
X242851349Y-88550849D01*
X242770708Y-88660114D01*
X242770704Y-88660123D01*
X242725853Y-88788300D01*
X242725853Y-88788301D01*
X242723000Y-88818724D01*
X159417250Y-88818724D01*
X159417250Y-84804908D01*
X242723000Y-84804908D01*
X242723000Y-85041091D01*
X242759946Y-85274365D01*
X242759947Y-85274368D01*
X242832932Y-85498993D01*
X242940153Y-85709427D01*
X242940156Y-85709431D01*
X242940157Y-85709433D01*
X243078983Y-85900510D01*
X243078985Y-85900512D01*
X243078988Y-85900516D01*
X243245983Y-86067511D01*
X243245986Y-86067513D01*
X243245990Y-86067517D01*
X243437067Y-86206343D01*
X243437069Y-86206344D01*
X243437072Y-86206346D01*
X243647506Y-86313567D01*
X243647508Y-86313568D01*
X243872132Y-86386553D01*
X244105408Y-86423500D01*
X244105409Y-86423500D01*
X244341591Y-86423500D01*
X244341592Y-86423500D01*
X244574868Y-86386553D01*
X244799492Y-86313568D01*
X245009933Y-86206343D01*
X245201010Y-86067517D01*
X245368017Y-85900510D01*
X245506843Y-85709433D01*
X245614068Y-85498992D01*
X245687053Y-85274368D01*
X245724000Y-85041092D01*
X245724000Y-84804908D01*
X245687053Y-84571632D01*
X245614068Y-84347008D01*
X245614067Y-84347006D01*
X245506846Y-84136572D01*
X245506844Y-84136569D01*
X245506843Y-84136567D01*
X245368017Y-83945490D01*
X245368013Y-83945486D01*
X245368011Y-83945483D01*
X245201016Y-83778488D01*
X245201017Y-83778488D01*
X245088026Y-83696395D01*
X245009933Y-83639657D01*
X245009931Y-83639656D01*
X245009927Y-83639653D01*
X244799493Y-83532432D01*
X244574868Y-83459447D01*
X244574865Y-83459446D01*
X244395667Y-83431064D01*
X244341592Y-83422500D01*
X244105408Y-83422500D01*
X244061509Y-83429452D01*
X243872134Y-83459446D01*
X243872131Y-83459447D01*
X243647506Y-83532432D01*
X243437072Y-83639653D01*
X243245983Y-83778488D01*
X243078988Y-83945483D01*
X242940153Y-84136572D01*
X242832932Y-84347006D01*
X242759947Y-84571631D01*
X242759946Y-84571634D01*
X242723000Y-84804908D01*
X159417250Y-84804908D01*
X159417250Y-80362500D01*
X159431602Y-80327852D01*
X159466250Y-80313500D01*
X159571006Y-80313500D01*
X159571016Y-80313500D01*
X159601449Y-80310646D01*
X159729632Y-80265793D01*
X159838900Y-80185150D01*
X159850291Y-80169716D01*
X159919541Y-80075885D01*
X159919541Y-80075884D01*
X159919543Y-80075882D01*
X159964396Y-79947699D01*
X159967250Y-79917266D01*
X159967250Y-79812500D01*
X159981602Y-79777852D01*
X160016250Y-79763500D01*
X164205311Y-79763500D01*
X164235430Y-79755428D01*
X164295673Y-79739286D01*
X164319887Y-79732799D01*
X164422614Y-79673489D01*
X178734250Y-65361853D01*
X178768898Y-65347501D01*
X180753808Y-65347501D01*
X180788456Y-65361853D01*
G37*
%TD.AperFunction*%
%TA.AperFunction,Conductor*%
G36*
X244333648Y-61093852D02*
G01*
X244348000Y-61128500D01*
X244348000Y-68961000D01*
X252180500Y-68961000D01*
X252215148Y-68975352D01*
X252229500Y-69010000D01*
X252229500Y-114251000D01*
X252215148Y-114285648D01*
X252180500Y-114300000D01*
X243264785Y-114300000D01*
X243230137Y-114285648D01*
X243215785Y-114251000D01*
X243230137Y-114216352D01*
X243261393Y-114202118D01*
X243301464Y-114199337D01*
X243301464Y-114199336D01*
X243301477Y-114199336D01*
X243457481Y-114162643D01*
X243509480Y-114150414D01*
X243509481Y-114150413D01*
X243509483Y-114150413D01*
X243704959Y-114064102D01*
X243881246Y-113943343D01*
X244032343Y-113792246D01*
X244153102Y-113615959D01*
X244239413Y-113420483D01*
X244288336Y-113212477D01*
X244294500Y-113123671D01*
X244294499Y-108536330D01*
X244288336Y-108447523D01*
X244261414Y-108333059D01*
X244239414Y-108239519D01*
X244153102Y-108044041D01*
X244032344Y-107867755D01*
X243881244Y-107716655D01*
X243704958Y-107595897D01*
X243509480Y-107509585D01*
X243301486Y-107460666D01*
X243301483Y-107460665D01*
X243301477Y-107460664D01*
X243301474Y-107460663D01*
X243301465Y-107460662D01*
X243212674Y-107454500D01*
X234815325Y-107454500D01*
X234726535Y-107460662D01*
X234726524Y-107460663D01*
X234726523Y-107460664D01*
X234726519Y-107460664D01*
X234726513Y-107460666D01*
X234518519Y-107509585D01*
X234323041Y-107595897D01*
X234146755Y-107716655D01*
X233995655Y-107867755D01*
X233874897Y-108044041D01*
X233788585Y-108239519D01*
X233739666Y-108447513D01*
X233739662Y-108447534D01*
X233733500Y-108536325D01*
X233733500Y-113123674D01*
X233739662Y-113212464D01*
X233739666Y-113212486D01*
X233788585Y-113420480D01*
X233874897Y-113615958D01*
X233995655Y-113792244D01*
X234146755Y-113943344D01*
X234323041Y-114064102D01*
X234518519Y-114150414D01*
X234612059Y-114172414D01*
X234726523Y-114199336D01*
X234726532Y-114199336D01*
X234726534Y-114199337D01*
X234766601Y-114202118D01*
X234800172Y-114218834D01*
X234812090Y-114254393D01*
X234795374Y-114287964D01*
X234763208Y-114300000D01*
X232342785Y-114300000D01*
X232308137Y-114285648D01*
X232293785Y-114251000D01*
X232308137Y-114216352D01*
X232339393Y-114202118D01*
X232379464Y-114199337D01*
X232379464Y-114199336D01*
X232379477Y-114199336D01*
X232535481Y-114162643D01*
X232587480Y-114150414D01*
X232587481Y-114150413D01*
X232587483Y-114150413D01*
X232782959Y-114064102D01*
X232959246Y-113943343D01*
X233110343Y-113792246D01*
X233231102Y-113615959D01*
X233317413Y-113420483D01*
X233366336Y-113212477D01*
X233372500Y-113123671D01*
X233372499Y-108536330D01*
X233366336Y-108447523D01*
X233339414Y-108333059D01*
X233317414Y-108239519D01*
X233231102Y-108044041D01*
X233110344Y-107867755D01*
X232959244Y-107716655D01*
X232782958Y-107595897D01*
X232587480Y-107509585D01*
X232379486Y-107460666D01*
X232379483Y-107460665D01*
X232379477Y-107460664D01*
X232379474Y-107460663D01*
X232379465Y-107460662D01*
X232290674Y-107454500D01*
X223893325Y-107454500D01*
X223804535Y-107460662D01*
X223804524Y-107460663D01*
X223804523Y-107460664D01*
X223804519Y-107460664D01*
X223804513Y-107460666D01*
X223596519Y-107509585D01*
X223401041Y-107595897D01*
X223224755Y-107716655D01*
X223073655Y-107867755D01*
X222952897Y-108044041D01*
X222866585Y-108239519D01*
X222817666Y-108447513D01*
X222817662Y-108447534D01*
X222811500Y-108536325D01*
X222811500Y-113123674D01*
X222817662Y-113212464D01*
X222817666Y-113212486D01*
X222866585Y-113420480D01*
X222952897Y-113615958D01*
X223073655Y-113792244D01*
X223224755Y-113943344D01*
X223401041Y-114064102D01*
X223596519Y-114150414D01*
X223690059Y-114172414D01*
X223804523Y-114199336D01*
X223804532Y-114199336D01*
X223804534Y-114199337D01*
X223844601Y-114202118D01*
X223878172Y-114218834D01*
X223890090Y-114254393D01*
X223873374Y-114287964D01*
X223841208Y-114300000D01*
X221420785Y-114300000D01*
X221386137Y-114285648D01*
X221371785Y-114251000D01*
X221386137Y-114216352D01*
X221417393Y-114202118D01*
X221457464Y-114199337D01*
X221457464Y-114199336D01*
X221457477Y-114199336D01*
X221613481Y-114162643D01*
X221665480Y-114150414D01*
X221665481Y-114150413D01*
X221665483Y-114150413D01*
X221860959Y-114064102D01*
X222037246Y-113943343D01*
X222188343Y-113792246D01*
X222309102Y-113615959D01*
X222395413Y-113420483D01*
X222444336Y-113212477D01*
X222450500Y-113123671D01*
X222450499Y-108536330D01*
X222444336Y-108447523D01*
X222417414Y-108333059D01*
X222395414Y-108239519D01*
X222309102Y-108044041D01*
X222188344Y-107867755D01*
X222037244Y-107716655D01*
X221860958Y-107595897D01*
X221665480Y-107509585D01*
X221457486Y-107460666D01*
X221457483Y-107460665D01*
X221457477Y-107460664D01*
X221457474Y-107460663D01*
X221457465Y-107460662D01*
X221368674Y-107454500D01*
X212971325Y-107454500D01*
X212882535Y-107460662D01*
X212882524Y-107460663D01*
X212882523Y-107460664D01*
X212882519Y-107460664D01*
X212882513Y-107460666D01*
X212674519Y-107509585D01*
X212479041Y-107595897D01*
X212302755Y-107716655D01*
X212151655Y-107867755D01*
X212030897Y-108044041D01*
X211944585Y-108239519D01*
X211895666Y-108447513D01*
X211895662Y-108447534D01*
X211889500Y-108536325D01*
X211889500Y-113123674D01*
X211895662Y-113212464D01*
X211895666Y-113212486D01*
X211944585Y-113420480D01*
X212030897Y-113615958D01*
X212151655Y-113792244D01*
X212302755Y-113943344D01*
X212479041Y-114064102D01*
X212674519Y-114150414D01*
X212768059Y-114172414D01*
X212882523Y-114199336D01*
X212882532Y-114199336D01*
X212882534Y-114199337D01*
X212922601Y-114202118D01*
X212956172Y-114218834D01*
X212968090Y-114254393D01*
X212951374Y-114287964D01*
X212919208Y-114300000D01*
X210498785Y-114300000D01*
X210464137Y-114285648D01*
X210449785Y-114251000D01*
X210464137Y-114216352D01*
X210495393Y-114202118D01*
X210535464Y-114199337D01*
X210535464Y-114199336D01*
X210535477Y-114199336D01*
X210691481Y-114162643D01*
X210743480Y-114150414D01*
X210743481Y-114150413D01*
X210743483Y-114150413D01*
X210938959Y-114064102D01*
X211115246Y-113943343D01*
X211266343Y-113792246D01*
X211387102Y-113615959D01*
X211473413Y-113420483D01*
X211522336Y-113212477D01*
X211528500Y-113123671D01*
X211528499Y-108536330D01*
X211522336Y-108447523D01*
X211495414Y-108333059D01*
X211473414Y-108239519D01*
X211387102Y-108044041D01*
X211266344Y-107867755D01*
X211115244Y-107716655D01*
X210938958Y-107595897D01*
X210743480Y-107509585D01*
X210535486Y-107460666D01*
X210535483Y-107460665D01*
X210535477Y-107460664D01*
X210535474Y-107460663D01*
X210535465Y-107460662D01*
X210446674Y-107454500D01*
X202049325Y-107454500D01*
X201960535Y-107460662D01*
X201960524Y-107460663D01*
X201960523Y-107460664D01*
X201960519Y-107460664D01*
X201960513Y-107460666D01*
X201752519Y-107509585D01*
X201557041Y-107595897D01*
X201380755Y-107716655D01*
X201229655Y-107867755D01*
X201108897Y-108044041D01*
X201022585Y-108239519D01*
X200973666Y-108447513D01*
X200973662Y-108447534D01*
X200967500Y-108536325D01*
X200967500Y-113123674D01*
X200973662Y-113212464D01*
X200973666Y-113212486D01*
X201022585Y-113420480D01*
X201108897Y-113615958D01*
X201229655Y-113792244D01*
X201380755Y-113943344D01*
X201557041Y-114064102D01*
X201752519Y-114150414D01*
X201846059Y-114172414D01*
X201960523Y-114199336D01*
X201960532Y-114199336D01*
X201960534Y-114199337D01*
X202000601Y-114202118D01*
X202034172Y-114218834D01*
X202046090Y-114254393D01*
X202029374Y-114287964D01*
X201997208Y-114300000D01*
X199576785Y-114300000D01*
X199542137Y-114285648D01*
X199527785Y-114251000D01*
X199542137Y-114216352D01*
X199573393Y-114202118D01*
X199613464Y-114199337D01*
X199613464Y-114199336D01*
X199613477Y-114199336D01*
X199769481Y-114162643D01*
X199821480Y-114150414D01*
X199821481Y-114150413D01*
X199821483Y-114150413D01*
X200016959Y-114064102D01*
X200193246Y-113943343D01*
X200344343Y-113792246D01*
X200465102Y-113615959D01*
X200551413Y-113420483D01*
X200600336Y-113212477D01*
X200606500Y-113123671D01*
X200606499Y-108536330D01*
X200600336Y-108447523D01*
X200573414Y-108333059D01*
X200551414Y-108239519D01*
X200465102Y-108044041D01*
X200344344Y-107867755D01*
X200193244Y-107716655D01*
X200016958Y-107595897D01*
X199821480Y-107509585D01*
X199613486Y-107460666D01*
X199613483Y-107460665D01*
X199613477Y-107460664D01*
X199613474Y-107460663D01*
X199613465Y-107460662D01*
X199524674Y-107454500D01*
X191127325Y-107454500D01*
X191038535Y-107460662D01*
X191038524Y-107460663D01*
X191038523Y-107460664D01*
X191038519Y-107460664D01*
X191038513Y-107460666D01*
X190830519Y-107509585D01*
X190635041Y-107595897D01*
X190458755Y-107716655D01*
X190307655Y-107867755D01*
X190186897Y-108044041D01*
X190100585Y-108239519D01*
X190051666Y-108447513D01*
X190051662Y-108447534D01*
X190045500Y-108536325D01*
X190045500Y-113123674D01*
X190051662Y-113212464D01*
X190051666Y-113212486D01*
X190100585Y-113420480D01*
X190186897Y-113615958D01*
X190307655Y-113792244D01*
X190458755Y-113943344D01*
X190635041Y-114064102D01*
X190830519Y-114150414D01*
X190924059Y-114172414D01*
X191038523Y-114199336D01*
X191038532Y-114199336D01*
X191038534Y-114199337D01*
X191078601Y-114202118D01*
X191112172Y-114218834D01*
X191124090Y-114254393D01*
X191107374Y-114287964D01*
X191075208Y-114300000D01*
X188654785Y-114300000D01*
X188620137Y-114285648D01*
X188605785Y-114251000D01*
X188620137Y-114216352D01*
X188651393Y-114202118D01*
X188691464Y-114199337D01*
X188691464Y-114199336D01*
X188691477Y-114199336D01*
X188847481Y-114162643D01*
X188899480Y-114150414D01*
X188899481Y-114150413D01*
X188899483Y-114150413D01*
X189094959Y-114064102D01*
X189271246Y-113943343D01*
X189422343Y-113792246D01*
X189543102Y-113615959D01*
X189629413Y-113420483D01*
X189678336Y-113212477D01*
X189684500Y-113123671D01*
X189684499Y-108536330D01*
X189678336Y-108447523D01*
X189651414Y-108333059D01*
X189629414Y-108239519D01*
X189543102Y-108044041D01*
X189422344Y-107867755D01*
X189271244Y-107716655D01*
X189094958Y-107595897D01*
X188899480Y-107509585D01*
X188691486Y-107460666D01*
X188691483Y-107460665D01*
X188691477Y-107460664D01*
X188691474Y-107460663D01*
X188691465Y-107460662D01*
X188602674Y-107454500D01*
X180205325Y-107454500D01*
X180116535Y-107460662D01*
X180116524Y-107460663D01*
X180116523Y-107460664D01*
X180116519Y-107460664D01*
X180116513Y-107460666D01*
X179908519Y-107509585D01*
X179713041Y-107595897D01*
X179536755Y-107716655D01*
X179385655Y-107867755D01*
X179264897Y-108044041D01*
X179178585Y-108239519D01*
X179129666Y-108447513D01*
X179129662Y-108447534D01*
X179123500Y-108536325D01*
X179123500Y-113123674D01*
X179129662Y-113212464D01*
X179129666Y-113212486D01*
X179178585Y-113420480D01*
X179264897Y-113615958D01*
X179385655Y-113792244D01*
X179536755Y-113943344D01*
X179713041Y-114064102D01*
X179908519Y-114150414D01*
X180002059Y-114172414D01*
X180116523Y-114199336D01*
X180116532Y-114199336D01*
X180116534Y-114199337D01*
X180156601Y-114202118D01*
X180190172Y-114218834D01*
X180202090Y-114254393D01*
X180185374Y-114287964D01*
X180153208Y-114300000D01*
X177732785Y-114300000D01*
X177698137Y-114285648D01*
X177683785Y-114251000D01*
X177698137Y-114216352D01*
X177729393Y-114202118D01*
X177769464Y-114199337D01*
X177769464Y-114199336D01*
X177769477Y-114199336D01*
X177925481Y-114162643D01*
X177977480Y-114150414D01*
X177977481Y-114150413D01*
X177977483Y-114150413D01*
X178172959Y-114064102D01*
X178349246Y-113943343D01*
X178500343Y-113792246D01*
X178621102Y-113615959D01*
X178707413Y-113420483D01*
X178756336Y-113212477D01*
X178762500Y-113123671D01*
X178762499Y-108536330D01*
X178756336Y-108447523D01*
X178729414Y-108333059D01*
X178707414Y-108239519D01*
X178621102Y-108044041D01*
X178500344Y-107867755D01*
X178349244Y-107716655D01*
X178172958Y-107595897D01*
X177977480Y-107509585D01*
X177769486Y-107460666D01*
X177769483Y-107460665D01*
X177769477Y-107460664D01*
X177769474Y-107460663D01*
X177769465Y-107460662D01*
X177680674Y-107454500D01*
X169283325Y-107454500D01*
X169194535Y-107460662D01*
X169194524Y-107460663D01*
X169194523Y-107460664D01*
X169194519Y-107460664D01*
X169194513Y-107460666D01*
X168986519Y-107509585D01*
X168791041Y-107595897D01*
X168614755Y-107716655D01*
X168463655Y-107867755D01*
X168342897Y-108044041D01*
X168256585Y-108239519D01*
X168207666Y-108447513D01*
X168207662Y-108447534D01*
X168201500Y-108536325D01*
X168201500Y-113123674D01*
X168207662Y-113212464D01*
X168207666Y-113212486D01*
X168256585Y-113420480D01*
X168342897Y-113615958D01*
X168463655Y-113792244D01*
X168614755Y-113943344D01*
X168791041Y-114064102D01*
X168986519Y-114150414D01*
X169080059Y-114172414D01*
X169194523Y-114199336D01*
X169194532Y-114199336D01*
X169194534Y-114199337D01*
X169234601Y-114202118D01*
X169268172Y-114218834D01*
X169280090Y-114254393D01*
X169263374Y-114287964D01*
X169231208Y-114300000D01*
X166810785Y-114300000D01*
X166776137Y-114285648D01*
X166761785Y-114251000D01*
X166776137Y-114216352D01*
X166807393Y-114202118D01*
X166847464Y-114199337D01*
X166847464Y-114199336D01*
X166847477Y-114199336D01*
X167003481Y-114162643D01*
X167055480Y-114150414D01*
X167055481Y-114150413D01*
X167055483Y-114150413D01*
X167250959Y-114064102D01*
X167427246Y-113943343D01*
X167578343Y-113792246D01*
X167699102Y-113615959D01*
X167785413Y-113420483D01*
X167834336Y-113212477D01*
X167840500Y-113123671D01*
X167840499Y-108536330D01*
X167834336Y-108447523D01*
X167807414Y-108333059D01*
X167785414Y-108239519D01*
X167699102Y-108044041D01*
X167578344Y-107867755D01*
X167427244Y-107716655D01*
X167250958Y-107595897D01*
X167055480Y-107509585D01*
X166847486Y-107460666D01*
X166847483Y-107460665D01*
X166847477Y-107460664D01*
X166847474Y-107460663D01*
X166847465Y-107460662D01*
X166758674Y-107454500D01*
X158361325Y-107454500D01*
X158272535Y-107460662D01*
X158272524Y-107460663D01*
X158272523Y-107460664D01*
X158272519Y-107460664D01*
X158272513Y-107460666D01*
X158064519Y-107509585D01*
X157869041Y-107595897D01*
X157692755Y-107716655D01*
X157541655Y-107867755D01*
X157420897Y-108044041D01*
X157334585Y-108239519D01*
X157285666Y-108447513D01*
X157285662Y-108447534D01*
X157279500Y-108536325D01*
X157279500Y-113123674D01*
X157285662Y-113212464D01*
X157285666Y-113212486D01*
X157334585Y-113420480D01*
X157420897Y-113615958D01*
X157541655Y-113792244D01*
X157692755Y-113943344D01*
X157869041Y-114064102D01*
X158064519Y-114150414D01*
X158158059Y-114172414D01*
X158272523Y-114199336D01*
X158272532Y-114199336D01*
X158272534Y-114199337D01*
X158312601Y-114202118D01*
X158346172Y-114218834D01*
X158358090Y-114254393D01*
X158341374Y-114287964D01*
X158309208Y-114300000D01*
X155888785Y-114300000D01*
X155854137Y-114285648D01*
X155839785Y-114251000D01*
X155854137Y-114216352D01*
X155885393Y-114202118D01*
X155925464Y-114199337D01*
X155925464Y-114199336D01*
X155925477Y-114199336D01*
X156081481Y-114162643D01*
X156133480Y-114150414D01*
X156133481Y-114150413D01*
X156133483Y-114150413D01*
X156328959Y-114064102D01*
X156505246Y-113943343D01*
X156656343Y-113792246D01*
X156777102Y-113615959D01*
X156863413Y-113420483D01*
X156912336Y-113212477D01*
X156918500Y-113123671D01*
X156918499Y-108536330D01*
X156912336Y-108447523D01*
X156885414Y-108333059D01*
X156863414Y-108239519D01*
X156777102Y-108044041D01*
X156656344Y-107867755D01*
X156505244Y-107716655D01*
X156328958Y-107595897D01*
X156133480Y-107509585D01*
X155925486Y-107460666D01*
X155925483Y-107460665D01*
X155925477Y-107460664D01*
X155925474Y-107460663D01*
X155925465Y-107460662D01*
X155836674Y-107454500D01*
X147439325Y-107454500D01*
X147350535Y-107460662D01*
X147350524Y-107460663D01*
X147350523Y-107460664D01*
X147350519Y-107460664D01*
X147350513Y-107460666D01*
X147142519Y-107509585D01*
X146947041Y-107595897D01*
X146770755Y-107716655D01*
X146619655Y-107867755D01*
X146498897Y-108044041D01*
X146412585Y-108239519D01*
X146363666Y-108447513D01*
X146363662Y-108447534D01*
X146357500Y-108536325D01*
X146357500Y-113123674D01*
X146363662Y-113212464D01*
X146363666Y-113212486D01*
X146412585Y-113420480D01*
X146498897Y-113615958D01*
X146619655Y-113792244D01*
X146770755Y-113943344D01*
X146947041Y-114064102D01*
X147142519Y-114150414D01*
X147236059Y-114172414D01*
X147350523Y-114199336D01*
X147350532Y-114199336D01*
X147350534Y-114199337D01*
X147390601Y-114202118D01*
X147424172Y-114218834D01*
X147436090Y-114254393D01*
X147419374Y-114287964D01*
X147387208Y-114300000D01*
X146099000Y-114300000D01*
X146064352Y-114285648D01*
X146050000Y-114251000D01*
X146050000Y-100330000D01*
X132883500Y-100330000D01*
X132848852Y-100315648D01*
X132834500Y-100281000D01*
X132834500Y-83527694D01*
X149801000Y-83527694D01*
X149812604Y-83586036D01*
X149856807Y-83652192D01*
X149922963Y-83696395D01*
X149981305Y-83708000D01*
X151176000Y-83708000D01*
X151776000Y-83708000D01*
X152970695Y-83708000D01*
X153029036Y-83696395D01*
X153095192Y-83652192D01*
X153139395Y-83586036D01*
X153151000Y-83527694D01*
X153151000Y-81558000D01*
X151776000Y-81558000D01*
X151776000Y-83708000D01*
X151176000Y-83708000D01*
X151176000Y-81558000D01*
X149801000Y-81558000D01*
X149801000Y-83527694D01*
X132834500Y-83527694D01*
X132834500Y-77764941D01*
X139315500Y-77764941D01*
X139315500Y-79773469D01*
X139315502Y-79773493D01*
X139318353Y-79803911D01*
X139318354Y-79803917D01*
X139363204Y-79932092D01*
X139363208Y-79932101D01*
X139443849Y-80041366D01*
X139553114Y-80122007D01*
X139553117Y-80122008D01*
X139553118Y-80122009D01*
X139553120Y-80122009D01*
X139553123Y-80122011D01*
X139681299Y-80166861D01*
X139681302Y-80166862D01*
X139711735Y-80169716D01*
X141720264Y-80169715D01*
X141750698Y-80166862D01*
X141878882Y-80122009D01*
X141988150Y-80041366D01*
X142068793Y-79932098D01*
X142113646Y-79803914D01*
X142116500Y-79773481D01*
X142116500Y-78988305D01*
X149801000Y-78988305D01*
X149801000Y-80958000D01*
X151176000Y-80958000D01*
X151776000Y-80958000D01*
X153151000Y-80958000D01*
X153151000Y-78988305D01*
X153139395Y-78929963D01*
X153095192Y-78863807D01*
X153029036Y-78819604D01*
X152970695Y-78808000D01*
X151776000Y-78808000D01*
X151776000Y-80958000D01*
X151176000Y-80958000D01*
X151176000Y-78808000D01*
X149981305Y-78808000D01*
X149922963Y-78819604D01*
X149856807Y-78863807D01*
X149812604Y-78929963D01*
X149801000Y-78988305D01*
X142116500Y-78988305D01*
X142116500Y-78778483D01*
X142116500Y-78708724D01*
X157966250Y-78708724D01*
X157966250Y-79917275D01*
X157969103Y-79947698D01*
X157969103Y-79947699D01*
X158013954Y-80075876D01*
X158013958Y-80075885D01*
X158094599Y-80185150D01*
X158203864Y-80265791D01*
X158203867Y-80265792D01*
X158203868Y-80265793D01*
X158203870Y-80265793D01*
X158203873Y-80265795D01*
X158332051Y-80310646D01*
X158362484Y-80313500D01*
X158467250Y-80313500D01*
X158501898Y-80327852D01*
X158516250Y-80362500D01*
X158516250Y-100604159D01*
X158509686Y-100628655D01*
X158500358Y-100644814D01*
X158500356Y-100644818D01*
X158466250Y-100772104D01*
X158466250Y-100903895D01*
X158500357Y-101031184D01*
X158500358Y-101031187D01*
X158509685Y-101047341D01*
X158516250Y-101071841D01*
X158516250Y-104162060D01*
X158540463Y-104252422D01*
X158540463Y-104252423D01*
X158546950Y-104276636D01*
X158546951Y-104276638D01*
X158606261Y-104379364D01*
X160759386Y-106532489D01*
X160818696Y-106566731D01*
X160862114Y-106591799D01*
X160862116Y-106591799D01*
X160862117Y-106591800D01*
X160976687Y-106622499D01*
X160976688Y-106622500D01*
X160976691Y-106622500D01*
X168422159Y-106622500D01*
X168446655Y-106629063D01*
X168462814Y-106638392D01*
X168462818Y-106638393D01*
X168590104Y-106672499D01*
X168590105Y-106672500D01*
X168590108Y-106672500D01*
X168721895Y-106672500D01*
X168721895Y-106672499D01*
X168849186Y-106638392D01*
X168865344Y-106629063D01*
X168889841Y-106622500D01*
X179598159Y-106622500D01*
X179622655Y-106629063D01*
X179638814Y-106638392D01*
X179638818Y-106638393D01*
X179766104Y-106672499D01*
X179766105Y-106672500D01*
X179766108Y-106672500D01*
X179897895Y-106672500D01*
X179897895Y-106672499D01*
X180025186Y-106638392D01*
X180041344Y-106629063D01*
X180065841Y-106622500D01*
X190520159Y-106622500D01*
X190544655Y-106629063D01*
X190560814Y-106638392D01*
X190560818Y-106638393D01*
X190688104Y-106672499D01*
X190688105Y-106672500D01*
X190688108Y-106672500D01*
X190819895Y-106672500D01*
X190819895Y-106672499D01*
X190947186Y-106638392D01*
X190963344Y-106629063D01*
X190987841Y-106622500D01*
X201442159Y-106622500D01*
X201466655Y-106629063D01*
X201482814Y-106638392D01*
X201482818Y-106638393D01*
X201610104Y-106672499D01*
X201610105Y-106672500D01*
X201610108Y-106672500D01*
X201741895Y-106672500D01*
X201741895Y-106672499D01*
X201869186Y-106638392D01*
X201885344Y-106629063D01*
X201909841Y-106622500D01*
X212110159Y-106622500D01*
X212134655Y-106629063D01*
X212150814Y-106638392D01*
X212150818Y-106638393D01*
X212278104Y-106672499D01*
X212278105Y-106672500D01*
X212278108Y-106672500D01*
X212409895Y-106672500D01*
X212409895Y-106672499D01*
X212537186Y-106638392D01*
X212553344Y-106629063D01*
X212577841Y-106622500D01*
X223032159Y-106622500D01*
X223056655Y-106629063D01*
X223072814Y-106638392D01*
X223072818Y-106638393D01*
X223200104Y-106672499D01*
X223200105Y-106672500D01*
X223200108Y-106672500D01*
X223331895Y-106672500D01*
X223331895Y-106672499D01*
X223459186Y-106638392D01*
X223475344Y-106629063D01*
X223499841Y-106622500D01*
X233954159Y-106622500D01*
X233978655Y-106629063D01*
X233994814Y-106638392D01*
X233994818Y-106638393D01*
X234122104Y-106672499D01*
X234122105Y-106672500D01*
X234122108Y-106672500D01*
X234253895Y-106672500D01*
X234253895Y-106672499D01*
X234381186Y-106638392D01*
X234397344Y-106629063D01*
X234421841Y-106622500D01*
X244622159Y-106622500D01*
X244646655Y-106629063D01*
X244662814Y-106638392D01*
X244662818Y-106638393D01*
X244790104Y-106672499D01*
X244790105Y-106672500D01*
X244790108Y-106672500D01*
X244921895Y-106672500D01*
X244921895Y-106672499D01*
X245049186Y-106638392D01*
X245163314Y-106572500D01*
X245256500Y-106479314D01*
X245322392Y-106365186D01*
X245327220Y-106347164D01*
X245339900Y-106325201D01*
X248645489Y-103019614D01*
X248704798Y-102916887D01*
X248704799Y-102916886D01*
X248735499Y-102802312D01*
X248735500Y-102802312D01*
X248735500Y-83925188D01*
X248735499Y-83925187D01*
X248704800Y-83810617D01*
X248704799Y-83810615D01*
X248704799Y-83810614D01*
X248679731Y-83767196D01*
X248645489Y-83707886D01*
X245579336Y-80641733D01*
X245564984Y-80607085D01*
X245570324Y-80584842D01*
X245614068Y-80498992D01*
X245687053Y-80274368D01*
X245724000Y-80041092D01*
X245724000Y-79804908D01*
X245687053Y-79571632D01*
X245614068Y-79347008D01*
X245605828Y-79330836D01*
X245506846Y-79136572D01*
X245506844Y-79136569D01*
X245506843Y-79136567D01*
X245368017Y-78945490D01*
X245368013Y-78945486D01*
X245368011Y-78945483D01*
X245201016Y-78778488D01*
X245201017Y-78778488D01*
X245103432Y-78707588D01*
X245009933Y-78639657D01*
X245009931Y-78639656D01*
X245009927Y-78639653D01*
X244799493Y-78532432D01*
X244574868Y-78459447D01*
X244574865Y-78459446D01*
X244395667Y-78431064D01*
X244341592Y-78422500D01*
X244105408Y-78422500D01*
X244061509Y-78429452D01*
X243872134Y-78459446D01*
X243872131Y-78459447D01*
X243647511Y-78532430D01*
X243561658Y-78576174D01*
X243524270Y-78579116D01*
X243504765Y-78567162D01*
X239742511Y-74804908D01*
X242723000Y-74804908D01*
X242723000Y-75041092D01*
X242731564Y-75095167D01*
X242759946Y-75274365D01*
X242759947Y-75274368D01*
X242832932Y-75498993D01*
X242940153Y-75709427D01*
X242940156Y-75709431D01*
X242940157Y-75709433D01*
X243078983Y-75900510D01*
X243078985Y-75900512D01*
X243078988Y-75900516D01*
X243245983Y-76067511D01*
X243245986Y-76067513D01*
X243245990Y-76067517D01*
X243437067Y-76206343D01*
X243437069Y-76206344D01*
X243437072Y-76206346D01*
X243647506Y-76313567D01*
X243647508Y-76313568D01*
X243872132Y-76386553D01*
X244105408Y-76423500D01*
X244105409Y-76423500D01*
X244341591Y-76423500D01*
X244341592Y-76423500D01*
X244574868Y-76386553D01*
X244799492Y-76313568D01*
X245009933Y-76206343D01*
X245201010Y-76067517D01*
X245368017Y-75900510D01*
X245506843Y-75709433D01*
X245614068Y-75498992D01*
X245687053Y-75274368D01*
X245724000Y-75041092D01*
X245724000Y-74804908D01*
X245687053Y-74571632D01*
X245614068Y-74347008D01*
X245506843Y-74136567D01*
X245368017Y-73945490D01*
X245368013Y-73945486D01*
X245368011Y-73945483D01*
X245201016Y-73778488D01*
X245201017Y-73778488D01*
X245164174Y-73751720D01*
X245009933Y-73639657D01*
X245009931Y-73639656D01*
X245009927Y-73639653D01*
X244799493Y-73532432D01*
X244574868Y-73459447D01*
X244574865Y-73459446D01*
X244395667Y-73431064D01*
X244341592Y-73422500D01*
X244105408Y-73422500D01*
X244061509Y-73429452D01*
X243872134Y-73459446D01*
X243872131Y-73459447D01*
X243647506Y-73532432D01*
X243437072Y-73639653D01*
X243245983Y-73778488D01*
X243078988Y-73945483D01*
X242940153Y-74136572D01*
X242832932Y-74347006D01*
X242759947Y-74571631D01*
X242759946Y-74571634D01*
X242723000Y-74804908D01*
X239742511Y-74804908D01*
X234427114Y-69489511D01*
X234324388Y-69430201D01*
X234324386Y-69430200D01*
X234300173Y-69423713D01*
X234270051Y-69415642D01*
X234209811Y-69399500D01*
X234209809Y-69399500D01*
X183721899Y-69399500D01*
X183687251Y-69385148D01*
X182201851Y-67899748D01*
X182187499Y-67865100D01*
X182187499Y-65880190D01*
X182201851Y-65845542D01*
X182217745Y-65834921D01*
X182234597Y-65827942D01*
X182406654Y-65712978D01*
X182552976Y-65566656D01*
X182667940Y-65394599D01*
X182747129Y-65203421D01*
X182787499Y-65000466D01*
X182787499Y-64793536D01*
X183226499Y-64793536D01*
X183226499Y-65000466D01*
X183244307Y-65089994D01*
X183266868Y-65203418D01*
X183266870Y-65203424D01*
X183346056Y-65394595D01*
X183346058Y-65394599D01*
X183461022Y-65566656D01*
X183607344Y-65712978D01*
X183779401Y-65827942D01*
X183970579Y-65907131D01*
X184173534Y-65947501D01*
X184173537Y-65947501D01*
X184380461Y-65947501D01*
X184380464Y-65947501D01*
X184583419Y-65907131D01*
X184774597Y-65827942D01*
X184946654Y-65712978D01*
X185092976Y-65566656D01*
X185207940Y-65394599D01*
X185287129Y-65203421D01*
X185327499Y-65000466D01*
X185327499Y-64793536D01*
X185766499Y-64793536D01*
X185766499Y-65000466D01*
X185784307Y-65089994D01*
X185806868Y-65203418D01*
X185806870Y-65203424D01*
X185886056Y-65394595D01*
X185886058Y-65394599D01*
X186001022Y-65566656D01*
X186147344Y-65712978D01*
X186319401Y-65827942D01*
X186510579Y-65907131D01*
X186713534Y-65947501D01*
X186713537Y-65947501D01*
X186920461Y-65947501D01*
X186920464Y-65947501D01*
X187123419Y-65907131D01*
X187314597Y-65827942D01*
X187486654Y-65712978D01*
X187632976Y-65566656D01*
X187747940Y-65394599D01*
X187827129Y-65203421D01*
X187867499Y-65000466D01*
X187867499Y-64793536D01*
X188306499Y-64793536D01*
X188306499Y-65000466D01*
X188324307Y-65089994D01*
X188346868Y-65203418D01*
X188346870Y-65203424D01*
X188426056Y-65394595D01*
X188426058Y-65394599D01*
X188541022Y-65566656D01*
X188687344Y-65712978D01*
X188859401Y-65827942D01*
X189050579Y-65907131D01*
X189253534Y-65947501D01*
X189253537Y-65947501D01*
X189460461Y-65947501D01*
X189460464Y-65947501D01*
X189663419Y-65907131D01*
X189854597Y-65827942D01*
X190026654Y-65712978D01*
X190172976Y-65566656D01*
X190287940Y-65394599D01*
X190367129Y-65203421D01*
X190407499Y-65000466D01*
X190407499Y-64793536D01*
X190846499Y-64793536D01*
X190846499Y-65000466D01*
X190864307Y-65089994D01*
X190886868Y-65203418D01*
X190886870Y-65203424D01*
X190966056Y-65394595D01*
X190966058Y-65394599D01*
X191081022Y-65566656D01*
X191227344Y-65712978D01*
X191399401Y-65827942D01*
X191590579Y-65907131D01*
X191793534Y-65947501D01*
X191793537Y-65947501D01*
X192000461Y-65947501D01*
X192000464Y-65947501D01*
X192203419Y-65907131D01*
X192394597Y-65827942D01*
X192566654Y-65712978D01*
X192712976Y-65566656D01*
X192827940Y-65394599D01*
X192907129Y-65203421D01*
X192947499Y-65000466D01*
X192947499Y-64793588D01*
X193386999Y-64793588D01*
X193386999Y-65000413D01*
X193427348Y-65203272D01*
X193427350Y-65203278D01*
X193506501Y-65394364D01*
X193510053Y-65399680D01*
X193510054Y-65399681D01*
X193939093Y-64970642D01*
X193971074Y-65089994D01*
X194036900Y-65204008D01*
X194129992Y-65297100D01*
X194244006Y-65362926D01*
X194363357Y-65394906D01*
X193934318Y-65823944D01*
X193939641Y-65827501D01*
X194130721Y-65906649D01*
X194130727Y-65906651D01*
X194333586Y-65947001D01*
X194540412Y-65947001D01*
X194743270Y-65906651D01*
X194743276Y-65906649D01*
X194934359Y-65827499D01*
X194939679Y-65823944D01*
X194510640Y-65394906D01*
X194629992Y-65362926D01*
X194744006Y-65297100D01*
X194837098Y-65204008D01*
X194902924Y-65089994D01*
X194934904Y-64970642D01*
X195363942Y-65399681D01*
X195367497Y-65394361D01*
X195446647Y-65203278D01*
X195446649Y-65203272D01*
X195486999Y-65000413D01*
X195486999Y-64793588D01*
X195486989Y-64793536D01*
X195926499Y-64793536D01*
X195926499Y-65000466D01*
X195944307Y-65089994D01*
X195966868Y-65203418D01*
X195966870Y-65203424D01*
X196046056Y-65394595D01*
X196046058Y-65394599D01*
X196161022Y-65566656D01*
X196307344Y-65712978D01*
X196479401Y-65827942D01*
X196670579Y-65907131D01*
X196873534Y-65947501D01*
X196873537Y-65947501D01*
X197080461Y-65947501D01*
X197080464Y-65947501D01*
X197283419Y-65907131D01*
X197474597Y-65827942D01*
X197646654Y-65712978D01*
X197792976Y-65566656D01*
X197907940Y-65394599D01*
X197987129Y-65203421D01*
X198027499Y-65000466D01*
X198027499Y-64793536D01*
X198466499Y-64793536D01*
X198466499Y-65000466D01*
X198484307Y-65089994D01*
X198506868Y-65203418D01*
X198506870Y-65203424D01*
X198586056Y-65394595D01*
X198586058Y-65394599D01*
X198701022Y-65566656D01*
X198847344Y-65712978D01*
X199019401Y-65827942D01*
X199210579Y-65907131D01*
X199413534Y-65947501D01*
X199413537Y-65947501D01*
X199620461Y-65947501D01*
X199620464Y-65947501D01*
X199823419Y-65907131D01*
X200014597Y-65827942D01*
X200186654Y-65712978D01*
X200332976Y-65566656D01*
X200447940Y-65394599D01*
X200527129Y-65203421D01*
X200567499Y-65000466D01*
X200567499Y-64793536D01*
X201006499Y-64793536D01*
X201006499Y-65000466D01*
X201024307Y-65089994D01*
X201046868Y-65203418D01*
X201046870Y-65203424D01*
X201126056Y-65394595D01*
X201126058Y-65394599D01*
X201241022Y-65566656D01*
X201387344Y-65712978D01*
X201559401Y-65827942D01*
X201750579Y-65907131D01*
X201953534Y-65947501D01*
X201953537Y-65947501D01*
X202160461Y-65947501D01*
X202160464Y-65947501D01*
X202363419Y-65907131D01*
X202554597Y-65827942D01*
X202726654Y-65712978D01*
X202872976Y-65566656D01*
X202987940Y-65394599D01*
X203067129Y-65203421D01*
X203107499Y-65000466D01*
X203107499Y-64793536D01*
X203546499Y-64793536D01*
X203546499Y-65000466D01*
X203564307Y-65089994D01*
X203586868Y-65203418D01*
X203586870Y-65203424D01*
X203666056Y-65394595D01*
X203666058Y-65394599D01*
X203781022Y-65566656D01*
X203927344Y-65712978D01*
X204099401Y-65827942D01*
X204290579Y-65907131D01*
X204493534Y-65947501D01*
X204493537Y-65947501D01*
X204700461Y-65947501D01*
X204700464Y-65947501D01*
X204903419Y-65907131D01*
X205094597Y-65827942D01*
X205266654Y-65712978D01*
X205412976Y-65566656D01*
X205527940Y-65394599D01*
X205607129Y-65203421D01*
X205647499Y-65000466D01*
X205647499Y-64793536D01*
X206086499Y-64793536D01*
X206086499Y-65000466D01*
X206104307Y-65089994D01*
X206126868Y-65203418D01*
X206126870Y-65203424D01*
X206206056Y-65394595D01*
X206206058Y-65394599D01*
X206321022Y-65566656D01*
X206467344Y-65712978D01*
X206639401Y-65827942D01*
X206830579Y-65907131D01*
X207033534Y-65947501D01*
X207033537Y-65947501D01*
X207240461Y-65947501D01*
X207240464Y-65947501D01*
X207443419Y-65907131D01*
X207634597Y-65827942D01*
X207806654Y-65712978D01*
X207952976Y-65566656D01*
X208067940Y-65394599D01*
X208147129Y-65203421D01*
X208187499Y-65000466D01*
X208187499Y-64793536D01*
X208626499Y-64793536D01*
X208626499Y-65000466D01*
X208644307Y-65089994D01*
X208666868Y-65203418D01*
X208666870Y-65203424D01*
X208746056Y-65394595D01*
X208746058Y-65394599D01*
X208861022Y-65566656D01*
X209007344Y-65712978D01*
X209179401Y-65827942D01*
X209370579Y-65907131D01*
X209573534Y-65947501D01*
X209573537Y-65947501D01*
X209780461Y-65947501D01*
X209780464Y-65947501D01*
X209983419Y-65907131D01*
X210174597Y-65827942D01*
X210346654Y-65712978D01*
X210492976Y-65566656D01*
X210607940Y-65394599D01*
X210687129Y-65203421D01*
X210727499Y-65000466D01*
X210727499Y-64793536D01*
X211166499Y-64793536D01*
X211166499Y-65000466D01*
X211184307Y-65089994D01*
X211206868Y-65203418D01*
X211206870Y-65203424D01*
X211286056Y-65394595D01*
X211286058Y-65394599D01*
X211401022Y-65566656D01*
X211547344Y-65712978D01*
X211719401Y-65827942D01*
X211910579Y-65907131D01*
X212113534Y-65947501D01*
X212113537Y-65947501D01*
X212320461Y-65947501D01*
X212320464Y-65947501D01*
X212523419Y-65907131D01*
X212714597Y-65827942D01*
X212886654Y-65712978D01*
X213032976Y-65566656D01*
X213147940Y-65394599D01*
X213227129Y-65203421D01*
X213267499Y-65000466D01*
X213267499Y-64793536D01*
X213706499Y-64793536D01*
X213706499Y-65000466D01*
X213724307Y-65089994D01*
X213746868Y-65203418D01*
X213746870Y-65203424D01*
X213826056Y-65394595D01*
X213826058Y-65394599D01*
X213941022Y-65566656D01*
X214087344Y-65712978D01*
X214259401Y-65827942D01*
X214450579Y-65907131D01*
X214653534Y-65947501D01*
X214653537Y-65947501D01*
X214860461Y-65947501D01*
X214860464Y-65947501D01*
X215063419Y-65907131D01*
X215254597Y-65827942D01*
X215426654Y-65712978D01*
X215572976Y-65566656D01*
X215687940Y-65394599D01*
X215767129Y-65203421D01*
X215807499Y-65000466D01*
X215807499Y-64793536D01*
X216246499Y-64793536D01*
X216246499Y-65000466D01*
X216264307Y-65089994D01*
X216286868Y-65203418D01*
X216286870Y-65203424D01*
X216366056Y-65394595D01*
X216366058Y-65394599D01*
X216481022Y-65566656D01*
X216627344Y-65712978D01*
X216799401Y-65827942D01*
X216990579Y-65907131D01*
X217193534Y-65947501D01*
X217193537Y-65947501D01*
X217400461Y-65947501D01*
X217400464Y-65947501D01*
X217603419Y-65907131D01*
X217794597Y-65827942D01*
X217966654Y-65712978D01*
X218112976Y-65566656D01*
X218227940Y-65394599D01*
X218307129Y-65203421D01*
X218347499Y-65000466D01*
X218347499Y-64793536D01*
X218786499Y-64793536D01*
X218786499Y-65000466D01*
X218804307Y-65089994D01*
X218826868Y-65203418D01*
X218826870Y-65203424D01*
X218906056Y-65394595D01*
X218906058Y-65394599D01*
X219021022Y-65566656D01*
X219167344Y-65712978D01*
X219339401Y-65827942D01*
X219530579Y-65907131D01*
X219733534Y-65947501D01*
X219733537Y-65947501D01*
X219940461Y-65947501D01*
X219940464Y-65947501D01*
X220143419Y-65907131D01*
X220334597Y-65827942D01*
X220506654Y-65712978D01*
X220652976Y-65566656D01*
X220767940Y-65394599D01*
X220847129Y-65203421D01*
X220887499Y-65000466D01*
X220887499Y-64793536D01*
X221326499Y-64793536D01*
X221326499Y-65000466D01*
X221344307Y-65089994D01*
X221366868Y-65203418D01*
X221366870Y-65203424D01*
X221446056Y-65394595D01*
X221446058Y-65394599D01*
X221561022Y-65566656D01*
X221707344Y-65712978D01*
X221879401Y-65827942D01*
X222070579Y-65907131D01*
X222273534Y-65947501D01*
X222273537Y-65947501D01*
X222480461Y-65947501D01*
X222480464Y-65947501D01*
X222683419Y-65907131D01*
X222874597Y-65827942D01*
X223046654Y-65712978D01*
X223192976Y-65566656D01*
X223307940Y-65394599D01*
X223387129Y-65203421D01*
X223427499Y-65000466D01*
X223427499Y-64793536D01*
X223866499Y-64793536D01*
X223866499Y-65000466D01*
X223884307Y-65089994D01*
X223906868Y-65203418D01*
X223906870Y-65203424D01*
X223986056Y-65394595D01*
X223986058Y-65394599D01*
X224101022Y-65566656D01*
X224247344Y-65712978D01*
X224419401Y-65827942D01*
X224610579Y-65907131D01*
X224813534Y-65947501D01*
X224813537Y-65947501D01*
X225020461Y-65947501D01*
X225020464Y-65947501D01*
X225223419Y-65907131D01*
X225414597Y-65827942D01*
X225586654Y-65712978D01*
X225732976Y-65566656D01*
X225847940Y-65394599D01*
X225927129Y-65203421D01*
X225967499Y-65000466D01*
X225967499Y-64793536D01*
X225927129Y-64590581D01*
X225847940Y-64399403D01*
X225732976Y-64227346D01*
X225586654Y-64081024D01*
X225506179Y-64027253D01*
X226406499Y-64027253D01*
X226406499Y-65766749D01*
X226418132Y-65825232D01*
X226419943Y-65827942D01*
X226462446Y-65891553D01*
X226485039Y-65906649D01*
X226528768Y-65935868D01*
X226587251Y-65947501D01*
X226587254Y-65947501D01*
X228326744Y-65947501D01*
X228326747Y-65947501D01*
X228385230Y-65935868D01*
X228451551Y-65891553D01*
X228495866Y-65825232D01*
X228507499Y-65766749D01*
X228507499Y-64027253D01*
X228495866Y-63968770D01*
X228469300Y-63929013D01*
X228451551Y-63902448D01*
X228411794Y-63875883D01*
X228385230Y-63858134D01*
X228326747Y-63846501D01*
X226587251Y-63846501D01*
X226528768Y-63858134D01*
X226462446Y-63902448D01*
X226419943Y-63966059D01*
X226418132Y-63968770D01*
X226406499Y-64027253D01*
X225506179Y-64027253D01*
X225414597Y-63966060D01*
X225414595Y-63966059D01*
X225223422Y-63886872D01*
X225223416Y-63886870D01*
X225141571Y-63870590D01*
X225020464Y-63846501D01*
X224813534Y-63846501D01*
X224712519Y-63866593D01*
X224610581Y-63886870D01*
X224610575Y-63886872D01*
X224419402Y-63966059D01*
X224247344Y-64081023D01*
X224101021Y-64227346D01*
X223986057Y-64399404D01*
X223906870Y-64590577D01*
X223906868Y-64590583D01*
X223886591Y-64692521D01*
X223866499Y-64793536D01*
X223427499Y-64793536D01*
X223387129Y-64590581D01*
X223307940Y-64399403D01*
X223192976Y-64227346D01*
X223046654Y-64081024D01*
X223023552Y-64065588D01*
X222880576Y-63970055D01*
X222874597Y-63966060D01*
X222874595Y-63966059D01*
X222683422Y-63886872D01*
X222683416Y-63886870D01*
X222601571Y-63870590D01*
X222480464Y-63846501D01*
X222273534Y-63846501D01*
X222172519Y-63866593D01*
X222070581Y-63886870D01*
X222070575Y-63886872D01*
X221879402Y-63966059D01*
X221707344Y-64081023D01*
X221561021Y-64227346D01*
X221446057Y-64399404D01*
X221366870Y-64590577D01*
X221366868Y-64590583D01*
X221346591Y-64692521D01*
X221326499Y-64793536D01*
X220887499Y-64793536D01*
X220847129Y-64590581D01*
X220767940Y-64399403D01*
X220652976Y-64227346D01*
X220506654Y-64081024D01*
X220483552Y-64065588D01*
X220340576Y-63970055D01*
X220334597Y-63966060D01*
X220334595Y-63966059D01*
X220143422Y-63886872D01*
X220143416Y-63886870D01*
X220061571Y-63870590D01*
X219940464Y-63846501D01*
X219733534Y-63846501D01*
X219632519Y-63866593D01*
X219530581Y-63886870D01*
X219530575Y-63886872D01*
X219339402Y-63966059D01*
X219167344Y-64081023D01*
X219021021Y-64227346D01*
X218906057Y-64399404D01*
X218826870Y-64590577D01*
X218826868Y-64590583D01*
X218806591Y-64692521D01*
X218786499Y-64793536D01*
X218347499Y-64793536D01*
X218307129Y-64590581D01*
X218227940Y-64399403D01*
X218112976Y-64227346D01*
X217966654Y-64081024D01*
X217943552Y-64065588D01*
X217800576Y-63970055D01*
X217794597Y-63966060D01*
X217794595Y-63966059D01*
X217603422Y-63886872D01*
X217603416Y-63886870D01*
X217521571Y-63870590D01*
X217400464Y-63846501D01*
X217193534Y-63846501D01*
X217092519Y-63866593D01*
X216990581Y-63886870D01*
X216990575Y-63886872D01*
X216799402Y-63966059D01*
X216627344Y-64081023D01*
X216481021Y-64227346D01*
X216366057Y-64399404D01*
X216286870Y-64590577D01*
X216286868Y-64590583D01*
X216266591Y-64692521D01*
X216246499Y-64793536D01*
X215807499Y-64793536D01*
X215767129Y-64590581D01*
X215687940Y-64399403D01*
X215572976Y-64227346D01*
X215426654Y-64081024D01*
X215403552Y-64065588D01*
X215260576Y-63970055D01*
X215254597Y-63966060D01*
X215254595Y-63966059D01*
X215063422Y-63886872D01*
X215063416Y-63886870D01*
X214981571Y-63870590D01*
X214860464Y-63846501D01*
X214653534Y-63846501D01*
X214552519Y-63866593D01*
X214450581Y-63886870D01*
X214450575Y-63886872D01*
X214259402Y-63966059D01*
X214087344Y-64081023D01*
X213941021Y-64227346D01*
X213826057Y-64399404D01*
X213746870Y-64590577D01*
X213746868Y-64590583D01*
X213726591Y-64692521D01*
X213706499Y-64793536D01*
X213267499Y-64793536D01*
X213227129Y-64590581D01*
X213147940Y-64399403D01*
X213032976Y-64227346D01*
X212886654Y-64081024D01*
X212863552Y-64065588D01*
X212720576Y-63970055D01*
X212714597Y-63966060D01*
X212714595Y-63966059D01*
X212523422Y-63886872D01*
X212523416Y-63886870D01*
X212441571Y-63870590D01*
X212320464Y-63846501D01*
X212113534Y-63846501D01*
X212012519Y-63866593D01*
X211910581Y-63886870D01*
X211910575Y-63886872D01*
X211719402Y-63966059D01*
X211547344Y-64081023D01*
X211401021Y-64227346D01*
X211286057Y-64399404D01*
X211206870Y-64590577D01*
X211206868Y-64590583D01*
X211186591Y-64692521D01*
X211166499Y-64793536D01*
X210727499Y-64793536D01*
X210687129Y-64590581D01*
X210607940Y-64399403D01*
X210492976Y-64227346D01*
X210346654Y-64081024D01*
X210323552Y-64065588D01*
X210180576Y-63970055D01*
X210174597Y-63966060D01*
X210174595Y-63966059D01*
X209983422Y-63886872D01*
X209983416Y-63886870D01*
X209901571Y-63870590D01*
X209780464Y-63846501D01*
X209573534Y-63846501D01*
X209472519Y-63866593D01*
X209370581Y-63886870D01*
X209370575Y-63886872D01*
X209179402Y-63966059D01*
X209007344Y-64081023D01*
X208861021Y-64227346D01*
X208746057Y-64399404D01*
X208666870Y-64590577D01*
X208666868Y-64590583D01*
X208646591Y-64692521D01*
X208626499Y-64793536D01*
X208187499Y-64793536D01*
X208147129Y-64590581D01*
X208067940Y-64399403D01*
X207952976Y-64227346D01*
X207806654Y-64081024D01*
X207783552Y-64065588D01*
X207640576Y-63970055D01*
X207634597Y-63966060D01*
X207634595Y-63966059D01*
X207443422Y-63886872D01*
X207443416Y-63886870D01*
X207361571Y-63870590D01*
X207240464Y-63846501D01*
X207033534Y-63846501D01*
X206932519Y-63866593D01*
X206830581Y-63886870D01*
X206830575Y-63886872D01*
X206639402Y-63966059D01*
X206467344Y-64081023D01*
X206321021Y-64227346D01*
X206206057Y-64399404D01*
X206126870Y-64590577D01*
X206126868Y-64590583D01*
X206106591Y-64692521D01*
X206086499Y-64793536D01*
X205647499Y-64793536D01*
X205607129Y-64590581D01*
X205527940Y-64399403D01*
X205412976Y-64227346D01*
X205266654Y-64081024D01*
X205243552Y-64065588D01*
X205100576Y-63970055D01*
X205094597Y-63966060D01*
X205094595Y-63966059D01*
X204903422Y-63886872D01*
X204903416Y-63886870D01*
X204821571Y-63870590D01*
X204700464Y-63846501D01*
X204493534Y-63846501D01*
X204392519Y-63866593D01*
X204290581Y-63886870D01*
X204290575Y-63886872D01*
X204099402Y-63966059D01*
X203927344Y-64081023D01*
X203781021Y-64227346D01*
X203666057Y-64399404D01*
X203586870Y-64590577D01*
X203586868Y-64590583D01*
X203566591Y-64692521D01*
X203546499Y-64793536D01*
X203107499Y-64793536D01*
X203067129Y-64590581D01*
X202987940Y-64399403D01*
X202872976Y-64227346D01*
X202726654Y-64081024D01*
X202703552Y-64065588D01*
X202560576Y-63970055D01*
X202554597Y-63966060D01*
X202554595Y-63966059D01*
X202363422Y-63886872D01*
X202363416Y-63886870D01*
X202281571Y-63870590D01*
X202160464Y-63846501D01*
X201953534Y-63846501D01*
X201852519Y-63866593D01*
X201750581Y-63886870D01*
X201750575Y-63886872D01*
X201559402Y-63966059D01*
X201387344Y-64081023D01*
X201241021Y-64227346D01*
X201126057Y-64399404D01*
X201046870Y-64590577D01*
X201046868Y-64590583D01*
X201026591Y-64692521D01*
X201006499Y-64793536D01*
X200567499Y-64793536D01*
X200527129Y-64590581D01*
X200447940Y-64399403D01*
X200332976Y-64227346D01*
X200186654Y-64081024D01*
X200163552Y-64065588D01*
X200020576Y-63970055D01*
X200014597Y-63966060D01*
X200014595Y-63966059D01*
X199823422Y-63886872D01*
X199823416Y-63886870D01*
X199741571Y-63870590D01*
X199620464Y-63846501D01*
X199413534Y-63846501D01*
X199312519Y-63866593D01*
X199210581Y-63886870D01*
X199210575Y-63886872D01*
X199019402Y-63966059D01*
X198847344Y-64081023D01*
X198701021Y-64227346D01*
X198586057Y-64399404D01*
X198506870Y-64590577D01*
X198506868Y-64590583D01*
X198486591Y-64692521D01*
X198466499Y-64793536D01*
X198027499Y-64793536D01*
X197987129Y-64590581D01*
X197907940Y-64399403D01*
X197792976Y-64227346D01*
X197646654Y-64081024D01*
X197623552Y-64065588D01*
X197480576Y-63970055D01*
X197474597Y-63966060D01*
X197474595Y-63966059D01*
X197283422Y-63886872D01*
X197283416Y-63886870D01*
X197201571Y-63870590D01*
X197080464Y-63846501D01*
X196873534Y-63846501D01*
X196772519Y-63866593D01*
X196670581Y-63886870D01*
X196670575Y-63886872D01*
X196479402Y-63966059D01*
X196307344Y-64081023D01*
X196161021Y-64227346D01*
X196046057Y-64399404D01*
X195966870Y-64590577D01*
X195966868Y-64590583D01*
X195946591Y-64692521D01*
X195926499Y-64793536D01*
X195486989Y-64793536D01*
X195446649Y-64590729D01*
X195446647Y-64590723D01*
X195367499Y-64399643D01*
X195363942Y-64394320D01*
X194934904Y-64823358D01*
X194902924Y-64704008D01*
X194837098Y-64589994D01*
X194744006Y-64496902D01*
X194629992Y-64431076D01*
X194510641Y-64399095D01*
X194939679Y-63970056D01*
X194939678Y-63970055D01*
X194934362Y-63966503D01*
X194743276Y-63887352D01*
X194743270Y-63887350D01*
X194540412Y-63847001D01*
X194333586Y-63847001D01*
X194130727Y-63887350D01*
X194130721Y-63887352D01*
X193939634Y-63966504D01*
X193934318Y-63970055D01*
X193934318Y-63970056D01*
X194363357Y-64399095D01*
X194244006Y-64431076D01*
X194129992Y-64496902D01*
X194036900Y-64589994D01*
X193971074Y-64704008D01*
X193939093Y-64823359D01*
X193510054Y-64394320D01*
X193510053Y-64394320D01*
X193506502Y-64399636D01*
X193427350Y-64590723D01*
X193427348Y-64590729D01*
X193386999Y-64793588D01*
X192947499Y-64793588D01*
X192947499Y-64793536D01*
X192907129Y-64590581D01*
X192827940Y-64399403D01*
X192712976Y-64227346D01*
X192566654Y-64081024D01*
X192394597Y-63966060D01*
X192394595Y-63966059D01*
X192203422Y-63886872D01*
X192203416Y-63886870D01*
X192121571Y-63870590D01*
X192000464Y-63846501D01*
X191793534Y-63846501D01*
X191692519Y-63866593D01*
X191590581Y-63886870D01*
X191590575Y-63886872D01*
X191399402Y-63966059D01*
X191227344Y-64081023D01*
X191081021Y-64227346D01*
X190966057Y-64399404D01*
X190886870Y-64590577D01*
X190886868Y-64590583D01*
X190866591Y-64692521D01*
X190846499Y-64793536D01*
X190407499Y-64793536D01*
X190367129Y-64590581D01*
X190287940Y-64399403D01*
X190172976Y-64227346D01*
X190026654Y-64081024D01*
X190003552Y-64065588D01*
X189860576Y-63970055D01*
X189854597Y-63966060D01*
X189854595Y-63966059D01*
X189663422Y-63886872D01*
X189663416Y-63886870D01*
X189581571Y-63870590D01*
X189460464Y-63846501D01*
X189253534Y-63846501D01*
X189152519Y-63866593D01*
X189050581Y-63886870D01*
X189050575Y-63886872D01*
X188859402Y-63966059D01*
X188687344Y-64081023D01*
X188541021Y-64227346D01*
X188426057Y-64399404D01*
X188346870Y-64590577D01*
X188346868Y-64590583D01*
X188326591Y-64692521D01*
X188306499Y-64793536D01*
X187867499Y-64793536D01*
X187827129Y-64590581D01*
X187747940Y-64399403D01*
X187632976Y-64227346D01*
X187486654Y-64081024D01*
X187463552Y-64065588D01*
X187320576Y-63970055D01*
X187314597Y-63966060D01*
X187314595Y-63966059D01*
X187123422Y-63886872D01*
X187123416Y-63886870D01*
X187041571Y-63870590D01*
X186920464Y-63846501D01*
X186713534Y-63846501D01*
X186612519Y-63866593D01*
X186510581Y-63886870D01*
X186510575Y-63886872D01*
X186319402Y-63966059D01*
X186147344Y-64081023D01*
X186001021Y-64227346D01*
X185886057Y-64399404D01*
X185806870Y-64590577D01*
X185806868Y-64590583D01*
X185786591Y-64692521D01*
X185766499Y-64793536D01*
X185327499Y-64793536D01*
X185287129Y-64590581D01*
X185207940Y-64399403D01*
X185092976Y-64227346D01*
X184946654Y-64081024D01*
X184923552Y-64065588D01*
X184780576Y-63970055D01*
X184774597Y-63966060D01*
X184774595Y-63966059D01*
X184583422Y-63886872D01*
X184583416Y-63886870D01*
X184501571Y-63870590D01*
X184380464Y-63846501D01*
X184173534Y-63846501D01*
X184072519Y-63866593D01*
X183970581Y-63886870D01*
X183970575Y-63886872D01*
X183779402Y-63966059D01*
X183607344Y-64081023D01*
X183461021Y-64227346D01*
X183346057Y-64399404D01*
X183266870Y-64590577D01*
X183266868Y-64590583D01*
X183246591Y-64692521D01*
X183226499Y-64793536D01*
X182787499Y-64793536D01*
X182747129Y-64590581D01*
X182667940Y-64399403D01*
X182552976Y-64227346D01*
X182406654Y-64081024D01*
X182383552Y-64065588D01*
X182240576Y-63970055D01*
X182234597Y-63966060D01*
X182234595Y-63966059D01*
X182043422Y-63886872D01*
X182043416Y-63886870D01*
X181961571Y-63870590D01*
X181840464Y-63846501D01*
X181633534Y-63846501D01*
X181532519Y-63866593D01*
X181430581Y-63886870D01*
X181430575Y-63886872D01*
X181239402Y-63966059D01*
X181067344Y-64081023D01*
X180921021Y-64227346D01*
X180806056Y-64399406D01*
X180799078Y-64416253D01*
X180772559Y-64442771D01*
X180753808Y-64446501D01*
X178502687Y-64446501D01*
X178388117Y-64477200D01*
X178388111Y-64477203D01*
X178344695Y-64502269D01*
X178285384Y-64536512D01*
X178285384Y-64536513D01*
X163973749Y-78848148D01*
X163939101Y-78862500D01*
X160016250Y-78862500D01*
X159981602Y-78848148D01*
X159967250Y-78813500D01*
X159967250Y-78708743D01*
X159967249Y-78708724D01*
X159967142Y-78707588D01*
X159964396Y-78678301D01*
X159928660Y-78576174D01*
X159919545Y-78550123D01*
X159919541Y-78550114D01*
X159838900Y-78440849D01*
X159729635Y-78360208D01*
X159729626Y-78360204D01*
X159601448Y-78315353D01*
X159571025Y-78312500D01*
X159571016Y-78312500D01*
X158362484Y-78312500D01*
X158362474Y-78312500D01*
X158332051Y-78315353D01*
X158332050Y-78315353D01*
X158203873Y-78360204D01*
X158203864Y-78360208D01*
X158094599Y-78440849D01*
X158013958Y-78550114D01*
X158013954Y-78550123D01*
X157969103Y-78678300D01*
X157969103Y-78678301D01*
X157966250Y-78708724D01*
X142116500Y-78708724D01*
X142116500Y-78707588D01*
X142116499Y-77764962D01*
X142116499Y-77764952D01*
X142113646Y-77734518D01*
X142102488Y-77702631D01*
X142102488Y-77702630D01*
X158501382Y-77702630D01*
X158501382Y-77702631D01*
X158675060Y-77774570D01*
X158868262Y-77813000D01*
X159065238Y-77813000D01*
X159258436Y-77774571D01*
X159258442Y-77774569D01*
X159432116Y-77702630D01*
X158966750Y-77237264D01*
X158501382Y-77702630D01*
X142102488Y-77702630D01*
X142068795Y-77606339D01*
X142068791Y-77606330D01*
X141988150Y-77497065D01*
X141878885Y-77416424D01*
X141878876Y-77416420D01*
X141750697Y-77371569D01*
X141720265Y-77368716D01*
X139711746Y-77368716D01*
X139711722Y-77368718D01*
X139681304Y-77371569D01*
X139681298Y-77371570D01*
X139553123Y-77416420D01*
X139553114Y-77416424D01*
X139443849Y-77497065D01*
X139363208Y-77606330D01*
X139363204Y-77606339D01*
X139318353Y-77734517D01*
X139318353Y-77734518D01*
X139315500Y-77764941D01*
X132834500Y-77764941D01*
X132834500Y-76714512D01*
X157966750Y-76714512D01*
X157966750Y-76911487D01*
X158005179Y-77104689D01*
X158005179Y-77104690D01*
X158077117Y-77278366D01*
X158077118Y-77278366D01*
X158542486Y-76813000D01*
X158489825Y-76760339D01*
X158566750Y-76760339D01*
X158566750Y-76865661D01*
X158594009Y-76967394D01*
X158646670Y-77058606D01*
X158721144Y-77133080D01*
X158812356Y-77185741D01*
X158914089Y-77213000D01*
X159019411Y-77213000D01*
X159121144Y-77185741D01*
X159212356Y-77133080D01*
X159286830Y-77058606D01*
X159339491Y-76967394D01*
X159366750Y-76865661D01*
X159366750Y-76812999D01*
X159391014Y-76812999D01*
X159391014Y-76813000D01*
X159856380Y-77278366D01*
X159928319Y-77104692D01*
X159928321Y-77104686D01*
X159966750Y-76911487D01*
X159966750Y-76714512D01*
X159928320Y-76521310D01*
X159928320Y-76521309D01*
X159856381Y-76347632D01*
X159856380Y-76347632D01*
X159391014Y-76812999D01*
X159366750Y-76812999D01*
X159366750Y-76760339D01*
X159339491Y-76658606D01*
X159286830Y-76567394D01*
X159212356Y-76492920D01*
X159121144Y-76440259D01*
X159019411Y-76413000D01*
X158914089Y-76413000D01*
X158812356Y-76440259D01*
X158721144Y-76492920D01*
X158646670Y-76567394D01*
X158594009Y-76658606D01*
X158566750Y-76760339D01*
X158489825Y-76760339D01*
X158077118Y-76347632D01*
X158077117Y-76347632D01*
X158005179Y-76521309D01*
X158005179Y-76521310D01*
X157966750Y-76714512D01*
X132834500Y-76714512D01*
X132834500Y-75923367D01*
X158501382Y-75923367D01*
X158501382Y-75923368D01*
X158966750Y-76388736D01*
X158966751Y-76388736D01*
X159432116Y-75923368D01*
X159432116Y-75923367D01*
X159258439Y-75851429D01*
X159065238Y-75813000D01*
X158868262Y-75813000D01*
X158675060Y-75851429D01*
X158675059Y-75851429D01*
X158501382Y-75923367D01*
X132834500Y-75923367D01*
X132834500Y-73659034D01*
X139316000Y-73659034D01*
X139316000Y-73879397D01*
X139350472Y-74097047D01*
X139350473Y-74097050D01*
X139418568Y-74306627D01*
X139518613Y-74502975D01*
X139535176Y-74525774D01*
X139535177Y-74525774D01*
X140136444Y-73924507D01*
X140156889Y-74000807D01*
X140235881Y-74137624D01*
X140347592Y-74249335D01*
X140484409Y-74328327D01*
X140560708Y-74348771D01*
X139959441Y-74950037D01*
X139982243Y-74966604D01*
X140178588Y-75066647D01*
X140388165Y-75134742D01*
X140388168Y-75134743D01*
X140605819Y-75169216D01*
X140826181Y-75169216D01*
X141043831Y-75134743D01*
X141043834Y-75134742D01*
X141253411Y-75066647D01*
X141449760Y-74966602D01*
X141472557Y-74950037D01*
X141472558Y-74950037D01*
X140871291Y-74348771D01*
X140947591Y-74328327D01*
X141084408Y-74249335D01*
X141196119Y-74137624D01*
X141275111Y-74000807D01*
X141295555Y-73924507D01*
X141896821Y-74525774D01*
X141896821Y-74525773D01*
X141913386Y-74502976D01*
X142013431Y-74306627D01*
X142081526Y-74097050D01*
X142081527Y-74097047D01*
X142116000Y-73879397D01*
X142116000Y-73659034D01*
X142081527Y-73441384D01*
X142081526Y-73441381D01*
X142013431Y-73231804D01*
X141913388Y-73035459D01*
X141896821Y-73012657D01*
X141295555Y-73613923D01*
X141275111Y-73537625D01*
X141196119Y-73400808D01*
X141084408Y-73289097D01*
X140947591Y-73210105D01*
X140871289Y-73189660D01*
X141472558Y-72588392D01*
X141449759Y-72571829D01*
X141253411Y-72471784D01*
X141043834Y-72403689D01*
X141043831Y-72403688D01*
X140826181Y-72369216D01*
X140605819Y-72369216D01*
X140388168Y-72403688D01*
X140388165Y-72403689D01*
X140178588Y-72471784D01*
X139982237Y-72571830D01*
X139982233Y-72571832D01*
X139959441Y-72588392D01*
X139959441Y-72588393D01*
X140560708Y-73189660D01*
X140484409Y-73210105D01*
X140347592Y-73289097D01*
X140235881Y-73400808D01*
X140156889Y-73537625D01*
X140136444Y-73613924D01*
X139535177Y-73012657D01*
X139535176Y-73012657D01*
X139518616Y-73035449D01*
X139518614Y-73035453D01*
X139418568Y-73231804D01*
X139350473Y-73441381D01*
X139350472Y-73441384D01*
X139316000Y-73659034D01*
X132834500Y-73659034D01*
X132834500Y-69010000D01*
X132848852Y-68975352D01*
X132883500Y-68961000D01*
X140716000Y-68961000D01*
X140716000Y-61128500D01*
X140730352Y-61093852D01*
X140765000Y-61079500D01*
X244299000Y-61079500D01*
X244333648Y-61093852D01*
G37*
%TD.AperFunction*%
%TD*%
M02*
