M48
; DRILL file {KiCad 9.0.0} date 2025-06-10T08:07:47+0800
; FORMAT={-:-/ absolute / inch / decimal}
; #@! TF.CreationDate,2025-06-10T08:07:47+08:00
; #@! TF.GenerationSoftware,Kicad,Pcbnew,9.0.0
; #@! TF.FileFunction,Plated,1,2,PTH
FMAT,2
INCH
; #@! TA.AperFunction,Plated,PTH,ViaDrill
T1C0.0118
; #@! TA.AperFunction,Plated,PTH,ComponentDrill
T2C0.0118
; #@! TA.AperFunction,Plated,PTH,ComponentDrill
T3C0.0315
; #@! TA.AperFunction,Plated,PTH,ComponentDrill
T4C0.0335
; #@! TA.AperFunction,Plated,PTH,ComponentDrill
T5C0.0394
; #@! TA.AperFunction,Plated,PTH,ComponentDrill
T6C0.0433
; #@! TA.AperFunction,Plated,PTH,ComponentDrill
T7C0.0472
; #@! TA.AperFunction,Plated,PTH,ComponentDrill
T8C0.0512
; #@! TA.AperFunction,Plated,PTH,ComponentDrill
T9C0.0669
%
G90
G05
T1
X5.89Y-3.835
X5.94Y-4.8
X5.965Y-3.315
X6.125Y-3.0
X6.125Y-3.195
X6.19Y-2.76
X6.2585Y-3.97
X6.315Y-3.82
X6.37Y-4.8
X6.415Y-3.17
X6.64Y-4.18
X6.69Y-3.835
X6.8Y-4.8
X7.08Y-4.18
X7.13Y-3.865
X7.165Y-3.015
X7.23Y-4.8
X7.335Y-3.33
X7.51Y-4.18
X7.585Y-3.845
X7.66Y-4.8
X7.94Y-4.18
X7.975Y-3.855
X8.09Y-4.8
X8.36Y-4.18
X8.39Y-3.83
X8.495Y-2.915
X8.52Y-4.8
X8.79Y-4.18
X8.82Y-3.86
X8.865Y-2.9
X8.94Y-3.35
X8.94Y-4.8
X9.22Y-4.18
X9.355Y-3.055
X9.355Y-3.245
X9.37Y-4.8
X9.38Y-2.455
X9.53Y-3.795
X9.64Y-4.18
X9.75Y-4.295
X9.755Y-2.77
X9.87Y-3.855
T2
X5.94Y-3.1283
X5.94Y-3.1716
X5.94Y-3.2228
X5.94Y-3.27
X5.9872Y-3.1283
X5.9872Y-3.1716
X5.9872Y-3.2228
X5.9872Y-3.27
T3
X6.2585Y-3.0241
X6.2585Y-3.1226
T4
X5.38Y-4.315
X5.5808Y-4.3859
T5
X7.155Y-2.555
X7.155Y-3.555
X7.255Y-2.555
X7.255Y-3.555
X7.355Y-2.555
X7.355Y-3.555
X7.455Y-2.555
X7.455Y-3.555
X7.555Y-2.555
X7.555Y-3.555
X7.655Y-2.555
X7.655Y-3.555
X7.755Y-2.555
X7.755Y-3.555
X7.855Y-2.555
X7.855Y-3.555
X7.955Y-2.555
X7.955Y-3.555
X8.055Y-2.555
X8.055Y-3.555
X8.155Y-2.555
X8.155Y-3.555
X8.255Y-2.555
X8.255Y-3.555
X8.355Y-2.555
X8.355Y-3.555
X8.455Y-2.555
X8.455Y-3.555
X8.555Y-2.555
X8.555Y-3.555
X8.655Y-2.555
X8.655Y-3.555
X8.755Y-2.555
X8.755Y-3.555
X8.855Y-2.555
X8.855Y-3.555
X8.955Y-2.555
X8.955Y-3.555
T6
X5.87Y-5.0034
X5.97Y-5.0034
X6.07Y-5.0034
X6.3Y-5.0034
X6.4Y-5.0034
X6.5Y-5.0034
X6.73Y-5.0034
X6.83Y-5.0034
X6.93Y-5.0034
X7.16Y-5.0034
X7.26Y-5.0034
X7.36Y-5.0034
X7.59Y-5.0034
X7.69Y-5.0034
X7.79Y-5.0034
X8.02Y-5.0034
X8.12Y-5.0034
X8.22Y-5.0034
X8.45Y-5.0034
X8.55Y-5.0034
X8.65Y-5.0034
X8.88Y-5.0034
X8.98Y-5.0034
X9.08Y-5.0034
X9.31Y-5.0034
X9.41Y-5.0034
X9.51Y-5.0034
T7
X5.54Y-2.9043
X5.54Y-3.1012
T8
X5.45Y-4.5842
X5.45Y-5.47
X9.6151Y-2.9497
X9.6151Y-3.1466
X9.6151Y-3.3434
X9.6151Y-3.5403
T9
X5.93Y-5.38
X6.23Y-5.38
X6.53Y-5.38
X6.83Y-5.38
X7.13Y-5.38
X7.43Y-5.38
X7.73Y-5.38
X8.03Y-5.38
X8.33Y-5.38
X8.63Y-5.38
X8.93Y-5.38
X9.23Y-5.38
M30
