M48
; DRILL file {KiCad 9.0.0} date 2025-06-18T12:19:48+0800
; FORMAT={-:-/ absolute / inch / decimal}
; #@! TF.CreationDate,2025-06-18T12:19:48+08:00
; #@! TF.GenerationSoftware,Kicad,Pcbnew,9.0.0
; #@! TF.FileFunction,Plated,1,2,PTH
FMAT,2
INCH
; #@! TA.AperFunction,Plated,PTH,ViaDrill
T1C0.0118
; #@! TA.AperFunction,Plated,PTH,ComponentDrill
T2C0.0118
; #@! TA.AperFunction,Plated,PTH,ComponentDrill
T3C0.0315
; #@! TA.AperFunction,Plated,PTH,ComponentDrill
T4C0.0335
; #@! TA.AperFunction,Plated,PTH,ComponentDrill
T5C0.0394
; #@! TA.AperFunction,Plated,PTH,ComponentDrill
T6C0.0433
; #@! TA.AperFunction,Plated,PTH,ComponentDrill
T7C0.0472
; #@! TA.AperFunction,Plated,PTH,ComponentDrill
T8C0.0512
; #@! TA.AperFunction,Plated,PTH,ComponentDrill
T9C0.0669
%
G90
G05
T1
X5.35Y-3.84
X5.89Y-3.835
X5.92Y-2.745
X5.94Y-4.8
X5.965Y-3.5063
X6.125Y-3.1913
X6.125Y-3.3863
X6.2585Y-3.97
X6.37Y-4.8
X6.38Y-2.875
X6.415Y-3.3613
X6.42Y-3.93
X6.64Y-4.18
X6.725Y-3.5
X6.73Y-3.91
X6.755Y-3.685
X6.8Y-4.8
X7.08Y-4.18
X7.11Y-3.915
X7.23Y-4.8
X7.305Y-3.69
X7.51Y-4.18
X7.61Y-3.925
X7.66Y-4.8
X7.725Y-3.015
X7.94Y-4.18
X7.985Y-3.91
X8.09Y-4.8
X8.36Y-4.18
X8.495Y-2.915
X8.5Y-3.925
X8.52Y-4.8
X8.79Y-4.18
X8.915Y-3.925
X8.94Y-3.35
X8.94Y-4.8
X9.22Y-4.18
X9.265Y-3.935
X9.355Y-3.055
X9.355Y-3.245
X9.37Y-4.8
X9.64Y-4.18
X9.75Y-4.295
X9.87Y-3.855
T2
X5.94Y-3.3195
X5.94Y-3.3628
X5.94Y-3.414
X5.94Y-3.4613
X5.9872Y-3.3195
X5.9872Y-3.3628
X5.9872Y-3.414
X5.9872Y-3.4613
T3
X6.2585Y-3.2154
X6.2585Y-3.3138
T4
X5.38Y-4.315
X5.5808Y-4.3859
T5
X7.65Y-2.68
X7.65Y-3.68
X7.75Y-2.68
X7.75Y-3.68
X7.85Y-2.68
X7.85Y-3.68
X7.95Y-2.68
X7.95Y-3.68
X8.05Y-2.68
X8.05Y-3.68
X8.15Y-2.68
X8.15Y-3.68
X8.25Y-2.68
X8.25Y-3.68
X8.35Y-2.68
X8.35Y-3.68
X8.45Y-2.68
X8.45Y-3.68
X8.55Y-2.68
X8.55Y-3.68
X8.65Y-2.68
X8.65Y-3.68
X8.75Y-2.68
X8.75Y-3.68
X8.85Y-2.68
X8.85Y-3.68
X8.95Y-2.68
X8.95Y-3.68
X9.05Y-2.68
X9.05Y-3.68
X9.15Y-2.68
X9.15Y-3.68
X9.25Y-2.68
X9.25Y-3.68
X9.35Y-2.68
X9.35Y-3.68
X9.45Y-2.68
X9.45Y-3.68
T6
X5.87Y-5.0034
X5.97Y-5.0034
X6.07Y-5.0034
X6.3Y-5.0034
X6.4Y-5.0034
X6.5Y-5.0034
X6.73Y-5.0034
X6.83Y-5.0034
X6.93Y-5.0034
X7.16Y-5.0034
X7.26Y-5.0034
X7.36Y-5.0034
X7.59Y-5.0034
X7.69Y-5.0034
X7.79Y-5.0034
X8.02Y-5.0034
X8.12Y-5.0034
X8.22Y-5.0034
X8.45Y-5.0034
X8.55Y-5.0034
X8.65Y-5.0034
X8.88Y-5.0034
X8.98Y-5.0034
X9.08Y-5.0034
X9.31Y-5.0034
X9.41Y-5.0034
X9.51Y-5.0034
T7
X5.54Y-3.0956
X5.54Y-3.2924
T8
X5.45Y-4.5842
X5.45Y-5.47
X6.7422Y-2.8599
X6.9391Y-2.8599
X7.1359Y-2.8599
X7.3328Y-2.8599
T9
X5.93Y-5.38
X6.23Y-5.38
X6.53Y-5.38
X6.83Y-5.38
X7.13Y-5.38
X7.43Y-5.38
X7.73Y-5.38
X8.03Y-5.38
X8.33Y-5.38
X8.63Y-5.38
X8.93Y-5.38
X9.23Y-5.38
M30
