%TF.GenerationSoftware,KiCad,Pcbnew,9.0.0*%
%TF.CreationDate,2025-06-18T12:19:52+08:00*%
%TF.ProjectId,ESPrinkler Retic PCB,45535072-696e-46b6-9c65-722052657469,rev?*%
%TF.SameCoordinates,Original*%
%TF.FileFunction,Paste,Top*%
%TF.FilePolarity,Positive*%
%FSLAX46Y46*%
G04 Gerber Fmt 4.6, Leading zero omitted, Abs format (unit mm)*
G04 Created by KiCad (PCBNEW 9.0.0) date 2025-06-18 12:19:52*
%MOMM*%
%LPD*%
G01*
G04 APERTURE LIST*
G04 Aperture macros list*
%AMRoundRect*
0 Rectangle with rounded corners*
0 $1 Rounding radius*
0 $2 $3 $4 $5 $6 $7 $8 $9 X,Y pos of 4 corners*
0 Add a 4 corners polygon primitive as box body*
4,1,4,$2,$3,$4,$5,$6,$7,$8,$9,$2,$3,0*
0 Add four circle primitives for the rounded corners*
1,1,$1+$1,$2,$3*
1,1,$1+$1,$4,$5*
1,1,$1+$1,$6,$7*
1,1,$1+$1,$8,$9*
0 Add four rect primitives between the rounded corners*
20,1,$1+$1,$2,$3,$4,$5,0*
20,1,$1+$1,$4,$5,$6,$7,0*
20,1,$1+$1,$6,$7,$8,$9,0*
20,1,$1+$1,$8,$9,$2,$3,0*%
G04 Aperture macros list end*
%ADD10RoundRect,0.225000X-0.250000X0.225000X-0.250000X-0.225000X0.250000X-0.225000X0.250000X0.225000X0*%
%ADD11R,1.651000X1.955800*%
%ADD12R,1.524000X1.955800*%
%ADD13RoundRect,0.250000X0.450000X-0.262500X0.450000X0.262500X-0.450000X0.262500X-0.450000X-0.262500X0*%
%ADD14RoundRect,0.250000X-0.450000X0.262500X-0.450000X-0.262500X0.450000X-0.262500X0.450000X0.262500X0*%
%ADD15RoundRect,0.249999X-0.525001X0.800001X-0.525001X-0.800001X0.525001X-0.800001X0.525001X0.800001X0*%
%ADD16RoundRect,0.249999X1.850001X-0.450001X1.850001X0.450001X-1.850001X0.450001X-1.850001X-0.450001X0*%
%ADD17RoundRect,0.250000X0.262500X0.450000X-0.262500X0.450000X-0.262500X-0.450000X0.262500X-0.450000X0*%
%ADD18RoundRect,0.250000X-0.262500X-0.450000X0.262500X-0.450000X0.262500X0.450000X-0.262500X0.450000X0*%
%ADD19RoundRect,0.200000X-0.200000X0.750000X-0.200000X-0.750000X0.200000X-0.750000X0.200000X0.750000X0*%
%ADD20RoundRect,0.250000X-0.650000X1.000000X-0.650000X-1.000000X0.650000X-1.000000X0.650000X1.000000X0*%
%ADD21RoundRect,0.218750X-0.218750X-0.256250X0.218750X-0.256250X0.218750X0.256250X-0.218750X0.256250X0*%
%ADD22RoundRect,0.250000X0.325000X0.650000X-0.325000X0.650000X-0.325000X-0.650000X0.325000X-0.650000X0*%
%ADD23RoundRect,0.200000X0.750000X0.200000X-0.750000X0.200000X-0.750000X-0.200000X0.750000X-0.200000X0*%
%ADD24RoundRect,0.250000X-0.475000X0.250000X-0.475000X-0.250000X0.475000X-0.250000X0.475000X0.250000X0*%
%ADD25RoundRect,0.218750X-0.256250X0.218750X-0.256250X-0.218750X0.256250X-0.218750X0.256250X0.218750X0*%
%ADD26RoundRect,0.200000X0.200000X0.275000X-0.200000X0.275000X-0.200000X-0.275000X0.200000X-0.275000X0*%
%ADD27R,1.550000X0.600000*%
%ADD28R,2.600000X3.100000*%
G04 APERTURE END LIST*
D10*
%TO.C,C13*%
X243332000Y-125450000D03*
X243332000Y-127000000D03*
%TD*%
D11*
%TO.C,U3*%
X165163500Y-109689900D03*
D12*
X162560000Y-109689900D03*
D11*
X159956500Y-109689900D03*
X159956500Y-118910100D03*
D12*
X162560000Y-118910100D03*
D11*
X165163500Y-118910100D03*
%TD*%
D13*
%TO.C,R55*%
X230632000Y-122832500D03*
X230632000Y-121007500D03*
%TD*%
D11*
%TO.C,U8*%
X219773500Y-109689900D03*
D12*
X217170000Y-109689900D03*
D11*
X214566500Y-109689900D03*
X214566500Y-118910100D03*
D12*
X217170000Y-118910100D03*
D11*
X219773500Y-118910100D03*
%TD*%
D14*
%TO.C,R69*%
X209296000Y-101703500D03*
X209296000Y-103528500D03*
%TD*%
D13*
%TO.C,R36*%
X159766000Y-105052500D03*
X159766000Y-103227500D03*
%TD*%
D10*
%TO.C,C12*%
X232410000Y-125463000D03*
X232410000Y-127013000D03*
%TD*%
D14*
%TO.C,R32*%
X187452000Y-105259500D03*
X187452000Y-107084500D03*
%TD*%
%TO.C,R25*%
X146812000Y-125071500D03*
X146812000Y-126896500D03*
%TD*%
D10*
%TO.C,C10*%
X210566000Y-125463000D03*
X210566000Y-127013000D03*
%TD*%
D14*
%TO.C,R57*%
X201422000Y-125071500D03*
X201422000Y-126896500D03*
%TD*%
%TO.C,R43*%
X187452000Y-101703500D03*
X187452000Y-103528500D03*
%TD*%
%TO.C,R40*%
X154686000Y-101703500D03*
X154686000Y-103528500D03*
%TD*%
D10*
%TO.C,C7*%
X177800000Y-125476000D03*
X177800000Y-127026000D03*
%TD*%
D14*
%TO.C,R19*%
X195834000Y-121007500D03*
X195834000Y-122832500D03*
%TD*%
D10*
%TO.C,C8*%
X188722000Y-125463000D03*
X188722000Y-127013000D03*
%TD*%
D15*
%TO.C,D1*%
X144399000Y-98604000D03*
X141859000Y-98604000D03*
X141859000Y-105104000D03*
X144399000Y-105104000D03*
%TD*%
D16*
%TO.C,L2*%
X158748000Y-92157000D03*
X158748000Y-88457000D03*
%TD*%
D17*
%TO.C,R8*%
X188594500Y-82169000D03*
X186769500Y-82169000D03*
%TD*%
D13*
%TO.C,R20*%
X154178000Y-122832500D03*
X154178000Y-121007500D03*
%TD*%
D14*
%TO.C,R29*%
X168656000Y-125071500D03*
X168656000Y-126896500D03*
%TD*%
D17*
%TO.C,R13*%
X183689000Y-124714000D03*
X181864000Y-124714000D03*
%TD*%
%TO.C,R47*%
X227377000Y-124714000D03*
X225552000Y-124714000D03*
%TD*%
D14*
%TO.C,R60*%
X220218000Y-105259500D03*
X220218000Y-107084500D03*
%TD*%
D18*
%TO.C,R7*%
X183086500Y-82169000D03*
X184911500Y-82169000D03*
%TD*%
%TO.C,R2*%
X169648500Y-82169000D03*
X171473500Y-82169000D03*
%TD*%
D14*
%TO.C,R26*%
X154686000Y-105259500D03*
X154686000Y-107084500D03*
%TD*%
D11*
%TO.C,U2*%
X154241500Y-109689900D03*
D12*
X151638000Y-109689900D03*
D11*
X149034500Y-109689900D03*
X149034500Y-118910100D03*
D12*
X151638000Y-118910100D03*
D11*
X154241500Y-118910100D03*
%TD*%
D19*
%TO.C,Q7*%
X196276000Y-103680000D03*
X194376000Y-103680000D03*
X195326000Y-106680000D03*
%TD*%
D14*
%TO.C,R34*%
X198374000Y-105259500D03*
X198374000Y-107084500D03*
%TD*%
D13*
%TO.C,R65*%
X203454000Y-105052500D03*
X203454000Y-103227500D03*
%TD*%
%TO.C,R66*%
X214376000Y-105052500D03*
X214376000Y-103227500D03*
%TD*%
D14*
%TO.C,R70*%
X220218000Y-101703500D03*
X220218000Y-103528500D03*
%TD*%
%TO.C,R51*%
X228600000Y-121007500D03*
X228600000Y-122832500D03*
%TD*%
%TO.C,R33*%
X190500000Y-125071500D03*
X190500000Y-126896500D03*
%TD*%
%TO.C,R15*%
X152146000Y-121007500D03*
X152146000Y-122832500D03*
%TD*%
D11*
%TO.C,U5*%
X187007500Y-109689900D03*
D12*
X184404000Y-109689900D03*
D11*
X181800500Y-109689900D03*
X181800500Y-118910100D03*
D12*
X184404000Y-118910100D03*
D11*
X187007500Y-118910100D03*
%TD*%
D13*
%TO.C,R21*%
X165100000Y-122832500D03*
X165100000Y-121007500D03*
%TD*%
D17*
%TO.C,R12*%
X172767000Y-124714000D03*
X170942000Y-124714000D03*
%TD*%
D19*
%TO.C,Q9*%
X218120000Y-103656000D03*
X216220000Y-103656000D03*
X217170000Y-106656000D03*
%TD*%
D20*
%TO.C,D2*%
X151130000Y-91250000D03*
X151130000Y-95250000D03*
%TD*%
D17*
%TO.C,R14*%
X194611000Y-124714000D03*
X192786000Y-124714000D03*
%TD*%
D14*
%TO.C,R52*%
X239522000Y-121007500D03*
X239522000Y-122832500D03*
%TD*%
D13*
%TO.C,R1*%
X169164000Y-80033500D03*
X169164000Y-78208500D03*
%TD*%
D14*
%TO.C,R18*%
X184912000Y-121007500D03*
X184912000Y-122832500D03*
%TD*%
D10*
%TO.C,C9*%
X199644000Y-125463000D03*
X199644000Y-127013000D03*
%TD*%
D19*
%TO.C,Q3*%
X152588000Y-103656000D03*
X150688000Y-103656000D03*
X151638000Y-106656000D03*
%TD*%
D21*
%TO.C,D12*%
X195554500Y-145034000D03*
X197129500Y-145034000D03*
%TD*%
D13*
%TO.C,R23*%
X186944000Y-122832500D03*
X186944000Y-121007500D03*
%TD*%
D14*
%TO.C,R41*%
X165608000Y-101703500D03*
X165608000Y-103528500D03*
%TD*%
%TO.C,R62*%
X231140000Y-105259500D03*
X231140000Y-107084500D03*
%TD*%
D10*
%TO.C,C5*%
X155956000Y-125463000D03*
X155956000Y-127013000D03*
%TD*%
D13*
%TO.C,R4*%
X182602000Y-80033500D03*
X182602000Y-78208500D03*
%TD*%
D14*
%TO.C,R31*%
X179578000Y-125071500D03*
X179578000Y-126896500D03*
%TD*%
D21*
%TO.C,D19*%
X218414500Y-145034000D03*
X219989500Y-145034000D03*
%TD*%
D16*
%TO.C,L1*%
X142748000Y-94846000D03*
X142748000Y-91146000D03*
%TD*%
D17*
%TO.C,R3*%
X175156500Y-82169000D03*
X173331500Y-82169000D03*
%TD*%
D19*
%TO.C,Q6*%
X185378000Y-103656000D03*
X183478000Y-103656000D03*
X184428000Y-106656000D03*
%TD*%
D11*
%TO.C,U9*%
X230695500Y-109689900D03*
D12*
X228092000Y-109689900D03*
D11*
X225488500Y-109689900D03*
X225488500Y-118910100D03*
D12*
X228092000Y-118910100D03*
D11*
X230695500Y-118910100D03*
%TD*%
D21*
%TO.C,D21*%
X233654500Y-145034000D03*
X235229500Y-145034000D03*
%TD*%
D13*
%TO.C,R67*%
X225298000Y-105052500D03*
X225298000Y-103227500D03*
%TD*%
D22*
%TO.C,C2*%
X138889000Y-90710000D03*
X135939000Y-90710000D03*
%TD*%
D14*
%TO.C,R58*%
X209296000Y-105259500D03*
X209296000Y-107084500D03*
%TD*%
D21*
%TO.C,D18*%
X210794500Y-145034000D03*
X212369500Y-145034000D03*
%TD*%
D23*
%TO.C,Q1*%
X174601000Y-80071000D03*
X174601000Y-78171000D03*
X171601000Y-79121000D03*
%TD*%
D21*
%TO.C,D20*%
X226034500Y-145034000D03*
X227609500Y-145034000D03*
%TD*%
D14*
%TO.C,R42*%
X176530000Y-101703500D03*
X176530000Y-103528500D03*
%TD*%
%TO.C,R61*%
X223266000Y-125071500D03*
X223266000Y-126896500D03*
%TD*%
D19*
%TO.C,Q10*%
X229042000Y-103680000D03*
X227142000Y-103680000D03*
X228092000Y-106680000D03*
%TD*%
D21*
%TO.C,D10*%
X180314500Y-145034000D03*
X181889500Y-145034000D03*
%TD*%
D19*
%TO.C,Q8*%
X207198000Y-103656000D03*
X205298000Y-103656000D03*
X206248000Y-106656000D03*
%TD*%
D24*
%TO.C,C3*%
X154684000Y-90373000D03*
X154684000Y-92273000D03*
%TD*%
D13*
%TO.C,R37*%
X170688000Y-105052500D03*
X170688000Y-103227500D03*
%TD*%
D11*
%TO.C,U6*%
X197929500Y-109689900D03*
D12*
X195326000Y-109689900D03*
D11*
X192722500Y-109689900D03*
X192722500Y-118910100D03*
D12*
X195326000Y-118910100D03*
D11*
X197929500Y-118910100D03*
%TD*%
D17*
%TO.C,R46*%
X216455000Y-124714000D03*
X214630000Y-124714000D03*
%TD*%
D11*
%TO.C,U4*%
X176085500Y-109689900D03*
D12*
X173482000Y-109689900D03*
D11*
X170878500Y-109689900D03*
X170878500Y-118910100D03*
D12*
X173482000Y-118910100D03*
D11*
X176085500Y-118910100D03*
%TD*%
D13*
%TO.C,R53*%
X208788000Y-122832500D03*
X208788000Y-121007500D03*
%TD*%
D10*
%TO.C,C11*%
X221488000Y-125463000D03*
X221488000Y-127013000D03*
%TD*%
D19*
%TO.C,Q5*%
X174432000Y-103656000D03*
X172532000Y-103656000D03*
X173482000Y-106656000D03*
%TD*%
D25*
%TO.C,D3*%
X163030750Y-90561000D03*
X163030750Y-92136000D03*
%TD*%
D14*
%TO.C,R27*%
X157734000Y-125071500D03*
X157734000Y-126896500D03*
%TD*%
%TO.C,R28*%
X165608000Y-105259500D03*
X165608000Y-107084500D03*
%TD*%
D21*
%TO.C,D11*%
X187934500Y-145034000D03*
X189509500Y-145034000D03*
%TD*%
%TO.C,D13*%
X203174500Y-145034000D03*
X204749500Y-145034000D03*
%TD*%
D13*
%TO.C,R35*%
X148844000Y-105052500D03*
X148844000Y-103227500D03*
%TD*%
D11*
%TO.C,U10*%
X241617500Y-109689900D03*
D12*
X239014000Y-109689900D03*
D11*
X236410500Y-109689900D03*
X236410500Y-118910100D03*
D12*
X239014000Y-118910100D03*
D11*
X241617500Y-118910100D03*
%TD*%
D17*
%TO.C,R48*%
X238299000Y-124714000D03*
X236474000Y-124714000D03*
%TD*%
D14*
%TO.C,R50*%
X217678000Y-121007500D03*
X217678000Y-122832500D03*
%TD*%
D13*
%TO.C,R38*%
X181610000Y-105052500D03*
X181610000Y-103227500D03*
%TD*%
D26*
%TO.C,R6*%
X154239000Y-82179000D03*
X152589000Y-82179000D03*
%TD*%
D27*
%TO.C,U1*%
X154176000Y-88021000D03*
X154176000Y-86751000D03*
X154176000Y-85481000D03*
X154176000Y-84211000D03*
X148776000Y-84211000D03*
X148776000Y-85481000D03*
X148776000Y-86751000D03*
X148776000Y-88021000D03*
D28*
X151476000Y-86116000D03*
%TD*%
D13*
%TO.C,R56*%
X241554000Y-122832500D03*
X241554000Y-121007500D03*
%TD*%
D14*
%TO.C,R63*%
X234188000Y-125071500D03*
X234188000Y-126896500D03*
%TD*%
D13*
%TO.C,R59*%
X212344000Y-126896500D03*
X212344000Y-125071500D03*
%TD*%
%TO.C,R22*%
X176022000Y-122832500D03*
X176022000Y-121007500D03*
%TD*%
%TO.C,R39*%
X192532000Y-105052500D03*
X192532000Y-103227500D03*
%TD*%
%TO.C,R54*%
X219710000Y-122832500D03*
X219710000Y-121007500D03*
%TD*%
D14*
%TO.C,R71*%
X231140000Y-101703500D03*
X231140000Y-103528500D03*
%TD*%
%TO.C,R44*%
X198374000Y-101703500D03*
X198374000Y-103528500D03*
%TD*%
D13*
%TO.C,R68*%
X236220000Y-105052500D03*
X236220000Y-103227500D03*
%TD*%
D19*
%TO.C,Q4*%
X163510000Y-103656000D03*
X161610000Y-103656000D03*
X162560000Y-106656000D03*
%TD*%
D14*
%TO.C,R16*%
X163068000Y-121007500D03*
X163068000Y-122832500D03*
%TD*%
%TO.C,R64*%
X242062000Y-105259500D03*
X242062000Y-107084500D03*
%TD*%
D19*
%TO.C,Q11*%
X239964000Y-103656000D03*
X238064000Y-103656000D03*
X239014000Y-106656000D03*
%TD*%
D21*
%TO.C,D9*%
X172694500Y-145034000D03*
X174269500Y-145034000D03*
%TD*%
D14*
%TO.C,R49*%
X206756000Y-121007500D03*
X206756000Y-122832500D03*
%TD*%
D11*
%TO.C,U7*%
X208851500Y-109689900D03*
D12*
X206248000Y-109689900D03*
D11*
X203644500Y-109689900D03*
X203644500Y-118910100D03*
D12*
X206248000Y-118910100D03*
D11*
X208851500Y-118910100D03*
%TD*%
D23*
%TO.C,Q2*%
X188039000Y-80071000D03*
X188039000Y-78171000D03*
X185039000Y-79121000D03*
%TD*%
D10*
%TO.C,C6*%
X166878000Y-125463000D03*
X166878000Y-127013000D03*
%TD*%
D17*
%TO.C,R10*%
X150923000Y-124714000D03*
X149098000Y-124714000D03*
%TD*%
%TO.C,R45*%
X205533000Y-124714000D03*
X203708000Y-124714000D03*
%TD*%
D13*
%TO.C,R24*%
X197866000Y-122832500D03*
X197866000Y-121007500D03*
%TD*%
D14*
%TO.C,R17*%
X173990000Y-121007500D03*
X173990000Y-122832500D03*
%TD*%
D26*
%TO.C,R5*%
X154239000Y-79893000D03*
X152589000Y-79893000D03*
%TD*%
D14*
%TO.C,R30*%
X176530000Y-105259500D03*
X176530000Y-107084500D03*
%TD*%
D13*
%TO.C,R9*%
X163030750Y-88705000D03*
X163030750Y-86880000D03*
%TD*%
D17*
%TO.C,R11*%
X161845000Y-124714000D03*
X160020000Y-124714000D03*
%TD*%
D14*
%TO.C,R72*%
X242062000Y-101703500D03*
X242062000Y-103528500D03*
%TD*%
M02*
