%TF.GenerationSoftware,KiCad,Pcbnew,9.0.0*%
%TF.CreationDate,2025-06-18T12:19:52+08:00*%
%TF.ProjectId,ESPrinkler Retic PCB,45535072-696e-46b6-9c65-722052657469,rev?*%
%TF.SameCoordinates,Original*%
%TF.FileFunction,Other,Comment*%
%FSLAX46Y46*%
G04 Gerber Fmt 4.6, Leading zero omitted, Abs format (unit mm)*
G04 Created by KiCad (PCBNEW 9.0.0) date 2025-06-18 12:19:52*
%MOMM*%
%LPD*%
G01*
G04 APERTURE LIST*
%ADD10C,0.150000*%
%ADD11C,0.100000*%
G04 APERTURE END LIST*
D10*
X190325666Y-153616819D02*
X189754238Y-153616819D01*
X190039952Y-153616819D02*
X190039952Y-152616819D01*
X190039952Y-152616819D02*
X189944714Y-152759676D01*
X189944714Y-152759676D02*
X189849476Y-152854914D01*
X189849476Y-152854914D02*
X189754238Y-152902533D01*
X190706619Y-152712057D02*
X190754238Y-152664438D01*
X190754238Y-152664438D02*
X190849476Y-152616819D01*
X190849476Y-152616819D02*
X191087571Y-152616819D01*
X191087571Y-152616819D02*
X191182809Y-152664438D01*
X191182809Y-152664438D02*
X191230428Y-152712057D01*
X191230428Y-152712057D02*
X191278047Y-152807295D01*
X191278047Y-152807295D02*
X191278047Y-152902533D01*
X191278047Y-152902533D02*
X191230428Y-153045390D01*
X191230428Y-153045390D02*
X190659000Y-153616819D01*
X190659000Y-153616819D02*
X191278047Y-153616819D01*
X191897095Y-152616819D02*
X191992333Y-152616819D01*
X191992333Y-152616819D02*
X192087571Y-152664438D01*
X192087571Y-152664438D02*
X192135190Y-152712057D01*
X192135190Y-152712057D02*
X192182809Y-152807295D01*
X192182809Y-152807295D02*
X192230428Y-152997771D01*
X192230428Y-152997771D02*
X192230428Y-153235866D01*
X192230428Y-153235866D02*
X192182809Y-153426342D01*
X192182809Y-153426342D02*
X192135190Y-153521580D01*
X192135190Y-153521580D02*
X192087571Y-153569200D01*
X192087571Y-153569200D02*
X191992333Y-153616819D01*
X191992333Y-153616819D02*
X191897095Y-153616819D01*
X191897095Y-153616819D02*
X191801857Y-153569200D01*
X191801857Y-153569200D02*
X191754238Y-153521580D01*
X191754238Y-153521580D02*
X191706619Y-153426342D01*
X191706619Y-153426342D02*
X191659000Y-153235866D01*
X191659000Y-153235866D02*
X191659000Y-152997771D01*
X191659000Y-152997771D02*
X191706619Y-152807295D01*
X191706619Y-152807295D02*
X191754238Y-152712057D01*
X191754238Y-152712057D02*
X191801857Y-152664438D01*
X191801857Y-152664438D02*
X191897095Y-152616819D01*
X192659000Y-153521580D02*
X192706619Y-153569200D01*
X192706619Y-153569200D02*
X192659000Y-153616819D01*
X192659000Y-153616819D02*
X192611381Y-153569200D01*
X192611381Y-153569200D02*
X192659000Y-153521580D01*
X192659000Y-153521580D02*
X192659000Y-153616819D01*
X193039952Y-152616819D02*
X193658999Y-152616819D01*
X193658999Y-152616819D02*
X193325666Y-152997771D01*
X193325666Y-152997771D02*
X193468523Y-152997771D01*
X193468523Y-152997771D02*
X193563761Y-153045390D01*
X193563761Y-153045390D02*
X193611380Y-153093009D01*
X193611380Y-153093009D02*
X193658999Y-153188247D01*
X193658999Y-153188247D02*
X193658999Y-153426342D01*
X193658999Y-153426342D02*
X193611380Y-153521580D01*
X193611380Y-153521580D02*
X193563761Y-153569200D01*
X193563761Y-153569200D02*
X193468523Y-153616819D01*
X193468523Y-153616819D02*
X193182809Y-153616819D01*
X193182809Y-153616819D02*
X193087571Y-153569200D01*
X193087571Y-153569200D02*
X193039952Y-153521580D01*
X194135190Y-153616819D02*
X194325666Y-153616819D01*
X194325666Y-153616819D02*
X194420904Y-153569200D01*
X194420904Y-153569200D02*
X194468523Y-153521580D01*
X194468523Y-153521580D02*
X194563761Y-153378723D01*
X194563761Y-153378723D02*
X194611380Y-153188247D01*
X194611380Y-153188247D02*
X194611380Y-152807295D01*
X194611380Y-152807295D02*
X194563761Y-152712057D01*
X194563761Y-152712057D02*
X194516142Y-152664438D01*
X194516142Y-152664438D02*
X194420904Y-152616819D01*
X194420904Y-152616819D02*
X194230428Y-152616819D01*
X194230428Y-152616819D02*
X194135190Y-152664438D01*
X194135190Y-152664438D02*
X194087571Y-152712057D01*
X194087571Y-152712057D02*
X194039952Y-152807295D01*
X194039952Y-152807295D02*
X194039952Y-153045390D01*
X194039952Y-153045390D02*
X194087571Y-153140628D01*
X194087571Y-153140628D02*
X194135190Y-153188247D01*
X194135190Y-153188247D02*
X194230428Y-153235866D01*
X194230428Y-153235866D02*
X194420904Y-153235866D01*
X194420904Y-153235866D02*
X194516142Y-153188247D01*
X194516142Y-153188247D02*
X194563761Y-153140628D01*
X194563761Y-153140628D02*
X194611380Y-153045390D01*
X195468523Y-152616819D02*
X195278047Y-152616819D01*
X195278047Y-152616819D02*
X195182809Y-152664438D01*
X195182809Y-152664438D02*
X195135190Y-152712057D01*
X195135190Y-152712057D02*
X195039952Y-152854914D01*
X195039952Y-152854914D02*
X194992333Y-153045390D01*
X194992333Y-153045390D02*
X194992333Y-153426342D01*
X194992333Y-153426342D02*
X195039952Y-153521580D01*
X195039952Y-153521580D02*
X195087571Y-153569200D01*
X195087571Y-153569200D02*
X195182809Y-153616819D01*
X195182809Y-153616819D02*
X195373285Y-153616819D01*
X195373285Y-153616819D02*
X195468523Y-153569200D01*
X195468523Y-153569200D02*
X195516142Y-153521580D01*
X195516142Y-153521580D02*
X195563761Y-153426342D01*
X195563761Y-153426342D02*
X195563761Y-153188247D01*
X195563761Y-153188247D02*
X195516142Y-153093009D01*
X195516142Y-153093009D02*
X195468523Y-153045390D01*
X195468523Y-153045390D02*
X195373285Y-152997771D01*
X195373285Y-152997771D02*
X195182809Y-152997771D01*
X195182809Y-152997771D02*
X195087571Y-153045390D01*
X195087571Y-153045390D02*
X195039952Y-153093009D01*
X195039952Y-153093009D02*
X194992333Y-153188247D01*
D11*
X132334000Y-150614000D02*
X132334000Y-152732420D01*
X252730000Y-152732420D02*
X252730000Y-150614000D01*
X132334000Y-152146000D02*
X252730000Y-152146000D01*
X132334000Y-152146000D02*
X252730000Y-152146000D01*
X132334000Y-152146000D02*
X133460504Y-151559579D01*
X132334000Y-152146000D02*
X133460504Y-152732421D01*
X252730000Y-152146000D02*
X251603496Y-152732421D01*
X252730000Y-152146000D02*
X251603496Y-151559579D01*
X132334000Y-152146000D02*
X252730000Y-152146000D01*
X132334000Y-152146000D02*
X252730000Y-152146000D01*
X132334000Y-152146000D02*
X133460504Y-151559579D01*
X132334000Y-152146000D02*
X133460504Y-152732421D01*
X252730000Y-152146000D02*
X251603496Y-152732421D01*
X252730000Y-152146000D02*
X251603496Y-151559579D01*
D10*
X129162390Y-109489594D02*
X129114771Y-109584832D01*
X129114771Y-109584832D02*
X129067152Y-109632451D01*
X129067152Y-109632451D02*
X128971914Y-109680070D01*
X128971914Y-109680070D02*
X128924295Y-109680070D01*
X128924295Y-109680070D02*
X128829057Y-109632451D01*
X128829057Y-109632451D02*
X128781438Y-109584832D01*
X128781438Y-109584832D02*
X128733819Y-109489594D01*
X128733819Y-109489594D02*
X128733819Y-109299118D01*
X128733819Y-109299118D02*
X128781438Y-109203880D01*
X128781438Y-109203880D02*
X128829057Y-109156261D01*
X128829057Y-109156261D02*
X128924295Y-109108642D01*
X128924295Y-109108642D02*
X128971914Y-109108642D01*
X128971914Y-109108642D02*
X129067152Y-109156261D01*
X129067152Y-109156261D02*
X129114771Y-109203880D01*
X129114771Y-109203880D02*
X129162390Y-109299118D01*
X129162390Y-109299118D02*
X129162390Y-109489594D01*
X129162390Y-109489594D02*
X129210009Y-109584832D01*
X129210009Y-109584832D02*
X129257628Y-109632451D01*
X129257628Y-109632451D02*
X129352866Y-109680070D01*
X129352866Y-109680070D02*
X129543342Y-109680070D01*
X129543342Y-109680070D02*
X129638580Y-109632451D01*
X129638580Y-109632451D02*
X129686200Y-109584832D01*
X129686200Y-109584832D02*
X129733819Y-109489594D01*
X129733819Y-109489594D02*
X129733819Y-109299118D01*
X129733819Y-109299118D02*
X129686200Y-109203880D01*
X129686200Y-109203880D02*
X129638580Y-109156261D01*
X129638580Y-109156261D02*
X129543342Y-109108642D01*
X129543342Y-109108642D02*
X129352866Y-109108642D01*
X129352866Y-109108642D02*
X129257628Y-109156261D01*
X129257628Y-109156261D02*
X129210009Y-109203880D01*
X129210009Y-109203880D02*
X129162390Y-109299118D01*
X128733819Y-108203880D02*
X128733819Y-108680070D01*
X128733819Y-108680070D02*
X129210009Y-108727689D01*
X129210009Y-108727689D02*
X129162390Y-108680070D01*
X129162390Y-108680070D02*
X129114771Y-108584832D01*
X129114771Y-108584832D02*
X129114771Y-108346737D01*
X129114771Y-108346737D02*
X129162390Y-108251499D01*
X129162390Y-108251499D02*
X129210009Y-108203880D01*
X129210009Y-108203880D02*
X129305247Y-108156261D01*
X129305247Y-108156261D02*
X129543342Y-108156261D01*
X129543342Y-108156261D02*
X129638580Y-108203880D01*
X129638580Y-108203880D02*
X129686200Y-108251499D01*
X129686200Y-108251499D02*
X129733819Y-108346737D01*
X129733819Y-108346737D02*
X129733819Y-108584832D01*
X129733819Y-108584832D02*
X129686200Y-108680070D01*
X129686200Y-108680070D02*
X129638580Y-108727689D01*
X129638580Y-107727689D02*
X129686200Y-107680070D01*
X129686200Y-107680070D02*
X129733819Y-107727689D01*
X129733819Y-107727689D02*
X129686200Y-107775308D01*
X129686200Y-107775308D02*
X129638580Y-107727689D01*
X129638580Y-107727689D02*
X129733819Y-107727689D01*
X128733819Y-107346737D02*
X128733819Y-106680071D01*
X128733819Y-106680071D02*
X129733819Y-107108642D01*
X128829057Y-106346737D02*
X128781438Y-106299118D01*
X128781438Y-106299118D02*
X128733819Y-106203880D01*
X128733819Y-106203880D02*
X128733819Y-105965785D01*
X128733819Y-105965785D02*
X128781438Y-105870547D01*
X128781438Y-105870547D02*
X128829057Y-105822928D01*
X128829057Y-105822928D02*
X128924295Y-105775309D01*
X128924295Y-105775309D02*
X129019533Y-105775309D01*
X129019533Y-105775309D02*
X129162390Y-105822928D01*
X129162390Y-105822928D02*
X129733819Y-106394356D01*
X129733819Y-106394356D02*
X129733819Y-105775309D01*
X128733819Y-104870547D02*
X128733819Y-105346737D01*
X128733819Y-105346737D02*
X129210009Y-105394356D01*
X129210009Y-105394356D02*
X129162390Y-105346737D01*
X129162390Y-105346737D02*
X129114771Y-105251499D01*
X129114771Y-105251499D02*
X129114771Y-105013404D01*
X129114771Y-105013404D02*
X129162390Y-104918166D01*
X129162390Y-104918166D02*
X129210009Y-104870547D01*
X129210009Y-104870547D02*
X129305247Y-104822928D01*
X129305247Y-104822928D02*
X129543342Y-104822928D01*
X129543342Y-104822928D02*
X129638580Y-104870547D01*
X129638580Y-104870547D02*
X129686200Y-104918166D01*
X129686200Y-104918166D02*
X129733819Y-105013404D01*
X129733819Y-105013404D02*
X129733819Y-105251499D01*
X129733819Y-105251499D02*
X129686200Y-105346737D01*
X129686200Y-105346737D02*
X129638580Y-105394356D01*
D11*
X131834000Y-64389000D02*
X129842580Y-64389000D01*
X129842580Y-150114000D02*
X131834000Y-150114000D01*
X130429000Y-64389000D02*
X130429000Y-150114000D01*
X130429000Y-64389000D02*
X130429000Y-150114000D01*
X130429000Y-64389000D02*
X131015421Y-65515504D01*
X130429000Y-64389000D02*
X129842579Y-65515504D01*
X130429000Y-150114000D02*
X129842579Y-148987496D01*
X130429000Y-150114000D02*
X131015421Y-148987496D01*
X130429000Y-64389000D02*
X130429000Y-150114000D01*
X130429000Y-64389000D02*
X130429000Y-150114000D01*
X130429000Y-64389000D02*
X131015421Y-65515504D01*
X130429000Y-64389000D02*
X129842579Y-65515504D01*
X130429000Y-150114000D02*
X129842579Y-148987496D01*
X130429000Y-150114000D02*
X131015421Y-148987496D01*
D10*
%TO.C,REF\u002A\u002A*%
X251912000Y-145796000D02*
G75*
G02*
X244912000Y-145796000I-3500000J0D01*
G01*
X244912000Y-145796000D02*
G75*
G02*
X251912000Y-145796000I3500000J0D01*
G01*
X251912000Y-68707000D02*
G75*
G02*
X244912000Y-68707000I-3500000J0D01*
G01*
X244912000Y-68707000D02*
G75*
G02*
X251912000Y-68707000I3500000J0D01*
G01*
X140152000Y-68707000D02*
G75*
G02*
X133152000Y-68707000I-3500000J0D01*
G01*
X133152000Y-68707000D02*
G75*
G02*
X140152000Y-68707000I3500000J0D01*
G01*
X140152000Y-145796000D02*
G75*
G02*
X133152000Y-145796000I-3500000J0D01*
G01*
X133152000Y-145796000D02*
G75*
G02*
X140152000Y-145796000I3500000J0D01*
G01*
%TD*%
M02*
